<mxfile modified="2022-12-07T22:06:07.541Z" host="app.diagrams.net" agent="5.0 (Windows NT 10.0; Win64; x64) AppleWebKit/537.36 (KHTML, like Gecko) Chrome/108.0.0.0 Safari/537.36" etag="YpYP2UeWjPu4mTyX1emA" version="20.6.0" type="github">
  <diagram id="l8hXMBHkgcEJcSW0mbfh" name="Page-1">
    <mxGraphModel dx="1270" dy="785" grid="1" gridSize="10" guides="1" tooltips="1" connect="1" arrows="1" fold="1" page="1" pageScale="1" pageWidth="4681" pageHeight="3300" math="0" shadow="0">
      <root>
        <mxCell id="0" />
        <mxCell id="1" parent="0" />
        <mxCell id="PUM_M8YaJLtLtkd2Mo2w-19" style="edgeStyle=orthogonalEdgeStyle;rounded=0;orthogonalLoop=1;jettySize=auto;html=1;entryX=0;entryY=0.5;entryDx=0;entryDy=0;entryPerimeter=0;exitX=0.5;exitY=0;exitDx=0;exitDy=0;exitPerimeter=0;" edge="1" parent="1" source="PUM_M8YaJLtLtkd2Mo2w-4" target="PUM_M8YaJLtLtkd2Mo2w-12">
          <mxGeometry relative="1" as="geometry">
            <Array as="points">
              <mxPoint x="348" y="1407" />
            </Array>
          </mxGeometry>
        </mxCell>
        <mxCell id="PUM_M8YaJLtLtkd2Mo2w-22" style="edgeStyle=orthogonalEdgeStyle;rounded=0;orthogonalLoop=1;jettySize=auto;html=1;" edge="1" parent="1" source="PUM_M8YaJLtLtkd2Mo2w-4" target="PUM_M8YaJLtLtkd2Mo2w-6">
          <mxGeometry relative="1" as="geometry" />
        </mxCell>
        <mxCell id="PUM_M8YaJLtLtkd2Mo2w-4" value="key1" style="sketch=0;aspect=fixed;pointerEvents=1;shadow=0;dashed=0;html=1;strokeColor=none;labelPosition=center;verticalLabelPosition=bottom;verticalAlign=top;align=center;fillColor=#00188D;shape=mxgraph.mscae.enterprise.server_generic" vertex="1" parent="1">
          <mxGeometry x="336" y="1540" width="24" height="50" as="geometry" />
        </mxCell>
        <mxCell id="PUM_M8YaJLtLtkd2Mo2w-20" style="edgeStyle=orthogonalEdgeStyle;rounded=0;orthogonalLoop=1;jettySize=auto;html=1;entryX=0.5;entryY=1;entryDx=0;entryDy=0;entryPerimeter=0;" edge="1" parent="1" source="PUM_M8YaJLtLtkd2Mo2w-6" target="PUM_M8YaJLtLtkd2Mo2w-12">
          <mxGeometry relative="1" as="geometry" />
        </mxCell>
        <mxCell id="PUM_M8YaJLtLtkd2Mo2w-23" style="edgeStyle=orthogonalEdgeStyle;rounded=0;orthogonalLoop=1;jettySize=auto;html=1;entryX=0;entryY=0.5;entryDx=0;entryDy=0;entryPerimeter=0;" edge="1" parent="1" source="PUM_M8YaJLtLtkd2Mo2w-6" target="PUM_M8YaJLtLtkd2Mo2w-7">
          <mxGeometry relative="1" as="geometry" />
        </mxCell>
        <mxCell id="PUM_M8YaJLtLtkd2Mo2w-6" value="key2" style="sketch=0;aspect=fixed;pointerEvents=1;shadow=0;dashed=0;html=1;strokeColor=none;labelPosition=center;verticalLabelPosition=bottom;verticalAlign=top;align=center;fillColor=#00188D;shape=mxgraph.mscae.enterprise.server_generic" vertex="1" parent="1">
          <mxGeometry x="565" y="1540" width="24" height="50" as="geometry" />
        </mxCell>
        <mxCell id="PUM_M8YaJLtLtkd2Mo2w-21" style="edgeStyle=orthogonalEdgeStyle;rounded=0;orthogonalLoop=1;jettySize=auto;html=1;entryX=1;entryY=0.5;entryDx=0;entryDy=0;entryPerimeter=0;" edge="1" parent="1" source="PUM_M8YaJLtLtkd2Mo2w-7" target="PUM_M8YaJLtLtkd2Mo2w-12">
          <mxGeometry relative="1" as="geometry">
            <Array as="points">
              <mxPoint x="848" y="1407" />
            </Array>
          </mxGeometry>
        </mxCell>
        <mxCell id="PUM_M8YaJLtLtkd2Mo2w-30" style="edgeStyle=orthogonalEdgeStyle;rounded=0;orthogonalLoop=1;jettySize=auto;html=1;entryX=0;entryY=0.5;entryDx=0;entryDy=0;fontFamily=Helvetica;" edge="1" parent="1" source="PUM_M8YaJLtLtkd2Mo2w-7" target="PUM_M8YaJLtLtkd2Mo2w-27">
          <mxGeometry relative="1" as="geometry" />
        </mxCell>
        <mxCell id="PUM_M8YaJLtLtkd2Mo2w-7" value="key3" style="sketch=0;aspect=fixed;pointerEvents=1;shadow=0;dashed=0;html=1;strokeColor=none;labelPosition=center;verticalLabelPosition=bottom;verticalAlign=top;align=center;fillColor=#00188D;shape=mxgraph.mscae.enterprise.server_generic" vertex="1" parent="1">
          <mxGeometry x="836" y="1540" width="24" height="50" as="geometry" />
        </mxCell>
        <mxCell id="PUM_M8YaJLtLtkd2Mo2w-12" value="" style="sketch=0;aspect=fixed;pointerEvents=1;shadow=0;dashed=0;html=1;strokeColor=none;labelPosition=center;verticalLabelPosition=bottom;verticalAlign=top;align=center;fillColor=#00188D;shape=mxgraph.azure.server" vertex="1" parent="1">
          <mxGeometry x="552" y="1400" width="50" height="15" as="geometry" />
        </mxCell>
        <mxCell id="PUM_M8YaJLtLtkd2Mo2w-28" style="edgeStyle=orthogonalEdgeStyle;rounded=0;orthogonalLoop=1;jettySize=auto;html=1;entryX=0.5;entryY=0;entryDx=0;entryDy=0;entryPerimeter=0;fontFamily=Helvetica;exitX=0.476;exitY=0.03;exitDx=0;exitDy=0;exitPerimeter=0;" edge="1" parent="1" source="PUM_M8YaJLtLtkd2Mo2w-25" target="PUM_M8YaJLtLtkd2Mo2w-12">
          <mxGeometry relative="1" as="geometry">
            <Array as="points">
              <mxPoint x="115" y="1380" />
              <mxPoint x="577" y="1380" />
            </Array>
          </mxGeometry>
        </mxCell>
        <mxCell id="PUM_M8YaJLtLtkd2Mo2w-29" style="edgeStyle=orthogonalEdgeStyle;rounded=0;orthogonalLoop=1;jettySize=auto;html=1;entryX=0;entryY=0.5;entryDx=0;entryDy=0;entryPerimeter=0;fontFamily=Helvetica;" edge="1" parent="1" source="PUM_M8YaJLtLtkd2Mo2w-25" target="PUM_M8YaJLtLtkd2Mo2w-4">
          <mxGeometry relative="1" as="geometry">
            <mxPoint x="252" y="1570" as="sourcePoint" />
          </mxGeometry>
        </mxCell>
        <mxCell id="PUM_M8YaJLtLtkd2Mo2w-25" value="" style="shadow=0;dashed=0;html=1;strokeColor=none;fillColor=#4495D1;labelPosition=center;verticalLabelPosition=bottom;verticalAlign=top;align=center;outlineConnect=0;shape=mxgraph.veeam.2d.user;fontFamily=Helvetica;" vertex="1" parent="1">
          <mxGeometry x="100" y="1536" width="32" height="58" as="geometry" />
        </mxCell>
        <mxCell id="PUM_M8YaJLtLtkd2Mo2w-27" value="" style="aspect=fixed;perimeter=ellipsePerimeter;html=1;align=center;shadow=0;dashed=0;spacingTop=3;image;image=img/lib/active_directory/internet_globe.svg;fontFamily=Helvetica;" vertex="1" parent="1">
          <mxGeometry x="970" y="1540" width="50" height="50" as="geometry" />
        </mxCell>
        <mxCell id="PUM_M8YaJLtLtkd2Mo2w-36" value="register service pk" style="edgeStyle=orthogonalEdgeStyle;rounded=0;orthogonalLoop=1;jettySize=auto;html=1;entryX=0;entryY=0.5;entryDx=0;entryDy=0;entryPerimeter=0;" edge="1" parent="1" source="PUM_M8YaJLtLtkd2Mo2w-37" target="PUM_M8YaJLtLtkd2Mo2w-42">
          <mxGeometry relative="1" as="geometry">
            <Array as="points">
              <mxPoint x="372" y="98" />
            </Array>
          </mxGeometry>
        </mxCell>
        <mxCell id="PUM_M8YaJLtLtkd2Mo2w-37" value="node" style="sketch=0;aspect=fixed;pointerEvents=1;shadow=0;dashed=0;html=1;strokeColor=none;labelPosition=center;verticalLabelPosition=bottom;verticalAlign=top;align=center;fillColor=#00188D;shape=mxgraph.mscae.enterprise.server_generic" vertex="1" parent="1">
          <mxGeometry x="360" y="230" width="24" height="50" as="geometry" />
        </mxCell>
        <mxCell id="PUM_M8YaJLtLtkd2Mo2w-38" value="register service pk" style="edgeStyle=orthogonalEdgeStyle;rounded=0;orthogonalLoop=1;jettySize=auto;html=1;entryX=0.5;entryY=1;entryDx=0;entryDy=0;entryPerimeter=0;" edge="1" parent="1" source="PUM_M8YaJLtLtkd2Mo2w-39" target="PUM_M8YaJLtLtkd2Mo2w-42">
          <mxGeometry relative="1" as="geometry" />
        </mxCell>
        <mxCell id="PUM_M8YaJLtLtkd2Mo2w-39" value="node" style="sketch=0;aspect=fixed;pointerEvents=1;shadow=0;dashed=0;html=1;strokeColor=none;labelPosition=center;verticalLabelPosition=bottom;verticalAlign=top;align=center;fillColor=#00188D;shape=mxgraph.mscae.enterprise.server_generic" vertex="1" parent="1">
          <mxGeometry x="473" y="230" width="24" height="50" as="geometry" />
        </mxCell>
        <mxCell id="PUM_M8YaJLtLtkd2Mo2w-40" value="register service pk" style="edgeStyle=orthogonalEdgeStyle;rounded=0;orthogonalLoop=1;jettySize=auto;html=1;entryX=1;entryY=0.5;entryDx=0;entryDy=0;entryPerimeter=0;" edge="1" parent="1" source="PUM_M8YaJLtLtkd2Mo2w-41" target="PUM_M8YaJLtLtkd2Mo2w-42">
          <mxGeometry relative="1" as="geometry">
            <Array as="points">
              <mxPoint x="590" y="98" />
            </Array>
          </mxGeometry>
        </mxCell>
        <mxCell id="PUM_M8YaJLtLtkd2Mo2w-41" value="node" style="sketch=0;aspect=fixed;pointerEvents=1;shadow=0;dashed=0;html=1;strokeColor=none;labelPosition=center;verticalLabelPosition=bottom;verticalAlign=top;align=center;fillColor=#00188D;shape=mxgraph.mscae.enterprise.server_generic" vertex="1" parent="1">
          <mxGeometry x="580" y="230" width="24" height="50" as="geometry" />
        </mxCell>
        <mxCell id="PUM_M8YaJLtLtkd2Mo2w-42" value="dirctory server" style="sketch=0;aspect=fixed;pointerEvents=1;shadow=0;dashed=0;html=1;strokeColor=none;labelPosition=center;verticalLabelPosition=bottom;verticalAlign=top;align=center;fillColor=#00188D;shape=mxgraph.azure.server" vertex="1" parent="1">
          <mxGeometry x="460" y="90" width="50" height="15" as="geometry" />
        </mxCell>
        <mxCell id="PUM_M8YaJLtLtkd2Mo2w-43" style="edgeStyle=orthogonalEdgeStyle;rounded=0;orthogonalLoop=1;jettySize=auto;html=1;entryX=0;entryY=0.5;entryDx=0;entryDy=0;entryPerimeter=0;" edge="1" parent="1" source="PUM_M8YaJLtLtkd2Mo2w-44" target="PUM_M8YaJLtLtkd2Mo2w-49">
          <mxGeometry relative="1" as="geometry">
            <Array as="points">
              <mxPoint x="432" y="568" />
            </Array>
          </mxGeometry>
        </mxCell>
        <mxCell id="PUM_M8YaJLtLtkd2Mo2w-44" value="" style="sketch=0;aspect=fixed;pointerEvents=1;shadow=0;dashed=0;html=1;strokeColor=none;labelPosition=center;verticalLabelPosition=bottom;verticalAlign=top;align=center;fillColor=#00188D;shape=mxgraph.mscae.enterprise.server_generic" vertex="1" parent="1">
          <mxGeometry x="420" y="700" width="24" height="50" as="geometry" />
        </mxCell>
        <mxCell id="PUM_M8YaJLtLtkd2Mo2w-45" style="edgeStyle=orthogonalEdgeStyle;rounded=0;orthogonalLoop=1;jettySize=auto;html=1;entryX=0.5;entryY=1;entryDx=0;entryDy=0;entryPerimeter=0;" edge="1" parent="1" source="PUM_M8YaJLtLtkd2Mo2w-46" target="PUM_M8YaJLtLtkd2Mo2w-49">
          <mxGeometry relative="1" as="geometry" />
        </mxCell>
        <mxCell id="PUM_M8YaJLtLtkd2Mo2w-46" value="" style="sketch=0;aspect=fixed;pointerEvents=1;shadow=0;dashed=0;html=1;strokeColor=none;labelPosition=center;verticalLabelPosition=bottom;verticalAlign=top;align=center;fillColor=#00188D;shape=mxgraph.mscae.enterprise.server_generic" vertex="1" parent="1">
          <mxGeometry x="533" y="700" width="24" height="50" as="geometry" />
        </mxCell>
        <mxCell id="PUM_M8YaJLtLtkd2Mo2w-47" style="edgeStyle=orthogonalEdgeStyle;rounded=0;orthogonalLoop=1;jettySize=auto;html=1;entryX=1;entryY=0.5;entryDx=0;entryDy=0;entryPerimeter=0;" edge="1" parent="1" source="PUM_M8YaJLtLtkd2Mo2w-48" target="PUM_M8YaJLtLtkd2Mo2w-49">
          <mxGeometry relative="1" as="geometry">
            <Array as="points">
              <mxPoint x="650" y="568" />
            </Array>
          </mxGeometry>
        </mxCell>
        <mxCell id="PUM_M8YaJLtLtkd2Mo2w-48" value="" style="sketch=0;aspect=fixed;pointerEvents=1;shadow=0;dashed=0;html=1;strokeColor=none;labelPosition=center;verticalLabelPosition=bottom;verticalAlign=top;align=center;fillColor=#00188D;shape=mxgraph.mscae.enterprise.server_generic" vertex="1" parent="1">
          <mxGeometry x="640" y="700" width="24" height="50" as="geometry" />
        </mxCell>
        <mxCell id="PUM_M8YaJLtLtkd2Mo2w-49" value="" style="sketch=0;aspect=fixed;pointerEvents=1;shadow=0;dashed=0;html=1;strokeColor=none;labelPosition=center;verticalLabelPosition=bottom;verticalAlign=top;align=center;fillColor=#00188D;shape=mxgraph.azure.server" vertex="1" parent="1">
          <mxGeometry x="520" y="560" width="50" height="15" as="geometry" />
        </mxCell>
        <mxCell id="PUM_M8YaJLtLtkd2Mo2w-53" value="node list retrieving" style="edgeStyle=orthogonalEdgeStyle;rounded=0;orthogonalLoop=1;jettySize=auto;html=1;entryX=0.5;entryY=0;entryDx=0;entryDy=0;entryPerimeter=0;fontFamily=Helvetica;" edge="1" parent="1" source="PUM_M8YaJLtLtkd2Mo2w-52" target="PUM_M8YaJLtLtkd2Mo2w-49">
          <mxGeometry relative="1" as="geometry">
            <Array as="points">
              <mxPoint x="236" y="540" />
              <mxPoint x="545" y="540" />
            </Array>
          </mxGeometry>
        </mxCell>
        <mxCell id="PUM_M8YaJLtLtkd2Mo2w-52" value="" style="shadow=0;dashed=0;html=1;strokeColor=none;fillColor=#4495D1;labelPosition=center;verticalLabelPosition=bottom;verticalAlign=top;align=center;outlineConnect=0;shape=mxgraph.veeam.2d.user;fontFamily=Helvetica;" vertex="1" parent="1">
          <mxGeometry x="220" y="696" width="32" height="58" as="geometry" />
        </mxCell>
        <mxCell id="PUM_M8YaJLtLtkd2Mo2w-57" value="" style="shape=ext;double=1;rounded=1;whiteSpace=wrap;html=1;fontFamily=Helvetica;align=left;" vertex="1" parent="1">
          <mxGeometry x="210" y="840" width="720" height="370" as="geometry" />
        </mxCell>
        <mxCell id="PUM_M8YaJLtLtkd2Mo2w-56" value="" style="rounded=1;whiteSpace=wrap;html=1;fontFamily=Helvetica;align=left;" vertex="1" parent="1">
          <mxGeometry x="300" y="930" width="560" height="230" as="geometry" />
        </mxCell>
        <mxCell id="PUM_M8YaJLtLtkd2Mo2w-55" value="" style="rounded=1;whiteSpace=wrap;html=1;fontFamily=Helvetica;" vertex="1" parent="1">
          <mxGeometry x="384" y="1000" width="456" height="140" as="geometry" />
        </mxCell>
        <mxCell id="PUM_M8YaJLtLtkd2Mo2w-58" value="" style="shape=image;verticalLabelPosition=bottom;labelBackgroundColor=default;verticalAlign=top;aspect=fixed;imageAspect=0;image=data:image/svg+xml,PHN2ZyB4bWxuczp4bGluaz0iaHR0cDovL3d3dy53My5vcmcvMTk5OS94bGluayIgeG1sbnM9Imh0dHA6Ly93d3cudzMub3JnLzIwMDAvc3ZnIiBzdHlsZT0iIiBhcmlhLWhpZGRlbj0idHJ1ZSIgdmlld0JveD0iMCAtNzUwIDEwMjE3IDEwMzcuMiIgaGVpZ2h0PSIyLjM0N2V4IiB3aWR0aD0iMjMuMTE1ZXgiPjxkZWZzPjxwYXRoIGQ9Ik00OTIgMjEzUTQ3MiAyMTMgNDcyIDIyNlE0NzIgMjMwIDQ3NyAyNTBUNDgyIDI4NVE0ODIgMzE2IDQ2MSAzMjNUMzY0IDMzMEgzMTJRMzExIDMyOCAyNzcgMTkyVDI0MyA1MlEyNDMgNDggMjU0IDQ4VDMzNCA0NlE0MjggNDYgNDU4IDQ4VDUxOCA2MVE1NjcgNzcgNTk5IDExN1Q2NzAgMjQ4UTY4MCAyNzAgNjgzIDI3MlE2OTAgMjc0IDY5OCAyNzRRNzE4IDI3NCA3MTggMjYxUTYxMyA3IDYwOCAyUTYwNSAwIDMyMiAwSDEzM1EzMSAwIDMxIDExUTMxIDEzIDM0IDI1UTM4IDQxIDQyIDQzVDY1IDQ2UTkyIDQ2IDEyNSA0OVExMzkgNTIgMTQ0IDYxUTE0NiA2NiAyMTUgMzQyVDI4NSA2MjJRMjg1IDYyOSAyODEgNjI5UTI3MyA2MzIgMjI4IDYzNEgxOTdRMTkxIDY0MCAxOTEgNjQyVDE5MyA2NTlRMTk3IDY3NiAyMDMgNjgwSDc1N1E3NjQgNjc2IDc2NCA2NjlRNzY0IDY2NCA3NTEgNTU3VDczNyA0NDdRNzM1IDQ0MCA3MTcgNDQwSDcwNVE2OTggNDQ1IDY5OCA0NTNMNzAxIDQ3NlE3MDQgNTAwIDcwNCA1MjhRNzA0IDU1OCA2OTcgNTc4VDY3OCA2MDlUNjQzIDYyNVQ1OTYgNjMyVDUzMiA2MzRINDg1UTM5NyA2MzMgMzkyIDYzMVEzODggNjI5IDM4NiA2MjJRMzg1IDYxOSAzNTUgNDk5VDMyNCAzNzdRMzQ3IDM3NiAzNzIgMzc2SDM5OFE0NjQgMzc2IDQ4OSAzOTFUNTM0IDQ3MlE1MzggNDg4IDU0MCA0OTBUNTU3IDQ5M1E1NjIgNDkzIDU2NSA0OTNUNTcwIDQ5MlQ1NzIgNDkxVDU3NCA0ODdUNTc3IDQ4M0w1NDQgMzUxUTUxMSAyMTggNTA4IDIxNlE1MDUgMjEzIDQ5MiAyMTNaIiBpZD0iTUpYLTY4LVRFWC1JLTFENDM4Ii8+PHBhdGggZD0iTTIxIDI4N1EyMiAyOTMgMjQgMzAzVDM2IDM0MVQ1NiAzODhUODkgNDI1VDEzNSA0NDJRMTcxIDQ0MiAxOTUgNDI0VDIyNSAzOTBUMjMxIDM2OVEyMzEgMzY3IDIzMiAzNjdMMjQzIDM3OFEzMDQgNDQyIDM4MiA0NDJRNDM2IDQ0MiA0NjkgNDE1VDUwMyAzMzZUNDY1IDE3OVQ0MjcgNTJRNDI3IDI2IDQ0NCAyNlE0NTAgMjYgNDUzIDI3UTQ4MiAzMiA1MDUgNjVUNTQwIDE0NVE1NDIgMTUzIDU2MCAxNTNRNTgwIDE1MyA1ODAgMTQ1UTU4MCAxNDQgNTc2IDEzMFE1NjggMTAxIDU1NCA3M1Q1MDggMTdUNDM5IC0xMFEzOTIgLTEwIDM3MSAxN1QzNTAgNzNRMzUwIDkyIDM4NiAxOTNUNDIzIDM0NVE0MjMgNDA0IDM3OSA0MDRIMzc0UTI4OCA0MDQgMjI5IDMwM0wyMjIgMjkxTDE4OSAxNTdRMTU2IDI2IDE1MSAxNlExMzggLTExIDEwOCAtMTFROTUgLTExIDg3IC01VDc2IDdUNzQgMTdRNzQgMzAgMTEyIDE4MFQxNTIgMzQzUTE1MyAzNDggMTUzIDM2NlExNTMgNDA1IDEyOSA0MDVROTEgNDA1IDY2IDMwNVE2MCAyODUgNjAgMjg0UTU4IDI3OCA0MSAyNzhIMjdRMjEgMjg0IDIxIDI4N1oiIGlkPSJNSlgtNjgtVEVYLUktMUQ0NUIiLz48cGF0aCBkPSJNMzQgMTU5UTM0IDI2OCAxMjAgMzU1VDMwNiA0NDJRMzYyIDQ0MiAzOTQgNDE4VDQyNyAzNTVRNDI3IDMyNiA0MDggMzA2VDM2MCAyODVRMzQxIDI4NSAzMzAgMjk1VDMxOSAzMjVUMzMwIDM1OVQzNTIgMzgwVDM2NiAzODZIMzY3UTM2NyAzODggMzYxIDM5MlQzNDAgNDAwVDMwNiA0MDRRMjc2IDQwNCAyNDkgMzkwUTIyOCAzODEgMjA2IDM1OVExNjIgMzE1IDE0MiAyMzVUMTIxIDExOVExMjEgNzMgMTQ3IDUwUTE2OSAyNiAyMDUgMjZIMjA5UTMyMSAyNiAzOTQgMTExUTQwMyAxMjEgNDA2IDEyMVE0MTAgMTIxIDQxOSAxMTJUNDI5IDk4VDQyMCA4M1QzOTEgNTVUMzQ2IDI1VDI4MiAwVDIwMiAtMTFRMTI3IC0xMSA4MSAzN1QzNCAxNTlaIiBpZD0iTUpYLTY4LVRFWC1JLTFENDUwIi8+PHBhdGggZD0iTTIzIDI4N1EyNCAyOTAgMjUgMjk1VDMwIDMxN1Q0MCAzNDhUNTUgMzgxVDc1IDQxMVQxMDEgNDMzVDEzNCA0NDJRMjA5IDQ0MiAyMzAgMzc4TDI0MCAzODdRMzAyIDQ0MiAzNTggNDQyUTQyMyA0NDIgNDYwIDM5NVQ0OTcgMjgxUTQ5NyAxNzMgNDIxIDgyVDI0OSAtMTBRMjI3IC0xMCAyMTAgLTRRMTk5IDEgMTg3IDExVDE2OCAyOEwxNjEgMzZRMTYwIDM1IDEzOSAtNTFUMTE4IC0xMzhRMTE4IC0xNDQgMTI2IC0xNDVUMTYzIC0xNDhIMTg4UTE5NCAtMTU1IDE5NCAtMTU3VDE5MSAtMTc1UTE4OCAtMTg3IDE4NSAtMTkwVDE3MiAtMTk0UTE3MCAtMTk0IDE2MSAtMTk0VDEyNyAtMTkzVDY1IC0xOTJRLTUgLTE5MiAtMjQgLTE5NEgtMzJRLTM5IC0xODcgLTM5IC0xODNRLTM3IC0xNTYgLTI2IC0xNDhILTZRMjggLTE0NyAzMyAtMTM2UTM2IC0xMzAgOTQgMTAzVDE1NSAzNTBRMTU2IDM1NSAxNTYgMzY0UTE1NiA0MDUgMTMxIDQwNVExMDkgNDA1IDk0IDM3N1Q3MSAzMTZUNTkgMjgwUTU3IDI3OCA0MyAyNzhIMjlRMjMgMjg0IDIzIDI4N1pNMTc4IDEwMlEyMDAgMjYgMjUyIDI2UTI4MiAyNiAzMTAgNDlUMzU2IDEwN1EzNzQgMTQxIDM5MiAyMTVUNDExIDMyNVYzMzFRNDExIDQwNSAzNTAgNDA1UTMzOSA0MDUgMzI4IDQwMlQzMDYgMzkzVDI4NiAzODBUMjY5IDM2NVQyNTQgMzUwVDI0MyAzMzZUMjM1IDMyNkwyMzIgMzIyUTIzMiAzMjEgMjI5IDMwOFQyMTggMjY0VDIwNCAyMTJRMTc4IDEwNiAxNzggMTAyWiIgaWQ9Ik1KWC02OC1URVgtSS0xRDQ1RCIvPjxwYXRoIGQ9Ik0xMjEgNjQ3UTEyMSA2NTcgMTI1IDY3MFQxMzcgNjgzUTEzOCA2ODMgMjA5IDY4OFQyODIgNjk0UTI5NCA2OTQgMjk0IDY4NlEyOTQgNjc5IDI0NCA0NzdRMTk0IDI3OSAxOTQgMjcyUTIxMyAyODIgMjIzIDI5MVEyNDcgMzA5IDI5MiAzNTRUMzYyIDQxNVE0MDIgNDQyIDQzOCA0NDJRNDY4IDQ0MiA0ODUgNDIzVDUwMyAzNjlRNTAzIDM0NCA0OTYgMzI3VDQ3NyAzMDJUNDU2IDI5MVQ0MzggMjg4UTQxOCAyODggNDA2IDI5OVQzOTQgMzI4UTM5NCAzNTMgNDEwIDM2OVQ0NDIgMzkwTDQ1OCAzOTNRNDQ2IDQwNSA0MzQgNDA1SDQzMFEzOTggNDAyIDM2NyAzODBUMjk0IDMxNlQyMjggMjU1UTIzMCAyNTQgMjQzIDI1MlQyNjcgMjQ2VDI5MyAyMzhUMzIwIDIyNFQzNDIgMjA2VDM1OSAxODBUMzY1IDE0N1EzNjUgMTMwIDM2MCAxMDZUMzU0IDY2UTM1NCAyNiAzODEgMjZRNDI5IDI2IDQ1OSAxNDVRNDYxIDE1MyA0NzkgMTUzSDQ4M1E0OTkgMTUzIDQ5OSAxNDRRNDk5IDEzOSA0OTYgMTMwUTQ1NSAtMTEgMzc4IC0xMVEzMzMgLTExIDMwNSAxNVQyNzcgOTBRMjc3IDEwOCAyODAgMTIxVDI4MyAxNDVRMjgzIDE2NyAyNjkgMTgzVDIzNCAyMDZUMjAwIDIxN1QxODIgMjIwSDE4MFExNjggMTc4IDE1OSAxMzlUMTQ1IDgxVDEzNiA0NFQxMjkgMjBUMTIyIDdUMTExIC0yUTk4IC0xMSA4MyAtMTFRNjYgLTExIDU3IC0xVDQ4IDE2UTQ4IDI2IDg1IDE3NlQxNTggNDcxTDE5NSA2MTZRMTk2IDYyOSAxODggNjMyVDE0OSA2MzdIMTQ0UTEzNCA2MzcgMTMxIDYzN1QxMjQgNjQwVDEyMSA2NDdaIiBpZD0iTUpYLTY4LVRFWC1JLTFENDU4Ii8+PHBhdGggZD0iTTIxMyA1NzhMMjAwIDU3M1ExODYgNTY4IDE2MCA1NjNUMTAyIDU1Nkg4M1Y2MDJIMTAyUTE0OSA2MDQgMTg5IDYxN1QyNDUgNjQxVDI3MyA2NjNRMjc1IDY2NiAyODUgNjY2UTI5NCA2NjYgMzAyIDY2MFYzNjFMMzAzIDYxUTMxMCA1NCAzMTUgNTJUMzM5IDQ4VDQwMSA0Nkg0MjdWMEg0MTZRMzk1IDMgMjU3IDNRMTIxIDMgMTAwIDBIODhWNDZIMTE0UTEzNiA0NiAxNTIgNDZUMTc3IDQ3VDE5MyA1MFQyMDEgNTJUMjA3IDU3VDIxMyA2MVY1NzhaIiBpZD0iTUpYLTY4LVRFWC1OLTMxIi8+PHBhdGggZD0iTTk0IDI1MFE5NCAzMTkgMTA0IDM4MVQxMjcgNDg4VDE2NCA1NzZUMjAyIDY0M1QyNDQgNjk1VDI3NyA3MjlUMzAyIDc1MEgzMTVIMzE5UTMzMyA3NTAgMzMzIDc0MVEzMzMgNzM4IDMxNiA3MjBUMjc1IDY2N1QyMjYgNTgxVDE4NCA0NDNUMTY3IDI1MFQxODQgNThUMjI1IC04MVQyNzQgLTE2N1QzMTYgLTIyMFQzMzMgLTI0MVEzMzMgLTI1MCAzMTggLTI1MEgzMTVIMzAyTDI3NCAtMjI2UTE4MCAtMTQxIDEzNyAtMTRUOTQgMjUwWiIgaWQ9Ik1KWC02OC1URVgtTi0yOCIvPjxwYXRoIGQ9Ik0zOSAxNjhRMzkgMjI1IDU4IDI3MlQxMDcgMzUwVDE3NCA0MDJUMjQ0IDQzM1QzMDcgNDQySDMxMFEzNTUgNDQyIDM4OCA0MjBUNDIxIDM1NVE0MjEgMjY1IDMxMCAyMzdRMjYxIDIyNCAxNzYgMjIzUTEzOSAyMjMgMTM4IDIyMVExMzggMjE5IDEzMiAxODZUMTI1IDEyOFExMjUgODEgMTQ2IDU0VDIwOSAyNlQzMDIgNDVUMzk0IDExMVE0MDMgMTIxIDQwNiAxMjFRNDEwIDEyMSA0MTkgMTEyVDQyOSA5OFQ0MjAgODJUMzkwIDU1VDM0NCAyNFQyODEgLTFUMjA1IC0xMVExMjYgLTExIDgzIDQyVDM5IDE2OFpNMzczIDM1M1EzNjcgNDA1IDMwNSA0MDVRMjcyIDQwNSAyNDQgMzkxVDE5OSAzNTdUMTcwIDMxNlQxNTQgMjgwVDE0OSAyNjFRMTQ5IDI2MCAxNjkgMjYwUTI4MiAyNjAgMzI3IDI4NFQzNzMgMzUzWiIgaWQ9Ik1KWC02OC1URVgtSS0xRDQ1MiIvPjxwYXRoIGQ9Ik0yMSAyODdRMjEgMzAxIDM2IDMzNVQ4NCA0MDZUMTU4IDQ0MlExOTkgNDQyIDIyNCA0MTlUMjUwIDM1NVEyNDggMzM2IDI0NyAzMzRRMjQ3IDMzMSAyMzEgMjg4VDE5OCAxOTFUMTgyIDEwNVExODIgNjIgMTk2IDQ1VDIzOCAyN1EyNjEgMjcgMjgxIDM4VDMxMiA2MVQzMzkgOTRRMzM5IDk1IDM0NCAxMTRUMzU4IDE3M1QzNzcgMjQ3UTQxNSAzOTcgNDE5IDQwNFE0MzIgNDMxIDQ2MiA0MzFRNDc1IDQzMSA0ODMgNDI0VDQ5NCA0MTJUNDk2IDQwM1E0OTYgMzkwIDQ0NyAxOTNUMzkxIC0yM1EzNjMgLTEwNiAyOTQgLTE1NVQxNTYgLTIwNVExMTEgLTIwNSA3NyAtMTgzVDQzIC0xMTdRNDMgLTk1IDUwIC04MFQ2OSAtNThUODkgLTQ4VDEwNiAtNDVRMTUwIC00NSAxNTAgLTg3UTE1MCAtMTA3IDEzOCAtMTIyVDExNSAtMTQyVDEwMiAtMTQ3TDk5IC0xNDhRMTAxIC0xNTMgMTE4IC0xNjBUMTUyIC0xNjdIMTYwUTE3NyAtMTY3IDE4NiAtMTY1UTIxOSAtMTU2IDI0NyAtMTI3VDI5MCAtNjVUMzEzIC05VDMyMSAyMUwzMTUgMTdRMzA5IDEzIDI5NiA2VDI3MCAtNlEyNTAgLTExIDIzMSAtMTFRMTg1IC0xMSAxNTAgMTFUMTA0IDgyUTEwMyA4OSAxMDMgMTEzUTEwMyAxNzAgMTM4IDI2MlQxNzMgMzc5UTE3MyAzODAgMTczIDM4MVExNzMgMzkwIDE3MyAzOTNUMTY5IDQwMFQxNTggNDA0SDE1NFExMzEgNDA0IDExMiAzODVUODIgMzQ0VDY1IDMwMlQ1NyAyODBRNTUgMjc4IDQxIDI3OEgyN1EyMSAyODQgMjEgMjg3WiIgaWQ9Ik1KWC02OC1URVgtSS0xRDQ2NiIvPjxwYXRoIGQ9Ik03OCAzNVQ3OCA2MFQ5NCAxMDNUMTM3IDEyMVExNjUgMTIxIDE4NyA5NlQyMTAgOFEyMTAgLTI3IDIwMSAtNjBUMTgwIC0xMTdUMTU0IC0xNThUMTMwIC0xODVUMTE3IC0xOTRRMTEzIC0xOTQgMTA0IC0xODVUOTUgLTE3MlE5NSAtMTY4IDEwNiAtMTU2VDEzMSAtMTI2VDE1NyAtNzZUMTczIC0zVjlMMTcyIDhRMTcwIDcgMTY3IDZUMTYxIDNUMTUyIDFUMTQwIDBRMTEzIDAgOTYgMTdaIiBpZD0iTUpYLTY4LVRFWC1OLTJDIi8+PHBhdGggZD0iTTE4NCA2MDBRMTg0IDYyNCAyMDMgNjQyVDI0NyA2NjFRMjY1IDY2MSAyNzcgNjQ5VDI5MCA2MTlRMjkwIDU5NiAyNzAgNTc3VDIyNiA1NTdRMjExIDU1NyAxOTggNTY3VDE4NCA2MDBaTTIxIDI4N1EyMSAyOTUgMzAgMzE4VDU0IDM2OVQ5OCA0MjBUMTU4IDQ0MlExOTcgNDQyIDIyMyA0MTlUMjUwIDM1N1EyNTAgMzQwIDIzNiAzMDFUMTk2IDE5NlQxNTQgODNRMTQ5IDYxIDE0OSA1MVExNDkgMjYgMTY2IDI2UTE3NSAyNiAxODUgMjlUMjA4IDQzVDIzNSA3OFQyNjAgMTM3UTI2MyAxNDkgMjY1IDE1MVQyODIgMTUzUTMwMiAxNTMgMzAyIDE0M1EzMDIgMTM1IDI5MyAxMTJUMjY4IDYxVDIyMyAxMVQxNjEgLTExUTEyOSAtMTEgMTAyIDEwVDc0IDc0UTc0IDkxIDc5IDEwNlQxMjIgMjIwUTE2MCAzMjEgMTY2IDM0MVQxNzMgMzgwUTE3MyA0MDQgMTU2IDQwNEgxNTRRMTI0IDQwNCA5OSAzNzFUNjEgMjg3UTYwIDI4NiA1OSAyODRUNTggMjgxVDU2IDI3OVQ1MyAyNzhUNDkgMjc4VDQxIDI3OEgyN1EyMSAyODQgMjEgMjg3WiIgaWQ9Ik1KWC02OC1URVgtSS0xRDQ1NiIvPjxwYXRoIGQ9Ik0xMDkgNDI5UTgyIDQyOSA2NiA0NDdUNTAgNDkxUTUwIDU2MiAxMDMgNjE0VDIzNSA2NjZRMzI2IDY2NiAzODcgNjEwVDQ0OSA0NjVRNDQ5IDQyMiA0MjkgMzgzVDM4MSAzMTVUMzAxIDI0MVEyNjUgMjEwIDIwMSAxNDlMMTQyIDkzTDIxOCA5MlEzNzUgOTIgMzg1IDk3UTM5MiA5OSA0MDkgMTg2VjE4OUg0NDlWMTg2UTQ0OCAxODMgNDM2IDk1VDQyMSAzVjBINTBWMTlWMzFRNTAgMzggNTYgNDZUODYgODFRMTE1IDExMyAxMzYgMTM3UTE0NSAxNDcgMTcwIDE3NFQyMDQgMjExVDIzMyAyNDRUMjYxIDI3OFQyODQgMzA4VDMwNSAzNDBUMzIwIDM2OVQzMzMgNDAxVDM0MCA0MzFUMzQzIDQ2NFEzNDMgNTI3IDMwOSA1NzNUMjEyIDYxOVExNzkgNjE5IDE1NCA2MDJUMTE5IDU2OVQxMDkgNTUwUTEwOSA1NDkgMTE0IDU0OVExMzIgNTQ5IDE1MSA1MzVUMTcwIDQ4OVExNzAgNDY0IDE1NCA0NDdUMTA5IDQyOVoiIGlkPSJNSlgtNjgtVEVYLU4tMzIiLz48cGF0aCBkPSJNMjAxIC0xMVExMjYgLTExIDgwIDM4VDM0IDE1NlEzNCAyMjEgNjQgMjc5VDE0NiAzODBRMjIyIDQ0MSAzMDEgNDQxUTMzMyA0NDEgMzQxIDQ0MFEzNTQgNDM3IDM2NyA0MzNUNDAyIDQxN1Q0MzggMzg3VDQ2NCAzMzhUNDc2IDI2OFE0NzYgMTYxIDM5MCA3NVQyMDEgLTExWk0xMjEgMTIwUTEyMSA3MCAxNDcgNDhUMjA2IDI2UTI1MCAyNiAyODkgNThUMzUxIDE0MlEzNjAgMTYzIDM3NCAyMTZUMzg4IDMwOFEzODggMzUyIDM3MCAzNzVRMzQ2IDQwNSAzMDYgNDA1UTI0MyA0MDUgMTk1IDM0N1ExNTggMzAzIDE0MCAyMzBUMTIxIDEyMFoiIGlkPSJNSlgtNjgtVEVYLUktMUQ0NUMiLz48cGF0aCBkPSJNMjEgMjg3UTIyIDI5MCAyMyAyOTVUMjggMzE3VDM4IDM0OFQ1MyAzODFUNzMgNDExVDk5IDQzM1QxMzIgNDQyUTE2MSA0NDIgMTgzIDQzMFQyMTQgNDA4VDIyNSAzODhRMjI3IDM4MiAyMjggMzgyVDIzNiAzODlRMjg0IDQ0MSAzNDcgNDQxSDM1MFEzOTggNDQxIDQyMiA0MDBRNDMwIDM4MSA0MzAgMzYzUTQzMCAzMzMgNDE3IDMxNVQzOTEgMjkyVDM2NiAyODhRMzQ2IDI4OCAzMzQgMjk5VDMyMiAzMjhRMzIyIDM3NiAzNzggMzkyUTM1NiA0MDUgMzQyIDQwNVEyODYgNDA1IDIzOSAzMzFRMjI5IDMxNSAyMjQgMjk4VDE5MCAxNjVRMTU2IDI1IDE1MSAxNlExMzggLTExIDEwOCAtMTFROTUgLTExIDg3IC01VDc2IDdUNzQgMTdRNzQgMzAgMTE0IDE4OVQxNTQgMzY2UTE1NCA0MDUgMTI4IDQwNVExMDcgNDA1IDkyIDM3N1Q2OCAzMTZUNTcgMjgwUTU1IDI3OCA0MSAyNzhIMjdRMjEgMjg0IDIxIDI4N1oiIGlkPSJNSlgtNjgtVEVYLUktMUQ0NUYiLz48cGF0aCBkPSJNMjYgMzg1UTE5IDM5MiAxOSAzOTVRMTkgMzk5IDIyIDQxMVQyNyA0MjVRMjkgNDMwIDM2IDQzMFQ4NyA0MzFIMTQwTDE1OSA1MTFRMTYyIDUyMiAxNjYgNTQwVDE3MyA1NjZUMTc5IDU4NlQxODcgNjAzVDE5NyA2MTVUMjExIDYyNFQyMjkgNjI2UTI0NyA2MjUgMjU0IDYxNVQyNjEgNTk2UTI2MSA1ODkgMjUyIDU0OVQyMzIgNDcwTDIyMiA0MzNRMjIyIDQzMSAyNzIgNDMxSDMyM1EzMzAgNDI0IDMzMCA0MjBRMzMwIDM5OCAzMTcgMzg1SDIxMEwxNzQgMjQwUTEzNSA4MCAxMzUgNjhRMTM1IDI2IDE2MiAyNlExOTcgMjYgMjMwIDYwVDI4MyAxNDRRMjg1IDE1MCAyODggMTUxVDMwMyAxNTNIMzA3UTMyMiAxNTMgMzIyIDE0NVEzMjIgMTQyIDMxOSAxMzNRMzE0IDExNyAzMDEgOTVUMjY3IDQ4VDIxNiA2VDE1NSAtMTFRMTI1IC0xMSA5OCA0VDU5IDU2UTU3IDY0IDU3IDgzVjEwMUw5MiAyNDFRMTI3IDM4MiAxMjggMzgzUTEyOCAzODUgNzcgMzg1SDI2WiIgaWQ9Ik1KWC02OC1URVgtSS0xRDQ2MSIvPjxwYXRoIGQ9Ik02MCA3NDlMNjQgNzUwUTY5IDc1MCA3NCA3NTBIODZMMTE0IDcyNlEyMDggNjQxIDI1MSA1MTRUMjk0IDI1MFEyOTQgMTgyIDI4NCAxMTlUMjYxIDEyVDIyNCAtNzZUMTg2IC0xNDNUMTQ1IC0xOTRUMTEzIC0yMjdUOTAgLTI0NlE4NyAtMjQ5IDg2IC0yNTBINzRRNjYgLTI1MCA2MyAtMjUwVDU4IC0yNDdUNTUgLTIzOFE1NiAtMjM3IDY2IC0yMjVRMjIxIC02NCAyMjEgMjUwVDY2IDcyNVE1NiA3MzcgNTUgNzM4UTU1IDc0NiA2MCA3NDlaIiBpZD0iTUpYLTY4LVRFWC1OLTI5Ii8+PC9kZWZzPjxnIHRyYW5zZm9ybT0ibWF0cml4KDEgMCAwIC0xIDAgMCkiIHN0cm9rZS13aWR0aD0iMCIgZmlsbD0iY3VycmVudENvbG9yIiBzdHJva2U9ImN1cnJlbnRDb2xvciI+PGcgZGF0YS1tbWwtbm9kZT0ibWF0aCI+PGcgZGF0YS1tbWwtbm9kZT0ibWkiPjx1c2UgeGxpbms6aHJlZj0iI01KWC02OC1URVgtSS0xRDQzOCIvPjwvZz48ZyB0cmFuc2Zvcm09InRyYW5zbGF0ZSg3NjQsIDApIiBkYXRhLW1tbC1ub2RlPSJtaSI+PHVzZSB4bGluazpocmVmPSIjTUpYLTY4LVRFWC1JLTFENDVCIi8+PC9nPjxnIHRyYW5zZm9ybT0idHJhbnNsYXRlKDEzNjQsIDApIiBkYXRhLW1tbC1ub2RlPSJtc3ViIj48ZyBkYXRhLW1tbC1ub2RlPSJtaSI+PHVzZSB4bGluazpocmVmPSIjTUpYLTY4LVRFWC1JLTFENDUwIi8+PC9nPjxnIGRhdGEtbWp4LXRleGNsYXNzPSJPUkQiIHRyYW5zZm9ybT0idHJhbnNsYXRlKDQzMywgLTE1MCkgc2NhbGUoMC43MDcpIiBkYXRhLW1tbC1ub2RlPSJUZVhBdG9tIj48ZyBkYXRhLW1tbC1ub2RlPSJtaSI+PHVzZSB4bGluazpocmVmPSIjTUpYLTY4LVRFWC1JLTFENDVEIi8+PC9nPjxnIHRyYW5zZm9ybT0idHJhbnNsYXRlKDUwMywgMCkiIGRhdGEtbW1sLW5vZGU9Im1pIj48dXNlIHhsaW5rOmhyZWY9IiNNSlgtNjgtVEVYLUktMUQ0NTgiLz48L2c+PGcgdHJhbnNmb3JtPSJ0cmFuc2xhdGUoMTAyNCwgMCkiIGRhdGEtbW1sLW5vZGU9Im1uIj48dXNlIHhsaW5rOmhyZWY9IiNNSlgtNjgtVEVYLU4tMzEiLz48L2c+PC9nPjwvZz48ZyB0cmFuc2Zvcm09InRyYW5zbGF0ZSgyOTI0LjYsIDApIiBkYXRhLW1tbC1ub2RlPSJtbyI+PHVzZSB4bGluazpocmVmPSIjTUpYLTY4LVRFWC1OLTI4Ii8+PC9nPjxnIHRyYW5zZm9ybT0idHJhbnNsYXRlKDMzMTMuNiwgMCkiIGRhdGEtbW1sLW5vZGU9Im1pIj48dXNlIHhsaW5rOmhyZWY9IiNNSlgtNjgtVEVYLUktMUQ0NTgiLz48L2c+PGcgdHJhbnNmb3JtPSJ0cmFuc2xhdGUoMzgzNC42LCAwKSIgZGF0YS1tbWwtbm9kZT0ibWkiPjx1c2UgeGxpbms6aHJlZj0iI01KWC02OC1URVgtSS0xRDQ1MiIvPjwvZz48ZyB0cmFuc2Zvcm09InRyYW5zbGF0ZSg0MzAwLjYsIDApIiBkYXRhLW1tbC1ub2RlPSJtaSI+PHVzZSB4bGluazpocmVmPSIjTUpYLTY4LVRFWC1JLTFENDY2Ii8+PC9nPjxnIHRyYW5zZm9ybT0idHJhbnNsYXRlKDQ3OTAuNiwgMCkiIGRhdGEtbW1sLW5vZGU9Im1uIj48dXNlIHhsaW5rOmhyZWY9IiNNSlgtNjgtVEVYLU4tMzEiLz48L2c+PGcgdHJhbnNmb3JtPSJ0cmFuc2xhdGUoNTI5MC42LCAwKSIgZGF0YS1tbWwtbm9kZT0ibW8iPjx1c2UgeGxpbms6aHJlZj0iI01KWC02OC1URVgtTi0yQyIvPjwvZz48ZyB0cmFuc2Zvcm09InRyYW5zbGF0ZSg1NzM1LjMsIDApIiBkYXRhLW1tbC1ub2RlPSJtaSI+PHVzZSB4bGluazpocmVmPSIjTUpYLTY4LVRFWC1JLTFENDU2Ii8+PC9nPjxnIHRyYW5zZm9ybT0idHJhbnNsYXRlKDYwODAuMywgMCkiIGRhdGEtbW1sLW5vZGU9Im1pIj48dXNlIHhsaW5rOmhyZWY9IiNNSlgtNjgtVEVYLUktMUQ0NUQiLz48L2c+PGcgdHJhbnNmb3JtPSJ0cmFuc2xhdGUoNjU4My4zLCAwKSIgZGF0YS1tbWwtbm9kZT0ibW4iPjx1c2UgeGxpbms6aHJlZj0iI01KWC02OC1URVgtTi0zMiIvPjwvZz48ZyB0cmFuc2Zvcm09InRyYW5zbGF0ZSg3MDgzLjMsIDApIiBkYXRhLW1tbC1ub2RlPSJtbyI+PHVzZSB4bGluazpocmVmPSIjTUpYLTY4LVRFWC1OLTJDIi8+PC9nPjxnIHRyYW5zZm9ybT0idHJhbnNsYXRlKDc1MjgsIDApIiBkYXRhLW1tbC1ub2RlPSJtaSI+PHVzZSB4bGluazpocmVmPSIjTUpYLTY4LVRFWC1JLTFENDVEIi8+PC9nPjxnIHRyYW5zZm9ybT0idHJhbnNsYXRlKDgwMzEsIDApIiBkYXRhLW1tbC1ub2RlPSJtaSI+PHVzZSB4bGluazpocmVmPSIjTUpYLTY4LVRFWC1JLTFENDVDIi8+PC9nPjxnIHRyYW5zZm9ybT0idHJhbnNsYXRlKDg1MTYsIDApIiBkYXRhLW1tbC1ub2RlPSJtaSI+PHVzZSB4bGluazpocmVmPSIjTUpYLTY4LVRFWC1JLTFENDVGIi8+PC9nPjxnIHRyYW5zZm9ybT0idHJhbnNsYXRlKDg5NjcsIDApIiBkYXRhLW1tbC1ub2RlPSJtaSI+PHVzZSB4bGluazpocmVmPSIjTUpYLTY4LVRFWC1JLTFENDYxIi8+PC9nPjxnIHRyYW5zZm9ybT0idHJhbnNsYXRlKDkzMjgsIDApIiBkYXRhLW1tbC1ub2RlPSJtbiI+PHVzZSB4bGluazpocmVmPSIjTUpYLTY4LVRFWC1OLTMyIi8+PC9nPjxnIHRyYW5zZm9ybT0idHJhbnNsYXRlKDk4MjgsIDApIiBkYXRhLW1tbC1ub2RlPSJtbyI+PHVzZSB4bGluazpocmVmPSIjTUpYLTY4LVRFWC1OLTI5Ii8+PC9nPjwvZz48L2c+PC9zdmc+;" vertex="1" parent="1">
          <mxGeometry width="23" height="2" as="geometry" />
        </mxCell>
        <mxCell id="PUM_M8YaJLtLtkd2Mo2w-59" value="" style="shape=image;verticalLabelPosition=bottom;labelBackgroundColor=default;verticalAlign=top;aspect=fixed;imageAspect=0;image=data:image/svg+xml,PHN2ZyB4bWxuczp4bGluaz0iaHR0cDovL3d3dy53My5vcmcvMTk5OS94bGluayIgeG1sbnM9Imh0dHA6Ly93d3cudzMub3JnLzIwMDAvc3ZnIiBzdHlsZT0iIiBhcmlhLWhpZGRlbj0idHJ1ZSIgdmlld0JveD0iMCAtNzUwIDEwMjE3IDEwMzcuMiIgaGVpZ2h0PSIyLjM0N2V4IiB3aWR0aD0iMjMuMTE1ZXgiPjxkZWZzPjxwYXRoIGQ9Ik00OTIgMjEzUTQ3MiAyMTMgNDcyIDIyNlE0NzIgMjMwIDQ3NyAyNTBUNDgyIDI4NVE0ODIgMzE2IDQ2MSAzMjNUMzY0IDMzMEgzMTJRMzExIDMyOCAyNzcgMTkyVDI0MyA1MlEyNDMgNDggMjU0IDQ4VDMzNCA0NlE0MjggNDYgNDU4IDQ4VDUxOCA2MVE1NjcgNzcgNTk5IDExN1Q2NzAgMjQ4UTY4MCAyNzAgNjgzIDI3MlE2OTAgMjc0IDY5OCAyNzRRNzE4IDI3NCA3MTggMjYxUTYxMyA3IDYwOCAyUTYwNSAwIDMyMiAwSDEzM1EzMSAwIDMxIDExUTMxIDEzIDM0IDI1UTM4IDQxIDQyIDQzVDY1IDQ2UTkyIDQ2IDEyNSA0OVExMzkgNTIgMTQ0IDYxUTE0NiA2NiAyMTUgMzQyVDI4NSA2MjJRMjg1IDYyOSAyODEgNjI5UTI3MyA2MzIgMjI4IDYzNEgxOTdRMTkxIDY0MCAxOTEgNjQyVDE5MyA2NTlRMTk3IDY3NiAyMDMgNjgwSDc1N1E3NjQgNjc2IDc2NCA2NjlRNzY0IDY2NCA3NTEgNTU3VDczNyA0NDdRNzM1IDQ0MCA3MTcgNDQwSDcwNVE2OTggNDQ1IDY5OCA0NTNMNzAxIDQ3NlE3MDQgNTAwIDcwNCA1MjhRNzA0IDU1OCA2OTcgNTc4VDY3OCA2MDlUNjQzIDYyNVQ1OTYgNjMyVDUzMiA2MzRINDg1UTM5NyA2MzMgMzkyIDYzMVEzODggNjI5IDM4NiA2MjJRMzg1IDYxOSAzNTUgNDk5VDMyNCAzNzdRMzQ3IDM3NiAzNzIgMzc2SDM5OFE0NjQgMzc2IDQ4OSAzOTFUNTM0IDQ3MlE1MzggNDg4IDU0MCA0OTBUNTU3IDQ5M1E1NjIgNDkzIDU2NSA0OTNUNTcwIDQ5MlQ1NzIgNDkxVDU3NCA0ODdUNTc3IDQ4M0w1NDQgMzUxUTUxMSAyMTggNTA4IDIxNlE1MDUgMjEzIDQ5MiAyMTNaIiBpZD0iTUpYLTY4LVRFWC1JLTFENDM4Ii8+PHBhdGggZD0iTTIxIDI4N1EyMiAyOTMgMjQgMzAzVDM2IDM0MVQ1NiAzODhUODkgNDI1VDEzNSA0NDJRMTcxIDQ0MiAxOTUgNDI0VDIyNSAzOTBUMjMxIDM2OVEyMzEgMzY3IDIzMiAzNjdMMjQzIDM3OFEzMDQgNDQyIDM4MiA0NDJRNDM2IDQ0MiA0NjkgNDE1VDUwMyAzMzZUNDY1IDE3OVQ0MjcgNTJRNDI3IDI2IDQ0NCAyNlE0NTAgMjYgNDUzIDI3UTQ4MiAzMiA1MDUgNjVUNTQwIDE0NVE1NDIgMTUzIDU2MCAxNTNRNTgwIDE1MyA1ODAgMTQ1UTU4MCAxNDQgNTc2IDEzMFE1NjggMTAxIDU1NCA3M1Q1MDggMTdUNDM5IC0xMFEzOTIgLTEwIDM3MSAxN1QzNTAgNzNRMzUwIDkyIDM4NiAxOTNUNDIzIDM0NVE0MjMgNDA0IDM3OSA0MDRIMzc0UTI4OCA0MDQgMjI5IDMwM0wyMjIgMjkxTDE4OSAxNTdRMTU2IDI2IDE1MSAxNlExMzggLTExIDEwOCAtMTFROTUgLTExIDg3IC01VDc2IDdUNzQgMTdRNzQgMzAgMTEyIDE4MFQxNTIgMzQzUTE1MyAzNDggMTUzIDM2NlExNTMgNDA1IDEyOSA0MDVROTEgNDA1IDY2IDMwNVE2MCAyODUgNjAgMjg0UTU4IDI3OCA0MSAyNzhIMjdRMjEgMjg0IDIxIDI4N1oiIGlkPSJNSlgtNjgtVEVYLUktMUQ0NUIiLz48cGF0aCBkPSJNMzQgMTU5UTM0IDI2OCAxMjAgMzU1VDMwNiA0NDJRMzYyIDQ0MiAzOTQgNDE4VDQyNyAzNTVRNDI3IDMyNiA0MDggMzA2VDM2MCAyODVRMzQxIDI4NSAzMzAgMjk1VDMxOSAzMjVUMzMwIDM1OVQzNTIgMzgwVDM2NiAzODZIMzY3UTM2NyAzODggMzYxIDM5MlQzNDAgNDAwVDMwNiA0MDRRMjc2IDQwNCAyNDkgMzkwUTIyOCAzODEgMjA2IDM1OVExNjIgMzE1IDE0MiAyMzVUMTIxIDExOVExMjEgNzMgMTQ3IDUwUTE2OSAyNiAyMDUgMjZIMjA5UTMyMSAyNiAzOTQgMTExUTQwMyAxMjEgNDA2IDEyMVE0MTAgMTIxIDQxOSAxMTJUNDI5IDk4VDQyMCA4M1QzOTEgNTVUMzQ2IDI1VDI4MiAwVDIwMiAtMTFRMTI3IC0xMSA4MSAzN1QzNCAxNTlaIiBpZD0iTUpYLTY4LVRFWC1JLTFENDUwIi8+PHBhdGggZD0iTTIzIDI4N1EyNCAyOTAgMjUgMjk1VDMwIDMxN1Q0MCAzNDhUNTUgMzgxVDc1IDQxMVQxMDEgNDMzVDEzNCA0NDJRMjA5IDQ0MiAyMzAgMzc4TDI0MCAzODdRMzAyIDQ0MiAzNTggNDQyUTQyMyA0NDIgNDYwIDM5NVQ0OTcgMjgxUTQ5NyAxNzMgNDIxIDgyVDI0OSAtMTBRMjI3IC0xMCAyMTAgLTRRMTk5IDEgMTg3IDExVDE2OCAyOEwxNjEgMzZRMTYwIDM1IDEzOSAtNTFUMTE4IC0xMzhRMTE4IC0xNDQgMTI2IC0xNDVUMTYzIC0xNDhIMTg4UTE5NCAtMTU1IDE5NCAtMTU3VDE5MSAtMTc1UTE4OCAtMTg3IDE4NSAtMTkwVDE3MiAtMTk0UTE3MCAtMTk0IDE2MSAtMTk0VDEyNyAtMTkzVDY1IC0xOTJRLTUgLTE5MiAtMjQgLTE5NEgtMzJRLTM5IC0xODcgLTM5IC0xODNRLTM3IC0xNTYgLTI2IC0xNDhILTZRMjggLTE0NyAzMyAtMTM2UTM2IC0xMzAgOTQgMTAzVDE1NSAzNTBRMTU2IDM1NSAxNTYgMzY0UTE1NiA0MDUgMTMxIDQwNVExMDkgNDA1IDk0IDM3N1Q3MSAzMTZUNTkgMjgwUTU3IDI3OCA0MyAyNzhIMjlRMjMgMjg0IDIzIDI4N1pNMTc4IDEwMlEyMDAgMjYgMjUyIDI2UTI4MiAyNiAzMTAgNDlUMzU2IDEwN1EzNzQgMTQxIDM5MiAyMTVUNDExIDMyNVYzMzFRNDExIDQwNSAzNTAgNDA1UTMzOSA0MDUgMzI4IDQwMlQzMDYgMzkzVDI4NiAzODBUMjY5IDM2NVQyNTQgMzUwVDI0MyAzMzZUMjM1IDMyNkwyMzIgMzIyUTIzMiAzMjEgMjI5IDMwOFQyMTggMjY0VDIwNCAyMTJRMTc4IDEwNiAxNzggMTAyWiIgaWQ9Ik1KWC02OC1URVgtSS0xRDQ1RCIvPjxwYXRoIGQ9Ik0xMjEgNjQ3UTEyMSA2NTcgMTI1IDY3MFQxMzcgNjgzUTEzOCA2ODMgMjA5IDY4OFQyODIgNjk0UTI5NCA2OTQgMjk0IDY4NlEyOTQgNjc5IDI0NCA0NzdRMTk0IDI3OSAxOTQgMjcyUTIxMyAyODIgMjIzIDI5MVEyNDcgMzA5IDI5MiAzNTRUMzYyIDQxNVE0MDIgNDQyIDQzOCA0NDJRNDY4IDQ0MiA0ODUgNDIzVDUwMyAzNjlRNTAzIDM0NCA0OTYgMzI3VDQ3NyAzMDJUNDU2IDI5MVQ0MzggMjg4UTQxOCAyODggNDA2IDI5OVQzOTQgMzI4UTM5NCAzNTMgNDEwIDM2OVQ0NDIgMzkwTDQ1OCAzOTNRNDQ2IDQwNSA0MzQgNDA1SDQzMFEzOTggNDAyIDM2NyAzODBUMjk0IDMxNlQyMjggMjU1UTIzMCAyNTQgMjQzIDI1MlQyNjcgMjQ2VDI5MyAyMzhUMzIwIDIyNFQzNDIgMjA2VDM1OSAxODBUMzY1IDE0N1EzNjUgMTMwIDM2MCAxMDZUMzU0IDY2UTM1NCAyNiAzODEgMjZRNDI5IDI2IDQ1OSAxNDVRNDYxIDE1MyA0NzkgMTUzSDQ4M1E0OTkgMTUzIDQ5OSAxNDRRNDk5IDEzOSA0OTYgMTMwUTQ1NSAtMTEgMzc4IC0xMVEzMzMgLTExIDMwNSAxNVQyNzcgOTBRMjc3IDEwOCAyODAgMTIxVDI4MyAxNDVRMjgzIDE2NyAyNjkgMTgzVDIzNCAyMDZUMjAwIDIxN1QxODIgMjIwSDE4MFExNjggMTc4IDE1OSAxMzlUMTQ1IDgxVDEzNiA0NFQxMjkgMjBUMTIyIDdUMTExIC0yUTk4IC0xMSA4MyAtMTFRNjYgLTExIDU3IC0xVDQ4IDE2UTQ4IDI2IDg1IDE3NlQxNTggNDcxTDE5NSA2MTZRMTk2IDYyOSAxODggNjMyVDE0OSA2MzdIMTQ0UTEzNCA2MzcgMTMxIDYzN1QxMjQgNjQwVDEyMSA2NDdaIiBpZD0iTUpYLTY4LVRFWC1JLTFENDU4Ii8+PHBhdGggZD0iTTIxMyA1NzhMMjAwIDU3M1ExODYgNTY4IDE2MCA1NjNUMTAyIDU1Nkg4M1Y2MDJIMTAyUTE0OSA2MDQgMTg5IDYxN1QyNDUgNjQxVDI3MyA2NjNRMjc1IDY2NiAyODUgNjY2UTI5NCA2NjYgMzAyIDY2MFYzNjFMMzAzIDYxUTMxMCA1NCAzMTUgNTJUMzM5IDQ4VDQwMSA0Nkg0MjdWMEg0MTZRMzk1IDMgMjU3IDNRMTIxIDMgMTAwIDBIODhWNDZIMTE0UTEzNiA0NiAxNTIgNDZUMTc3IDQ3VDE5MyA1MFQyMDEgNTJUMjA3IDU3VDIxMyA2MVY1NzhaIiBpZD0iTUpYLTY4LVRFWC1OLTMxIi8+PHBhdGggZD0iTTk0IDI1MFE5NCAzMTkgMTA0IDM4MVQxMjcgNDg4VDE2NCA1NzZUMjAyIDY0M1QyNDQgNjk1VDI3NyA3MjlUMzAyIDc1MEgzMTVIMzE5UTMzMyA3NTAgMzMzIDc0MVEzMzMgNzM4IDMxNiA3MjBUMjc1IDY2N1QyMjYgNTgxVDE4NCA0NDNUMTY3IDI1MFQxODQgNThUMjI1IC04MVQyNzQgLTE2N1QzMTYgLTIyMFQzMzMgLTI0MVEzMzMgLTI1MCAzMTggLTI1MEgzMTVIMzAyTDI3NCAtMjI2UTE4MCAtMTQxIDEzNyAtMTRUOTQgMjUwWiIgaWQ9Ik1KWC02OC1URVgtTi0yOCIvPjxwYXRoIGQ9Ik0zOSAxNjhRMzkgMjI1IDU4IDI3MlQxMDcgMzUwVDE3NCA0MDJUMjQ0IDQzM1QzMDcgNDQySDMxMFEzNTUgNDQyIDM4OCA0MjBUNDIxIDM1NVE0MjEgMjY1IDMxMCAyMzdRMjYxIDIyNCAxNzYgMjIzUTEzOSAyMjMgMTM4IDIyMVExMzggMjE5IDEzMiAxODZUMTI1IDEyOFExMjUgODEgMTQ2IDU0VDIwOSAyNlQzMDIgNDVUMzk0IDExMVE0MDMgMTIxIDQwNiAxMjFRNDEwIDEyMSA0MTkgMTEyVDQyOSA5OFQ0MjAgODJUMzkwIDU1VDM0NCAyNFQyODEgLTFUMjA1IC0xMVExMjYgLTExIDgzIDQyVDM5IDE2OFpNMzczIDM1M1EzNjcgNDA1IDMwNSA0MDVRMjcyIDQwNSAyNDQgMzkxVDE5OSAzNTdUMTcwIDMxNlQxNTQgMjgwVDE0OSAyNjFRMTQ5IDI2MCAxNjkgMjYwUTI4MiAyNjAgMzI3IDI4NFQzNzMgMzUzWiIgaWQ9Ik1KWC02OC1URVgtSS0xRDQ1MiIvPjxwYXRoIGQ9Ik0yMSAyODdRMjEgMzAxIDM2IDMzNVQ4NCA0MDZUMTU4IDQ0MlExOTkgNDQyIDIyNCA0MTlUMjUwIDM1NVEyNDggMzM2IDI0NyAzMzRRMjQ3IDMzMSAyMzEgMjg4VDE5OCAxOTFUMTgyIDEwNVExODIgNjIgMTk2IDQ1VDIzOCAyN1EyNjEgMjcgMjgxIDM4VDMxMiA2MVQzMzkgOTRRMzM5IDk1IDM0NCAxMTRUMzU4IDE3M1QzNzcgMjQ3UTQxNSAzOTcgNDE5IDQwNFE0MzIgNDMxIDQ2MiA0MzFRNDc1IDQzMSA0ODMgNDI0VDQ5NCA0MTJUNDk2IDQwM1E0OTYgMzkwIDQ0NyAxOTNUMzkxIC0yM1EzNjMgLTEwNiAyOTQgLTE1NVQxNTYgLTIwNVExMTEgLTIwNSA3NyAtMTgzVDQzIC0xMTdRNDMgLTk1IDUwIC04MFQ2OSAtNThUODkgLTQ4VDEwNiAtNDVRMTUwIC00NSAxNTAgLTg3UTE1MCAtMTA3IDEzOCAtMTIyVDExNSAtMTQyVDEwMiAtMTQ3TDk5IC0xNDhRMTAxIC0xNTMgMTE4IC0xNjBUMTUyIC0xNjdIMTYwUTE3NyAtMTY3IDE4NiAtMTY1UTIxOSAtMTU2IDI0NyAtMTI3VDI5MCAtNjVUMzEzIC05VDMyMSAyMUwzMTUgMTdRMzA5IDEzIDI5NiA2VDI3MCAtNlEyNTAgLTExIDIzMSAtMTFRMTg1IC0xMSAxNTAgMTFUMTA0IDgyUTEwMyA4OSAxMDMgMTEzUTEwMyAxNzAgMTM4IDI2MlQxNzMgMzc5UTE3MyAzODAgMTczIDM4MVExNzMgMzkwIDE3MyAzOTNUMTY5IDQwMFQxNTggNDA0SDE1NFExMzEgNDA0IDExMiAzODVUODIgMzQ0VDY1IDMwMlQ1NyAyODBRNTUgMjc4IDQxIDI3OEgyN1EyMSAyODQgMjEgMjg3WiIgaWQ9Ik1KWC02OC1URVgtSS0xRDQ2NiIvPjxwYXRoIGQ9Ik03OCAzNVQ3OCA2MFQ5NCAxMDNUMTM3IDEyMVExNjUgMTIxIDE4NyA5NlQyMTAgOFEyMTAgLTI3IDIwMSAtNjBUMTgwIC0xMTdUMTU0IC0xNThUMTMwIC0xODVUMTE3IC0xOTRRMTEzIC0xOTQgMTA0IC0xODVUOTUgLTE3MlE5NSAtMTY4IDEwNiAtMTU2VDEzMSAtMTI2VDE1NyAtNzZUMTczIC0zVjlMMTcyIDhRMTcwIDcgMTY3IDZUMTYxIDNUMTUyIDFUMTQwIDBRMTEzIDAgOTYgMTdaIiBpZD0iTUpYLTY4LVRFWC1OLTJDIi8+PHBhdGggZD0iTTE4NCA2MDBRMTg0IDYyNCAyMDMgNjQyVDI0NyA2NjFRMjY1IDY2MSAyNzcgNjQ5VDI5MCA2MTlRMjkwIDU5NiAyNzAgNTc3VDIyNiA1NTdRMjExIDU1NyAxOTggNTY3VDE4NCA2MDBaTTIxIDI4N1EyMSAyOTUgMzAgMzE4VDU0IDM2OVQ5OCA0MjBUMTU4IDQ0MlExOTcgNDQyIDIyMyA0MTlUMjUwIDM1N1EyNTAgMzQwIDIzNiAzMDFUMTk2IDE5NlQxNTQgODNRMTQ5IDYxIDE0OSA1MVExNDkgMjYgMTY2IDI2UTE3NSAyNiAxODUgMjlUMjA4IDQzVDIzNSA3OFQyNjAgMTM3UTI2MyAxNDkgMjY1IDE1MVQyODIgMTUzUTMwMiAxNTMgMzAyIDE0M1EzMDIgMTM1IDI5MyAxMTJUMjY4IDYxVDIyMyAxMVQxNjEgLTExUTEyOSAtMTEgMTAyIDEwVDc0IDc0UTc0IDkxIDc5IDEwNlQxMjIgMjIwUTE2MCAzMjEgMTY2IDM0MVQxNzMgMzgwUTE3MyA0MDQgMTU2IDQwNEgxNTRRMTI0IDQwNCA5OSAzNzFUNjEgMjg3UTYwIDI4NiA1OSAyODRUNTggMjgxVDU2IDI3OVQ1MyAyNzhUNDkgMjc4VDQxIDI3OEgyN1EyMSAyODQgMjEgMjg3WiIgaWQ9Ik1KWC02OC1URVgtSS0xRDQ1NiIvPjxwYXRoIGQ9Ik0xMDkgNDI5UTgyIDQyOSA2NiA0NDdUNTAgNDkxUTUwIDU2MiAxMDMgNjE0VDIzNSA2NjZRMzI2IDY2NiAzODcgNjEwVDQ0OSA0NjVRNDQ5IDQyMiA0MjkgMzgzVDM4MSAzMTVUMzAxIDI0MVEyNjUgMjEwIDIwMSAxNDlMMTQyIDkzTDIxOCA5MlEzNzUgOTIgMzg1IDk3UTM5MiA5OSA0MDkgMTg2VjE4OUg0NDlWMTg2UTQ0OCAxODMgNDM2IDk1VDQyMSAzVjBINTBWMTlWMzFRNTAgMzggNTYgNDZUODYgODFRMTE1IDExMyAxMzYgMTM3UTE0NSAxNDcgMTcwIDE3NFQyMDQgMjExVDIzMyAyNDRUMjYxIDI3OFQyODQgMzA4VDMwNSAzNDBUMzIwIDM2OVQzMzMgNDAxVDM0MCA0MzFUMzQzIDQ2NFEzNDMgNTI3IDMwOSA1NzNUMjEyIDYxOVExNzkgNjE5IDE1NCA2MDJUMTE5IDU2OVQxMDkgNTUwUTEwOSA1NDkgMTE0IDU0OVExMzIgNTQ5IDE1MSA1MzVUMTcwIDQ4OVExNzAgNDY0IDE1NCA0NDdUMTA5IDQyOVoiIGlkPSJNSlgtNjgtVEVYLU4tMzIiLz48cGF0aCBkPSJNMjAxIC0xMVExMjYgLTExIDgwIDM4VDM0IDE1NlEzNCAyMjEgNjQgMjc5VDE0NiAzODBRMjIyIDQ0MSAzMDEgNDQxUTMzMyA0NDEgMzQxIDQ0MFEzNTQgNDM3IDM2NyA0MzNUNDAyIDQxN1Q0MzggMzg3VDQ2NCAzMzhUNDc2IDI2OFE0NzYgMTYxIDM5MCA3NVQyMDEgLTExWk0xMjEgMTIwUTEyMSA3MCAxNDcgNDhUMjA2IDI2UTI1MCAyNiAyODkgNThUMzUxIDE0MlEzNjAgMTYzIDM3NCAyMTZUMzg4IDMwOFEzODggMzUyIDM3MCAzNzVRMzQ2IDQwNSAzMDYgNDA1UTI0MyA0MDUgMTk1IDM0N1ExNTggMzAzIDE0MCAyMzBUMTIxIDEyMFoiIGlkPSJNSlgtNjgtVEVYLUktMUQ0NUMiLz48cGF0aCBkPSJNMjEgMjg3UTIyIDI5MCAyMyAyOTVUMjggMzE3VDM4IDM0OFQ1MyAzODFUNzMgNDExVDk5IDQzM1QxMzIgNDQyUTE2MSA0NDIgMTgzIDQzMFQyMTQgNDA4VDIyNSAzODhRMjI3IDM4MiAyMjggMzgyVDIzNiAzODlRMjg0IDQ0MSAzNDcgNDQxSDM1MFEzOTggNDQxIDQyMiA0MDBRNDMwIDM4MSA0MzAgMzYzUTQzMCAzMzMgNDE3IDMxNVQzOTEgMjkyVDM2NiAyODhRMzQ2IDI4OCAzMzQgMjk5VDMyMiAzMjhRMzIyIDM3NiAzNzggMzkyUTM1NiA0MDUgMzQyIDQwNVEyODYgNDA1IDIzOSAzMzFRMjI5IDMxNSAyMjQgMjk4VDE5MCAxNjVRMTU2IDI1IDE1MSAxNlExMzggLTExIDEwOCAtMTFROTUgLTExIDg3IC01VDc2IDdUNzQgMTdRNzQgMzAgMTE0IDE4OVQxNTQgMzY2UTE1NCA0MDUgMTI4IDQwNVExMDcgNDA1IDkyIDM3N1Q2OCAzMTZUNTcgMjgwUTU1IDI3OCA0MSAyNzhIMjdRMjEgMjg0IDIxIDI4N1oiIGlkPSJNSlgtNjgtVEVYLUktMUQ0NUYiLz48cGF0aCBkPSJNMjYgMzg1UTE5IDM5MiAxOSAzOTVRMTkgMzk5IDIyIDQxMVQyNyA0MjVRMjkgNDMwIDM2IDQzMFQ4NyA0MzFIMTQwTDE1OSA1MTFRMTYyIDUyMiAxNjYgNTQwVDE3MyA1NjZUMTc5IDU4NlQxODcgNjAzVDE5NyA2MTVUMjExIDYyNFQyMjkgNjI2UTI0NyA2MjUgMjU0IDYxNVQyNjEgNTk2UTI2MSA1ODkgMjUyIDU0OVQyMzIgNDcwTDIyMiA0MzNRMjIyIDQzMSAyNzIgNDMxSDMyM1EzMzAgNDI0IDMzMCA0MjBRMzMwIDM5OCAzMTcgMzg1SDIxMEwxNzQgMjQwUTEzNSA4MCAxMzUgNjhRMTM1IDI2IDE2MiAyNlExOTcgMjYgMjMwIDYwVDI4MyAxNDRRMjg1IDE1MCAyODggMTUxVDMwMyAxNTNIMzA3UTMyMiAxNTMgMzIyIDE0NVEzMjIgMTQyIDMxOSAxMzNRMzE0IDExNyAzMDEgOTVUMjY3IDQ4VDIxNiA2VDE1NSAtMTFRMTI1IC0xMSA5OCA0VDU5IDU2UTU3IDY0IDU3IDgzVjEwMUw5MiAyNDFRMTI3IDM4MiAxMjggMzgzUTEyOCAzODUgNzcgMzg1SDI2WiIgaWQ9Ik1KWC02OC1URVgtSS0xRDQ2MSIvPjxwYXRoIGQ9Ik02MCA3NDlMNjQgNzUwUTY5IDc1MCA3NCA3NTBIODZMMTE0IDcyNlEyMDggNjQxIDI1MSA1MTRUMjk0IDI1MFEyOTQgMTgyIDI4NCAxMTlUMjYxIDEyVDIyNCAtNzZUMTg2IC0xNDNUMTQ1IC0xOTRUMTEzIC0yMjdUOTAgLTI0NlE4NyAtMjQ5IDg2IC0yNTBINzRRNjYgLTI1MCA2MyAtMjUwVDU4IC0yNDdUNTUgLTIzOFE1NiAtMjM3IDY2IC0yMjVRMjIxIC02NCAyMjEgMjUwVDY2IDcyNVE1NiA3MzcgNTUgNzM4UTU1IDc0NiA2MCA3NDlaIiBpZD0iTUpYLTY4LVRFWC1OLTI5Ii8+PC9kZWZzPjxnIHRyYW5zZm9ybT0ibWF0cml4KDEgMCAwIC0xIDAgMCkiIHN0cm9rZS13aWR0aD0iMCIgZmlsbD0iY3VycmVudENvbG9yIiBzdHJva2U9ImN1cnJlbnRDb2xvciI+PGcgZGF0YS1tbWwtbm9kZT0ibWF0aCI+PGcgZGF0YS1tbWwtbm9kZT0ibWkiPjx1c2UgeGxpbms6aHJlZj0iI01KWC02OC1URVgtSS0xRDQzOCIvPjwvZz48ZyB0cmFuc2Zvcm09InRyYW5zbGF0ZSg3NjQsIDApIiBkYXRhLW1tbC1ub2RlPSJtaSI+PHVzZSB4bGluazpocmVmPSIjTUpYLTY4LVRFWC1JLTFENDVCIi8+PC9nPjxnIHRyYW5zZm9ybT0idHJhbnNsYXRlKDEzNjQsIDApIiBkYXRhLW1tbC1ub2RlPSJtc3ViIj48ZyBkYXRhLW1tbC1ub2RlPSJtaSI+PHVzZSB4bGluazpocmVmPSIjTUpYLTY4LVRFWC1JLTFENDUwIi8+PC9nPjxnIGRhdGEtbWp4LXRleGNsYXNzPSJPUkQiIHRyYW5zZm9ybT0idHJhbnNsYXRlKDQzMywgLTE1MCkgc2NhbGUoMC43MDcpIiBkYXRhLW1tbC1ub2RlPSJUZVhBdG9tIj48ZyBkYXRhLW1tbC1ub2RlPSJtaSI+PHVzZSB4bGluazpocmVmPSIjTUpYLTY4LVRFWC1JLTFENDVEIi8+PC9nPjxnIHRyYW5zZm9ybT0idHJhbnNsYXRlKDUwMywgMCkiIGRhdGEtbW1sLW5vZGU9Im1pIj48dXNlIHhsaW5rOmhyZWY9IiNNSlgtNjgtVEVYLUktMUQ0NTgiLz48L2c+PGcgdHJhbnNmb3JtPSJ0cmFuc2xhdGUoMTAyNCwgMCkiIGRhdGEtbW1sLW5vZGU9Im1uIj48dXNlIHhsaW5rOmhyZWY9IiNNSlgtNjgtVEVYLU4tMzEiLz48L2c+PC9nPjwvZz48ZyB0cmFuc2Zvcm09InRyYW5zbGF0ZSgyOTI0LjYsIDApIiBkYXRhLW1tbC1ub2RlPSJtbyI+PHVzZSB4bGluazpocmVmPSIjTUpYLTY4LVRFWC1OLTI4Ii8+PC9nPjxnIHRyYW5zZm9ybT0idHJhbnNsYXRlKDMzMTMuNiwgMCkiIGRhdGEtbW1sLW5vZGU9Im1pIj48dXNlIHhsaW5rOmhyZWY9IiNNSlgtNjgtVEVYLUktMUQ0NTgiLz48L2c+PGcgdHJhbnNmb3JtPSJ0cmFuc2xhdGUoMzgzNC42LCAwKSIgZGF0YS1tbWwtbm9kZT0ibWkiPjx1c2UgeGxpbms6aHJlZj0iI01KWC02OC1URVgtSS0xRDQ1MiIvPjwvZz48ZyB0cmFuc2Zvcm09InRyYW5zbGF0ZSg0MzAwLjYsIDApIiBkYXRhLW1tbC1ub2RlPSJtaSI+PHVzZSB4bGluazpocmVmPSIjTUpYLTY4LVRFWC1JLTFENDY2Ii8+PC9nPjxnIHRyYW5zZm9ybT0idHJhbnNsYXRlKDQ3OTAuNiwgMCkiIGRhdGEtbW1sLW5vZGU9Im1uIj48dXNlIHhsaW5rOmhyZWY9IiNNSlgtNjgtVEVYLU4tMzEiLz48L2c+PGcgdHJhbnNmb3JtPSJ0cmFuc2xhdGUoNTI5MC42LCAwKSIgZGF0YS1tbWwtbm9kZT0ibW8iPjx1c2UgeGxpbms6aHJlZj0iI01KWC02OC1URVgtTi0yQyIvPjwvZz48ZyB0cmFuc2Zvcm09InRyYW5zbGF0ZSg1NzM1LjMsIDApIiBkYXRhLW1tbC1ub2RlPSJtaSI+PHVzZSB4bGluazpocmVmPSIjTUpYLTY4LVRFWC1JLTFENDU2Ii8+PC9nPjxnIHRyYW5zZm9ybT0idHJhbnNsYXRlKDYwODAuMywgMCkiIGRhdGEtbW1sLW5vZGU9Im1pIj48dXNlIHhsaW5rOmhyZWY9IiNNSlgtNjgtVEVYLUktMUQ0NUQiLz48L2c+PGcgdHJhbnNmb3JtPSJ0cmFuc2xhdGUoNjU4My4zLCAwKSIgZGF0YS1tbWwtbm9kZT0ibW4iPjx1c2UgeGxpbms6aHJlZj0iI01KWC02OC1URVgtTi0zMiIvPjwvZz48ZyB0cmFuc2Zvcm09InRyYW5zbGF0ZSg3MDgzLjMsIDApIiBkYXRhLW1tbC1ub2RlPSJtbyI+PHVzZSB4bGluazpocmVmPSIjTUpYLTY4LVRFWC1OLTJDIi8+PC9nPjxnIHRyYW5zZm9ybT0idHJhbnNsYXRlKDc1MjgsIDApIiBkYXRhLW1tbC1ub2RlPSJtaSI+PHVzZSB4bGluazpocmVmPSIjTUpYLTY4LVRFWC1JLTFENDVEIi8+PC9nPjxnIHRyYW5zZm9ybT0idHJhbnNsYXRlKDgwMzEsIDApIiBkYXRhLW1tbC1ub2RlPSJtaSI+PHVzZSB4bGluazpocmVmPSIjTUpYLTY4LVRFWC1JLTFENDVDIi8+PC9nPjxnIHRyYW5zZm9ybT0idHJhbnNsYXRlKDg1MTYsIDApIiBkYXRhLW1tbC1ub2RlPSJtaSI+PHVzZSB4bGluazpocmVmPSIjTUpYLTY4LVRFWC1JLTFENDVGIi8+PC9nPjxnIHRyYW5zZm9ybT0idHJhbnNsYXRlKDg5NjcsIDApIiBkYXRhLW1tbC1ub2RlPSJtaSI+PHVzZSB4bGluazpocmVmPSIjTUpYLTY4LVRFWC1JLTFENDYxIi8+PC9nPjxnIHRyYW5zZm9ybT0idHJhbnNsYXRlKDkzMjgsIDApIiBkYXRhLW1tbC1ub2RlPSJtbiI+PHVzZSB4bGluazpocmVmPSIjTUpYLTY4LVRFWC1OLTMyIi8+PC9nPjxnIHRyYW5zZm9ybT0idHJhbnNsYXRlKDk4MjgsIDApIiBkYXRhLW1tbC1ub2RlPSJtbyI+PHVzZSB4bGluazpocmVmPSIjTUpYLTY4LVRFWC1OLTI5Ii8+PC9nPjwvZz48L2c+PC9zdmc+;" vertex="1" parent="1">
          <mxGeometry width="23" height="2" as="geometry" />
        </mxCell>
        <mxCell id="PUM_M8YaJLtLtkd2Mo2w-63" value="" style="shape=image;imageAspect=0;aspect=fixed;verticalLabelPosition=bottom;verticalAlign=top;fontFamily=Helvetica;image=data:image/svg+xml,PHN2ZyB4bWxuczp4bGluaz0iaHR0cDovL3d3dy53My5vcmcvMTk5OS94bGluayIgeG1sbnM9Imh0dHA6Ly93d3cudzMub3JnLzIwMDAvc3ZnIiBzdHlsZT0iIiBhcmlhLWhpZGRlbj0idHJ1ZSIgdmlld0JveD0iMCAtNzUwIDEwOTI0LjggMTAzNy4yIiBoZWlnaHQ9IjIuMzQ3ZXgiIHdpZHRoPSIyNC43MTdleCI+PGRlZnM+PHBhdGggZD0iTTQ5MiAyMTNRNDcyIDIxMyA0NzIgMjI2UTQ3MiAyMzAgNDc3IDI1MFQ0ODIgMjg1UTQ4MiAzMTYgNDYxIDMyM1QzNjQgMzMwSDMxMlEzMTEgMzI4IDI3NyAxOTJUMjQzIDUyUTI0MyA0OCAyNTQgNDhUMzM0IDQ2UTQyOCA0NiA0NTggNDhUNTE4IDYxUTU2NyA3NyA1OTkgMTE3VDY3MCAyNDhRNjgwIDI3MCA2ODMgMjcyUTY5MCAyNzQgNjk4IDI3NFE3MTggMjc0IDcxOCAyNjFRNjEzIDcgNjA4IDJRNjA1IDAgMzIyIDBIMTMzUTMxIDAgMzEgMTFRMzEgMTMgMzQgMjVRMzggNDEgNDIgNDNUNjUgNDZROTIgNDYgMTI1IDQ5UTEzOSA1MiAxNDQgNjFRMTQ2IDY2IDIxNSAzNDJUMjg1IDYyMlEyODUgNjI5IDI4MSA2MjlRMjczIDYzMiAyMjggNjM0SDE5N1ExOTEgNjQwIDE5MSA2NDJUMTkzIDY1OVExOTcgNjc2IDIwMyA2ODBINzU3UTc2NCA2NzYgNzY0IDY2OVE3NjQgNjY0IDc1MSA1NTdUNzM3IDQ0N1E3MzUgNDQwIDcxNyA0NDBINzA1UTY5OCA0NDUgNjk4IDQ1M0w3MDEgNDc2UTcwNCA1MDAgNzA0IDUyOFE3MDQgNTU4IDY5NyA1NzhUNjc4IDYwOVQ2NDMgNjI1VDU5NiA2MzJUNTMyIDYzNEg0ODVRMzk3IDYzMyAzOTIgNjMxUTM4OCA2MjkgMzg2IDYyMlEzODUgNjE5IDM1NSA0OTlUMzI0IDM3N1EzNDcgMzc2IDM3MiAzNzZIMzk4UTQ2NCAzNzYgNDg5IDM5MVQ1MzQgNDcyUTUzOCA0ODggNTQwIDQ5MFQ1NTcgNDkzUTU2MiA0OTMgNTY1IDQ5M1Q1NzAgNDkyVDU3MiA0OTFUNTc0IDQ4N1Q1NzcgNDgzTDU0NCAzNTFRNTExIDIxOCA1MDggMjE2UTUwNSAyMTMgNDkyIDIxM1oiIGlkPSJNSlgtOTYtVEVYLUktMUQ0MzgiLz48cGF0aCBkPSJNMjEgMjg3UTIyIDI5MyAyNCAzMDNUMzYgMzQxVDU2IDM4OFQ4OSA0MjVUMTM1IDQ0MlExNzEgNDQyIDE5NSA0MjRUMjI1IDM5MFQyMzEgMzY5UTIzMSAzNjcgMjMyIDM2N0wyNDMgMzc4UTMwNCA0NDIgMzgyIDQ0MlE0MzYgNDQyIDQ2OSA0MTVUNTAzIDMzNlQ0NjUgMTc5VDQyNyA1MlE0MjcgMjYgNDQ0IDI2UTQ1MCAyNiA0NTMgMjdRNDgyIDMyIDUwNSA2NVQ1NDAgMTQ1UTU0MiAxNTMgNTYwIDE1M1E1ODAgMTUzIDU4MCAxNDVRNTgwIDE0NCA1NzYgMTMwUTU2OCAxMDEgNTU0IDczVDUwOCAxN1Q0MzkgLTEwUTM5MiAtMTAgMzcxIDE3VDM1MCA3M1EzNTAgOTIgMzg2IDE5M1Q0MjMgMzQ1UTQyMyA0MDQgMzc5IDQwNEgzNzRRMjg4IDQwNCAyMjkgMzAzTDIyMiAyOTFMMTg5IDE1N1ExNTYgMjYgMTUxIDE2UTEzOCAtMTEgMTA4IC0xMVE5NSAtMTEgODcgLTVUNzYgN1Q3NCAxN1E3NCAzMCAxMTIgMTgwVDE1MiAzNDNRMTUzIDM0OCAxNTMgMzY2UTE1MyA0MDUgMTI5IDQwNVE5MSA0MDUgNjYgMzA1UTYwIDI4NSA2MCAyODRRNTggMjc4IDQxIDI3OEgyN1EyMSAyODQgMjEgMjg3WiIgaWQ9Ik1KWC05Ni1URVgtSS0xRDQ1QiIvPjxwYXRoIGQ9Ik0zNCAxNTlRMzQgMjY4IDEyMCAzNTVUMzA2IDQ0MlEzNjIgNDQyIDM5NCA0MThUNDI3IDM1NVE0MjcgMzI2IDQwOCAzMDZUMzYwIDI4NVEzNDEgMjg1IDMzMCAyOTVUMzE5IDMyNVQzMzAgMzU5VDM1MiAzODBUMzY2IDM4NkgzNjdRMzY3IDM4OCAzNjEgMzkyVDM0MCA0MDBUMzA2IDQwNFEyNzYgNDA0IDI0OSAzOTBRMjI4IDM4MSAyMDYgMzU5UTE2MiAzMTUgMTQyIDIzNVQxMjEgMTE5UTEyMSA3MyAxNDcgNTBRMTY5IDI2IDIwNSAyNkgyMDlRMzIxIDI2IDM5NCAxMTFRNDAzIDEyMSA0MDYgMTIxUTQxMCAxMjEgNDE5IDExMlQ0MjkgOThUNDIwIDgzVDM5MSA1NVQzNDYgMjVUMjgyIDBUMjAyIC0xMVExMjcgLTExIDgxIDM3VDM0IDE1OVoiIGlkPSJNSlgtOTYtVEVYLUktMUQ0NTAiLz48cGF0aCBkPSJNMjMgMjg3UTI0IDI5MCAyNSAyOTVUMzAgMzE3VDQwIDM0OFQ1NSAzODFUNzUgNDExVDEwMSA0MzNUMTM0IDQ0MlEyMDkgNDQyIDIzMCAzNzhMMjQwIDM4N1EzMDIgNDQyIDM1OCA0NDJRNDIzIDQ0MiA0NjAgMzk1VDQ5NyAyODFRNDk3IDE3MyA0MjEgODJUMjQ5IC0xMFEyMjcgLTEwIDIxMCAtNFExOTkgMSAxODcgMTFUMTY4IDI4TDE2MSAzNlExNjAgMzUgMTM5IC01MVQxMTggLTEzOFExMTggLTE0NCAxMjYgLTE0NVQxNjMgLTE0OEgxODhRMTk0IC0xNTUgMTk0IC0xNTdUMTkxIC0xNzVRMTg4IC0xODcgMTg1IC0xOTBUMTcyIC0xOTRRMTcwIC0xOTQgMTYxIC0xOTRUMTI3IC0xOTNUNjUgLTE5MlEtNSAtMTkyIC0yNCAtMTk0SC0zMlEtMzkgLTE4NyAtMzkgLTE4M1EtMzcgLTE1NiAtMjYgLTE0OEgtNlEyOCAtMTQ3IDMzIC0xMzZRMzYgLTEzMCA5NCAxMDNUMTU1IDM1MFExNTYgMzU1IDE1NiAzNjRRMTU2IDQwNSAxMzEgNDA1UTEwOSA0MDUgOTQgMzc3VDcxIDMxNlQ1OSAyODBRNTcgMjc4IDQzIDI3OEgyOVEyMyAyODQgMjMgMjg3Wk0xNzggMTAyUTIwMCAyNiAyNTIgMjZRMjgyIDI2IDMxMCA0OVQzNTYgMTA3UTM3NCAxNDEgMzkyIDIxNVQ0MTEgMzI1VjMzMVE0MTEgNDA1IDM1MCA0MDVRMzM5IDQwNSAzMjggNDAyVDMwNiAzOTNUMjg2IDM4MFQyNjkgMzY1VDI1NCAzNTBUMjQzIDMzNlQyMzUgMzI2TDIzMiAzMjJRMjMyIDMyMSAyMjkgMzA4VDIxOCAyNjRUMjA0IDIxMlExNzggMTA2IDE3OCAxMDJaIiBpZD0iTUpYLTk2LVRFWC1JLTFENDVEIi8+PHBhdGggZD0iTTIxIDI4N1EyMSAyOTUgMzAgMzE4VDU1IDM3MFQ5OSA0MjBUMTU4IDQ0MlEyMDQgNDQyIDIyNyA0MTdUMjUwIDM1OFEyNTAgMzQwIDIxNiAyNDZUMTgyIDEwNVExODIgNjIgMTk2IDQ1VDIzOCAyN1QyOTEgNDRUMzI4IDc4TDMzOSA5NVEzNDEgOTkgMzc3IDI0N1E0MDcgMzY3IDQxMyAzODdUNDI3IDQxNlE0NDQgNDMxIDQ2MyA0MzFRNDgwIDQzMSA0ODggNDIxVDQ5NiA0MDJMNDIwIDg0UTQxOSA3OSA0MTkgNjhRNDE5IDQzIDQyNiAzNVQ0NDcgMjZRNDY5IDI5IDQ4MiA1N1Q1MTIgMTQ1UTUxNCAxNTMgNTMyIDE1M1E1NTEgMTUzIDU1MSAxNDRRNTUwIDEzOSA1NDkgMTMwVDU0MCA5OFQ1MjMgNTVUNDk4IDE3VDQ2MiAtOFE0NTQgLTEwIDQzOCAtMTBRMzcyIC0xMCAzNDcgNDZRMzQ1IDQ1IDMzNiAzNlQzMTggMjFUMjk2IDZUMjY3IC02VDIzMyAtMTFRMTg5IC0xMSAxNTUgN1ExMDMgMzggMTAzIDExM1ExMDMgMTcwIDEzOCAyNjJUMTczIDM3OVExNzMgMzgwIDE3MyAzODFRMTczIDM5MCAxNzMgMzkzVDE2OSA0MDBUMTU4IDQwNEgxNTRRMTMxIDQwNCAxMTIgMzg1VDgyIDM0NFQ2NSAzMDJUNTcgMjgwUTU1IDI3OCA0MSAyNzhIMjdRMjEgMjg0IDIxIDI4N1oiIGlkPSJNSlgtOTYtVEVYLUktMUQ0NjIiLz48cGF0aCBkPSJNNzMgNjQ3UTczIDY1NyA3NyA2NzBUODkgNjgzUTkwIDY4MyAxNjEgNjg4VDIzNCA2OTRRMjQ2IDY5NCAyNDYgNjg1VDIxMiA1NDJRMjA0IDUwOCAxOTUgNDcyVDE4MCA0MThMMTc2IDM5OVExNzYgMzk2IDE4MiA0MDJRMjMxIDQ0MiAyODMgNDQyUTM0NSA0NDIgMzgzIDM5NlQ0MjIgMjgwUTQyMiAxNjkgMzQzIDc5VDE3MyAtMTFRMTIzIC0xMSA4MiAyN1Q0MCAxNTBWMTU5UTQwIDE4MCA0OCAyMTdUOTcgNDE0UTE0NyA2MTEgMTQ3IDYyM1QxMDkgNjM3UTEwNCA2MzcgMTAxIDYzN0g5NlE4NiA2MzcgODMgNjM3VDc2IDY0MFQ3MyA2NDdaTTMzNiAzMjVWMzMxUTMzNiA0MDUgMjc1IDQwNVEyNTggNDA1IDI0MCAzOTdUMjA3IDM3NlQxODEgMzUyVDE2MyAzMzBMMTU3IDMyMkwxMzYgMjM2UTExNCAxNTAgMTE0IDExNFExMTQgNjYgMTM4IDQyUTE1NCAyNiAxNzggMjZRMjExIDI2IDI0NSA1OFEyNzAgODEgMjg1IDExNFQzMTggMjE5UTMzNiAyOTEgMzM2IDMyNVoiIGlkPSJNSlgtOTYtVEVYLUktMUQ0NEYiLz48cGF0aCBkPSJNMTIxIDY0N1ExMjEgNjU3IDEyNSA2NzBUMTM3IDY4M1ExMzggNjgzIDIwOSA2ODhUMjgyIDY5NFEyOTQgNjk0IDI5NCA2ODZRMjk0IDY3OSAyNDQgNDc3UTE5NCAyNzkgMTk0IDI3MlEyMTMgMjgyIDIyMyAyOTFRMjQ3IDMwOSAyOTIgMzU0VDM2MiA0MTVRNDAyIDQ0MiA0MzggNDQyUTQ2OCA0NDIgNDg1IDQyM1Q1MDMgMzY5UTUwMyAzNDQgNDk2IDMyN1Q0NzcgMzAyVDQ1NiAyOTFUNDM4IDI4OFE0MTggMjg4IDQwNiAyOTlUMzk0IDMyOFEzOTQgMzUzIDQxMCAzNjlUNDQyIDM5MEw0NTggMzkzUTQ0NiA0MDUgNDM0IDQwNUg0MzBRMzk4IDQwMiAzNjcgMzgwVDI5NCAzMTZUMjI4IDI1NVEyMzAgMjU0IDI0MyAyNTJUMjY3IDI0NlQyOTMgMjM4VDMyMCAyMjRUMzQyIDIwNlQzNTkgMTgwVDM2NSAxNDdRMzY1IDEzMCAzNjAgMTA2VDM1NCA2NlEzNTQgMjYgMzgxIDI2UTQyOSAyNiA0NTkgMTQ1UTQ2MSAxNTMgNDc5IDE1M0g0ODNRNDk5IDE1MyA0OTkgMTQ0UTQ5OSAxMzkgNDk2IDEzMFE0NTUgLTExIDM3OCAtMTFRMzMzIC0xMSAzMDUgMTVUMjc3IDkwUTI3NyAxMDggMjgwIDEyMVQyODMgMTQ1UTI4MyAxNjcgMjY5IDE4M1QyMzQgMjA2VDIwMCAyMTdUMTgyIDIyMEgxODBRMTY4IDE3OCAxNTkgMTM5VDE0NSA4MVQxMzYgNDRUMTI5IDIwVDEyMiA3VDExMSAtMlE5OCAtMTEgODMgLTExUTY2IC0xMSA1NyAtMVQ0OCAxNlE0OCAyNiA4NSAxNzZUMTU4IDQ3MUwxOTUgNjE2UTE5NiA2MjkgMTg4IDYzMlQxNDkgNjM3SDE0NFExMzQgNjM3IDEzMSA2MzdUMTI0IDY0MFQxMjEgNjQ3WiIgaWQ9Ik1KWC05Ni1URVgtSS0xRDQ1OCIvPjxwYXRoIGQ9Ik0xMDkgNDI5UTgyIDQyOSA2NiA0NDdUNTAgNDkxUTUwIDU2MiAxMDMgNjE0VDIzNSA2NjZRMzI2IDY2NiAzODcgNjEwVDQ0OSA0NjVRNDQ5IDQyMiA0MjkgMzgzVDM4MSAzMTVUMzAxIDI0MVEyNjUgMjEwIDIwMSAxNDlMMTQyIDkzTDIxOCA5MlEzNzUgOTIgMzg1IDk3UTM5MiA5OSA0MDkgMTg2VjE4OUg0NDlWMTg2UTQ0OCAxODMgNDM2IDk1VDQyMSAzVjBINTBWMTlWMzFRNTAgMzggNTYgNDZUODYgODFRMTE1IDExMyAxMzYgMTM3UTE0NSAxNDcgMTcwIDE3NFQyMDQgMjExVDIzMyAyNDRUMjYxIDI3OFQyODQgMzA4VDMwNSAzNDBUMzIwIDM2OVQzMzMgNDAxVDM0MCA0MzFUMzQzIDQ2NFEzNDMgNTI3IDMwOSA1NzNUMjEyIDYxOVExNzkgNjE5IDE1NCA2MDJUMTE5IDU2OVQxMDkgNTUwUTEwOSA1NDkgMTE0IDU0OVExMzIgNTQ5IDE1MSA1MzVUMTcwIDQ4OVExNzAgNDY0IDE1NCA0NDdUMTA5IDQyOVoiIGlkPSJNSlgtOTYtVEVYLU4tMzIiLz48cGF0aCBkPSJNOTQgMjUwUTk0IDMxOSAxMDQgMzgxVDEyNyA0ODhUMTY0IDU3NlQyMDIgNjQzVDI0NCA2OTVUMjc3IDcyOVQzMDIgNzUwSDMxNUgzMTlRMzMzIDc1MCAzMzMgNzQxUTMzMyA3MzggMzE2IDcyMFQyNzUgNjY3VDIyNiA1ODFUMTg0IDQ0M1QxNjcgMjUwVDE4NCA1OFQyMjUgLTgxVDI3NCAtMTY3VDMxNiAtMjIwVDMzMyAtMjQxUTMzMyAtMjUwIDMxOCAtMjUwSDMxNUgzMDJMMjc0IC0yMjZRMTgwIC0xNDEgMTM3IC0xNFQ5NCAyNTBaIiBpZD0iTUpYLTk2LVRFWC1OLTI4Ii8+PHBhdGggZD0iTTM5IDE2OFEzOSAyMjUgNTggMjcyVDEwNyAzNTBUMTc0IDQwMlQyNDQgNDMzVDMwNyA0NDJIMzEwUTM1NSA0NDIgMzg4IDQyMFQ0MjEgMzU1UTQyMSAyNjUgMzEwIDIzN1EyNjEgMjI0IDE3NiAyMjNRMTM5IDIyMyAxMzggMjIxUTEzOCAyMTkgMTMyIDE4NlQxMjUgMTI4UTEyNSA4MSAxNDYgNTRUMjA5IDI2VDMwMiA0NVQzOTQgMTExUTQwMyAxMjEgNDA2IDEyMVE0MTAgMTIxIDQxOSAxMTJUNDI5IDk4VDQyMCA4MlQzOTAgNTVUMzQ0IDI0VDI4MSAtMVQyMDUgLTExUTEyNiAtMTEgODMgNDJUMzkgMTY4Wk0zNzMgMzUzUTM2NyA0MDUgMzA1IDQwNVEyNzIgNDA1IDI0NCAzOTFUMTk5IDM1N1QxNzAgMzE2VDE1NCAyODBUMTQ5IDI2MVExNDkgMjYwIDE2OSAyNjBRMjgyIDI2MCAzMjcgMjg0VDM3MyAzNTNaIiBpZD0iTUpYLTk2LVRFWC1JLTFENDUyIi8+PHBhdGggZD0iTTIxIDI4N1EyMSAzMDEgMzYgMzM1VDg0IDQwNlQxNTggNDQyUTE5OSA0NDIgMjI0IDQxOVQyNTAgMzU1UTI0OCAzMzYgMjQ3IDMzNFEyNDcgMzMxIDIzMSAyODhUMTk4IDE5MVQxODIgMTA1UTE4MiA2MiAxOTYgNDVUMjM4IDI3UTI2MSAyNyAyODEgMzhUMzEyIDYxVDMzOSA5NFEzMzkgOTUgMzQ0IDExNFQzNTggMTczVDM3NyAyNDdRNDE1IDM5NyA0MTkgNDA0UTQzMiA0MzEgNDYyIDQzMVE0NzUgNDMxIDQ4MyA0MjRUNDk0IDQxMlQ0OTYgNDAzUTQ5NiAzOTAgNDQ3IDE5M1QzOTEgLTIzUTM2MyAtMTA2IDI5NCAtMTU1VDE1NiAtMjA1UTExMSAtMjA1IDc3IC0xODNUNDMgLTExN1E0MyAtOTUgNTAgLTgwVDY5IC01OFQ4OSAtNDhUMTA2IC00NVExNTAgLTQ1IDE1MCAtODdRMTUwIC0xMDcgMTM4IC0xMjJUMTE1IC0xNDJUMTAyIC0xNDdMOTkgLTE0OFExMDEgLTE1MyAxMTggLTE2MFQxNTIgLTE2N0gxNjBRMTc3IC0xNjcgMTg2IC0xNjVRMjE5IC0xNTYgMjQ3IC0xMjdUMjkwIC02NVQzMTMgLTlUMzIxIDIxTDMxNSAxN1EzMDkgMTMgMjk2IDZUMjcwIC02UTI1MCAtMTEgMjMxIC0xMVExODUgLTExIDE1MCAxMVQxMDQgODJRMTAzIDg5IDEwMyAxMTNRMTAzIDE3MCAxMzggMjYyVDE3MyAzNzlRMTczIDM4MCAxNzMgMzgxUTE3MyAzOTAgMTczIDM5M1QxNjkgNDAwVDE1OCA0MDRIMTU0UTEzMSA0MDQgMTEyIDM4NVQ4MiAzNDRUNjUgMzAyVDU3IDI4MFE1NSAyNzggNDEgMjc4SDI3UTIxIDI4NCAyMSAyODdaIiBpZD0iTUpYLTk2LVRFWC1JLTFENDY2Ii8+PHBhdGggZD0iTTc4IDM1VDc4IDYwVDk0IDEwM1QxMzcgMTIxUTE2NSAxMjEgMTg3IDk2VDIxMCA4UTIxMCAtMjcgMjAxIC02MFQxODAgLTExN1QxNTQgLTE1OFQxMzAgLTE4NVQxMTcgLTE5NFExMTMgLTE5NCAxMDQgLTE4NVQ5NSAtMTcyUTk1IC0xNjggMTA2IC0xNTZUMTMxIC0xMjZUMTU3IC03NlQxNzMgLTNWOUwxNzIgOFExNzAgNyAxNjcgNlQxNjEgM1QxNTIgMVQxNDAgMFExMTMgMCA5NiAxN1oiIGlkPSJNSlgtOTYtVEVYLU4tMkMiLz48cGF0aCBkPSJNMTg0IDYwMFExODQgNjI0IDIwMyA2NDJUMjQ3IDY2MVEyNjUgNjYxIDI3NyA2NDlUMjkwIDYxOVEyOTAgNTk2IDI3MCA1NzdUMjI2IDU1N1EyMTEgNTU3IDE5OCA1NjdUMTg0IDYwMFpNMjEgMjg3UTIxIDI5NSAzMCAzMThUNTQgMzY5VDk4IDQyMFQxNTggNDQyUTE5NyA0NDIgMjIzIDQxOVQyNTAgMzU3UTI1MCAzNDAgMjM2IDMwMVQxOTYgMTk2VDE1NCA4M1ExNDkgNjEgMTQ5IDUxUTE0OSAyNiAxNjYgMjZRMTc1IDI2IDE4NSAyOVQyMDggNDNUMjM1IDc4VDI2MCAxMzdRMjYzIDE0OSAyNjUgMTUxVDI4MiAxNTNRMzAyIDE1MyAzMDIgMTQzUTMwMiAxMzUgMjkzIDExMlQyNjggNjFUMjIzIDExVDE2MSAtMTFRMTI5IC0xMSAxMDIgMTBUNzQgNzRRNzQgOTEgNzkgMTA2VDEyMiAyMjBRMTYwIDMyMSAxNjYgMzQxVDE3MyAzODBRMTczIDQwNCAxNTYgNDA0SDE1NFExMjQgNDA0IDk5IDM3MVQ2MSAyODdRNjAgMjg2IDU5IDI4NFQ1OCAyODFUNTYgMjc5VDUzIDI3OFQ0OSAyNzhUNDEgMjc4SDI3UTIxIDI4NCAyMSAyODdaIiBpZD0iTUpYLTk2LVRFWC1JLTFENDU2Ii8+PHBhdGggZD0iTTEyNyA0NjNRMTAwIDQ2MyA4NSA0ODBUNjkgNTI0UTY5IDU3OSAxMTcgNjIyVDIzMyA2NjVRMjY4IDY2NSAyNzcgNjY0UTM1MSA2NTIgMzkwIDYxMVQ0MzAgNTIyUTQzMCA0NzAgMzk2IDQyMVQzMDIgMzUwTDI5OSAzNDhRMjk5IDM0NyAzMDggMzQ1VDMzNyAzMzZUMzc1IDMxNVE0NTcgMjYyIDQ1NyAxNzVRNDU3IDk2IDM5NSAzN1QyMzggLTIyUTE1OCAtMjIgMTAwIDIxVDQyIDEzMFE0MiAxNTggNjAgMTc1VDEwNSAxOTNRMTMzIDE5MyAxNTEgMTc1VDE2OSAxMzBRMTY5IDExOSAxNjYgMTEwVDE1OSA5NFQxNDggODJUMTM2IDc0VDEyNiA3MFQxMTggNjdMMTE0IDY2UTE2NSAyMSAyMzggMjFRMjkzIDIxIDMyMSA3NFEzMzggMTA3IDMzOCAxNzVWMTk1UTMzOCAyOTAgMjc0IDMyMlEyNTkgMzI4IDIxMyAzMjlMMTcxIDMzMEwxNjggMzMyUTE2NiAzMzUgMTY2IDM0OFExNjYgMzY2IDE3NCAzNjZRMjAyIDM2NiAyMzIgMzcxUTI2NiAzNzYgMjk0IDQxM1QzMjIgNTI1VjUzM1EzMjIgNTkwIDI4NyA2MTJRMjY1IDYyNiAyNDAgNjI2UTIwOCA2MjYgMTgxIDYxNVQxNDMgNTkyVDEzMiA1ODBIMTM1UTEzOCA1NzkgMTQzIDU3OFQxNTMgNTczVDE2NSA1NjZUMTc1IDU1NVQxODMgNTQwVDE4NiA1MjBRMTg2IDQ5OCAxNzIgNDgxVDEyNyA0NjNaIiBpZD0iTUpYLTk2LVRFWC1OLTMzIi8+PHBhdGggZD0iTTIwMSAtMTFRMTI2IC0xMSA4MCAzOFQzNCAxNTZRMzQgMjIxIDY0IDI3OVQxNDYgMzgwUTIyMiA0NDEgMzAxIDQ0MVEzMzMgNDQxIDM0MSA0NDBRMzU0IDQzNyAzNjcgNDMzVDQwMiA0MTdUNDM4IDM4N1Q0NjQgMzM4VDQ3NiAyNjhRNDc2IDE2MSAzOTAgNzVUMjAxIC0xMVpNMTIxIDEyMFExMjEgNzAgMTQ3IDQ4VDIwNiAyNlEyNTAgMjYgMjg5IDU4VDM1MSAxNDJRMzYwIDE2MyAzNzQgMjE2VDM4OCAzMDhRMzg4IDM1MiAzNzAgMzc1UTM0NiA0MDUgMzA2IDQwNVEyNDMgNDA1IDE5NSAzNDdRMTU4IDMwMyAxNDAgMjMwVDEyMSAxMjBaIiBpZD0iTUpYLTk2LVRFWC1JLTFENDVDIi8+PHBhdGggZD0iTTIxIDI4N1EyMiAyOTAgMjMgMjk1VDI4IDMxN1QzOCAzNDhUNTMgMzgxVDczIDQxMVQ5OSA0MzNUMTMyIDQ0MlExNjEgNDQyIDE4MyA0MzBUMjE0IDQwOFQyMjUgMzg4UTIyNyAzODIgMjI4IDM4MlQyMzYgMzg5UTI4NCA0NDEgMzQ3IDQ0MUgzNTBRMzk4IDQ0MSA0MjIgNDAwUTQzMCAzODEgNDMwIDM2M1E0MzAgMzMzIDQxNyAzMTVUMzkxIDI5MlQzNjYgMjg4UTM0NiAyODggMzM0IDI5OVQzMjIgMzI4UTMyMiAzNzYgMzc4IDM5MlEzNTYgNDA1IDM0MiA0MDVRMjg2IDQwNSAyMzkgMzMxUTIyOSAzMTUgMjI0IDI5OFQxOTAgMTY1UTE1NiAyNSAxNTEgMTZRMTM4IC0xMSAxMDggLTExUTk1IC0xMSA4NyAtNVQ3NiA3VDc0IDE3UTc0IDMwIDExNCAxODlUMTU0IDM2NlExNTQgNDA1IDEyOCA0MDVRMTA3IDQwNSA5MiAzNzdUNjggMzE2VDU3IDI4MFE1NSAyNzggNDEgMjc4SDI3UTIxIDI4NCAyMSAyODdaIiBpZD0iTUpYLTk2LVRFWC1JLTFENDVGIi8+PHBhdGggZD0iTTI2IDM4NVExOSAzOTIgMTkgMzk1UTE5IDM5OSAyMiA0MTFUMjcgNDI1UTI5IDQzMCAzNiA0MzBUODcgNDMxSDE0MEwxNTkgNTExUTE2MiA1MjIgMTY2IDU0MFQxNzMgNTY2VDE3OSA1ODZUMTg3IDYwM1QxOTcgNjE1VDIxMSA2MjRUMjI5IDYyNlEyNDcgNjI1IDI1NCA2MTVUMjYxIDU5NlEyNjEgNTg5IDI1MiA1NDlUMjMyIDQ3MEwyMjIgNDMzUTIyMiA0MzEgMjcyIDQzMUgzMjNRMzMwIDQyNCAzMzAgNDIwUTMzMCAzOTggMzE3IDM4NUgyMTBMMTc0IDI0MFExMzUgODAgMTM1IDY4UTEzNSAyNiAxNjIgMjZRMTk3IDI2IDIzMCA2MFQyODMgMTQ0UTI4NSAxNTAgMjg4IDE1MVQzMDMgMTUzSDMwN1EzMjIgMTUzIDMyMiAxNDVRMzIyIDE0MiAzMTkgMTMzUTMxNCAxMTcgMzAxIDk1VDI2NyA0OFQyMTYgNlQxNTUgLTExUTEyNSAtMTEgOTggNFQ1OSA1NlE1NyA2NCA1NyA4M1YxMDFMOTIgMjQxUTEyNyAzODIgMTI4IDM4M1ExMjggMzg1IDc3IDM4NUgyNloiIGlkPSJNSlgtOTYtVEVYLUktMUQ0NjEiLz48cGF0aCBkPSJNNjAgNzQ5TDY0IDc1MFE2OSA3NTAgNzQgNzUwSDg2TDExNCA3MjZRMjA4IDY0MSAyNTEgNTE0VDI5NCAyNTBRMjk0IDE4MiAyODQgMTE5VDI2MSAxMlQyMjQgLTc2VDE4NiAtMTQzVDE0NSAtMTk0VDExMyAtMjI3VDkwIC0yNDZRODcgLTI0OSA4NiAtMjUwSDc0UTY2IC0yNTAgNjMgLTI1MFQ1OCAtMjQ3VDU1IC0yMzhRNTYgLTIzNyA2NiAtMjI1UTIyMSAtNjQgMjIxIDI1MFQ2NiA3MjVRNTYgNzM3IDU1IDczOFE1NSA3NDYgNjAgNzQ5WiIgaWQ9Ik1KWC05Ni1URVgtTi0yOSIvPjwvZGVmcz48ZyB0cmFuc2Zvcm09Im1hdHJpeCgxIDAgMCAtMSAwIDApIiBzdHJva2Utd2lkdGg9IjAiIGZpbGw9ImN1cnJlbnRDb2xvciIgc3Ryb2tlPSJjdXJyZW50Q29sb3IiPjxnIGRhdGEtbW1sLW5vZGU9Im1hdGgiPjxnIGRhdGEtbW1sLW5vZGU9Im1pIj48dXNlIHhsaW5rOmhyZWY9IiNNSlgtOTYtVEVYLUktMUQ0MzgiLz48L2c+PGcgdHJhbnNmb3JtPSJ0cmFuc2xhdGUoNzY0LCAwKSIgZGF0YS1tbWwtbm9kZT0ibWkiPjx1c2UgeGxpbms6aHJlZj0iI01KWC05Ni1URVgtSS0xRDQ1QiIvPjwvZz48ZyB0cmFuc2Zvcm09InRyYW5zbGF0ZSgxMzY0LCAwKSIgZGF0YS1tbWwtbm9kZT0ibXN1YiI+PGcgZGF0YS1tbWwtbm9kZT0ibWkiPjx1c2UgeGxpbms6aHJlZj0iI01KWC05Ni1URVgtSS0xRDQ1MCIvPjwvZz48ZyBkYXRhLW1qeC10ZXhjbGFzcz0iT1JEIiB0cmFuc2Zvcm09InRyYW5zbGF0ZSg0MzMsIC0xNTApIHNjYWxlKDAuNzA3KSIgZGF0YS1tbWwtbm9kZT0iVGVYQXRvbSI+PGcgZGF0YS1tbWwtbm9kZT0ibWkiPjx1c2UgeGxpbms6aHJlZj0iI01KWC05Ni1URVgtSS0xRDQ1RCIvPjwvZz48ZyB0cmFuc2Zvcm09InRyYW5zbGF0ZSg1MDMsIDApIiBkYXRhLW1tbC1ub2RlPSJtaSI+PHVzZSB4bGluazpocmVmPSIjTUpYLTk2LVRFWC1JLTFENDYyIi8+PC9nPjxnIHRyYW5zZm9ybT0idHJhbnNsYXRlKDEwNzUsIDApIiBkYXRhLW1tbC1ub2RlPSJtaSI+PHVzZSB4bGluazpocmVmPSIjTUpYLTk2LVRFWC1JLTFENDRGIi8+PC9nPjxnIHRyYW5zZm9ybT0idHJhbnNsYXRlKDE1MDQsIDApIiBkYXRhLW1tbC1ub2RlPSJtaSI+PHVzZSB4bGluazpocmVmPSIjTUpYLTk2LVRFWC1JLTFENDU4Ii8+PC9nPjxnIHRyYW5zZm9ybT0idHJhbnNsYXRlKDIwMjUsIDApIiBkYXRhLW1tbC1ub2RlPSJtbiI+PHVzZSB4bGluazpocmVmPSIjTUpYLTk2LVRFWC1OLTMyIi8+PC9nPjwvZz48L2c+PGcgdHJhbnNmb3JtPSJ0cmFuc2xhdGUoMzYzMi40LCAwKSIgZGF0YS1tbWwtbm9kZT0ibW8iPjx1c2UgeGxpbms6aHJlZj0iI01KWC05Ni1URVgtTi0yOCIvPjwvZz48ZyB0cmFuc2Zvcm09InRyYW5zbGF0ZSg0MDIxLjQsIDApIiBkYXRhLW1tbC1ub2RlPSJtaSI+PHVzZSB4bGluazpocmVmPSIjTUpYLTk2LVRFWC1JLTFENDU4Ii8+PC9nPjxnIHRyYW5zZm9ybT0idHJhbnNsYXRlKDQ1NDIuNCwgMCkiIGRhdGEtbW1sLW5vZGU9Im1pIj48dXNlIHhsaW5rOmhyZWY9IiNNSlgtOTYtVEVYLUktMUQ0NTIiLz48L2c+PGcgdHJhbnNmb3JtPSJ0cmFuc2xhdGUoNTAwOC40LCAwKSIgZGF0YS1tbWwtbm9kZT0ibWkiPjx1c2UgeGxpbms6aHJlZj0iI01KWC05Ni1URVgtSS0xRDQ2NiIvPjwvZz48ZyB0cmFuc2Zvcm09InRyYW5zbGF0ZSg1NDk4LjQsIDApIiBkYXRhLW1tbC1ub2RlPSJtbiI+PHVzZSB4bGluazpocmVmPSIjTUpYLTk2LVRFWC1OLTMyIi8+PC9nPjxnIHRyYW5zZm9ybT0idHJhbnNsYXRlKDU5OTguNCwgMCkiIGRhdGEtbW1sLW5vZGU9Im1vIj48dXNlIHhsaW5rOmhyZWY9IiNNSlgtOTYtVEVYLU4tMkMiLz48L2c+PGcgdHJhbnNmb3JtPSJ0cmFuc2xhdGUoNjQ0My4xLCAwKSIgZGF0YS1tbWwtbm9kZT0ibWkiPjx1c2UgeGxpbms6aHJlZj0iI01KWC05Ni1URVgtSS0xRDQ1NiIvPjwvZz48ZyB0cmFuc2Zvcm09InRyYW5zbGF0ZSg2Nzg4LjEsIDApIiBkYXRhLW1tbC1ub2RlPSJtaSI+PHVzZSB4bGluazpocmVmPSIjTUpYLTk2LVRFWC1JLTFENDVEIi8+PC9nPjxnIHRyYW5zZm9ybT0idHJhbnNsYXRlKDcyOTEuMSwgMCkiIGRhdGEtbW1sLW5vZGU9Im1uIj48dXNlIHhsaW5rOmhyZWY9IiNNSlgtOTYtVEVYLU4tMzMiLz48L2c+PGcgdHJhbnNmb3JtPSJ0cmFuc2xhdGUoNzc5MS4xLCAwKSIgZGF0YS1tbWwtbm9kZT0ibW8iPjx1c2UgeGxpbms6aHJlZj0iI01KWC05Ni1URVgtTi0yQyIvPjwvZz48ZyB0cmFuc2Zvcm09InRyYW5zbGF0ZSg4MjM1LjgsIDApIiBkYXRhLW1tbC1ub2RlPSJtaSI+PHVzZSB4bGluazpocmVmPSIjTUpYLTk2LVRFWC1JLTFENDVEIi8+PC9nPjxnIHRyYW5zZm9ybT0idHJhbnNsYXRlKDg3MzguOCwgMCkiIGRhdGEtbW1sLW5vZGU9Im1pIj48dXNlIHhsaW5rOmhyZWY9IiNNSlgtOTYtVEVYLUktMUQ0NUMiLz48L2c+PGcgdHJhbnNmb3JtPSJ0cmFuc2xhdGUoOTIyMy44LCAwKSIgZGF0YS1tbWwtbm9kZT0ibWkiPjx1c2UgeGxpbms6aHJlZj0iI01KWC05Ni1URVgtSS0xRDQ1RiIvPjwvZz48ZyB0cmFuc2Zvcm09InRyYW5zbGF0ZSg5Njc0LjgsIDApIiBkYXRhLW1tbC1ub2RlPSJtaSI+PHVzZSB4bGluazpocmVmPSIjTUpYLTk2LVRFWC1JLTFENDYxIi8+PC9nPjxnIHRyYW5zZm9ybT0idHJhbnNsYXRlKDEwMDM1LjgsIDApIiBkYXRhLW1tbC1ub2RlPSJtbiI+PHVzZSB4bGluazpocmVmPSIjTUpYLTk2LVRFWC1OLTMzIi8+PC9nPjxnIHRyYW5zZm9ybT0idHJhbnNsYXRlKDEwNTM1LjgsIDApIiBkYXRhLW1tbC1ub2RlPSJtbyI+PHVzZSB4bGluazpocmVmPSIjTUpYLTk2LVRFWC1OLTI5Ii8+PC9nPjwvZz48L2c+PC9zdmc+;" vertex="1" parent="1">
          <mxGeometry x="325" y="950" width="222" height="21" as="geometry" />
        </mxCell>
        <mxCell id="PUM_M8YaJLtLtkd2Mo2w-64" value="" style="shape=image;imageAspect=0;aspect=fixed;verticalLabelPosition=bottom;verticalAlign=top;fontFamily=Helvetica;image=data:image/svg+xml,PHN2ZyB4bWxuczp4bGluaz0iaHR0cDovL3d3dy53My5vcmcvMTk5OS94bGluayIgeG1sbnM9Imh0dHA6Ly93d3cudzMub3JnLzIwMDAvc3ZnIiBzdHlsZT0iIiBhcmlhLWhpZGRlbj0idHJ1ZSIgdmlld0JveD0iMCAtNzUwIDEwOTI0LjggMTAzNy4yIiBoZWlnaHQ9IjIuMzQ3ZXgiIHdpZHRoPSIyNC43MTdleCI+PGRlZnM+PHBhdGggZD0iTTQ5MiAyMTNRNDcyIDIxMyA0NzIgMjI2UTQ3MiAyMzAgNDc3IDI1MFQ0ODIgMjg1UTQ4MiAzMTYgNDYxIDMyM1QzNjQgMzMwSDMxMlEzMTEgMzI4IDI3NyAxOTJUMjQzIDUyUTI0MyA0OCAyNTQgNDhUMzM0IDQ2UTQyOCA0NiA0NTggNDhUNTE4IDYxUTU2NyA3NyA1OTkgMTE3VDY3MCAyNDhRNjgwIDI3MCA2ODMgMjcyUTY5MCAyNzQgNjk4IDI3NFE3MTggMjc0IDcxOCAyNjFRNjEzIDcgNjA4IDJRNjA1IDAgMzIyIDBIMTMzUTMxIDAgMzEgMTFRMzEgMTMgMzQgMjVRMzggNDEgNDIgNDNUNjUgNDZROTIgNDYgMTI1IDQ5UTEzOSA1MiAxNDQgNjFRMTQ2IDY2IDIxNSAzNDJUMjg1IDYyMlEyODUgNjI5IDI4MSA2MjlRMjczIDYzMiAyMjggNjM0SDE5N1ExOTEgNjQwIDE5MSA2NDJUMTkzIDY1OVExOTcgNjc2IDIwMyA2ODBINzU3UTc2NCA2NzYgNzY0IDY2OVE3NjQgNjY0IDc1MSA1NTdUNzM3IDQ0N1E3MzUgNDQwIDcxNyA0NDBINzA1UTY5OCA0NDUgNjk4IDQ1M0w3MDEgNDc2UTcwNCA1MDAgNzA0IDUyOFE3MDQgNTU4IDY5NyA1NzhUNjc4IDYwOVQ2NDMgNjI1VDU5NiA2MzJUNTMyIDYzNEg0ODVRMzk3IDYzMyAzOTIgNjMxUTM4OCA2MjkgMzg2IDYyMlEzODUgNjE5IDM1NSA0OTlUMzI0IDM3N1EzNDcgMzc2IDM3MiAzNzZIMzk4UTQ2NCAzNzYgNDg5IDM5MVQ1MzQgNDcyUTUzOCA0ODggNTQwIDQ5MFQ1NTcgNDkzUTU2MiA0OTMgNTY1IDQ5M1Q1NzAgNDkyVDU3MiA0OTFUNTc0IDQ4N1Q1NzcgNDgzTDU0NCAzNTFRNTExIDIxOCA1MDggMjE2UTUwNSAyMTMgNDkyIDIxM1oiIGlkPSJNSlgtMTEyLVRFWC1JLTFENDM4Ii8+PHBhdGggZD0iTTIxIDI4N1EyMiAyOTMgMjQgMzAzVDM2IDM0MVQ1NiAzODhUODkgNDI1VDEzNSA0NDJRMTcxIDQ0MiAxOTUgNDI0VDIyNSAzOTBUMjMxIDM2OVEyMzEgMzY3IDIzMiAzNjdMMjQzIDM3OFEzMDQgNDQyIDM4MiA0NDJRNDM2IDQ0MiA0NjkgNDE1VDUwMyAzMzZUNDY1IDE3OVQ0MjcgNTJRNDI3IDI2IDQ0NCAyNlE0NTAgMjYgNDUzIDI3UTQ4MiAzMiA1MDUgNjVUNTQwIDE0NVE1NDIgMTUzIDU2MCAxNTNRNTgwIDE1MyA1ODAgMTQ1UTU4MCAxNDQgNTc2IDEzMFE1NjggMTAxIDU1NCA3M1Q1MDggMTdUNDM5IC0xMFEzOTIgLTEwIDM3MSAxN1QzNTAgNzNRMzUwIDkyIDM4NiAxOTNUNDIzIDM0NVE0MjMgNDA0IDM3OSA0MDRIMzc0UTI4OCA0MDQgMjI5IDMwM0wyMjIgMjkxTDE4OSAxNTdRMTU2IDI2IDE1MSAxNlExMzggLTExIDEwOCAtMTFROTUgLTExIDg3IC01VDc2IDdUNzQgMTdRNzQgMzAgMTEyIDE4MFQxNTIgMzQzUTE1MyAzNDggMTUzIDM2NlExNTMgNDA1IDEyOSA0MDVROTEgNDA1IDY2IDMwNVE2MCAyODUgNjAgMjg0UTU4IDI3OCA0MSAyNzhIMjdRMjEgMjg0IDIxIDI4N1oiIGlkPSJNSlgtMTEyLVRFWC1JLTFENDVCIi8+PHBhdGggZD0iTTM0IDE1OVEzNCAyNjggMTIwIDM1NVQzMDYgNDQyUTM2MiA0NDIgMzk0IDQxOFQ0MjcgMzU1UTQyNyAzMjYgNDA4IDMwNlQzNjAgMjg1UTM0MSAyODUgMzMwIDI5NVQzMTkgMzI1VDMzMCAzNTlUMzUyIDM4MFQzNjYgMzg2SDM2N1EzNjcgMzg4IDM2MSAzOTJUMzQwIDQwMFQzMDYgNDA0UTI3NiA0MDQgMjQ5IDM5MFEyMjggMzgxIDIwNiAzNTlRMTYyIDMxNSAxNDIgMjM1VDEyMSAxMTlRMTIxIDczIDE0NyA1MFExNjkgMjYgMjA1IDI2SDIwOVEzMjEgMjYgMzk0IDExMVE0MDMgMTIxIDQwNiAxMjFRNDEwIDEyMSA0MTkgMTEyVDQyOSA5OFQ0MjAgODNUMzkxIDU1VDM0NiAyNVQyODIgMFQyMDIgLTExUTEyNyAtMTEgODEgMzdUMzQgMTU5WiIgaWQ9Ik1KWC0xMTItVEVYLUktMUQ0NTAiLz48cGF0aCBkPSJNMjMgMjg3UTI0IDI5MCAyNSAyOTVUMzAgMzE3VDQwIDM0OFQ1NSAzODFUNzUgNDExVDEwMSA0MzNUMTM0IDQ0MlEyMDkgNDQyIDIzMCAzNzhMMjQwIDM4N1EzMDIgNDQyIDM1OCA0NDJRNDIzIDQ0MiA0NjAgMzk1VDQ5NyAyODFRNDk3IDE3MyA0MjEgODJUMjQ5IC0xMFEyMjcgLTEwIDIxMCAtNFExOTkgMSAxODcgMTFUMTY4IDI4TDE2MSAzNlExNjAgMzUgMTM5IC01MVQxMTggLTEzOFExMTggLTE0NCAxMjYgLTE0NVQxNjMgLTE0OEgxODhRMTk0IC0xNTUgMTk0IC0xNTdUMTkxIC0xNzVRMTg4IC0xODcgMTg1IC0xOTBUMTcyIC0xOTRRMTcwIC0xOTQgMTYxIC0xOTRUMTI3IC0xOTNUNjUgLTE5MlEtNSAtMTkyIC0yNCAtMTk0SC0zMlEtMzkgLTE4NyAtMzkgLTE4M1EtMzcgLTE1NiAtMjYgLTE0OEgtNlEyOCAtMTQ3IDMzIC0xMzZRMzYgLTEzMCA5NCAxMDNUMTU1IDM1MFExNTYgMzU1IDE1NiAzNjRRMTU2IDQwNSAxMzEgNDA1UTEwOSA0MDUgOTQgMzc3VDcxIDMxNlQ1OSAyODBRNTcgMjc4IDQzIDI3OEgyOVEyMyAyODQgMjMgMjg3Wk0xNzggMTAyUTIwMCAyNiAyNTIgMjZRMjgyIDI2IDMxMCA0OVQzNTYgMTA3UTM3NCAxNDEgMzkyIDIxNVQ0MTEgMzI1VjMzMVE0MTEgNDA1IDM1MCA0MDVRMzM5IDQwNSAzMjggNDAyVDMwNiAzOTNUMjg2IDM4MFQyNjkgMzY1VDI1NCAzNTBUMjQzIDMzNlQyMzUgMzI2TDIzMiAzMjJRMjMyIDMyMSAyMjkgMzA4VDIxOCAyNjRUMjA0IDIxMlExNzggMTA2IDE3OCAxMDJaIiBpZD0iTUpYLTExMi1URVgtSS0xRDQ1RCIvPjxwYXRoIGQ9Ik0yMSAyODdRMjEgMjk1IDMwIDMxOFQ1NSAzNzBUOTkgNDIwVDE1OCA0NDJRMjA0IDQ0MiAyMjcgNDE3VDI1MCAzNThRMjUwIDM0MCAyMTYgMjQ2VDE4MiAxMDVRMTgyIDYyIDE5NiA0NVQyMzggMjdUMjkxIDQ0VDMyOCA3OEwzMzkgOTVRMzQxIDk5IDM3NyAyNDdRNDA3IDM2NyA0MTMgMzg3VDQyNyA0MTZRNDQ0IDQzMSA0NjMgNDMxUTQ4MCA0MzEgNDg4IDQyMVQ0OTYgNDAyTDQyMCA4NFE0MTkgNzkgNDE5IDY4UTQxOSA0MyA0MjYgMzVUNDQ3IDI2UTQ2OSAyOSA0ODIgNTdUNTEyIDE0NVE1MTQgMTUzIDUzMiAxNTNRNTUxIDE1MyA1NTEgMTQ0UTU1MCAxMzkgNTQ5IDEzMFQ1NDAgOThUNTIzIDU1VDQ5OCAxN1Q0NjIgLThRNDU0IC0xMCA0MzggLTEwUTM3MiAtMTAgMzQ3IDQ2UTM0NSA0NSAzMzYgMzZUMzE4IDIxVDI5NiA2VDI2NyAtNlQyMzMgLTExUTE4OSAtMTEgMTU1IDdRMTAzIDM4IDEwMyAxMTNRMTAzIDE3MCAxMzggMjYyVDE3MyAzNzlRMTczIDM4MCAxNzMgMzgxUTE3MyAzOTAgMTczIDM5M1QxNjkgNDAwVDE1OCA0MDRIMTU0UTEzMSA0MDQgMTEyIDM4NVQ4MiAzNDRUNjUgMzAyVDU3IDI4MFE1NSAyNzggNDEgMjc4SDI3UTIxIDI4NCAyMSAyODdaIiBpZD0iTUpYLTExMi1URVgtSS0xRDQ2MiIvPjxwYXRoIGQ9Ik03MyA2NDdRNzMgNjU3IDc3IDY3MFQ4OSA2ODNROTAgNjgzIDE2MSA2ODhUMjM0IDY5NFEyNDYgNjk0IDI0NiA2ODVUMjEyIDU0MlEyMDQgNTA4IDE5NSA0NzJUMTgwIDQxOEwxNzYgMzk5UTE3NiAzOTYgMTgyIDQwMlEyMzEgNDQyIDI4MyA0NDJRMzQ1IDQ0MiAzODMgMzk2VDQyMiAyODBRNDIyIDE2OSAzNDMgNzlUMTczIC0xMVExMjMgLTExIDgyIDI3VDQwIDE1MFYxNTlRNDAgMTgwIDQ4IDIxN1Q5NyA0MTRRMTQ3IDYxMSAxNDcgNjIzVDEwOSA2MzdRMTA0IDYzNyAxMDEgNjM3SDk2UTg2IDYzNyA4MyA2MzdUNzYgNjQwVDczIDY0N1pNMzM2IDMyNVYzMzFRMzM2IDQwNSAyNzUgNDA1UTI1OCA0MDUgMjQwIDM5N1QyMDcgMzc2VDE4MSAzNTJUMTYzIDMzMEwxNTcgMzIyTDEzNiAyMzZRMTE0IDE1MCAxMTQgMTE0UTExNCA2NiAxMzggNDJRMTU0IDI2IDE3OCAyNlEyMTEgMjYgMjQ1IDU4UTI3MCA4MSAyODUgMTE0VDMxOCAyMTlRMzM2IDI5MSAzMzYgMzI1WiIgaWQ9Ik1KWC0xMTItVEVYLUktMUQ0NEYiLz48cGF0aCBkPSJNMTIxIDY0N1ExMjEgNjU3IDEyNSA2NzBUMTM3IDY4M1ExMzggNjgzIDIwOSA2ODhUMjgyIDY5NFEyOTQgNjk0IDI5NCA2ODZRMjk0IDY3OSAyNDQgNDc3UTE5NCAyNzkgMTk0IDI3MlEyMTMgMjgyIDIyMyAyOTFRMjQ3IDMwOSAyOTIgMzU0VDM2MiA0MTVRNDAyIDQ0MiA0MzggNDQyUTQ2OCA0NDIgNDg1IDQyM1Q1MDMgMzY5UTUwMyAzNDQgNDk2IDMyN1Q0NzcgMzAyVDQ1NiAyOTFUNDM4IDI4OFE0MTggMjg4IDQwNiAyOTlUMzk0IDMyOFEzOTQgMzUzIDQxMCAzNjlUNDQyIDM5MEw0NTggMzkzUTQ0NiA0MDUgNDM0IDQwNUg0MzBRMzk4IDQwMiAzNjcgMzgwVDI5NCAzMTZUMjI4IDI1NVEyMzAgMjU0IDI0MyAyNTJUMjY3IDI0NlQyOTMgMjM4VDMyMCAyMjRUMzQyIDIwNlQzNTkgMTgwVDM2NSAxNDdRMzY1IDEzMCAzNjAgMTA2VDM1NCA2NlEzNTQgMjYgMzgxIDI2UTQyOSAyNiA0NTkgMTQ1UTQ2MSAxNTMgNDc5IDE1M0g0ODNRNDk5IDE1MyA0OTkgMTQ0UTQ5OSAxMzkgNDk2IDEzMFE0NTUgLTExIDM3OCAtMTFRMzMzIC0xMSAzMDUgMTVUMjc3IDkwUTI3NyAxMDggMjgwIDEyMVQyODMgMTQ1UTI4MyAxNjcgMjY5IDE4M1QyMzQgMjA2VDIwMCAyMTdUMTgyIDIyMEgxODBRMTY4IDE3OCAxNTkgMTM5VDE0NSA4MVQxMzYgNDRUMTI5IDIwVDEyMiA3VDExMSAtMlE5OCAtMTEgODMgLTExUTY2IC0xMSA1NyAtMVQ0OCAxNlE0OCAyNiA4NSAxNzZUMTU4IDQ3MUwxOTUgNjE2UTE5NiA2MjkgMTg4IDYzMlQxNDkgNjM3SDE0NFExMzQgNjM3IDEzMSA2MzdUMTI0IDY0MFQxMjEgNjQ3WiIgaWQ9Ik1KWC0xMTItVEVYLUktMUQ0NTgiLz48cGF0aCBkPSJNMjEzIDU3OEwyMDAgNTczUTE4NiA1NjggMTYwIDU2M1QxMDIgNTU2SDgzVjYwMkgxMDJRMTQ5IDYwNCAxODkgNjE3VDI0NSA2NDFUMjczIDY2M1EyNzUgNjY2IDI4NSA2NjZRMjk0IDY2NiAzMDIgNjYwVjM2MUwzMDMgNjFRMzEwIDU0IDMxNSA1MlQzMzkgNDhUNDAxIDQ2SDQyN1YwSDQxNlEzOTUgMyAyNTcgM1ExMjEgMyAxMDAgMEg4OFY0NkgxMTRRMTM2IDQ2IDE1MiA0NlQxNzcgNDdUMTkzIDUwVDIwMSA1MlQyMDcgNTdUMjEzIDYxVjU3OFoiIGlkPSJNSlgtMTEyLVRFWC1OLTMxIi8+PHBhdGggZD0iTTk0IDI1MFE5NCAzMTkgMTA0IDM4MVQxMjcgNDg4VDE2NCA1NzZUMjAyIDY0M1QyNDQgNjk1VDI3NyA3MjlUMzAyIDc1MEgzMTVIMzE5UTMzMyA3NTAgMzMzIDc0MVEzMzMgNzM4IDMxNiA3MjBUMjc1IDY2N1QyMjYgNTgxVDE4NCA0NDNUMTY3IDI1MFQxODQgNThUMjI1IC04MVQyNzQgLTE2N1QzMTYgLTIyMFQzMzMgLTI0MVEzMzMgLTI1MCAzMTggLTI1MEgzMTVIMzAyTDI3NCAtMjI2UTE4MCAtMTQxIDEzNyAtMTRUOTQgMjUwWiIgaWQ9Ik1KWC0xMTItVEVYLU4tMjgiLz48cGF0aCBkPSJNMzkgMTY4UTM5IDIyNSA1OCAyNzJUMTA3IDM1MFQxNzQgNDAyVDI0NCA0MzNUMzA3IDQ0MkgzMTBRMzU1IDQ0MiAzODggNDIwVDQyMSAzNTVRNDIxIDI2NSAzMTAgMjM3UTI2MSAyMjQgMTc2IDIyM1ExMzkgMjIzIDEzOCAyMjFRMTM4IDIxOSAxMzIgMTg2VDEyNSAxMjhRMTI1IDgxIDE0NiA1NFQyMDkgMjZUMzAyIDQ1VDM5NCAxMTFRNDAzIDEyMSA0MDYgMTIxUTQxMCAxMjEgNDE5IDExMlQ0MjkgOThUNDIwIDgyVDM5MCA1NVQzNDQgMjRUMjgxIC0xVDIwNSAtMTFRMTI2IC0xMSA4MyA0MlQzOSAxNjhaTTM3MyAzNTNRMzY3IDQwNSAzMDUgNDA1UTI3MiA0MDUgMjQ0IDM5MVQxOTkgMzU3VDE3MCAzMTZUMTU0IDI4MFQxNDkgMjYxUTE0OSAyNjAgMTY5IDI2MFEyODIgMjYwIDMyNyAyODRUMzczIDM1M1oiIGlkPSJNSlgtMTEyLVRFWC1JLTFENDUyIi8+PHBhdGggZD0iTTIxIDI4N1EyMSAzMDEgMzYgMzM1VDg0IDQwNlQxNTggNDQyUTE5OSA0NDIgMjI0IDQxOVQyNTAgMzU1UTI0OCAzMzYgMjQ3IDMzNFEyNDcgMzMxIDIzMSAyODhUMTk4IDE5MVQxODIgMTA1UTE4MiA2MiAxOTYgNDVUMjM4IDI3UTI2MSAyNyAyODEgMzhUMzEyIDYxVDMzOSA5NFEzMzkgOTUgMzQ0IDExNFQzNTggMTczVDM3NyAyNDdRNDE1IDM5NyA0MTkgNDA0UTQzMiA0MzEgNDYyIDQzMVE0NzUgNDMxIDQ4MyA0MjRUNDk0IDQxMlQ0OTYgNDAzUTQ5NiAzOTAgNDQ3IDE5M1QzOTEgLTIzUTM2MyAtMTA2IDI5NCAtMTU1VDE1NiAtMjA1UTExMSAtMjA1IDc3IC0xODNUNDMgLTExN1E0MyAtOTUgNTAgLTgwVDY5IC01OFQ4OSAtNDhUMTA2IC00NVExNTAgLTQ1IDE1MCAtODdRMTUwIC0xMDcgMTM4IC0xMjJUMTE1IC0xNDJUMTAyIC0xNDdMOTkgLTE0OFExMDEgLTE1MyAxMTggLTE2MFQxNTIgLTE2N0gxNjBRMTc3IC0xNjcgMTg2IC0xNjVRMjE5IC0xNTYgMjQ3IC0xMjdUMjkwIC02NVQzMTMgLTlUMzIxIDIxTDMxNSAxN1EzMDkgMTMgMjk2IDZUMjcwIC02UTI1MCAtMTEgMjMxIC0xMVExODUgLTExIDE1MCAxMVQxMDQgODJRMTAzIDg5IDEwMyAxMTNRMTAzIDE3MCAxMzggMjYyVDE3MyAzNzlRMTczIDM4MCAxNzMgMzgxUTE3MyAzOTAgMTczIDM5M1QxNjkgNDAwVDE1OCA0MDRIMTU0UTEzMSA0MDQgMTEyIDM4NVQ4MiAzNDRUNjUgMzAyVDU3IDI4MFE1NSAyNzggNDEgMjc4SDI3UTIxIDI4NCAyMSAyODdaIiBpZD0iTUpYLTExMi1URVgtSS0xRDQ2NiIvPjxwYXRoIGQ9Ik03OCAzNVQ3OCA2MFQ5NCAxMDNUMTM3IDEyMVExNjUgMTIxIDE4NyA5NlQyMTAgOFEyMTAgLTI3IDIwMSAtNjBUMTgwIC0xMTdUMTU0IC0xNThUMTMwIC0xODVUMTE3IC0xOTRRMTEzIC0xOTQgMTA0IC0xODVUOTUgLTE3MlE5NSAtMTY4IDEwNiAtMTU2VDEzMSAtMTI2VDE1NyAtNzZUMTczIC0zVjlMMTcyIDhRMTcwIDcgMTY3IDZUMTYxIDNUMTUyIDFUMTQwIDBRMTEzIDAgOTYgMTdaIiBpZD0iTUpYLTExMi1URVgtTi0yQyIvPjxwYXRoIGQ9Ik0xODQgNjAwUTE4NCA2MjQgMjAzIDY0MlQyNDcgNjYxUTI2NSA2NjEgMjc3IDY0OVQyOTAgNjE5UTI5MCA1OTYgMjcwIDU3N1QyMjYgNTU3UTIxMSA1NTcgMTk4IDU2N1QxODQgNjAwWk0yMSAyODdRMjEgMjk1IDMwIDMxOFQ1NCAzNjlUOTggNDIwVDE1OCA0NDJRMTk3IDQ0MiAyMjMgNDE5VDI1MCAzNTdRMjUwIDM0MCAyMzYgMzAxVDE5NiAxOTZUMTU0IDgzUTE0OSA2MSAxNDkgNTFRMTQ5IDI2IDE2NiAyNlExNzUgMjYgMTg1IDI5VDIwOCA0M1QyMzUgNzhUMjYwIDEzN1EyNjMgMTQ5IDI2NSAxNTFUMjgyIDE1M1EzMDIgMTUzIDMwMiAxNDNRMzAyIDEzNSAyOTMgMTEyVDI2OCA2MVQyMjMgMTFUMTYxIC0xMVExMjkgLTExIDEwMiAxMFQ3NCA3NFE3NCA5MSA3OSAxMDZUMTIyIDIyMFExNjAgMzIxIDE2NiAzNDFUMTczIDM4MFExNzMgNDA0IDE1NiA0MDRIMTU0UTEyNCA0MDQgOTkgMzcxVDYxIDI4N1E2MCAyODYgNTkgMjg0VDU4IDI4MVQ1NiAyNzlUNTMgMjc4VDQ5IDI3OFQ0MSAyNzhIMjdRMjEgMjg0IDIxIDI4N1oiIGlkPSJNSlgtMTEyLVRFWC1JLTFENDU2Ii8+PHBhdGggZD0iTTEwOSA0MjlRODIgNDI5IDY2IDQ0N1Q1MCA0OTFRNTAgNTYyIDEwMyA2MTRUMjM1IDY2NlEzMjYgNjY2IDM4NyA2MTBUNDQ5IDQ2NVE0NDkgNDIyIDQyOSAzODNUMzgxIDMxNVQzMDEgMjQxUTI2NSAyMTAgMjAxIDE0OUwxNDIgOTNMMjE4IDkyUTM3NSA5MiAzODUgOTdRMzkyIDk5IDQwOSAxODZWMTg5SDQ0OVYxODZRNDQ4IDE4MyA0MzYgOTVUNDIxIDNWMEg1MFYxOVYzMVE1MCAzOCA1NiA0NlQ4NiA4MVExMTUgMTEzIDEzNiAxMzdRMTQ1IDE0NyAxNzAgMTc0VDIwNCAyMTFUMjMzIDI0NFQyNjEgMjc4VDI4NCAzMDhUMzA1IDM0MFQzMjAgMzY5VDMzMyA0MDFUMzQwIDQzMVQzNDMgNDY0UTM0MyA1MjcgMzA5IDU3M1QyMTIgNjE5UTE3OSA2MTkgMTU0IDYwMlQxMTkgNTY5VDEwOSA1NTBRMTA5IDU0OSAxMTQgNTQ5UTEzMiA1NDkgMTUxIDUzNVQxNzAgNDg5UTE3MCA0NjQgMTU0IDQ0N1QxMDkgNDI5WiIgaWQ9Ik1KWC0xMTItVEVYLU4tMzIiLz48cGF0aCBkPSJNMjAxIC0xMVExMjYgLTExIDgwIDM4VDM0IDE1NlEzNCAyMjEgNjQgMjc5VDE0NiAzODBRMjIyIDQ0MSAzMDEgNDQxUTMzMyA0NDEgMzQxIDQ0MFEzNTQgNDM3IDM2NyA0MzNUNDAyIDQxN1Q0MzggMzg3VDQ2NCAzMzhUNDc2IDI2OFE0NzYgMTYxIDM5MCA3NVQyMDEgLTExWk0xMjEgMTIwUTEyMSA3MCAxNDcgNDhUMjA2IDI2UTI1MCAyNiAyODkgNThUMzUxIDE0MlEzNjAgMTYzIDM3NCAyMTZUMzg4IDMwOFEzODggMzUyIDM3MCAzNzVRMzQ2IDQwNSAzMDYgNDA1UTI0MyA0MDUgMTk1IDM0N1ExNTggMzAzIDE0MCAyMzBUMTIxIDEyMFoiIGlkPSJNSlgtMTEyLVRFWC1JLTFENDVDIi8+PHBhdGggZD0iTTIxIDI4N1EyMiAyOTAgMjMgMjk1VDI4IDMxN1QzOCAzNDhUNTMgMzgxVDczIDQxMVQ5OSA0MzNUMTMyIDQ0MlExNjEgNDQyIDE4MyA0MzBUMjE0IDQwOFQyMjUgMzg4UTIyNyAzODIgMjI4IDM4MlQyMzYgMzg5UTI4NCA0NDEgMzQ3IDQ0MUgzNTBRMzk4IDQ0MSA0MjIgNDAwUTQzMCAzODEgNDMwIDM2M1E0MzAgMzMzIDQxNyAzMTVUMzkxIDI5MlQzNjYgMjg4UTM0NiAyODggMzM0IDI5OVQzMjIgMzI4UTMyMiAzNzYgMzc4IDM5MlEzNTYgNDA1IDM0MiA0MDVRMjg2IDQwNSAyMzkgMzMxUTIyOSAzMTUgMjI0IDI5OFQxOTAgMTY1UTE1NiAyNSAxNTEgMTZRMTM4IC0xMSAxMDggLTExUTk1IC0xMSA4NyAtNVQ3NiA3VDc0IDE3UTc0IDMwIDExNCAxODlUMTU0IDM2NlExNTQgNDA1IDEyOCA0MDVRMTA3IDQwNSA5MiAzNzdUNjggMzE2VDU3IDI4MFE1NSAyNzggNDEgMjc4SDI3UTIxIDI4NCAyMSAyODdaIiBpZD0iTUpYLTExMi1URVgtSS0xRDQ1RiIvPjxwYXRoIGQ9Ik0yNiAzODVRMTkgMzkyIDE5IDM5NVExOSAzOTkgMjIgNDExVDI3IDQyNVEyOSA0MzAgMzYgNDMwVDg3IDQzMUgxNDBMMTU5IDUxMVExNjIgNTIyIDE2NiA1NDBUMTczIDU2NlQxNzkgNTg2VDE4NyA2MDNUMTk3IDYxNVQyMTEgNjI0VDIyOSA2MjZRMjQ3IDYyNSAyNTQgNjE1VDI2MSA1OTZRMjYxIDU4OSAyNTIgNTQ5VDIzMiA0NzBMMjIyIDQzM1EyMjIgNDMxIDI3MiA0MzFIMzIzUTMzMCA0MjQgMzMwIDQyMFEzMzAgMzk4IDMxNyAzODVIMjEwTDE3NCAyNDBRMTM1IDgwIDEzNSA2OFExMzUgMjYgMTYyIDI2UTE5NyAyNiAyMzAgNjBUMjgzIDE0NFEyODUgMTUwIDI4OCAxNTFUMzAzIDE1M0gzMDdRMzIyIDE1MyAzMjIgMTQ1UTMyMiAxNDIgMzE5IDEzM1EzMTQgMTE3IDMwMSA5NVQyNjcgNDhUMjE2IDZUMTU1IC0xMVExMjUgLTExIDk4IDRUNTkgNTZRNTcgNjQgNTcgODNWMTAxTDkyIDI0MVExMjcgMzgyIDEyOCAzODNRMTI4IDM4NSA3NyAzODVIMjZaIiBpZD0iTUpYLTExMi1URVgtSS0xRDQ2MSIvPjxwYXRoIGQ9Ik02MCA3NDlMNjQgNzUwUTY5IDc1MCA3NCA3NTBIODZMMTE0IDcyNlEyMDggNjQxIDI1MSA1MTRUMjk0IDI1MFEyOTQgMTgyIDI4NCAxMTlUMjYxIDEyVDIyNCAtNzZUMTg2IC0xNDNUMTQ1IC0xOTRUMTEzIC0yMjdUOTAgLTI0NlE4NyAtMjQ5IDg2IC0yNTBINzRRNjYgLTI1MCA2MyAtMjUwVDU4IC0yNDdUNTUgLTIzOFE1NiAtMjM3IDY2IC0yMjVRMjIxIC02NCAyMjEgMjUwVDY2IDcyNVE1NiA3MzcgNTUgNzM4UTU1IDc0NiA2MCA3NDlaIiBpZD0iTUpYLTExMi1URVgtTi0yOSIvPjwvZGVmcz48ZyB0cmFuc2Zvcm09Im1hdHJpeCgxIDAgMCAtMSAwIDApIiBzdHJva2Utd2lkdGg9IjAiIGZpbGw9ImN1cnJlbnRDb2xvciIgc3Ryb2tlPSJjdXJyZW50Q29sb3IiPjxnIGRhdGEtbW1sLW5vZGU9Im1hdGgiPjxnIGRhdGEtbW1sLW5vZGU9Im1pIj48dXNlIHhsaW5rOmhyZWY9IiNNSlgtMTEyLVRFWC1JLTFENDM4Ii8+PC9nPjxnIHRyYW5zZm9ybT0idHJhbnNsYXRlKDc2NCwgMCkiIGRhdGEtbW1sLW5vZGU9Im1pIj48dXNlIHhsaW5rOmhyZWY9IiNNSlgtMTEyLVRFWC1JLTFENDVCIi8+PC9nPjxnIHRyYW5zZm9ybT0idHJhbnNsYXRlKDEzNjQsIDApIiBkYXRhLW1tbC1ub2RlPSJtc3ViIj48ZyBkYXRhLW1tbC1ub2RlPSJtaSI+PHVzZSB4bGluazpocmVmPSIjTUpYLTExMi1URVgtSS0xRDQ1MCIvPjwvZz48ZyBkYXRhLW1qeC10ZXhjbGFzcz0iT1JEIiB0cmFuc2Zvcm09InRyYW5zbGF0ZSg0MzMsIC0xNTApIHNjYWxlKDAuNzA3KSIgZGF0YS1tbWwtbm9kZT0iVGVYQXRvbSI+PGcgZGF0YS1tbWwtbm9kZT0ibWkiPjx1c2UgeGxpbms6aHJlZj0iI01KWC0xMTItVEVYLUktMUQ0NUQiLz48L2c+PGcgdHJhbnNmb3JtPSJ0cmFuc2xhdGUoNTAzLCAwKSIgZGF0YS1tbWwtbm9kZT0ibWkiPjx1c2UgeGxpbms6aHJlZj0iI01KWC0xMTItVEVYLUktMUQ0NjIiLz48L2c+PGcgdHJhbnNmb3JtPSJ0cmFuc2xhdGUoMTA3NSwgMCkiIGRhdGEtbW1sLW5vZGU9Im1pIj48dXNlIHhsaW5rOmhyZWY9IiNNSlgtMTEyLVRFWC1JLTFENDRGIi8+PC9nPjxnIHRyYW5zZm9ybT0idHJhbnNsYXRlKDE1MDQsIDApIiBkYXRhLW1tbC1ub2RlPSJtaSI+PHVzZSB4bGluazpocmVmPSIjTUpYLTExMi1URVgtSS0xRDQ1OCIvPjwvZz48ZyB0cmFuc2Zvcm09InRyYW5zbGF0ZSgyMDI1LCAwKSIgZGF0YS1tbWwtbm9kZT0ibW4iPjx1c2UgeGxpbms6aHJlZj0iI01KWC0xMTItVEVYLU4tMzEiLz48L2c+PC9nPjwvZz48ZyB0cmFuc2Zvcm09InRyYW5zbGF0ZSgzNjMyLjQsIDApIiBkYXRhLW1tbC1ub2RlPSJtbyI+PHVzZSB4bGluazpocmVmPSIjTUpYLTExMi1URVgtTi0yOCIvPjwvZz48ZyB0cmFuc2Zvcm09InRyYW5zbGF0ZSg0MDIxLjQsIDApIiBkYXRhLW1tbC1ub2RlPSJtaSI+PHVzZSB4bGluazpocmVmPSIjTUpYLTExMi1URVgtSS0xRDQ1OCIvPjwvZz48ZyB0cmFuc2Zvcm09InRyYW5zbGF0ZSg0NTQyLjQsIDApIiBkYXRhLW1tbC1ub2RlPSJtaSI+PHVzZSB4bGluazpocmVmPSIjTUpYLTExMi1URVgtSS0xRDQ1MiIvPjwvZz48ZyB0cmFuc2Zvcm09InRyYW5zbGF0ZSg1MDA4LjQsIDApIiBkYXRhLW1tbC1ub2RlPSJtaSI+PHVzZSB4bGluazpocmVmPSIjTUpYLTExMi1URVgtSS0xRDQ2NiIvPjwvZz48ZyB0cmFuc2Zvcm09InRyYW5zbGF0ZSg1NDk4LjQsIDApIiBkYXRhLW1tbC1ub2RlPSJtbiI+PHVzZSB4bGluazpocmVmPSIjTUpYLTExMi1URVgtTi0zMSIvPjwvZz48ZyB0cmFuc2Zvcm09InRyYW5zbGF0ZSg1OTk4LjQsIDApIiBkYXRhLW1tbC1ub2RlPSJtbyI+PHVzZSB4bGluazpocmVmPSIjTUpYLTExMi1URVgtTi0yQyIvPjwvZz48ZyB0cmFuc2Zvcm09InRyYW5zbGF0ZSg2NDQzLjEsIDApIiBkYXRhLW1tbC1ub2RlPSJtaSI+PHVzZSB4bGluazpocmVmPSIjTUpYLTExMi1URVgtSS0xRDQ1NiIvPjwvZz48ZyB0cmFuc2Zvcm09InRyYW5zbGF0ZSg2Nzg4LjEsIDApIiBkYXRhLW1tbC1ub2RlPSJtaSI+PHVzZSB4bGluazpocmVmPSIjTUpYLTExMi1URVgtSS0xRDQ1RCIvPjwvZz48ZyB0cmFuc2Zvcm09InRyYW5zbGF0ZSg3MjkxLjEsIDApIiBkYXRhLW1tbC1ub2RlPSJtbiI+PHVzZSB4bGluazpocmVmPSIjTUpYLTExMi1URVgtTi0zMiIvPjwvZz48ZyB0cmFuc2Zvcm09InRyYW5zbGF0ZSg3NzkxLjEsIDApIiBkYXRhLW1tbC1ub2RlPSJtbyI+PHVzZSB4bGluazpocmVmPSIjTUpYLTExMi1URVgtTi0yQyIvPjwvZz48ZyB0cmFuc2Zvcm09InRyYW5zbGF0ZSg4MjM1LjgsIDApIiBkYXRhLW1tbC1ub2RlPSJtaSI+PHVzZSB4bGluazpocmVmPSIjTUpYLTExMi1URVgtSS0xRDQ1RCIvPjwvZz48ZyB0cmFuc2Zvcm09InRyYW5zbGF0ZSg4NzM4LjgsIDApIiBkYXRhLW1tbC1ub2RlPSJtaSI+PHVzZSB4bGluazpocmVmPSIjTUpYLTExMi1URVgtSS0xRDQ1QyIvPjwvZz48ZyB0cmFuc2Zvcm09InRyYW5zbGF0ZSg5MjIzLjgsIDApIiBkYXRhLW1tbC1ub2RlPSJtaSI+PHVzZSB4bGluazpocmVmPSIjTUpYLTExMi1URVgtSS0xRDQ1RiIvPjwvZz48ZyB0cmFuc2Zvcm09InRyYW5zbGF0ZSg5Njc0LjgsIDApIiBkYXRhLW1tbC1ub2RlPSJtaSI+PHVzZSB4bGluazpocmVmPSIjTUpYLTExMi1URVgtSS0xRDQ2MSIvPjwvZz48ZyB0cmFuc2Zvcm09InRyYW5zbGF0ZSgxMDAzNS44LCAwKSIgZGF0YS1tbWwtbm9kZT0ibW4iPjx1c2UgeGxpbms6aHJlZj0iI01KWC0xMTItVEVYLU4tMzIiLz48L2c+PGcgdHJhbnNmb3JtPSJ0cmFuc2xhdGUoMTA1MzUuOCwgMCkiIGRhdGEtbW1sLW5vZGU9Im1vIj48dXNlIHhsaW5rOmhyZWY9IiNNSlgtMTEyLVRFWC1OLTI5Ii8+PC9nPjwvZz48L2c+PC9zdmc+;" vertex="1" parent="1">
          <mxGeometry x="242" y="880" width="222" height="21" as="geometry" />
        </mxCell>
        <mxCell id="PUM_M8YaJLtLtkd2Mo2w-65" value="" style="shape=image;imageAspect=0;aspect=fixed;verticalLabelPosition=bottom;verticalAlign=top;fontFamily=Helvetica;image=data:image/svg+xml,PHN2ZyB4bWxuczp4bGluaz0iaHR0cDovL3d3dy53My5vcmcvMTk5OS94bGluayIgeG1sbnM9Imh0dHA6Ly93d3cudzMub3JnLzIwMDAvc3ZnIiBzdHlsZT0iIiBhcmlhLWhpZGRlbj0idHJ1ZSIgdmlld0JveD0iMCAtNzUwIDYzODcuNCAxMDM3LjIiIGhlaWdodD0iMi4zNDdleCIgd2lkdGg9IjE0LjQ1MWV4Ij48ZGVmcz48cGF0aCBkPSJNNDkyIDIxM1E0NzIgMjEzIDQ3MiAyMjZRNDcyIDIzMCA0NzcgMjUwVDQ4MiAyODVRNDgyIDMxNiA0NjEgMzIzVDM2NCAzMzBIMzEyUTMxMSAzMjggMjc3IDE5MlQyNDMgNTJRMjQzIDQ4IDI1NCA0OFQzMzQgNDZRNDI4IDQ2IDQ1OCA0OFQ1MTggNjFRNTY3IDc3IDU5OSAxMTdUNjcwIDI0OFE2ODAgMjcwIDY4MyAyNzJRNjkwIDI3NCA2OTggMjc0UTcxOCAyNzQgNzE4IDI2MVE2MTMgNyA2MDggMlE2MDUgMCAzMjIgMEgxMzNRMzEgMCAzMSAxMVEzMSAxMyAzNCAyNVEzOCA0MSA0MiA0M1Q2NSA0NlE5MiA0NiAxMjUgNDlRMTM5IDUyIDE0NCA2MVExNDYgNjYgMjE1IDM0MlQyODUgNjIyUTI4NSA2MjkgMjgxIDYyOVEyNzMgNjMyIDIyOCA2MzRIMTk3UTE5MSA2NDAgMTkxIDY0MlQxOTMgNjU5UTE5NyA2NzYgMjAzIDY4MEg3NTdRNzY0IDY3NiA3NjQgNjY5UTc2NCA2NjQgNzUxIDU1N1Q3MzcgNDQ3UTczNSA0NDAgNzE3IDQ0MEg3MDVRNjk4IDQ0NSA2OTggNDUzTDcwMSA0NzZRNzA0IDUwMCA3MDQgNTI4UTcwNCA1NTggNjk3IDU3OFQ2NzggNjA5VDY0MyA2MjVUNTk2IDYzMlQ1MzIgNjM0SDQ4NVEzOTcgNjMzIDM5MiA2MzFRMzg4IDYyOSAzODYgNjIyUTM4NSA2MTkgMzU1IDQ5OVQzMjQgMzc3UTM0NyAzNzYgMzcyIDM3NkgzOThRNDY0IDM3NiA0ODkgMzkxVDUzNCA0NzJRNTM4IDQ4OCA1NDAgNDkwVDU1NyA0OTNRNTYyIDQ5MyA1NjUgNDkzVDU3MCA0OTJUNTcyIDQ5MVQ1NzQgNDg3VDU3NyA0ODNMNTQ0IDM1MVE1MTEgMjE4IDUwOCAyMTZRNTA1IDIxMyA0OTIgMjEzWiIgaWQ9Ik1KWC0xMTgtVEVYLUktMUQ0MzgiLz48cGF0aCBkPSJNMjEgMjg3UTIyIDI5MyAyNCAzMDNUMzYgMzQxVDU2IDM4OFQ4OSA0MjVUMTM1IDQ0MlExNzEgNDQyIDE5NSA0MjRUMjI1IDM5MFQyMzEgMzY5UTIzMSAzNjcgMjMyIDM2N0wyNDMgMzc4UTMwNCA0NDIgMzgyIDQ0MlE0MzYgNDQyIDQ2OSA0MTVUNTAzIDMzNlQ0NjUgMTc5VDQyNyA1MlE0MjcgMjYgNDQ0IDI2UTQ1MCAyNiA0NTMgMjdRNDgyIDMyIDUwNSA2NVQ1NDAgMTQ1UTU0MiAxNTMgNTYwIDE1M1E1ODAgMTUzIDU4MCAxNDVRNTgwIDE0NCA1NzYgMTMwUTU2OCAxMDEgNTU0IDczVDUwOCAxN1Q0MzkgLTEwUTM5MiAtMTAgMzcxIDE3VDM1MCA3M1EzNTAgOTIgMzg2IDE5M1Q0MjMgMzQ1UTQyMyA0MDQgMzc5IDQwNEgzNzRRMjg4IDQwNCAyMjkgMzAzTDIyMiAyOTFMMTg5IDE1N1ExNTYgMjYgMTUxIDE2UTEzOCAtMTEgMTA4IC0xMVE5NSAtMTEgODcgLTVUNzYgN1Q3NCAxN1E3NCAzMCAxMTIgMTgwVDE1MiAzNDNRMTUzIDM0OCAxNTMgMzY2UTE1MyA0MDUgMTI5IDQwNVE5MSA0MDUgNjYgMzA1UTYwIDI4NSA2MCAyODRRNTggMjc4IDQxIDI3OEgyN1EyMSAyODQgMjEgMjg3WiIgaWQ9Ik1KWC0xMTgtVEVYLUktMUQ0NUIiLz48cGF0aCBkPSJNMzQgMTU5UTM0IDI2OCAxMjAgMzU1VDMwNiA0NDJRMzYyIDQ0MiAzOTQgNDE4VDQyNyAzNTVRNDI3IDMyNiA0MDggMzA2VDM2MCAyODVRMzQxIDI4NSAzMzAgMjk1VDMxOSAzMjVUMzMwIDM1OVQzNTIgMzgwVDM2NiAzODZIMzY3UTM2NyAzODggMzYxIDM5MlQzNDAgNDAwVDMwNiA0MDRRMjc2IDQwNCAyNDkgMzkwUTIyOCAzODEgMjA2IDM1OVExNjIgMzE1IDE0MiAyMzVUMTIxIDExOVExMjEgNzMgMTQ3IDUwUTE2OSAyNiAyMDUgMjZIMjA5UTMyMSAyNiAzOTQgMTExUTQwMyAxMjEgNDA2IDEyMVE0MTAgMTIxIDQxOSAxMTJUNDI5IDk4VDQyMCA4M1QzOTEgNTVUMzQ2IDI1VDI4MiAwVDIwMiAtMTFRMTI3IC0xMSA4MSAzN1QzNCAxNTlaIiBpZD0iTUpYLTExOC1URVgtSS0xRDQ1MCIvPjxwYXRoIGQ9Ik0yMyAyODdRMjQgMjkwIDI1IDI5NVQzMCAzMTdUNDAgMzQ4VDU1IDM4MVQ3NSA0MTFUMTAxIDQzM1QxMzQgNDQyUTIwOSA0NDIgMjMwIDM3OEwyNDAgMzg3UTMwMiA0NDIgMzU4IDQ0MlE0MjMgNDQyIDQ2MCAzOTVUNDk3IDI4MVE0OTcgMTczIDQyMSA4MlQyNDkgLTEwUTIyNyAtMTAgMjEwIC00UTE5OSAxIDE4NyAxMVQxNjggMjhMMTYxIDM2UTE2MCAzNSAxMzkgLTUxVDExOCAtMTM4UTExOCAtMTQ0IDEyNiAtMTQ1VDE2MyAtMTQ4SDE4OFExOTQgLTE1NSAxOTQgLTE1N1QxOTEgLTE3NVExODggLTE4NyAxODUgLTE5MFQxNzIgLTE5NFExNzAgLTE5NCAxNjEgLTE5NFQxMjcgLTE5M1Q2NSAtMTkyUS01IC0xOTIgLTI0IC0xOTRILTMyUS0zOSAtMTg3IC0zOSAtMTgzUS0zNyAtMTU2IC0yNiAtMTQ4SC02UTI4IC0xNDcgMzMgLTEzNlEzNiAtMTMwIDk0IDEwM1QxNTUgMzUwUTE1NiAzNTUgMTU2IDM2NFExNTYgNDA1IDEzMSA0MDVRMTA5IDQwNSA5NCAzNzdUNzEgMzE2VDU5IDI4MFE1NyAyNzggNDMgMjc4SDI5UTIzIDI4NCAyMyAyODdaTTE3OCAxMDJRMjAwIDI2IDI1MiAyNlEyODIgMjYgMzEwIDQ5VDM1NiAxMDdRMzc0IDE0MSAzOTIgMjE1VDQxMSAzMjVWMzMxUTQxMSA0MDUgMzUwIDQwNVEzMzkgNDA1IDMyOCA0MDJUMzA2IDM5M1QyODYgMzgwVDI2OSAzNjVUMjU0IDM1MFQyNDMgMzM2VDIzNSAzMjZMMjMyIDMyMlEyMzIgMzIxIDIyOSAzMDhUMjE4IDI2NFQyMDQgMjEyUTE3OCAxMDYgMTc4IDEwMloiIGlkPSJNSlgtMTE4LVRFWC1JLTFENDVEIi8+PHBhdGggZD0iTTIxIDI4N1EyMSAyOTUgMzAgMzE4VDU1IDM3MFQ5OSA0MjBUMTU4IDQ0MlEyMDQgNDQyIDIyNyA0MTdUMjUwIDM1OFEyNTAgMzQwIDIxNiAyNDZUMTgyIDEwNVExODIgNjIgMTk2IDQ1VDIzOCAyN1QyOTEgNDRUMzI4IDc4TDMzOSA5NVEzNDEgOTkgMzc3IDI0N1E0MDcgMzY3IDQxMyAzODdUNDI3IDQxNlE0NDQgNDMxIDQ2MyA0MzFRNDgwIDQzMSA0ODggNDIxVDQ5NiA0MDJMNDIwIDg0UTQxOSA3OSA0MTkgNjhRNDE5IDQzIDQyNiAzNVQ0NDcgMjZRNDY5IDI5IDQ4MiA1N1Q1MTIgMTQ1UTUxNCAxNTMgNTMyIDE1M1E1NTEgMTUzIDU1MSAxNDRRNTUwIDEzOSA1NDkgMTMwVDU0MCA5OFQ1MjMgNTVUNDk4IDE3VDQ2MiAtOFE0NTQgLTEwIDQzOCAtMTBRMzcyIC0xMCAzNDcgNDZRMzQ1IDQ1IDMzNiAzNlQzMTggMjFUMjk2IDZUMjY3IC02VDIzMyAtMTFRMTg5IC0xMSAxNTUgN1ExMDMgMzggMTAzIDExM1ExMDMgMTcwIDEzOCAyNjJUMTczIDM3OVExNzMgMzgwIDE3MyAzODFRMTczIDM5MCAxNzMgMzkzVDE2OSA0MDBUMTU4IDQwNEgxNTRRMTMxIDQwNCAxMTIgMzg1VDgyIDM0NFQ2NSAzMDJUNTcgMjgwUTU1IDI3OCA0MSAyNzhIMjdRMjEgMjg0IDIxIDI4N1oiIGlkPSJNSlgtMTE4LVRFWC1JLTFENDYyIi8+PHBhdGggZD0iTTczIDY0N1E3MyA2NTcgNzcgNjcwVDg5IDY4M1E5MCA2ODMgMTYxIDY4OFQyMzQgNjk0UTI0NiA2OTQgMjQ2IDY4NVQyMTIgNTQyUTIwNCA1MDggMTk1IDQ3MlQxODAgNDE4TDE3NiAzOTlRMTc2IDM5NiAxODIgNDAyUTIzMSA0NDIgMjgzIDQ0MlEzNDUgNDQyIDM4MyAzOTZUNDIyIDI4MFE0MjIgMTY5IDM0MyA3OVQxNzMgLTExUTEyMyAtMTEgODIgMjdUNDAgMTUwVjE1OVE0MCAxODAgNDggMjE3VDk3IDQxNFExNDcgNjExIDE0NyA2MjNUMTA5IDYzN1ExMDQgNjM3IDEwMSA2MzdIOTZRODYgNjM3IDgzIDYzN1Q3NiA2NDBUNzMgNjQ3Wk0zMzYgMzI1VjMzMVEzMzYgNDA1IDI3NSA0MDVRMjU4IDQwNSAyNDAgMzk3VDIwNyAzNzZUMTgxIDM1MlQxNjMgMzMwTDE1NyAzMjJMMTM2IDIzNlExMTQgMTUwIDExNCAxMTRRMTE0IDY2IDEzOCA0MlExNTQgMjYgMTc4IDI2UTIxMSAyNiAyNDUgNThRMjcwIDgxIDI4NSAxMTRUMzE4IDIxOVEzMzYgMjkxIDMzNiAzMjVaIiBpZD0iTUpYLTExOC1URVgtSS0xRDQ0RiIvPjxwYXRoIGQ9Ik0xMjEgNjQ3UTEyMSA2NTcgMTI1IDY3MFQxMzcgNjgzUTEzOCA2ODMgMjA5IDY4OFQyODIgNjk0UTI5NCA2OTQgMjk0IDY4NlEyOTQgNjc5IDI0NCA0NzdRMTk0IDI3OSAxOTQgMjcyUTIxMyAyODIgMjIzIDI5MVEyNDcgMzA5IDI5MiAzNTRUMzYyIDQxNVE0MDIgNDQyIDQzOCA0NDJRNDY4IDQ0MiA0ODUgNDIzVDUwMyAzNjlRNTAzIDM0NCA0OTYgMzI3VDQ3NyAzMDJUNDU2IDI5MVQ0MzggMjg4UTQxOCAyODggNDA2IDI5OVQzOTQgMzI4UTM5NCAzNTMgNDEwIDM2OVQ0NDIgMzkwTDQ1OCAzOTNRNDQ2IDQwNSA0MzQgNDA1SDQzMFEzOTggNDAyIDM2NyAzODBUMjk0IDMxNlQyMjggMjU1UTIzMCAyNTQgMjQzIDI1MlQyNjcgMjQ2VDI5MyAyMzhUMzIwIDIyNFQzNDIgMjA2VDM1OSAxODBUMzY1IDE0N1EzNjUgMTMwIDM2MCAxMDZUMzU0IDY2UTM1NCAyNiAzODEgMjZRNDI5IDI2IDQ1OSAxNDVRNDYxIDE1MyA0NzkgMTUzSDQ4M1E0OTkgMTUzIDQ5OSAxNDRRNDk5IDEzOSA0OTYgMTMwUTQ1NSAtMTEgMzc4IC0xMVEzMzMgLTExIDMwNSAxNVQyNzcgOTBRMjc3IDEwOCAyODAgMTIxVDI4MyAxNDVRMjgzIDE2NyAyNjkgMTgzVDIzNCAyMDZUMjAwIDIxN1QxODIgMjIwSDE4MFExNjggMTc4IDE1OSAxMzlUMTQ1IDgxVDEzNiA0NFQxMjkgMjBUMTIyIDdUMTExIC0yUTk4IC0xMSA4MyAtMTFRNjYgLTExIDU3IC0xVDQ4IDE2UTQ4IDI2IDg1IDE3NlQxNTggNDcxTDE5NSA2MTZRMTk2IDYyOSAxODggNjMyVDE0OSA2MzdIMTQ0UTEzNCA2MzcgMTMxIDYzN1QxMjQgNjQwVDEyMSA2NDdaIiBpZD0iTUpYLTExOC1URVgtSS0xRDQ1OCIvPjxwYXRoIGQ9Ik0xMjcgNDYzUTEwMCA0NjMgODUgNDgwVDY5IDUyNFE2OSA1NzkgMTE3IDYyMlQyMzMgNjY1UTI2OCA2NjUgMjc3IDY2NFEzNTEgNjUyIDM5MCA2MTFUNDMwIDUyMlE0MzAgNDcwIDM5NiA0MjFUMzAyIDM1MEwyOTkgMzQ4UTI5OSAzNDcgMzA4IDM0NVQzMzcgMzM2VDM3NSAzMTVRNDU3IDI2MiA0NTcgMTc1UTQ1NyA5NiAzOTUgMzdUMjM4IC0yMlExNTggLTIyIDEwMCAyMVQ0MiAxMzBRNDIgMTU4IDYwIDE3NVQxMDUgMTkzUTEzMyAxOTMgMTUxIDE3NVQxNjkgMTMwUTE2OSAxMTkgMTY2IDExMFQxNTkgOTRUMTQ4IDgyVDEzNiA3NFQxMjYgNzBUMTE4IDY3TDExNCA2NlExNjUgMjEgMjM4IDIxUTI5MyAyMSAzMjEgNzRRMzM4IDEwNyAzMzggMTc1VjE5NVEzMzggMjkwIDI3NCAzMjJRMjU5IDMyOCAyMTMgMzI5TDE3MSAzMzBMMTY4IDMzMlExNjYgMzM1IDE2NiAzNDhRMTY2IDM2NiAxNzQgMzY2UTIwMiAzNjYgMjMyIDM3MVEyNjYgMzc2IDI5NCA0MTNUMzIyIDUyNVY1MzNRMzIyIDU5MCAyODcgNjEyUTI2NSA2MjYgMjQwIDYyNlEyMDggNjI2IDE4MSA2MTVUMTQzIDU5MlQxMzIgNTgwSDEzNVExMzggNTc5IDE0MyA1NzhUMTUzIDU3M1QxNjUgNTY2VDE3NSA1NTVUMTgzIDU0MFQxODYgNTIwUTE4NiA0OTggMTcyIDQ4MVQxMjcgNDYzWiIgaWQ9Ik1KWC0xMTgtVEVYLU4tMzMiLz48cGF0aCBkPSJNOTQgMjUwUTk0IDMxOSAxMDQgMzgxVDEyNyA0ODhUMTY0IDU3NlQyMDIgNjQzVDI0NCA2OTVUMjc3IDcyOVQzMDIgNzUwSDMxNUgzMTlRMzMzIDc1MCAzMzMgNzQxUTMzMyA3MzggMzE2IDcyMFQyNzUgNjY3VDIyNiA1ODFUMTg0IDQ0M1QxNjcgMjUwVDE4NCA1OFQyMjUgLTgxVDI3NCAtMTY3VDMxNiAtMjIwVDMzMyAtMjQxUTMzMyAtMjUwIDMxOCAtMjUwSDMxNUgzMDJMMjc0IC0yMjZRMTgwIC0xNDEgMTM3IC0xNFQ5NCAyNTBaIiBpZD0iTUpYLTExOC1URVgtTi0yOCIvPjxwYXRoIGQ9Ik0zOSAxNjhRMzkgMjI1IDU4IDI3MlQxMDcgMzUwVDE3NCA0MDJUMjQ0IDQzM1QzMDcgNDQySDMxMFEzNTUgNDQyIDM4OCA0MjBUNDIxIDM1NVE0MjEgMjY1IDMxMCAyMzdRMjYxIDIyNCAxNzYgMjIzUTEzOSAyMjMgMTM4IDIyMVExMzggMjE5IDEzMiAxODZUMTI1IDEyOFExMjUgODEgMTQ2IDU0VDIwOSAyNlQzMDIgNDVUMzk0IDExMVE0MDMgMTIxIDQwNiAxMjFRNDEwIDEyMSA0MTkgMTEyVDQyOSA5OFQ0MjAgODJUMzkwIDU1VDM0NCAyNFQyODEgLTFUMjA1IC0xMVExMjYgLTExIDgzIDQyVDM5IDE2OFpNMzczIDM1M1EzNjcgNDA1IDMwNSA0MDVRMjcyIDQwNSAyNDQgMzkxVDE5OSAzNTdUMTcwIDMxNlQxNTQgMjgwVDE0OSAyNjFRMTQ5IDI2MCAxNjkgMjYwUTI4MiAyNjAgMzI3IDI4NFQzNzMgMzUzWiIgaWQ9Ik1KWC0xMTgtVEVYLUktMUQ0NTIiLz48cGF0aCBkPSJNMjEgMjg3UTIxIDMwMSAzNiAzMzVUODQgNDA2VDE1OCA0NDJRMTk5IDQ0MiAyMjQgNDE5VDI1MCAzNTVRMjQ4IDMzNiAyNDcgMzM0UTI0NyAzMzEgMjMxIDI4OFQxOTggMTkxVDE4MiAxMDVRMTgyIDYyIDE5NiA0NVQyMzggMjdRMjYxIDI3IDI4MSAzOFQzMTIgNjFUMzM5IDk0UTMzOSA5NSAzNDQgMTE0VDM1OCAxNzNUMzc3IDI0N1E0MTUgMzk3IDQxOSA0MDRRNDMyIDQzMSA0NjIgNDMxUTQ3NSA0MzEgNDgzIDQyNFQ0OTQgNDEyVDQ5NiA0MDNRNDk2IDM5MCA0NDcgMTkzVDM5MSAtMjNRMzYzIC0xMDYgMjk0IC0xNTVUMTU2IC0yMDVRMTExIC0yMDUgNzcgLTE4M1Q0MyAtMTE3UTQzIC05NSA1MCAtODBUNjkgLTU4VDg5IC00OFQxMDYgLTQ1UTE1MCAtNDUgMTUwIC04N1ExNTAgLTEwNyAxMzggLTEyMlQxMTUgLTE0MlQxMDIgLTE0N0w5OSAtMTQ4UTEwMSAtMTUzIDExOCAtMTYwVDE1MiAtMTY3SDE2MFExNzcgLTE2NyAxODYgLTE2NVEyMTkgLTE1NiAyNDcgLTEyN1QyOTAgLTY1VDMxMyAtOVQzMjEgMjFMMzE1IDE3UTMwOSAxMyAyOTYgNlQyNzAgLTZRMjUwIC0xMSAyMzEgLTExUTE4NSAtMTEgMTUwIDExVDEwNCA4MlExMDMgODkgMTAzIDExM1ExMDMgMTcwIDEzOCAyNjJUMTczIDM3OVExNzMgMzgwIDE3MyAzODFRMTczIDM5MCAxNzMgMzkzVDE2OSA0MDBUMTU4IDQwNEgxNTRRMTMxIDQwNCAxMTIgMzg1VDgyIDM0NFQ2NSAzMDJUNTcgMjgwUTU1IDI3OCA0MSAyNzhIMjdRMjEgMjg0IDIxIDI4N1oiIGlkPSJNSlgtMTE4LVRFWC1JLTFENDY2Ii8+PHBhdGggZD0iTTYwIDc0OUw2NCA3NTBRNjkgNzUwIDc0IDc1MEg4NkwxMTQgNzI2UTIwOCA2NDEgMjUxIDUxNFQyOTQgMjUwUTI5NCAxODIgMjg0IDExOVQyNjEgMTJUMjI0IC03NlQxODYgLTE0M1QxNDUgLTE5NFQxMTMgLTIyN1Q5MCAtMjQ2UTg3IC0yNDkgODYgLTI1MEg3NFE2NiAtMjUwIDYzIC0yNTBUNTggLTI0N1Q1NSAtMjM4UTU2IC0yMzcgNjYgLTIyNVEyMjEgLTY0IDIyMSAyNTBUNjYgNzI1UTU2IDczNyA1NSA3MzhRNTUgNzQ2IDYwIDc0OVoiIGlkPSJNSlgtMTE4LVRFWC1OLTI5Ii8+PC9kZWZzPjxnIHRyYW5zZm9ybT0ibWF0cml4KDEgMCAwIC0xIDAgMCkiIHN0cm9rZS13aWR0aD0iMCIgZmlsbD0iY3VycmVudENvbG9yIiBzdHJva2U9ImN1cnJlbnRDb2xvciI+PGcgZGF0YS1tbWwtbm9kZT0ibWF0aCI+PGcgZGF0YS1tbWwtbm9kZT0ibWkiPjx1c2UgeGxpbms6aHJlZj0iI01KWC0xMTgtVEVYLUktMUQ0MzgiLz48L2c+PGcgdHJhbnNmb3JtPSJ0cmFuc2xhdGUoNzY0LCAwKSIgZGF0YS1tbWwtbm9kZT0ibWkiPjx1c2UgeGxpbms6aHJlZj0iI01KWC0xMTgtVEVYLUktMUQ0NUIiLz48L2c+PGcgdHJhbnNmb3JtPSJ0cmFuc2xhdGUoMTM2NCwgMCkiIGRhdGEtbW1sLW5vZGU9Im1zdWIiPjxnIGRhdGEtbW1sLW5vZGU9Im1pIj48dXNlIHhsaW5rOmhyZWY9IiNNSlgtMTE4LVRFWC1JLTFENDUwIi8+PC9nPjxnIGRhdGEtbWp4LXRleGNsYXNzPSJPUkQiIHRyYW5zZm9ybT0idHJhbnNsYXRlKDQzMywgLTE1MCkgc2NhbGUoMC43MDcpIiBkYXRhLW1tbC1ub2RlPSJUZVhBdG9tIj48ZyBkYXRhLW1tbC1ub2RlPSJtaSI+PHVzZSB4bGluazpocmVmPSIjTUpYLTExOC1URVgtSS0xRDQ1RCIvPjwvZz48ZyB0cmFuc2Zvcm09InRyYW5zbGF0ZSg1MDMsIDApIiBkYXRhLW1tbC1ub2RlPSJtaSI+PHVzZSB4bGluazpocmVmPSIjTUpYLTExOC1URVgtSS0xRDQ2MiIvPjwvZz48ZyB0cmFuc2Zvcm09InRyYW5zbGF0ZSgxMDc1LCAwKSIgZGF0YS1tbWwtbm9kZT0ibWkiPjx1c2UgeGxpbms6aHJlZj0iI01KWC0xMTgtVEVYLUktMUQ0NEYiLz48L2c+PGcgdHJhbnNmb3JtPSJ0cmFuc2xhdGUoMTUwNCwgMCkiIGRhdGEtbW1sLW5vZGU9Im1pIj48dXNlIHhsaW5rOmhyZWY9IiNNSlgtMTE4LVRFWC1JLTFENDU4Ii8+PC9nPjxnIHRyYW5zZm9ybT0idHJhbnNsYXRlKDIwMjUsIDApIiBkYXRhLW1tbC1ub2RlPSJtbiI+PHVzZSB4bGluazpocmVmPSIjTUpYLTExOC1URVgtTi0zMyIvPjwvZz48L2c+PC9nPjxnIHRyYW5zZm9ybT0idHJhbnNsYXRlKDM2MzIuNCwgMCkiIGRhdGEtbW1sLW5vZGU9Im1vIj48dXNlIHhsaW5rOmhyZWY9IiNNSlgtMTE4LVRFWC1OLTI4Ii8+PC9nPjxnIHRyYW5zZm9ybT0idHJhbnNsYXRlKDQwMjEuNCwgMCkiIGRhdGEtbW1sLW5vZGU9Im1pIj48dXNlIHhsaW5rOmhyZWY9IiNNSlgtMTE4LVRFWC1JLTFENDU4Ii8+PC9nPjxnIHRyYW5zZm9ybT0idHJhbnNsYXRlKDQ1NDIuNCwgMCkiIGRhdGEtbW1sLW5vZGU9Im1pIj48dXNlIHhsaW5rOmhyZWY9IiNNSlgtMTE4LVRFWC1JLTFENDUyIi8+PC9nPjxnIHRyYW5zZm9ybT0idHJhbnNsYXRlKDUwMDguNCwgMCkiIGRhdGEtbW1sLW5vZGU9Im1pIj48dXNlIHhsaW5rOmhyZWY9IiNNSlgtMTE4LVRFWC1JLTFENDY2Ii8+PC9nPjxnIHRyYW5zZm9ybT0idHJhbnNsYXRlKDU0OTguNCwgMCkiIGRhdGEtbW1sLW5vZGU9Im1uIj48dXNlIHhsaW5rOmhyZWY9IiNNSlgtMTE4LVRFWC1OLTMzIi8+PC9nPjxnIHRyYW5zZm9ybT0idHJhbnNsYXRlKDU5OTguNCwgMCkiIGRhdGEtbW1sLW5vZGU9Im1vIj48dXNlIHhsaW5rOmhyZWY9IiNNSlgtMTE4LVRFWC1OLTI5Ii8+PC9nPjwvZz48L2c+PC9zdmc+;" vertex="1" parent="1">
          <mxGeometry x="410" y="1014.5" width="130" height="21" as="geometry" />
        </mxCell>
        <mxCell id="PUM_M8YaJLtLtkd2Mo2w-67" value="" style="shape=ext;double=1;rounded=1;whiteSpace=wrap;html=1;fontFamily=Helvetica;align=left;" vertex="1" parent="1">
          <mxGeometry x="161" y="1520" width="150" height="90" as="geometry" />
        </mxCell>
        <mxCell id="PUM_M8YaJLtLtkd2Mo2w-68" value="" style="rounded=1;whiteSpace=wrap;html=1;fontFamily=Helvetica;align=left;" vertex="1" parent="1">
          <mxGeometry x="181" y="1550" width="120" height="50" as="geometry" />
        </mxCell>
        <mxCell id="PUM_M8YaJLtLtkd2Mo2w-69" value="" style="rounded=1;whiteSpace=wrap;html=1;fontFamily=Helvetica;" vertex="1" parent="1">
          <mxGeometry x="206.45000000000005" y="1575" width="91" height="20" as="geometry" />
        </mxCell>
        <mxCell id="PUM_M8YaJLtLtkd2Mo2w-70" value="" style="shape=image;imageAspect=0;aspect=fixed;verticalLabelPosition=bottom;verticalAlign=top;fontFamily=Helvetica;image=data:image/svg+xml,PHN2ZyB4bWxuczp4bGluaz0iaHR0cDovL3d3dy53My5vcmcvMTk5OS94bGluayIgeG1sbnM9Imh0dHA6Ly93d3cudzMub3JnLzIwMDAvc3ZnIiBzdHlsZT0iIiBhcmlhLWhpZGRlbj0idHJ1ZSIgdmlld0JveD0iMCAtNzUwIDEwOTI0LjggMTAzNy4yIiBoZWlnaHQ9IjIuMzQ3ZXgiIHdpZHRoPSIyNC43MTdleCI+PGRlZnM+PHBhdGggZD0iTTQ5MiAyMTNRNDcyIDIxMyA0NzIgMjI2UTQ3MiAyMzAgNDc3IDI1MFQ0ODIgMjg1UTQ4MiAzMTYgNDYxIDMyM1QzNjQgMzMwSDMxMlEzMTEgMzI4IDI3NyAxOTJUMjQzIDUyUTI0MyA0OCAyNTQgNDhUMzM0IDQ2UTQyOCA0NiA0NTggNDhUNTE4IDYxUTU2NyA3NyA1OTkgMTE3VDY3MCAyNDhRNjgwIDI3MCA2ODMgMjcyUTY5MCAyNzQgNjk4IDI3NFE3MTggMjc0IDcxOCAyNjFRNjEzIDcgNjA4IDJRNjA1IDAgMzIyIDBIMTMzUTMxIDAgMzEgMTFRMzEgMTMgMzQgMjVRMzggNDEgNDIgNDNUNjUgNDZROTIgNDYgMTI1IDQ5UTEzOSA1MiAxNDQgNjFRMTQ2IDY2IDIxNSAzNDJUMjg1IDYyMlEyODUgNjI5IDI4MSA2MjlRMjczIDYzMiAyMjggNjM0SDE5N1ExOTEgNjQwIDE5MSA2NDJUMTkzIDY1OVExOTcgNjc2IDIwMyA2ODBINzU3UTc2NCA2NzYgNzY0IDY2OVE3NjQgNjY0IDc1MSA1NTdUNzM3IDQ0N1E3MzUgNDQwIDcxNyA0NDBINzA1UTY5OCA0NDUgNjk4IDQ1M0w3MDEgNDc2UTcwNCA1MDAgNzA0IDUyOFE3MDQgNTU4IDY5NyA1NzhUNjc4IDYwOVQ2NDMgNjI1VDU5NiA2MzJUNTMyIDYzNEg0ODVRMzk3IDYzMyAzOTIgNjMxUTM4OCA2MjkgMzg2IDYyMlEzODUgNjE5IDM1NSA0OTlUMzI0IDM3N1EzNDcgMzc2IDM3MiAzNzZIMzk4UTQ2NCAzNzYgNDg5IDM5MVQ1MzQgNDcyUTUzOCA0ODggNTQwIDQ5MFQ1NTcgNDkzUTU2MiA0OTMgNTY1IDQ5M1Q1NzAgNDkyVDU3MiA0OTFUNTc0IDQ4N1Q1NzcgNDgzTDU0NCAzNTFRNTExIDIxOCA1MDggMjE2UTUwNSAyMTMgNDkyIDIxM1oiIGlkPSJNSlgtOTYtVEVYLUktMUQ0MzgiLz48cGF0aCBkPSJNMjEgMjg3UTIyIDI5MyAyNCAzMDNUMzYgMzQxVDU2IDM4OFQ4OSA0MjVUMTM1IDQ0MlExNzEgNDQyIDE5NSA0MjRUMjI1IDM5MFQyMzEgMzY5UTIzMSAzNjcgMjMyIDM2N0wyNDMgMzc4UTMwNCA0NDIgMzgyIDQ0MlE0MzYgNDQyIDQ2OSA0MTVUNTAzIDMzNlQ0NjUgMTc5VDQyNyA1MlE0MjcgMjYgNDQ0IDI2UTQ1MCAyNiA0NTMgMjdRNDgyIDMyIDUwNSA2NVQ1NDAgMTQ1UTU0MiAxNTMgNTYwIDE1M1E1ODAgMTUzIDU4MCAxNDVRNTgwIDE0NCA1NzYgMTMwUTU2OCAxMDEgNTU0IDczVDUwOCAxN1Q0MzkgLTEwUTM5MiAtMTAgMzcxIDE3VDM1MCA3M1EzNTAgOTIgMzg2IDE5M1Q0MjMgMzQ1UTQyMyA0MDQgMzc5IDQwNEgzNzRRMjg4IDQwNCAyMjkgMzAzTDIyMiAyOTFMMTg5IDE1N1ExNTYgMjYgMTUxIDE2UTEzOCAtMTEgMTA4IC0xMVE5NSAtMTEgODcgLTVUNzYgN1Q3NCAxN1E3NCAzMCAxMTIgMTgwVDE1MiAzNDNRMTUzIDM0OCAxNTMgMzY2UTE1MyA0MDUgMTI5IDQwNVE5MSA0MDUgNjYgMzA1UTYwIDI4NSA2MCAyODRRNTggMjc4IDQxIDI3OEgyN1EyMSAyODQgMjEgMjg3WiIgaWQ9Ik1KWC05Ni1URVgtSS0xRDQ1QiIvPjxwYXRoIGQ9Ik0zNCAxNTlRMzQgMjY4IDEyMCAzNTVUMzA2IDQ0MlEzNjIgNDQyIDM5NCA0MThUNDI3IDM1NVE0MjcgMzI2IDQwOCAzMDZUMzYwIDI4NVEzNDEgMjg1IDMzMCAyOTVUMzE5IDMyNVQzMzAgMzU5VDM1MiAzODBUMzY2IDM4NkgzNjdRMzY3IDM4OCAzNjEgMzkyVDM0MCA0MDBUMzA2IDQwNFEyNzYgNDA0IDI0OSAzOTBRMjI4IDM4MSAyMDYgMzU5UTE2MiAzMTUgMTQyIDIzNVQxMjEgMTE5UTEyMSA3MyAxNDcgNTBRMTY5IDI2IDIwNSAyNkgyMDlRMzIxIDI2IDM5NCAxMTFRNDAzIDEyMSA0MDYgMTIxUTQxMCAxMjEgNDE5IDExMlQ0MjkgOThUNDIwIDgzVDM5MSA1NVQzNDYgMjVUMjgyIDBUMjAyIC0xMVExMjcgLTExIDgxIDM3VDM0IDE1OVoiIGlkPSJNSlgtOTYtVEVYLUktMUQ0NTAiLz48cGF0aCBkPSJNMjMgMjg3UTI0IDI5MCAyNSAyOTVUMzAgMzE3VDQwIDM0OFQ1NSAzODFUNzUgNDExVDEwMSA0MzNUMTM0IDQ0MlEyMDkgNDQyIDIzMCAzNzhMMjQwIDM4N1EzMDIgNDQyIDM1OCA0NDJRNDIzIDQ0MiA0NjAgMzk1VDQ5NyAyODFRNDk3IDE3MyA0MjEgODJUMjQ5IC0xMFEyMjcgLTEwIDIxMCAtNFExOTkgMSAxODcgMTFUMTY4IDI4TDE2MSAzNlExNjAgMzUgMTM5IC01MVQxMTggLTEzOFExMTggLTE0NCAxMjYgLTE0NVQxNjMgLTE0OEgxODhRMTk0IC0xNTUgMTk0IC0xNTdUMTkxIC0xNzVRMTg4IC0xODcgMTg1IC0xOTBUMTcyIC0xOTRRMTcwIC0xOTQgMTYxIC0xOTRUMTI3IC0xOTNUNjUgLTE5MlEtNSAtMTkyIC0yNCAtMTk0SC0zMlEtMzkgLTE4NyAtMzkgLTE4M1EtMzcgLTE1NiAtMjYgLTE0OEgtNlEyOCAtMTQ3IDMzIC0xMzZRMzYgLTEzMCA5NCAxMDNUMTU1IDM1MFExNTYgMzU1IDE1NiAzNjRRMTU2IDQwNSAxMzEgNDA1UTEwOSA0MDUgOTQgMzc3VDcxIDMxNlQ1OSAyODBRNTcgMjc4IDQzIDI3OEgyOVEyMyAyODQgMjMgMjg3Wk0xNzggMTAyUTIwMCAyNiAyNTIgMjZRMjgyIDI2IDMxMCA0OVQzNTYgMTA3UTM3NCAxNDEgMzkyIDIxNVQ0MTEgMzI1VjMzMVE0MTEgNDA1IDM1MCA0MDVRMzM5IDQwNSAzMjggNDAyVDMwNiAzOTNUMjg2IDM4MFQyNjkgMzY1VDI1NCAzNTBUMjQzIDMzNlQyMzUgMzI2TDIzMiAzMjJRMjMyIDMyMSAyMjkgMzA4VDIxOCAyNjRUMjA0IDIxMlExNzggMTA2IDE3OCAxMDJaIiBpZD0iTUpYLTk2LVRFWC1JLTFENDVEIi8+PHBhdGggZD0iTTIxIDI4N1EyMSAyOTUgMzAgMzE4VDU1IDM3MFQ5OSA0MjBUMTU4IDQ0MlEyMDQgNDQyIDIyNyA0MTdUMjUwIDM1OFEyNTAgMzQwIDIxNiAyNDZUMTgyIDEwNVExODIgNjIgMTk2IDQ1VDIzOCAyN1QyOTEgNDRUMzI4IDc4TDMzOSA5NVEzNDEgOTkgMzc3IDI0N1E0MDcgMzY3IDQxMyAzODdUNDI3IDQxNlE0NDQgNDMxIDQ2MyA0MzFRNDgwIDQzMSA0ODggNDIxVDQ5NiA0MDJMNDIwIDg0UTQxOSA3OSA0MTkgNjhRNDE5IDQzIDQyNiAzNVQ0NDcgMjZRNDY5IDI5IDQ4MiA1N1Q1MTIgMTQ1UTUxNCAxNTMgNTMyIDE1M1E1NTEgMTUzIDU1MSAxNDRRNTUwIDEzOSA1NDkgMTMwVDU0MCA5OFQ1MjMgNTVUNDk4IDE3VDQ2MiAtOFE0NTQgLTEwIDQzOCAtMTBRMzcyIC0xMCAzNDcgNDZRMzQ1IDQ1IDMzNiAzNlQzMTggMjFUMjk2IDZUMjY3IC02VDIzMyAtMTFRMTg5IC0xMSAxNTUgN1ExMDMgMzggMTAzIDExM1ExMDMgMTcwIDEzOCAyNjJUMTczIDM3OVExNzMgMzgwIDE3MyAzODFRMTczIDM5MCAxNzMgMzkzVDE2OSA0MDBUMTU4IDQwNEgxNTRRMTMxIDQwNCAxMTIgMzg1VDgyIDM0NFQ2NSAzMDJUNTcgMjgwUTU1IDI3OCA0MSAyNzhIMjdRMjEgMjg0IDIxIDI4N1oiIGlkPSJNSlgtOTYtVEVYLUktMUQ0NjIiLz48cGF0aCBkPSJNNzMgNjQ3UTczIDY1NyA3NyA2NzBUODkgNjgzUTkwIDY4MyAxNjEgNjg4VDIzNCA2OTRRMjQ2IDY5NCAyNDYgNjg1VDIxMiA1NDJRMjA0IDUwOCAxOTUgNDcyVDE4MCA0MThMMTc2IDM5OVExNzYgMzk2IDE4MiA0MDJRMjMxIDQ0MiAyODMgNDQyUTM0NSA0NDIgMzgzIDM5NlQ0MjIgMjgwUTQyMiAxNjkgMzQzIDc5VDE3MyAtMTFRMTIzIC0xMSA4MiAyN1Q0MCAxNTBWMTU5UTQwIDE4MCA0OCAyMTdUOTcgNDE0UTE0NyA2MTEgMTQ3IDYyM1QxMDkgNjM3UTEwNCA2MzcgMTAxIDYzN0g5NlE4NiA2MzcgODMgNjM3VDc2IDY0MFQ3MyA2NDdaTTMzNiAzMjVWMzMxUTMzNiA0MDUgMjc1IDQwNVEyNTggNDA1IDI0MCAzOTdUMjA3IDM3NlQxODEgMzUyVDE2MyAzMzBMMTU3IDMyMkwxMzYgMjM2UTExNCAxNTAgMTE0IDExNFExMTQgNjYgMTM4IDQyUTE1NCAyNiAxNzggMjZRMjExIDI2IDI0NSA1OFEyNzAgODEgMjg1IDExNFQzMTggMjE5UTMzNiAyOTEgMzM2IDMyNVoiIGlkPSJNSlgtOTYtVEVYLUktMUQ0NEYiLz48cGF0aCBkPSJNMTIxIDY0N1ExMjEgNjU3IDEyNSA2NzBUMTM3IDY4M1ExMzggNjgzIDIwOSA2ODhUMjgyIDY5NFEyOTQgNjk0IDI5NCA2ODZRMjk0IDY3OSAyNDQgNDc3UTE5NCAyNzkgMTk0IDI3MlEyMTMgMjgyIDIyMyAyOTFRMjQ3IDMwOSAyOTIgMzU0VDM2MiA0MTVRNDAyIDQ0MiA0MzggNDQyUTQ2OCA0NDIgNDg1IDQyM1Q1MDMgMzY5UTUwMyAzNDQgNDk2IDMyN1Q0NzcgMzAyVDQ1NiAyOTFUNDM4IDI4OFE0MTggMjg4IDQwNiAyOTlUMzk0IDMyOFEzOTQgMzUzIDQxMCAzNjlUNDQyIDM5MEw0NTggMzkzUTQ0NiA0MDUgNDM0IDQwNUg0MzBRMzk4IDQwMiAzNjcgMzgwVDI5NCAzMTZUMjI4IDI1NVEyMzAgMjU0IDI0MyAyNTJUMjY3IDI0NlQyOTMgMjM4VDMyMCAyMjRUMzQyIDIwNlQzNTkgMTgwVDM2NSAxNDdRMzY1IDEzMCAzNjAgMTA2VDM1NCA2NlEzNTQgMjYgMzgxIDI2UTQyOSAyNiA0NTkgMTQ1UTQ2MSAxNTMgNDc5IDE1M0g0ODNRNDk5IDE1MyA0OTkgMTQ0UTQ5OSAxMzkgNDk2IDEzMFE0NTUgLTExIDM3OCAtMTFRMzMzIC0xMSAzMDUgMTVUMjc3IDkwUTI3NyAxMDggMjgwIDEyMVQyODMgMTQ1UTI4MyAxNjcgMjY5IDE4M1QyMzQgMjA2VDIwMCAyMTdUMTgyIDIyMEgxODBRMTY4IDE3OCAxNTkgMTM5VDE0NSA4MVQxMzYgNDRUMTI5IDIwVDEyMiA3VDExMSAtMlE5OCAtMTEgODMgLTExUTY2IC0xMSA1NyAtMVQ0OCAxNlE0OCAyNiA4NSAxNzZUMTU4IDQ3MUwxOTUgNjE2UTE5NiA2MjkgMTg4IDYzMlQxNDkgNjM3SDE0NFExMzQgNjM3IDEzMSA2MzdUMTI0IDY0MFQxMjEgNjQ3WiIgaWQ9Ik1KWC05Ni1URVgtSS0xRDQ1OCIvPjxwYXRoIGQ9Ik0xMDkgNDI5UTgyIDQyOSA2NiA0NDdUNTAgNDkxUTUwIDU2MiAxMDMgNjE0VDIzNSA2NjZRMzI2IDY2NiAzODcgNjEwVDQ0OSA0NjVRNDQ5IDQyMiA0MjkgMzgzVDM4MSAzMTVUMzAxIDI0MVEyNjUgMjEwIDIwMSAxNDlMMTQyIDkzTDIxOCA5MlEzNzUgOTIgMzg1IDk3UTM5MiA5OSA0MDkgMTg2VjE4OUg0NDlWMTg2UTQ0OCAxODMgNDM2IDk1VDQyMSAzVjBINTBWMTlWMzFRNTAgMzggNTYgNDZUODYgODFRMTE1IDExMyAxMzYgMTM3UTE0NSAxNDcgMTcwIDE3NFQyMDQgMjExVDIzMyAyNDRUMjYxIDI3OFQyODQgMzA4VDMwNSAzNDBUMzIwIDM2OVQzMzMgNDAxVDM0MCA0MzFUMzQzIDQ2NFEzNDMgNTI3IDMwOSA1NzNUMjEyIDYxOVExNzkgNjE5IDE1NCA2MDJUMTE5IDU2OVQxMDkgNTUwUTEwOSA1NDkgMTE0IDU0OVExMzIgNTQ5IDE1MSA1MzVUMTcwIDQ4OVExNzAgNDY0IDE1NCA0NDdUMTA5IDQyOVoiIGlkPSJNSlgtOTYtVEVYLU4tMzIiLz48cGF0aCBkPSJNOTQgMjUwUTk0IDMxOSAxMDQgMzgxVDEyNyA0ODhUMTY0IDU3NlQyMDIgNjQzVDI0NCA2OTVUMjc3IDcyOVQzMDIgNzUwSDMxNUgzMTlRMzMzIDc1MCAzMzMgNzQxUTMzMyA3MzggMzE2IDcyMFQyNzUgNjY3VDIyNiA1ODFUMTg0IDQ0M1QxNjcgMjUwVDE4NCA1OFQyMjUgLTgxVDI3NCAtMTY3VDMxNiAtMjIwVDMzMyAtMjQxUTMzMyAtMjUwIDMxOCAtMjUwSDMxNUgzMDJMMjc0IC0yMjZRMTgwIC0xNDEgMTM3IC0xNFQ5NCAyNTBaIiBpZD0iTUpYLTk2LVRFWC1OLTI4Ii8+PHBhdGggZD0iTTM5IDE2OFEzOSAyMjUgNTggMjcyVDEwNyAzNTBUMTc0IDQwMlQyNDQgNDMzVDMwNyA0NDJIMzEwUTM1NSA0NDIgMzg4IDQyMFQ0MjEgMzU1UTQyMSAyNjUgMzEwIDIzN1EyNjEgMjI0IDE3NiAyMjNRMTM5IDIyMyAxMzggMjIxUTEzOCAyMTkgMTMyIDE4NlQxMjUgMTI4UTEyNSA4MSAxNDYgNTRUMjA5IDI2VDMwMiA0NVQzOTQgMTExUTQwMyAxMjEgNDA2IDEyMVE0MTAgMTIxIDQxOSAxMTJUNDI5IDk4VDQyMCA4MlQzOTAgNTVUMzQ0IDI0VDI4MSAtMVQyMDUgLTExUTEyNiAtMTEgODMgNDJUMzkgMTY4Wk0zNzMgMzUzUTM2NyA0MDUgMzA1IDQwNVEyNzIgNDA1IDI0NCAzOTFUMTk5IDM1N1QxNzAgMzE2VDE1NCAyODBUMTQ5IDI2MVExNDkgMjYwIDE2OSAyNjBRMjgyIDI2MCAzMjcgMjg0VDM3MyAzNTNaIiBpZD0iTUpYLTk2LVRFWC1JLTFENDUyIi8+PHBhdGggZD0iTTIxIDI4N1EyMSAzMDEgMzYgMzM1VDg0IDQwNlQxNTggNDQyUTE5OSA0NDIgMjI0IDQxOVQyNTAgMzU1UTI0OCAzMzYgMjQ3IDMzNFEyNDcgMzMxIDIzMSAyODhUMTk4IDE5MVQxODIgMTA1UTE4MiA2MiAxOTYgNDVUMjM4IDI3UTI2MSAyNyAyODEgMzhUMzEyIDYxVDMzOSA5NFEzMzkgOTUgMzQ0IDExNFQzNTggMTczVDM3NyAyNDdRNDE1IDM5NyA0MTkgNDA0UTQzMiA0MzEgNDYyIDQzMVE0NzUgNDMxIDQ4MyA0MjRUNDk0IDQxMlQ0OTYgNDAzUTQ5NiAzOTAgNDQ3IDE5M1QzOTEgLTIzUTM2MyAtMTA2IDI5NCAtMTU1VDE1NiAtMjA1UTExMSAtMjA1IDc3IC0xODNUNDMgLTExN1E0MyAtOTUgNTAgLTgwVDY5IC01OFQ4OSAtNDhUMTA2IC00NVExNTAgLTQ1IDE1MCAtODdRMTUwIC0xMDcgMTM4IC0xMjJUMTE1IC0xNDJUMTAyIC0xNDdMOTkgLTE0OFExMDEgLTE1MyAxMTggLTE2MFQxNTIgLTE2N0gxNjBRMTc3IC0xNjcgMTg2IC0xNjVRMjE5IC0xNTYgMjQ3IC0xMjdUMjkwIC02NVQzMTMgLTlUMzIxIDIxTDMxNSAxN1EzMDkgMTMgMjk2IDZUMjcwIC02UTI1MCAtMTEgMjMxIC0xMVExODUgLTExIDE1MCAxMVQxMDQgODJRMTAzIDg5IDEwMyAxMTNRMTAzIDE3MCAxMzggMjYyVDE3MyAzNzlRMTczIDM4MCAxNzMgMzgxUTE3MyAzOTAgMTczIDM5M1QxNjkgNDAwVDE1OCA0MDRIMTU0UTEzMSA0MDQgMTEyIDM4NVQ4MiAzNDRUNjUgMzAyVDU3IDI4MFE1NSAyNzggNDEgMjc4SDI3UTIxIDI4NCAyMSAyODdaIiBpZD0iTUpYLTk2LVRFWC1JLTFENDY2Ii8+PHBhdGggZD0iTTc4IDM1VDc4IDYwVDk0IDEwM1QxMzcgMTIxUTE2NSAxMjEgMTg3IDk2VDIxMCA4UTIxMCAtMjcgMjAxIC02MFQxODAgLTExN1QxNTQgLTE1OFQxMzAgLTE4NVQxMTcgLTE5NFExMTMgLTE5NCAxMDQgLTE4NVQ5NSAtMTcyUTk1IC0xNjggMTA2IC0xNTZUMTMxIC0xMjZUMTU3IC03NlQxNzMgLTNWOUwxNzIgOFExNzAgNyAxNjcgNlQxNjEgM1QxNTIgMVQxNDAgMFExMTMgMCA5NiAxN1oiIGlkPSJNSlgtOTYtVEVYLU4tMkMiLz48cGF0aCBkPSJNMTg0IDYwMFExODQgNjI0IDIwMyA2NDJUMjQ3IDY2MVEyNjUgNjYxIDI3NyA2NDlUMjkwIDYxOVEyOTAgNTk2IDI3MCA1NzdUMjI2IDU1N1EyMTEgNTU3IDE5OCA1NjdUMTg0IDYwMFpNMjEgMjg3UTIxIDI5NSAzMCAzMThUNTQgMzY5VDk4IDQyMFQxNTggNDQyUTE5NyA0NDIgMjIzIDQxOVQyNTAgMzU3UTI1MCAzNDAgMjM2IDMwMVQxOTYgMTk2VDE1NCA4M1ExNDkgNjEgMTQ5IDUxUTE0OSAyNiAxNjYgMjZRMTc1IDI2IDE4NSAyOVQyMDggNDNUMjM1IDc4VDI2MCAxMzdRMjYzIDE0OSAyNjUgMTUxVDI4MiAxNTNRMzAyIDE1MyAzMDIgMTQzUTMwMiAxMzUgMjkzIDExMlQyNjggNjFUMjIzIDExVDE2MSAtMTFRMTI5IC0xMSAxMDIgMTBUNzQgNzRRNzQgOTEgNzkgMTA2VDEyMiAyMjBRMTYwIDMyMSAxNjYgMzQxVDE3MyAzODBRMTczIDQwNCAxNTYgNDA0SDE1NFExMjQgNDA0IDk5IDM3MVQ2MSAyODdRNjAgMjg2IDU5IDI4NFQ1OCAyODFUNTYgMjc5VDUzIDI3OFQ0OSAyNzhUNDEgMjc4SDI3UTIxIDI4NCAyMSAyODdaIiBpZD0iTUpYLTk2LVRFWC1JLTFENDU2Ii8+PHBhdGggZD0iTTEyNyA0NjNRMTAwIDQ2MyA4NSA0ODBUNjkgNTI0UTY5IDU3OSAxMTcgNjIyVDIzMyA2NjVRMjY4IDY2NSAyNzcgNjY0UTM1MSA2NTIgMzkwIDYxMVQ0MzAgNTIyUTQzMCA0NzAgMzk2IDQyMVQzMDIgMzUwTDI5OSAzNDhRMjk5IDM0NyAzMDggMzQ1VDMzNyAzMzZUMzc1IDMxNVE0NTcgMjYyIDQ1NyAxNzVRNDU3IDk2IDM5NSAzN1QyMzggLTIyUTE1OCAtMjIgMTAwIDIxVDQyIDEzMFE0MiAxNTggNjAgMTc1VDEwNSAxOTNRMTMzIDE5MyAxNTEgMTc1VDE2OSAxMzBRMTY5IDExOSAxNjYgMTEwVDE1OSA5NFQxNDggODJUMTM2IDc0VDEyNiA3MFQxMTggNjdMMTE0IDY2UTE2NSAyMSAyMzggMjFRMjkzIDIxIDMyMSA3NFEzMzggMTA3IDMzOCAxNzVWMTk1UTMzOCAyOTAgMjc0IDMyMlEyNTkgMzI4IDIxMyAzMjlMMTcxIDMzMEwxNjggMzMyUTE2NiAzMzUgMTY2IDM0OFExNjYgMzY2IDE3NCAzNjZRMjAyIDM2NiAyMzIgMzcxUTI2NiAzNzYgMjk0IDQxM1QzMjIgNTI1VjUzM1EzMjIgNTkwIDI4NyA2MTJRMjY1IDYyNiAyNDAgNjI2UTIwOCA2MjYgMTgxIDYxNVQxNDMgNTkyVDEzMiA1ODBIMTM1UTEzOCA1NzkgMTQzIDU3OFQxNTMgNTczVDE2NSA1NjZUMTc1IDU1NVQxODMgNTQwVDE4NiA1MjBRMTg2IDQ5OCAxNzIgNDgxVDEyNyA0NjNaIiBpZD0iTUpYLTk2LVRFWC1OLTMzIi8+PHBhdGggZD0iTTIwMSAtMTFRMTI2IC0xMSA4MCAzOFQzNCAxNTZRMzQgMjIxIDY0IDI3OVQxNDYgMzgwUTIyMiA0NDEgMzAxIDQ0MVEzMzMgNDQxIDM0MSA0NDBRMzU0IDQzNyAzNjcgNDMzVDQwMiA0MTdUNDM4IDM4N1Q0NjQgMzM4VDQ3NiAyNjhRNDc2IDE2MSAzOTAgNzVUMjAxIC0xMVpNMTIxIDEyMFExMjEgNzAgMTQ3IDQ4VDIwNiAyNlEyNTAgMjYgMjg5IDU4VDM1MSAxNDJRMzYwIDE2MyAzNzQgMjE2VDM4OCAzMDhRMzg4IDM1MiAzNzAgMzc1UTM0NiA0MDUgMzA2IDQwNVEyNDMgNDA1IDE5NSAzNDdRMTU4IDMwMyAxNDAgMjMwVDEyMSAxMjBaIiBpZD0iTUpYLTk2LVRFWC1JLTFENDVDIi8+PHBhdGggZD0iTTIxIDI4N1EyMiAyOTAgMjMgMjk1VDI4IDMxN1QzOCAzNDhUNTMgMzgxVDczIDQxMVQ5OSA0MzNUMTMyIDQ0MlExNjEgNDQyIDE4MyA0MzBUMjE0IDQwOFQyMjUgMzg4UTIyNyAzODIgMjI4IDM4MlQyMzYgMzg5UTI4NCA0NDEgMzQ3IDQ0MUgzNTBRMzk4IDQ0MSA0MjIgNDAwUTQzMCAzODEgNDMwIDM2M1E0MzAgMzMzIDQxNyAzMTVUMzkxIDI5MlQzNjYgMjg4UTM0NiAyODggMzM0IDI5OVQzMjIgMzI4UTMyMiAzNzYgMzc4IDM5MlEzNTYgNDA1IDM0MiA0MDVRMjg2IDQwNSAyMzkgMzMxUTIyOSAzMTUgMjI0IDI5OFQxOTAgMTY1UTE1NiAyNSAxNTEgMTZRMTM4IC0xMSAxMDggLTExUTk1IC0xMSA4NyAtNVQ3NiA3VDc0IDE3UTc0IDMwIDExNCAxODlUMTU0IDM2NlExNTQgNDA1IDEyOCA0MDVRMTA3IDQwNSA5MiAzNzdUNjggMzE2VDU3IDI4MFE1NSAyNzggNDEgMjc4SDI3UTIxIDI4NCAyMSAyODdaIiBpZD0iTUpYLTk2LVRFWC1JLTFENDVGIi8+PHBhdGggZD0iTTI2IDM4NVExOSAzOTIgMTkgMzk1UTE5IDM5OSAyMiA0MTFUMjcgNDI1UTI5IDQzMCAzNiA0MzBUODcgNDMxSDE0MEwxNTkgNTExUTE2MiA1MjIgMTY2IDU0MFQxNzMgNTY2VDE3OSA1ODZUMTg3IDYwM1QxOTcgNjE1VDIxMSA2MjRUMjI5IDYyNlEyNDcgNjI1IDI1NCA2MTVUMjYxIDU5NlEyNjEgNTg5IDI1MiA1NDlUMjMyIDQ3MEwyMjIgNDMzUTIyMiA0MzEgMjcyIDQzMUgzMjNRMzMwIDQyNCAzMzAgNDIwUTMzMCAzOTggMzE3IDM4NUgyMTBMMTc0IDI0MFExMzUgODAgMTM1IDY4UTEzNSAyNiAxNjIgMjZRMTk3IDI2IDIzMCA2MFQyODMgMTQ0UTI4NSAxNTAgMjg4IDE1MVQzMDMgMTUzSDMwN1EzMjIgMTUzIDMyMiAxNDVRMzIyIDE0MiAzMTkgMTMzUTMxNCAxMTcgMzAxIDk1VDI2NyA0OFQyMTYgNlQxNTUgLTExUTEyNSAtMTEgOTggNFQ1OSA1NlE1NyA2NCA1NyA4M1YxMDFMOTIgMjQxUTEyNyAzODIgMTI4IDM4M1ExMjggMzg1IDc3IDM4NUgyNloiIGlkPSJNSlgtOTYtVEVYLUktMUQ0NjEiLz48cGF0aCBkPSJNNjAgNzQ5TDY0IDc1MFE2OSA3NTAgNzQgNzUwSDg2TDExNCA3MjZRMjA4IDY0MSAyNTEgNTE0VDI5NCAyNTBRMjk0IDE4MiAyODQgMTE5VDI2MSAxMlQyMjQgLTc2VDE4NiAtMTQzVDE0NSAtMTk0VDExMyAtMjI3VDkwIC0yNDZRODcgLTI0OSA4NiAtMjUwSDc0UTY2IC0yNTAgNjMgLTI1MFQ1OCAtMjQ3VDU1IC0yMzhRNTYgLTIzNyA2NiAtMjI1UTIyMSAtNjQgMjIxIDI1MFQ2NiA3MjVRNTYgNzM3IDU1IDczOFE1NSA3NDYgNjAgNzQ5WiIgaWQ9Ik1KWC05Ni1URVgtTi0yOSIvPjwvZGVmcz48ZyB0cmFuc2Zvcm09Im1hdHJpeCgxIDAgMCAtMSAwIDApIiBzdHJva2Utd2lkdGg9IjAiIGZpbGw9ImN1cnJlbnRDb2xvciIgc3Ryb2tlPSJjdXJyZW50Q29sb3IiPjxnIGRhdGEtbW1sLW5vZGU9Im1hdGgiPjxnIGRhdGEtbW1sLW5vZGU9Im1pIj48dXNlIHhsaW5rOmhyZWY9IiNNSlgtOTYtVEVYLUktMUQ0MzgiLz48L2c+PGcgdHJhbnNmb3JtPSJ0cmFuc2xhdGUoNzY0LCAwKSIgZGF0YS1tbWwtbm9kZT0ibWkiPjx1c2UgeGxpbms6aHJlZj0iI01KWC05Ni1URVgtSS0xRDQ1QiIvPjwvZz48ZyB0cmFuc2Zvcm09InRyYW5zbGF0ZSgxMzY0LCAwKSIgZGF0YS1tbWwtbm9kZT0ibXN1YiI+PGcgZGF0YS1tbWwtbm9kZT0ibWkiPjx1c2UgeGxpbms6aHJlZj0iI01KWC05Ni1URVgtSS0xRDQ1MCIvPjwvZz48ZyBkYXRhLW1qeC10ZXhjbGFzcz0iT1JEIiB0cmFuc2Zvcm09InRyYW5zbGF0ZSg0MzMsIC0xNTApIHNjYWxlKDAuNzA3KSIgZGF0YS1tbWwtbm9kZT0iVGVYQXRvbSI+PGcgZGF0YS1tbWwtbm9kZT0ibWkiPjx1c2UgeGxpbms6aHJlZj0iI01KWC05Ni1URVgtSS0xRDQ1RCIvPjwvZz48ZyB0cmFuc2Zvcm09InRyYW5zbGF0ZSg1MDMsIDApIiBkYXRhLW1tbC1ub2RlPSJtaSI+PHVzZSB4bGluazpocmVmPSIjTUpYLTk2LVRFWC1JLTFENDYyIi8+PC9nPjxnIHRyYW5zZm9ybT0idHJhbnNsYXRlKDEwNzUsIDApIiBkYXRhLW1tbC1ub2RlPSJtaSI+PHVzZSB4bGluazpocmVmPSIjTUpYLTk2LVRFWC1JLTFENDRGIi8+PC9nPjxnIHRyYW5zZm9ybT0idHJhbnNsYXRlKDE1MDQsIDApIiBkYXRhLW1tbC1ub2RlPSJtaSI+PHVzZSB4bGluazpocmVmPSIjTUpYLTk2LVRFWC1JLTFENDU4Ii8+PC9nPjxnIHRyYW5zZm9ybT0idHJhbnNsYXRlKDIwMjUsIDApIiBkYXRhLW1tbC1ub2RlPSJtbiI+PHVzZSB4bGluazpocmVmPSIjTUpYLTk2LVRFWC1OLTMyIi8+PC9nPjwvZz48L2c+PGcgdHJhbnNmb3JtPSJ0cmFuc2xhdGUoMzYzMi40LCAwKSIgZGF0YS1tbWwtbm9kZT0ibW8iPjx1c2UgeGxpbms6aHJlZj0iI01KWC05Ni1URVgtTi0yOCIvPjwvZz48ZyB0cmFuc2Zvcm09InRyYW5zbGF0ZSg0MDIxLjQsIDApIiBkYXRhLW1tbC1ub2RlPSJtaSI+PHVzZSB4bGluazpocmVmPSIjTUpYLTk2LVRFWC1JLTFENDU4Ii8+PC9nPjxnIHRyYW5zZm9ybT0idHJhbnNsYXRlKDQ1NDIuNCwgMCkiIGRhdGEtbW1sLW5vZGU9Im1pIj48dXNlIHhsaW5rOmhyZWY9IiNNSlgtOTYtVEVYLUktMUQ0NTIiLz48L2c+PGcgdHJhbnNmb3JtPSJ0cmFuc2xhdGUoNTAwOC40LCAwKSIgZGF0YS1tbWwtbm9kZT0ibWkiPjx1c2UgeGxpbms6aHJlZj0iI01KWC05Ni1URVgtSS0xRDQ2NiIvPjwvZz48ZyB0cmFuc2Zvcm09InRyYW5zbGF0ZSg1NDk4LjQsIDApIiBkYXRhLW1tbC1ub2RlPSJtbiI+PHVzZSB4bGluazpocmVmPSIjTUpYLTk2LVRFWC1OLTMyIi8+PC9nPjxnIHRyYW5zZm9ybT0idHJhbnNsYXRlKDU5OTguNCwgMCkiIGRhdGEtbW1sLW5vZGU9Im1vIj48dXNlIHhsaW5rOmhyZWY9IiNNSlgtOTYtVEVYLU4tMkMiLz48L2c+PGcgdHJhbnNmb3JtPSJ0cmFuc2xhdGUoNjQ0My4xLCAwKSIgZGF0YS1tbWwtbm9kZT0ibWkiPjx1c2UgeGxpbms6aHJlZj0iI01KWC05Ni1URVgtSS0xRDQ1NiIvPjwvZz48ZyB0cmFuc2Zvcm09InRyYW5zbGF0ZSg2Nzg4LjEsIDApIiBkYXRhLW1tbC1ub2RlPSJtaSI+PHVzZSB4bGluazpocmVmPSIjTUpYLTk2LVRFWC1JLTFENDVEIi8+PC9nPjxnIHRyYW5zZm9ybT0idHJhbnNsYXRlKDcyOTEuMSwgMCkiIGRhdGEtbW1sLW5vZGU9Im1uIj48dXNlIHhsaW5rOmhyZWY9IiNNSlgtOTYtVEVYLU4tMzMiLz48L2c+PGcgdHJhbnNmb3JtPSJ0cmFuc2xhdGUoNzc5MS4xLCAwKSIgZGF0YS1tbWwtbm9kZT0ibW8iPjx1c2UgeGxpbms6aHJlZj0iI01KWC05Ni1URVgtTi0yQyIvPjwvZz48ZyB0cmFuc2Zvcm09InRyYW5zbGF0ZSg4MjM1LjgsIDApIiBkYXRhLW1tbC1ub2RlPSJtaSI+PHVzZSB4bGluazpocmVmPSIjTUpYLTk2LVRFWC1JLTFENDVEIi8+PC9nPjxnIHRyYW5zZm9ybT0idHJhbnNsYXRlKDg3MzguOCwgMCkiIGRhdGEtbW1sLW5vZGU9Im1pIj48dXNlIHhsaW5rOmhyZWY9IiNNSlgtOTYtVEVYLUktMUQ0NUMiLz48L2c+PGcgdHJhbnNmb3JtPSJ0cmFuc2xhdGUoOTIyMy44LCAwKSIgZGF0YS1tbWwtbm9kZT0ibWkiPjx1c2UgeGxpbms6aHJlZj0iI01KWC05Ni1URVgtSS0xRDQ1RiIvPjwvZz48ZyB0cmFuc2Zvcm09InRyYW5zbGF0ZSg5Njc0LjgsIDApIiBkYXRhLW1tbC1ub2RlPSJtaSI+PHVzZSB4bGluazpocmVmPSIjTUpYLTk2LVRFWC1JLTFENDYxIi8+PC9nPjxnIHRyYW5zZm9ybT0idHJhbnNsYXRlKDEwMDM1LjgsIDApIiBkYXRhLW1tbC1ub2RlPSJtbiI+PHVzZSB4bGluazpocmVmPSIjTUpYLTk2LVRFWC1OLTMzIi8+PC9nPjxnIHRyYW5zZm9ybT0idHJhbnNsYXRlKDEwNTM1LjgsIDApIiBkYXRhLW1tbC1ub2RlPSJtbyI+PHVzZSB4bGluazpocmVmPSIjTUpYLTk2LVRFWC1OLTI5Ii8+PC9nPjwvZz48L2c+PC9zdmc+;" vertex="1" parent="1">
          <mxGeometry x="191" y="1560" width="105.71" height="10" as="geometry" />
        </mxCell>
        <mxCell id="PUM_M8YaJLtLtkd2Mo2w-71" value="" style="shape=image;imageAspect=0;aspect=fixed;verticalLabelPosition=bottom;verticalAlign=top;fontFamily=Helvetica;image=data:image/svg+xml,PHN2ZyB4bWxuczp4bGluaz0iaHR0cDovL3d3dy53My5vcmcvMTk5OS94bGluayIgeG1sbnM9Imh0dHA6Ly93d3cudzMub3JnLzIwMDAvc3ZnIiBzdHlsZT0iIiBhcmlhLWhpZGRlbj0idHJ1ZSIgdmlld0JveD0iMCAtNzUwIDEwOTI0LjggMTAzNy4yIiBoZWlnaHQ9IjIuMzQ3ZXgiIHdpZHRoPSIyNC43MTdleCI+PGRlZnM+PHBhdGggZD0iTTQ5MiAyMTNRNDcyIDIxMyA0NzIgMjI2UTQ3MiAyMzAgNDc3IDI1MFQ0ODIgMjg1UTQ4MiAzMTYgNDYxIDMyM1QzNjQgMzMwSDMxMlEzMTEgMzI4IDI3NyAxOTJUMjQzIDUyUTI0MyA0OCAyNTQgNDhUMzM0IDQ2UTQyOCA0NiA0NTggNDhUNTE4IDYxUTU2NyA3NyA1OTkgMTE3VDY3MCAyNDhRNjgwIDI3MCA2ODMgMjcyUTY5MCAyNzQgNjk4IDI3NFE3MTggMjc0IDcxOCAyNjFRNjEzIDcgNjA4IDJRNjA1IDAgMzIyIDBIMTMzUTMxIDAgMzEgMTFRMzEgMTMgMzQgMjVRMzggNDEgNDIgNDNUNjUgNDZROTIgNDYgMTI1IDQ5UTEzOSA1MiAxNDQgNjFRMTQ2IDY2IDIxNSAzNDJUMjg1IDYyMlEyODUgNjI5IDI4MSA2MjlRMjczIDYzMiAyMjggNjM0SDE5N1ExOTEgNjQwIDE5MSA2NDJUMTkzIDY1OVExOTcgNjc2IDIwMyA2ODBINzU3UTc2NCA2NzYgNzY0IDY2OVE3NjQgNjY0IDc1MSA1NTdUNzM3IDQ0N1E3MzUgNDQwIDcxNyA0NDBINzA1UTY5OCA0NDUgNjk4IDQ1M0w3MDEgNDc2UTcwNCA1MDAgNzA0IDUyOFE3MDQgNTU4IDY5NyA1NzhUNjc4IDYwOVQ2NDMgNjI1VDU5NiA2MzJUNTMyIDYzNEg0ODVRMzk3IDYzMyAzOTIgNjMxUTM4OCA2MjkgMzg2IDYyMlEzODUgNjE5IDM1NSA0OTlUMzI0IDM3N1EzNDcgMzc2IDM3MiAzNzZIMzk4UTQ2NCAzNzYgNDg5IDM5MVQ1MzQgNDcyUTUzOCA0ODggNTQwIDQ5MFQ1NTcgNDkzUTU2MiA0OTMgNTY1IDQ5M1Q1NzAgNDkyVDU3MiA0OTFUNTc0IDQ4N1Q1NzcgNDgzTDU0NCAzNTFRNTExIDIxOCA1MDggMjE2UTUwNSAyMTMgNDkyIDIxM1oiIGlkPSJNSlgtMTEyLVRFWC1JLTFENDM4Ii8+PHBhdGggZD0iTTIxIDI4N1EyMiAyOTMgMjQgMzAzVDM2IDM0MVQ1NiAzODhUODkgNDI1VDEzNSA0NDJRMTcxIDQ0MiAxOTUgNDI0VDIyNSAzOTBUMjMxIDM2OVEyMzEgMzY3IDIzMiAzNjdMMjQzIDM3OFEzMDQgNDQyIDM4MiA0NDJRNDM2IDQ0MiA0NjkgNDE1VDUwMyAzMzZUNDY1IDE3OVQ0MjcgNTJRNDI3IDI2IDQ0NCAyNlE0NTAgMjYgNDUzIDI3UTQ4MiAzMiA1MDUgNjVUNTQwIDE0NVE1NDIgMTUzIDU2MCAxNTNRNTgwIDE1MyA1ODAgMTQ1UTU4MCAxNDQgNTc2IDEzMFE1NjggMTAxIDU1NCA3M1Q1MDggMTdUNDM5IC0xMFEzOTIgLTEwIDM3MSAxN1QzNTAgNzNRMzUwIDkyIDM4NiAxOTNUNDIzIDM0NVE0MjMgNDA0IDM3OSA0MDRIMzc0UTI4OCA0MDQgMjI5IDMwM0wyMjIgMjkxTDE4OSAxNTdRMTU2IDI2IDE1MSAxNlExMzggLTExIDEwOCAtMTFROTUgLTExIDg3IC01VDc2IDdUNzQgMTdRNzQgMzAgMTEyIDE4MFQxNTIgMzQzUTE1MyAzNDggMTUzIDM2NlExNTMgNDA1IDEyOSA0MDVROTEgNDA1IDY2IDMwNVE2MCAyODUgNjAgMjg0UTU4IDI3OCA0MSAyNzhIMjdRMjEgMjg0IDIxIDI4N1oiIGlkPSJNSlgtMTEyLVRFWC1JLTFENDVCIi8+PHBhdGggZD0iTTM0IDE1OVEzNCAyNjggMTIwIDM1NVQzMDYgNDQyUTM2MiA0NDIgMzk0IDQxOFQ0MjcgMzU1UTQyNyAzMjYgNDA4IDMwNlQzNjAgMjg1UTM0MSAyODUgMzMwIDI5NVQzMTkgMzI1VDMzMCAzNTlUMzUyIDM4MFQzNjYgMzg2SDM2N1EzNjcgMzg4IDM2MSAzOTJUMzQwIDQwMFQzMDYgNDA0UTI3NiA0MDQgMjQ5IDM5MFEyMjggMzgxIDIwNiAzNTlRMTYyIDMxNSAxNDIgMjM1VDEyMSAxMTlRMTIxIDczIDE0NyA1MFExNjkgMjYgMjA1IDI2SDIwOVEzMjEgMjYgMzk0IDExMVE0MDMgMTIxIDQwNiAxMjFRNDEwIDEyMSA0MTkgMTEyVDQyOSA5OFQ0MjAgODNUMzkxIDU1VDM0NiAyNVQyODIgMFQyMDIgLTExUTEyNyAtMTEgODEgMzdUMzQgMTU5WiIgaWQ9Ik1KWC0xMTItVEVYLUktMUQ0NTAiLz48cGF0aCBkPSJNMjMgMjg3UTI0IDI5MCAyNSAyOTVUMzAgMzE3VDQwIDM0OFQ1NSAzODFUNzUgNDExVDEwMSA0MzNUMTM0IDQ0MlEyMDkgNDQyIDIzMCAzNzhMMjQwIDM4N1EzMDIgNDQyIDM1OCA0NDJRNDIzIDQ0MiA0NjAgMzk1VDQ5NyAyODFRNDk3IDE3MyA0MjEgODJUMjQ5IC0xMFEyMjcgLTEwIDIxMCAtNFExOTkgMSAxODcgMTFUMTY4IDI4TDE2MSAzNlExNjAgMzUgMTM5IC01MVQxMTggLTEzOFExMTggLTE0NCAxMjYgLTE0NVQxNjMgLTE0OEgxODhRMTk0IC0xNTUgMTk0IC0xNTdUMTkxIC0xNzVRMTg4IC0xODcgMTg1IC0xOTBUMTcyIC0xOTRRMTcwIC0xOTQgMTYxIC0xOTRUMTI3IC0xOTNUNjUgLTE5MlEtNSAtMTkyIC0yNCAtMTk0SC0zMlEtMzkgLTE4NyAtMzkgLTE4M1EtMzcgLTE1NiAtMjYgLTE0OEgtNlEyOCAtMTQ3IDMzIC0xMzZRMzYgLTEzMCA5NCAxMDNUMTU1IDM1MFExNTYgMzU1IDE1NiAzNjRRMTU2IDQwNSAxMzEgNDA1UTEwOSA0MDUgOTQgMzc3VDcxIDMxNlQ1OSAyODBRNTcgMjc4IDQzIDI3OEgyOVEyMyAyODQgMjMgMjg3Wk0xNzggMTAyUTIwMCAyNiAyNTIgMjZRMjgyIDI2IDMxMCA0OVQzNTYgMTA3UTM3NCAxNDEgMzkyIDIxNVQ0MTEgMzI1VjMzMVE0MTEgNDA1IDM1MCA0MDVRMzM5IDQwNSAzMjggNDAyVDMwNiAzOTNUMjg2IDM4MFQyNjkgMzY1VDI1NCAzNTBUMjQzIDMzNlQyMzUgMzI2TDIzMiAzMjJRMjMyIDMyMSAyMjkgMzA4VDIxOCAyNjRUMjA0IDIxMlExNzggMTA2IDE3OCAxMDJaIiBpZD0iTUpYLTExMi1URVgtSS0xRDQ1RCIvPjxwYXRoIGQ9Ik0yMSAyODdRMjEgMjk1IDMwIDMxOFQ1NSAzNzBUOTkgNDIwVDE1OCA0NDJRMjA0IDQ0MiAyMjcgNDE3VDI1MCAzNThRMjUwIDM0MCAyMTYgMjQ2VDE4MiAxMDVRMTgyIDYyIDE5NiA0NVQyMzggMjdUMjkxIDQ0VDMyOCA3OEwzMzkgOTVRMzQxIDk5IDM3NyAyNDdRNDA3IDM2NyA0MTMgMzg3VDQyNyA0MTZRNDQ0IDQzMSA0NjMgNDMxUTQ4MCA0MzEgNDg4IDQyMVQ0OTYgNDAyTDQyMCA4NFE0MTkgNzkgNDE5IDY4UTQxOSA0MyA0MjYgMzVUNDQ3IDI2UTQ2OSAyOSA0ODIgNTdUNTEyIDE0NVE1MTQgMTUzIDUzMiAxNTNRNTUxIDE1MyA1NTEgMTQ0UTU1MCAxMzkgNTQ5IDEzMFQ1NDAgOThUNTIzIDU1VDQ5OCAxN1Q0NjIgLThRNDU0IC0xMCA0MzggLTEwUTM3MiAtMTAgMzQ3IDQ2UTM0NSA0NSAzMzYgMzZUMzE4IDIxVDI5NiA2VDI2NyAtNlQyMzMgLTExUTE4OSAtMTEgMTU1IDdRMTAzIDM4IDEwMyAxMTNRMTAzIDE3MCAxMzggMjYyVDE3MyAzNzlRMTczIDM4MCAxNzMgMzgxUTE3MyAzOTAgMTczIDM5M1QxNjkgNDAwVDE1OCA0MDRIMTU0UTEzMSA0MDQgMTEyIDM4NVQ4MiAzNDRUNjUgMzAyVDU3IDI4MFE1NSAyNzggNDEgMjc4SDI3UTIxIDI4NCAyMSAyODdaIiBpZD0iTUpYLTExMi1URVgtSS0xRDQ2MiIvPjxwYXRoIGQ9Ik03MyA2NDdRNzMgNjU3IDc3IDY3MFQ4OSA2ODNROTAgNjgzIDE2MSA2ODhUMjM0IDY5NFEyNDYgNjk0IDI0NiA2ODVUMjEyIDU0MlEyMDQgNTA4IDE5NSA0NzJUMTgwIDQxOEwxNzYgMzk5UTE3NiAzOTYgMTgyIDQwMlEyMzEgNDQyIDI4MyA0NDJRMzQ1IDQ0MiAzODMgMzk2VDQyMiAyODBRNDIyIDE2OSAzNDMgNzlUMTczIC0xMVExMjMgLTExIDgyIDI3VDQwIDE1MFYxNTlRNDAgMTgwIDQ4IDIxN1Q5NyA0MTRRMTQ3IDYxMSAxNDcgNjIzVDEwOSA2MzdRMTA0IDYzNyAxMDEgNjM3SDk2UTg2IDYzNyA4MyA2MzdUNzYgNjQwVDczIDY0N1pNMzM2IDMyNVYzMzFRMzM2IDQwNSAyNzUgNDA1UTI1OCA0MDUgMjQwIDM5N1QyMDcgMzc2VDE4MSAzNTJUMTYzIDMzMEwxNTcgMzIyTDEzNiAyMzZRMTE0IDE1MCAxMTQgMTE0UTExNCA2NiAxMzggNDJRMTU0IDI2IDE3OCAyNlEyMTEgMjYgMjQ1IDU4UTI3MCA4MSAyODUgMTE0VDMxOCAyMTlRMzM2IDI5MSAzMzYgMzI1WiIgaWQ9Ik1KWC0xMTItVEVYLUktMUQ0NEYiLz48cGF0aCBkPSJNMTIxIDY0N1ExMjEgNjU3IDEyNSA2NzBUMTM3IDY4M1ExMzggNjgzIDIwOSA2ODhUMjgyIDY5NFEyOTQgNjk0IDI5NCA2ODZRMjk0IDY3OSAyNDQgNDc3UTE5NCAyNzkgMTk0IDI3MlEyMTMgMjgyIDIyMyAyOTFRMjQ3IDMwOSAyOTIgMzU0VDM2MiA0MTVRNDAyIDQ0MiA0MzggNDQyUTQ2OCA0NDIgNDg1IDQyM1Q1MDMgMzY5UTUwMyAzNDQgNDk2IDMyN1Q0NzcgMzAyVDQ1NiAyOTFUNDM4IDI4OFE0MTggMjg4IDQwNiAyOTlUMzk0IDMyOFEzOTQgMzUzIDQxMCAzNjlUNDQyIDM5MEw0NTggMzkzUTQ0NiA0MDUgNDM0IDQwNUg0MzBRMzk4IDQwMiAzNjcgMzgwVDI5NCAzMTZUMjI4IDI1NVEyMzAgMjU0IDI0MyAyNTJUMjY3IDI0NlQyOTMgMjM4VDMyMCAyMjRUMzQyIDIwNlQzNTkgMTgwVDM2NSAxNDdRMzY1IDEzMCAzNjAgMTA2VDM1NCA2NlEzNTQgMjYgMzgxIDI2UTQyOSAyNiA0NTkgMTQ1UTQ2MSAxNTMgNDc5IDE1M0g0ODNRNDk5IDE1MyA0OTkgMTQ0UTQ5OSAxMzkgNDk2IDEzMFE0NTUgLTExIDM3OCAtMTFRMzMzIC0xMSAzMDUgMTVUMjc3IDkwUTI3NyAxMDggMjgwIDEyMVQyODMgMTQ1UTI4MyAxNjcgMjY5IDE4M1QyMzQgMjA2VDIwMCAyMTdUMTgyIDIyMEgxODBRMTY4IDE3OCAxNTkgMTM5VDE0NSA4MVQxMzYgNDRUMTI5IDIwVDEyMiA3VDExMSAtMlE5OCAtMTEgODMgLTExUTY2IC0xMSA1NyAtMVQ0OCAxNlE0OCAyNiA4NSAxNzZUMTU4IDQ3MUwxOTUgNjE2UTE5NiA2MjkgMTg4IDYzMlQxNDkgNjM3SDE0NFExMzQgNjM3IDEzMSA2MzdUMTI0IDY0MFQxMjEgNjQ3WiIgaWQ9Ik1KWC0xMTItVEVYLUktMUQ0NTgiLz48cGF0aCBkPSJNMjEzIDU3OEwyMDAgNTczUTE4NiA1NjggMTYwIDU2M1QxMDIgNTU2SDgzVjYwMkgxMDJRMTQ5IDYwNCAxODkgNjE3VDI0NSA2NDFUMjczIDY2M1EyNzUgNjY2IDI4NSA2NjZRMjk0IDY2NiAzMDIgNjYwVjM2MUwzMDMgNjFRMzEwIDU0IDMxNSA1MlQzMzkgNDhUNDAxIDQ2SDQyN1YwSDQxNlEzOTUgMyAyNTcgM1ExMjEgMyAxMDAgMEg4OFY0NkgxMTRRMTM2IDQ2IDE1MiA0NlQxNzcgNDdUMTkzIDUwVDIwMSA1MlQyMDcgNTdUMjEzIDYxVjU3OFoiIGlkPSJNSlgtMTEyLVRFWC1OLTMxIi8+PHBhdGggZD0iTTk0IDI1MFE5NCAzMTkgMTA0IDM4MVQxMjcgNDg4VDE2NCA1NzZUMjAyIDY0M1QyNDQgNjk1VDI3NyA3MjlUMzAyIDc1MEgzMTVIMzE5UTMzMyA3NTAgMzMzIDc0MVEzMzMgNzM4IDMxNiA3MjBUMjc1IDY2N1QyMjYgNTgxVDE4NCA0NDNUMTY3IDI1MFQxODQgNThUMjI1IC04MVQyNzQgLTE2N1QzMTYgLTIyMFQzMzMgLTI0MVEzMzMgLTI1MCAzMTggLTI1MEgzMTVIMzAyTDI3NCAtMjI2UTE4MCAtMTQxIDEzNyAtMTRUOTQgMjUwWiIgaWQ9Ik1KWC0xMTItVEVYLU4tMjgiLz48cGF0aCBkPSJNMzkgMTY4UTM5IDIyNSA1OCAyNzJUMTA3IDM1MFQxNzQgNDAyVDI0NCA0MzNUMzA3IDQ0MkgzMTBRMzU1IDQ0MiAzODggNDIwVDQyMSAzNTVRNDIxIDI2NSAzMTAgMjM3UTI2MSAyMjQgMTc2IDIyM1ExMzkgMjIzIDEzOCAyMjFRMTM4IDIxOSAxMzIgMTg2VDEyNSAxMjhRMTI1IDgxIDE0NiA1NFQyMDkgMjZUMzAyIDQ1VDM5NCAxMTFRNDAzIDEyMSA0MDYgMTIxUTQxMCAxMjEgNDE5IDExMlQ0MjkgOThUNDIwIDgyVDM5MCA1NVQzNDQgMjRUMjgxIC0xVDIwNSAtMTFRMTI2IC0xMSA4MyA0MlQzOSAxNjhaTTM3MyAzNTNRMzY3IDQwNSAzMDUgNDA1UTI3MiA0MDUgMjQ0IDM5MVQxOTkgMzU3VDE3MCAzMTZUMTU0IDI4MFQxNDkgMjYxUTE0OSAyNjAgMTY5IDI2MFEyODIgMjYwIDMyNyAyODRUMzczIDM1M1oiIGlkPSJNSlgtMTEyLVRFWC1JLTFENDUyIi8+PHBhdGggZD0iTTIxIDI4N1EyMSAzMDEgMzYgMzM1VDg0IDQwNlQxNTggNDQyUTE5OSA0NDIgMjI0IDQxOVQyNTAgMzU1UTI0OCAzMzYgMjQ3IDMzNFEyNDcgMzMxIDIzMSAyODhUMTk4IDE5MVQxODIgMTA1UTE4MiA2MiAxOTYgNDVUMjM4IDI3UTI2MSAyNyAyODEgMzhUMzEyIDYxVDMzOSA5NFEzMzkgOTUgMzQ0IDExNFQzNTggMTczVDM3NyAyNDdRNDE1IDM5NyA0MTkgNDA0UTQzMiA0MzEgNDYyIDQzMVE0NzUgNDMxIDQ4MyA0MjRUNDk0IDQxMlQ0OTYgNDAzUTQ5NiAzOTAgNDQ3IDE5M1QzOTEgLTIzUTM2MyAtMTA2IDI5NCAtMTU1VDE1NiAtMjA1UTExMSAtMjA1IDc3IC0xODNUNDMgLTExN1E0MyAtOTUgNTAgLTgwVDY5IC01OFQ4OSAtNDhUMTA2IC00NVExNTAgLTQ1IDE1MCAtODdRMTUwIC0xMDcgMTM4IC0xMjJUMTE1IC0xNDJUMTAyIC0xNDdMOTkgLTE0OFExMDEgLTE1MyAxMTggLTE2MFQxNTIgLTE2N0gxNjBRMTc3IC0xNjcgMTg2IC0xNjVRMjE5IC0xNTYgMjQ3IC0xMjdUMjkwIC02NVQzMTMgLTlUMzIxIDIxTDMxNSAxN1EzMDkgMTMgMjk2IDZUMjcwIC02UTI1MCAtMTEgMjMxIC0xMVExODUgLTExIDE1MCAxMVQxMDQgODJRMTAzIDg5IDEwMyAxMTNRMTAzIDE3MCAxMzggMjYyVDE3MyAzNzlRMTczIDM4MCAxNzMgMzgxUTE3MyAzOTAgMTczIDM5M1QxNjkgNDAwVDE1OCA0MDRIMTU0UTEzMSA0MDQgMTEyIDM4NVQ4MiAzNDRUNjUgMzAyVDU3IDI4MFE1NSAyNzggNDEgMjc4SDI3UTIxIDI4NCAyMSAyODdaIiBpZD0iTUpYLTExMi1URVgtSS0xRDQ2NiIvPjxwYXRoIGQ9Ik03OCAzNVQ3OCA2MFQ5NCAxMDNUMTM3IDEyMVExNjUgMTIxIDE4NyA5NlQyMTAgOFEyMTAgLTI3IDIwMSAtNjBUMTgwIC0xMTdUMTU0IC0xNThUMTMwIC0xODVUMTE3IC0xOTRRMTEzIC0xOTQgMTA0IC0xODVUOTUgLTE3MlE5NSAtMTY4IDEwNiAtMTU2VDEzMSAtMTI2VDE1NyAtNzZUMTczIC0zVjlMMTcyIDhRMTcwIDcgMTY3IDZUMTYxIDNUMTUyIDFUMTQwIDBRMTEzIDAgOTYgMTdaIiBpZD0iTUpYLTExMi1URVgtTi0yQyIvPjxwYXRoIGQ9Ik0xODQgNjAwUTE4NCA2MjQgMjAzIDY0MlQyNDcgNjYxUTI2NSA2NjEgMjc3IDY0OVQyOTAgNjE5UTI5MCA1OTYgMjcwIDU3N1QyMjYgNTU3UTIxMSA1NTcgMTk4IDU2N1QxODQgNjAwWk0yMSAyODdRMjEgMjk1IDMwIDMxOFQ1NCAzNjlUOTggNDIwVDE1OCA0NDJRMTk3IDQ0MiAyMjMgNDE5VDI1MCAzNTdRMjUwIDM0MCAyMzYgMzAxVDE5NiAxOTZUMTU0IDgzUTE0OSA2MSAxNDkgNTFRMTQ5IDI2IDE2NiAyNlExNzUgMjYgMTg1IDI5VDIwOCA0M1QyMzUgNzhUMjYwIDEzN1EyNjMgMTQ5IDI2NSAxNTFUMjgyIDE1M1EzMDIgMTUzIDMwMiAxNDNRMzAyIDEzNSAyOTMgMTEyVDI2OCA2MVQyMjMgMTFUMTYxIC0xMVExMjkgLTExIDEwMiAxMFQ3NCA3NFE3NCA5MSA3OSAxMDZUMTIyIDIyMFExNjAgMzIxIDE2NiAzNDFUMTczIDM4MFExNzMgNDA0IDE1NiA0MDRIMTU0UTEyNCA0MDQgOTkgMzcxVDYxIDI4N1E2MCAyODYgNTkgMjg0VDU4IDI4MVQ1NiAyNzlUNTMgMjc4VDQ5IDI3OFQ0MSAyNzhIMjdRMjEgMjg0IDIxIDI4N1oiIGlkPSJNSlgtMTEyLVRFWC1JLTFENDU2Ii8+PHBhdGggZD0iTTEwOSA0MjlRODIgNDI5IDY2IDQ0N1Q1MCA0OTFRNTAgNTYyIDEwMyA2MTRUMjM1IDY2NlEzMjYgNjY2IDM4NyA2MTBUNDQ5IDQ2NVE0NDkgNDIyIDQyOSAzODNUMzgxIDMxNVQzMDEgMjQxUTI2NSAyMTAgMjAxIDE0OUwxNDIgOTNMMjE4IDkyUTM3NSA5MiAzODUgOTdRMzkyIDk5IDQwOSAxODZWMTg5SDQ0OVYxODZRNDQ4IDE4MyA0MzYgOTVUNDIxIDNWMEg1MFYxOVYzMVE1MCAzOCA1NiA0NlQ4NiA4MVExMTUgMTEzIDEzNiAxMzdRMTQ1IDE0NyAxNzAgMTc0VDIwNCAyMTFUMjMzIDI0NFQyNjEgMjc4VDI4NCAzMDhUMzA1IDM0MFQzMjAgMzY5VDMzMyA0MDFUMzQwIDQzMVQzNDMgNDY0UTM0MyA1MjcgMzA5IDU3M1QyMTIgNjE5UTE3OSA2MTkgMTU0IDYwMlQxMTkgNTY5VDEwOSA1NTBRMTA5IDU0OSAxMTQgNTQ5UTEzMiA1NDkgMTUxIDUzNVQxNzAgNDg5UTE3MCA0NjQgMTU0IDQ0N1QxMDkgNDI5WiIgaWQ9Ik1KWC0xMTItVEVYLU4tMzIiLz48cGF0aCBkPSJNMjAxIC0xMVExMjYgLTExIDgwIDM4VDM0IDE1NlEzNCAyMjEgNjQgMjc5VDE0NiAzODBRMjIyIDQ0MSAzMDEgNDQxUTMzMyA0NDEgMzQxIDQ0MFEzNTQgNDM3IDM2NyA0MzNUNDAyIDQxN1Q0MzggMzg3VDQ2NCAzMzhUNDc2IDI2OFE0NzYgMTYxIDM5MCA3NVQyMDEgLTExWk0xMjEgMTIwUTEyMSA3MCAxNDcgNDhUMjA2IDI2UTI1MCAyNiAyODkgNThUMzUxIDE0MlEzNjAgMTYzIDM3NCAyMTZUMzg4IDMwOFEzODggMzUyIDM3MCAzNzVRMzQ2IDQwNSAzMDYgNDA1UTI0MyA0MDUgMTk1IDM0N1ExNTggMzAzIDE0MCAyMzBUMTIxIDEyMFoiIGlkPSJNSlgtMTEyLVRFWC1JLTFENDVDIi8+PHBhdGggZD0iTTIxIDI4N1EyMiAyOTAgMjMgMjk1VDI4IDMxN1QzOCAzNDhUNTMgMzgxVDczIDQxMVQ5OSA0MzNUMTMyIDQ0MlExNjEgNDQyIDE4MyA0MzBUMjE0IDQwOFQyMjUgMzg4UTIyNyAzODIgMjI4IDM4MlQyMzYgMzg5UTI4NCA0NDEgMzQ3IDQ0MUgzNTBRMzk4IDQ0MSA0MjIgNDAwUTQzMCAzODEgNDMwIDM2M1E0MzAgMzMzIDQxNyAzMTVUMzkxIDI5MlQzNjYgMjg4UTM0NiAyODggMzM0IDI5OVQzMjIgMzI4UTMyMiAzNzYgMzc4IDM5MlEzNTYgNDA1IDM0MiA0MDVRMjg2IDQwNSAyMzkgMzMxUTIyOSAzMTUgMjI0IDI5OFQxOTAgMTY1UTE1NiAyNSAxNTEgMTZRMTM4IC0xMSAxMDggLTExUTk1IC0xMSA4NyAtNVQ3NiA3VDc0IDE3UTc0IDMwIDExNCAxODlUMTU0IDM2NlExNTQgNDA1IDEyOCA0MDVRMTA3IDQwNSA5MiAzNzdUNjggMzE2VDU3IDI4MFE1NSAyNzggNDEgMjc4SDI3UTIxIDI4NCAyMSAyODdaIiBpZD0iTUpYLTExMi1URVgtSS0xRDQ1RiIvPjxwYXRoIGQ9Ik0yNiAzODVRMTkgMzkyIDE5IDM5NVExOSAzOTkgMjIgNDExVDI3IDQyNVEyOSA0MzAgMzYgNDMwVDg3IDQzMUgxNDBMMTU5IDUxMVExNjIgNTIyIDE2NiA1NDBUMTczIDU2NlQxNzkgNTg2VDE4NyA2MDNUMTk3IDYxNVQyMTEgNjI0VDIyOSA2MjZRMjQ3IDYyNSAyNTQgNjE1VDI2MSA1OTZRMjYxIDU4OSAyNTIgNTQ5VDIzMiA0NzBMMjIyIDQzM1EyMjIgNDMxIDI3MiA0MzFIMzIzUTMzMCA0MjQgMzMwIDQyMFEzMzAgMzk4IDMxNyAzODVIMjEwTDE3NCAyNDBRMTM1IDgwIDEzNSA2OFExMzUgMjYgMTYyIDI2UTE5NyAyNiAyMzAgNjBUMjgzIDE0NFEyODUgMTUwIDI4OCAxNTFUMzAzIDE1M0gzMDdRMzIyIDE1MyAzMjIgMTQ1UTMyMiAxNDIgMzE5IDEzM1EzMTQgMTE3IDMwMSA5NVQyNjcgNDhUMjE2IDZUMTU1IC0xMVExMjUgLTExIDk4IDRUNTkgNTZRNTcgNjQgNTcgODNWMTAxTDkyIDI0MVExMjcgMzgyIDEyOCAzODNRMTI4IDM4NSA3NyAzODVIMjZaIiBpZD0iTUpYLTExMi1URVgtSS0xRDQ2MSIvPjxwYXRoIGQ9Ik02MCA3NDlMNjQgNzUwUTY5IDc1MCA3NCA3NTBIODZMMTE0IDcyNlEyMDggNjQxIDI1MSA1MTRUMjk0IDI1MFEyOTQgMTgyIDI4NCAxMTlUMjYxIDEyVDIyNCAtNzZUMTg2IC0xNDNUMTQ1IC0xOTRUMTEzIC0yMjdUOTAgLTI0NlE4NyAtMjQ5IDg2IC0yNTBINzRRNjYgLTI1MCA2MyAtMjUwVDU4IC0yNDdUNTUgLTIzOFE1NiAtMjM3IDY2IC0yMjVRMjIxIC02NCAyMjEgMjUwVDY2IDcyNVE1NiA3MzcgNTUgNzM4UTU1IDc0NiA2MCA3NDlaIiBpZD0iTUpYLTExMi1URVgtTi0yOSIvPjwvZGVmcz48ZyB0cmFuc2Zvcm09Im1hdHJpeCgxIDAgMCAtMSAwIDApIiBzdHJva2Utd2lkdGg9IjAiIGZpbGw9ImN1cnJlbnRDb2xvciIgc3Ryb2tlPSJjdXJyZW50Q29sb3IiPjxnIGRhdGEtbW1sLW5vZGU9Im1hdGgiPjxnIGRhdGEtbW1sLW5vZGU9Im1pIj48dXNlIHhsaW5rOmhyZWY9IiNNSlgtMTEyLVRFWC1JLTFENDM4Ii8+PC9nPjxnIHRyYW5zZm9ybT0idHJhbnNsYXRlKDc2NCwgMCkiIGRhdGEtbW1sLW5vZGU9Im1pIj48dXNlIHhsaW5rOmhyZWY9IiNNSlgtMTEyLVRFWC1JLTFENDVCIi8+PC9nPjxnIHRyYW5zZm9ybT0idHJhbnNsYXRlKDEzNjQsIDApIiBkYXRhLW1tbC1ub2RlPSJtc3ViIj48ZyBkYXRhLW1tbC1ub2RlPSJtaSI+PHVzZSB4bGluazpocmVmPSIjTUpYLTExMi1URVgtSS0xRDQ1MCIvPjwvZz48ZyBkYXRhLW1qeC10ZXhjbGFzcz0iT1JEIiB0cmFuc2Zvcm09InRyYW5zbGF0ZSg0MzMsIC0xNTApIHNjYWxlKDAuNzA3KSIgZGF0YS1tbWwtbm9kZT0iVGVYQXRvbSI+PGcgZGF0YS1tbWwtbm9kZT0ibWkiPjx1c2UgeGxpbms6aHJlZj0iI01KWC0xMTItVEVYLUktMUQ0NUQiLz48L2c+PGcgdHJhbnNmb3JtPSJ0cmFuc2xhdGUoNTAzLCAwKSIgZGF0YS1tbWwtbm9kZT0ibWkiPjx1c2UgeGxpbms6aHJlZj0iI01KWC0xMTItVEVYLUktMUQ0NjIiLz48L2c+PGcgdHJhbnNmb3JtPSJ0cmFuc2xhdGUoMTA3NSwgMCkiIGRhdGEtbW1sLW5vZGU9Im1pIj48dXNlIHhsaW5rOmhyZWY9IiNNSlgtMTEyLVRFWC1JLTFENDRGIi8+PC9nPjxnIHRyYW5zZm9ybT0idHJhbnNsYXRlKDE1MDQsIDApIiBkYXRhLW1tbC1ub2RlPSJtaSI+PHVzZSB4bGluazpocmVmPSIjTUpYLTExMi1URVgtSS0xRDQ1OCIvPjwvZz48ZyB0cmFuc2Zvcm09InRyYW5zbGF0ZSgyMDI1LCAwKSIgZGF0YS1tbWwtbm9kZT0ibW4iPjx1c2UgeGxpbms6aHJlZj0iI01KWC0xMTItVEVYLU4tMzEiLz48L2c+PC9nPjwvZz48ZyB0cmFuc2Zvcm09InRyYW5zbGF0ZSgzNjMyLjQsIDApIiBkYXRhLW1tbC1ub2RlPSJtbyI+PHVzZSB4bGluazpocmVmPSIjTUpYLTExMi1URVgtTi0yOCIvPjwvZz48ZyB0cmFuc2Zvcm09InRyYW5zbGF0ZSg0MDIxLjQsIDApIiBkYXRhLW1tbC1ub2RlPSJtaSI+PHVzZSB4bGluazpocmVmPSIjTUpYLTExMi1URVgtSS0xRDQ1OCIvPjwvZz48ZyB0cmFuc2Zvcm09InRyYW5zbGF0ZSg0NTQyLjQsIDApIiBkYXRhLW1tbC1ub2RlPSJtaSI+PHVzZSB4bGluazpocmVmPSIjTUpYLTExMi1URVgtSS0xRDQ1MiIvPjwvZz48ZyB0cmFuc2Zvcm09InRyYW5zbGF0ZSg1MDA4LjQsIDApIiBkYXRhLW1tbC1ub2RlPSJtaSI+PHVzZSB4bGluazpocmVmPSIjTUpYLTExMi1URVgtSS0xRDQ2NiIvPjwvZz48ZyB0cmFuc2Zvcm09InRyYW5zbGF0ZSg1NDk4LjQsIDApIiBkYXRhLW1tbC1ub2RlPSJtbiI+PHVzZSB4bGluazpocmVmPSIjTUpYLTExMi1URVgtTi0zMSIvPjwvZz48ZyB0cmFuc2Zvcm09InRyYW5zbGF0ZSg1OTk4LjQsIDApIiBkYXRhLW1tbC1ub2RlPSJtbyI+PHVzZSB4bGluazpocmVmPSIjTUpYLTExMi1URVgtTi0yQyIvPjwvZz48ZyB0cmFuc2Zvcm09InRyYW5zbGF0ZSg2NDQzLjEsIDApIiBkYXRhLW1tbC1ub2RlPSJtaSI+PHVzZSB4bGluazpocmVmPSIjTUpYLTExMi1URVgtSS0xRDQ1NiIvPjwvZz48ZyB0cmFuc2Zvcm09InRyYW5zbGF0ZSg2Nzg4LjEsIDApIiBkYXRhLW1tbC1ub2RlPSJtaSI+PHVzZSB4bGluazpocmVmPSIjTUpYLTExMi1URVgtSS0xRDQ1RCIvPjwvZz48ZyB0cmFuc2Zvcm09InRyYW5zbGF0ZSg3MjkxLjEsIDApIiBkYXRhLW1tbC1ub2RlPSJtbiI+PHVzZSB4bGluazpocmVmPSIjTUpYLTExMi1URVgtTi0zMiIvPjwvZz48ZyB0cmFuc2Zvcm09InRyYW5zbGF0ZSg3NzkxLjEsIDApIiBkYXRhLW1tbC1ub2RlPSJtbyI+PHVzZSB4bGluazpocmVmPSIjTUpYLTExMi1URVgtTi0yQyIvPjwvZz48ZyB0cmFuc2Zvcm09InRyYW5zbGF0ZSg4MjM1LjgsIDApIiBkYXRhLW1tbC1ub2RlPSJtaSI+PHVzZSB4bGluazpocmVmPSIjTUpYLTExMi1URVgtSS0xRDQ1RCIvPjwvZz48ZyB0cmFuc2Zvcm09InRyYW5zbGF0ZSg4NzM4LjgsIDApIiBkYXRhLW1tbC1ub2RlPSJtaSI+PHVzZSB4bGluazpocmVmPSIjTUpYLTExMi1URVgtSS0xRDQ1QyIvPjwvZz48ZyB0cmFuc2Zvcm09InRyYW5zbGF0ZSg5MjIzLjgsIDApIiBkYXRhLW1tbC1ub2RlPSJtaSI+PHVzZSB4bGluazpocmVmPSIjTUpYLTExMi1URVgtSS0xRDQ1RiIvPjwvZz48ZyB0cmFuc2Zvcm09InRyYW5zbGF0ZSg5Njc0LjgsIDApIiBkYXRhLW1tbC1ub2RlPSJtaSI+PHVzZSB4bGluazpocmVmPSIjTUpYLTExMi1URVgtSS0xRDQ2MSIvPjwvZz48ZyB0cmFuc2Zvcm09InRyYW5zbGF0ZSgxMDAzNS44LCAwKSIgZGF0YS1tbWwtbm9kZT0ibW4iPjx1c2UgeGxpbms6aHJlZj0iI01KWC0xMTItVEVYLU4tMzIiLz48L2c+PGcgdHJhbnNmb3JtPSJ0cmFuc2xhdGUoMTA1MzUuOCwgMCkiIGRhdGEtbW1sLW5vZGU9Im1vIj48dXNlIHhsaW5rOmhyZWY9IiNNSlgtMTEyLVRFWC1OLTI5Ii8+PC9nPjwvZz48L2c+PC9zdmc+;" vertex="1" parent="1">
          <mxGeometry x="170.14" y="1530" width="105.72" height="10" as="geometry" />
        </mxCell>
        <mxCell id="PUM_M8YaJLtLtkd2Mo2w-72" value="" style="shape=image;imageAspect=0;aspect=fixed;verticalLabelPosition=bottom;verticalAlign=top;fontFamily=Helvetica;image=data:image/svg+xml,PHN2ZyB4bWxuczp4bGluaz0iaHR0cDovL3d3dy53My5vcmcvMTk5OS94bGluayIgeG1sbnM9Imh0dHA6Ly93d3cudzMub3JnLzIwMDAvc3ZnIiBzdHlsZT0iIiBhcmlhLWhpZGRlbj0idHJ1ZSIgdmlld0JveD0iMCAtNzUwIDYzODcuNCAxMDM3LjIiIGhlaWdodD0iMi4zNDdleCIgd2lkdGg9IjE0LjQ1MWV4Ij48ZGVmcz48cGF0aCBkPSJNNDkyIDIxM1E0NzIgMjEzIDQ3MiAyMjZRNDcyIDIzMCA0NzcgMjUwVDQ4MiAyODVRNDgyIDMxNiA0NjEgMzIzVDM2NCAzMzBIMzEyUTMxMSAzMjggMjc3IDE5MlQyNDMgNTJRMjQzIDQ4IDI1NCA0OFQzMzQgNDZRNDI4IDQ2IDQ1OCA0OFQ1MTggNjFRNTY3IDc3IDU5OSAxMTdUNjcwIDI0OFE2ODAgMjcwIDY4MyAyNzJRNjkwIDI3NCA2OTggMjc0UTcxOCAyNzQgNzE4IDI2MVE2MTMgNyA2MDggMlE2MDUgMCAzMjIgMEgxMzNRMzEgMCAzMSAxMVEzMSAxMyAzNCAyNVEzOCA0MSA0MiA0M1Q2NSA0NlE5MiA0NiAxMjUgNDlRMTM5IDUyIDE0NCA2MVExNDYgNjYgMjE1IDM0MlQyODUgNjIyUTI4NSA2MjkgMjgxIDYyOVEyNzMgNjMyIDIyOCA2MzRIMTk3UTE5MSA2NDAgMTkxIDY0MlQxOTMgNjU5UTE5NyA2NzYgMjAzIDY4MEg3NTdRNzY0IDY3NiA3NjQgNjY5UTc2NCA2NjQgNzUxIDU1N1Q3MzcgNDQ3UTczNSA0NDAgNzE3IDQ0MEg3MDVRNjk4IDQ0NSA2OTggNDUzTDcwMSA0NzZRNzA0IDUwMCA3MDQgNTI4UTcwNCA1NTggNjk3IDU3OFQ2NzggNjA5VDY0MyA2MjVUNTk2IDYzMlQ1MzIgNjM0SDQ4NVEzOTcgNjMzIDM5MiA2MzFRMzg4IDYyOSAzODYgNjIyUTM4NSA2MTkgMzU1IDQ5OVQzMjQgMzc3UTM0NyAzNzYgMzcyIDM3NkgzOThRNDY0IDM3NiA0ODkgMzkxVDUzNCA0NzJRNTM4IDQ4OCA1NDAgNDkwVDU1NyA0OTNRNTYyIDQ5MyA1NjUgNDkzVDU3MCA0OTJUNTcyIDQ5MVQ1NzQgNDg3VDU3NyA0ODNMNTQ0IDM1MVE1MTEgMjE4IDUwOCAyMTZRNTA1IDIxMyA0OTIgMjEzWiIgaWQ9Ik1KWC0xMTgtVEVYLUktMUQ0MzgiLz48cGF0aCBkPSJNMjEgMjg3UTIyIDI5MyAyNCAzMDNUMzYgMzQxVDU2IDM4OFQ4OSA0MjVUMTM1IDQ0MlExNzEgNDQyIDE5NSA0MjRUMjI1IDM5MFQyMzEgMzY5UTIzMSAzNjcgMjMyIDM2N0wyNDMgMzc4UTMwNCA0NDIgMzgyIDQ0MlE0MzYgNDQyIDQ2OSA0MTVUNTAzIDMzNlQ0NjUgMTc5VDQyNyA1MlE0MjcgMjYgNDQ0IDI2UTQ1MCAyNiA0NTMgMjdRNDgyIDMyIDUwNSA2NVQ1NDAgMTQ1UTU0MiAxNTMgNTYwIDE1M1E1ODAgMTUzIDU4MCAxNDVRNTgwIDE0NCA1NzYgMTMwUTU2OCAxMDEgNTU0IDczVDUwOCAxN1Q0MzkgLTEwUTM5MiAtMTAgMzcxIDE3VDM1MCA3M1EzNTAgOTIgMzg2IDE5M1Q0MjMgMzQ1UTQyMyA0MDQgMzc5IDQwNEgzNzRRMjg4IDQwNCAyMjkgMzAzTDIyMiAyOTFMMTg5IDE1N1ExNTYgMjYgMTUxIDE2UTEzOCAtMTEgMTA4IC0xMVE5NSAtMTEgODcgLTVUNzYgN1Q3NCAxN1E3NCAzMCAxMTIgMTgwVDE1MiAzNDNRMTUzIDM0OCAxNTMgMzY2UTE1MyA0MDUgMTI5IDQwNVE5MSA0MDUgNjYgMzA1UTYwIDI4NSA2MCAyODRRNTggMjc4IDQxIDI3OEgyN1EyMSAyODQgMjEgMjg3WiIgaWQ9Ik1KWC0xMTgtVEVYLUktMUQ0NUIiLz48cGF0aCBkPSJNMzQgMTU5UTM0IDI2OCAxMjAgMzU1VDMwNiA0NDJRMzYyIDQ0MiAzOTQgNDE4VDQyNyAzNTVRNDI3IDMyNiA0MDggMzA2VDM2MCAyODVRMzQxIDI4NSAzMzAgMjk1VDMxOSAzMjVUMzMwIDM1OVQzNTIgMzgwVDM2NiAzODZIMzY3UTM2NyAzODggMzYxIDM5MlQzNDAgNDAwVDMwNiA0MDRRMjc2IDQwNCAyNDkgMzkwUTIyOCAzODEgMjA2IDM1OVExNjIgMzE1IDE0MiAyMzVUMTIxIDExOVExMjEgNzMgMTQ3IDUwUTE2OSAyNiAyMDUgMjZIMjA5UTMyMSAyNiAzOTQgMTExUTQwMyAxMjEgNDA2IDEyMVE0MTAgMTIxIDQxOSAxMTJUNDI5IDk4VDQyMCA4M1QzOTEgNTVUMzQ2IDI1VDI4MiAwVDIwMiAtMTFRMTI3IC0xMSA4MSAzN1QzNCAxNTlaIiBpZD0iTUpYLTExOC1URVgtSS0xRDQ1MCIvPjxwYXRoIGQ9Ik0yMyAyODdRMjQgMjkwIDI1IDI5NVQzMCAzMTdUNDAgMzQ4VDU1IDM4MVQ3NSA0MTFUMTAxIDQzM1QxMzQgNDQyUTIwOSA0NDIgMjMwIDM3OEwyNDAgMzg3UTMwMiA0NDIgMzU4IDQ0MlE0MjMgNDQyIDQ2MCAzOTVUNDk3IDI4MVE0OTcgMTczIDQyMSA4MlQyNDkgLTEwUTIyNyAtMTAgMjEwIC00UTE5OSAxIDE4NyAxMVQxNjggMjhMMTYxIDM2UTE2MCAzNSAxMzkgLTUxVDExOCAtMTM4UTExOCAtMTQ0IDEyNiAtMTQ1VDE2MyAtMTQ4SDE4OFExOTQgLTE1NSAxOTQgLTE1N1QxOTEgLTE3NVExODggLTE4NyAxODUgLTE5MFQxNzIgLTE5NFExNzAgLTE5NCAxNjEgLTE5NFQxMjcgLTE5M1Q2NSAtMTkyUS01IC0xOTIgLTI0IC0xOTRILTMyUS0zOSAtMTg3IC0zOSAtMTgzUS0zNyAtMTU2IC0yNiAtMTQ4SC02UTI4IC0xNDcgMzMgLTEzNlEzNiAtMTMwIDk0IDEwM1QxNTUgMzUwUTE1NiAzNTUgMTU2IDM2NFExNTYgNDA1IDEzMSA0MDVRMTA5IDQwNSA5NCAzNzdUNzEgMzE2VDU5IDI4MFE1NyAyNzggNDMgMjc4SDI5UTIzIDI4NCAyMyAyODdaTTE3OCAxMDJRMjAwIDI2IDI1MiAyNlEyODIgMjYgMzEwIDQ5VDM1NiAxMDdRMzc0IDE0MSAzOTIgMjE1VDQxMSAzMjVWMzMxUTQxMSA0MDUgMzUwIDQwNVEzMzkgNDA1IDMyOCA0MDJUMzA2IDM5M1QyODYgMzgwVDI2OSAzNjVUMjU0IDM1MFQyNDMgMzM2VDIzNSAzMjZMMjMyIDMyMlEyMzIgMzIxIDIyOSAzMDhUMjE4IDI2NFQyMDQgMjEyUTE3OCAxMDYgMTc4IDEwMloiIGlkPSJNSlgtMTE4LVRFWC1JLTFENDVEIi8+PHBhdGggZD0iTTIxIDI4N1EyMSAyOTUgMzAgMzE4VDU1IDM3MFQ5OSA0MjBUMTU4IDQ0MlEyMDQgNDQyIDIyNyA0MTdUMjUwIDM1OFEyNTAgMzQwIDIxNiAyNDZUMTgyIDEwNVExODIgNjIgMTk2IDQ1VDIzOCAyN1QyOTEgNDRUMzI4IDc4TDMzOSA5NVEzNDEgOTkgMzc3IDI0N1E0MDcgMzY3IDQxMyAzODdUNDI3IDQxNlE0NDQgNDMxIDQ2MyA0MzFRNDgwIDQzMSA0ODggNDIxVDQ5NiA0MDJMNDIwIDg0UTQxOSA3OSA0MTkgNjhRNDE5IDQzIDQyNiAzNVQ0NDcgMjZRNDY5IDI5IDQ4MiA1N1Q1MTIgMTQ1UTUxNCAxNTMgNTMyIDE1M1E1NTEgMTUzIDU1MSAxNDRRNTUwIDEzOSA1NDkgMTMwVDU0MCA5OFQ1MjMgNTVUNDk4IDE3VDQ2MiAtOFE0NTQgLTEwIDQzOCAtMTBRMzcyIC0xMCAzNDcgNDZRMzQ1IDQ1IDMzNiAzNlQzMTggMjFUMjk2IDZUMjY3IC02VDIzMyAtMTFRMTg5IC0xMSAxNTUgN1ExMDMgMzggMTAzIDExM1ExMDMgMTcwIDEzOCAyNjJUMTczIDM3OVExNzMgMzgwIDE3MyAzODFRMTczIDM5MCAxNzMgMzkzVDE2OSA0MDBUMTU4IDQwNEgxNTRRMTMxIDQwNCAxMTIgMzg1VDgyIDM0NFQ2NSAzMDJUNTcgMjgwUTU1IDI3OCA0MSAyNzhIMjdRMjEgMjg0IDIxIDI4N1oiIGlkPSJNSlgtMTE4LVRFWC1JLTFENDYyIi8+PHBhdGggZD0iTTczIDY0N1E3MyA2NTcgNzcgNjcwVDg5IDY4M1E5MCA2ODMgMTYxIDY4OFQyMzQgNjk0UTI0NiA2OTQgMjQ2IDY4NVQyMTIgNTQyUTIwNCA1MDggMTk1IDQ3MlQxODAgNDE4TDE3NiAzOTlRMTc2IDM5NiAxODIgNDAyUTIzMSA0NDIgMjgzIDQ0MlEzNDUgNDQyIDM4MyAzOTZUNDIyIDI4MFE0MjIgMTY5IDM0MyA3OVQxNzMgLTExUTEyMyAtMTEgODIgMjdUNDAgMTUwVjE1OVE0MCAxODAgNDggMjE3VDk3IDQxNFExNDcgNjExIDE0NyA2MjNUMTA5IDYzN1ExMDQgNjM3IDEwMSA2MzdIOTZRODYgNjM3IDgzIDYzN1Q3NiA2NDBUNzMgNjQ3Wk0zMzYgMzI1VjMzMVEzMzYgNDA1IDI3NSA0MDVRMjU4IDQwNSAyNDAgMzk3VDIwNyAzNzZUMTgxIDM1MlQxNjMgMzMwTDE1NyAzMjJMMTM2IDIzNlExMTQgMTUwIDExNCAxMTRRMTE0IDY2IDEzOCA0MlExNTQgMjYgMTc4IDI2UTIxMSAyNiAyNDUgNThRMjcwIDgxIDI4NSAxMTRUMzE4IDIxOVEzMzYgMjkxIDMzNiAzMjVaIiBpZD0iTUpYLTExOC1URVgtSS0xRDQ0RiIvPjxwYXRoIGQ9Ik0xMjEgNjQ3UTEyMSA2NTcgMTI1IDY3MFQxMzcgNjgzUTEzOCA2ODMgMjA5IDY4OFQyODIgNjk0UTI5NCA2OTQgMjk0IDY4NlEyOTQgNjc5IDI0NCA0NzdRMTk0IDI3OSAxOTQgMjcyUTIxMyAyODIgMjIzIDI5MVEyNDcgMzA5IDI5MiAzNTRUMzYyIDQxNVE0MDIgNDQyIDQzOCA0NDJRNDY4IDQ0MiA0ODUgNDIzVDUwMyAzNjlRNTAzIDM0NCA0OTYgMzI3VDQ3NyAzMDJUNDU2IDI5MVQ0MzggMjg4UTQxOCAyODggNDA2IDI5OVQzOTQgMzI4UTM5NCAzNTMgNDEwIDM2OVQ0NDIgMzkwTDQ1OCAzOTNRNDQ2IDQwNSA0MzQgNDA1SDQzMFEzOTggNDAyIDM2NyAzODBUMjk0IDMxNlQyMjggMjU1UTIzMCAyNTQgMjQzIDI1MlQyNjcgMjQ2VDI5MyAyMzhUMzIwIDIyNFQzNDIgMjA2VDM1OSAxODBUMzY1IDE0N1EzNjUgMTMwIDM2MCAxMDZUMzU0IDY2UTM1NCAyNiAzODEgMjZRNDI5IDI2IDQ1OSAxNDVRNDYxIDE1MyA0NzkgMTUzSDQ4M1E0OTkgMTUzIDQ5OSAxNDRRNDk5IDEzOSA0OTYgMTMwUTQ1NSAtMTEgMzc4IC0xMVEzMzMgLTExIDMwNSAxNVQyNzcgOTBRMjc3IDEwOCAyODAgMTIxVDI4MyAxNDVRMjgzIDE2NyAyNjkgMTgzVDIzNCAyMDZUMjAwIDIxN1QxODIgMjIwSDE4MFExNjggMTc4IDE1OSAxMzlUMTQ1IDgxVDEzNiA0NFQxMjkgMjBUMTIyIDdUMTExIC0yUTk4IC0xMSA4MyAtMTFRNjYgLTExIDU3IC0xVDQ4IDE2UTQ4IDI2IDg1IDE3NlQxNTggNDcxTDE5NSA2MTZRMTk2IDYyOSAxODggNjMyVDE0OSA2MzdIMTQ0UTEzNCA2MzcgMTMxIDYzN1QxMjQgNjQwVDEyMSA2NDdaIiBpZD0iTUpYLTExOC1URVgtSS0xRDQ1OCIvPjxwYXRoIGQ9Ik0xMjcgNDYzUTEwMCA0NjMgODUgNDgwVDY5IDUyNFE2OSA1NzkgMTE3IDYyMlQyMzMgNjY1UTI2OCA2NjUgMjc3IDY2NFEzNTEgNjUyIDM5MCA2MTFUNDMwIDUyMlE0MzAgNDcwIDM5NiA0MjFUMzAyIDM1MEwyOTkgMzQ4UTI5OSAzNDcgMzA4IDM0NVQzMzcgMzM2VDM3NSAzMTVRNDU3IDI2MiA0NTcgMTc1UTQ1NyA5NiAzOTUgMzdUMjM4IC0yMlExNTggLTIyIDEwMCAyMVQ0MiAxMzBRNDIgMTU4IDYwIDE3NVQxMDUgMTkzUTEzMyAxOTMgMTUxIDE3NVQxNjkgMTMwUTE2OSAxMTkgMTY2IDExMFQxNTkgOTRUMTQ4IDgyVDEzNiA3NFQxMjYgNzBUMTE4IDY3TDExNCA2NlExNjUgMjEgMjM4IDIxUTI5MyAyMSAzMjEgNzRRMzM4IDEwNyAzMzggMTc1VjE5NVEzMzggMjkwIDI3NCAzMjJRMjU5IDMyOCAyMTMgMzI5TDE3MSAzMzBMMTY4IDMzMlExNjYgMzM1IDE2NiAzNDhRMTY2IDM2NiAxNzQgMzY2UTIwMiAzNjYgMjMyIDM3MVEyNjYgMzc2IDI5NCA0MTNUMzIyIDUyNVY1MzNRMzIyIDU5MCAyODcgNjEyUTI2NSA2MjYgMjQwIDYyNlEyMDggNjI2IDE4MSA2MTVUMTQzIDU5MlQxMzIgNTgwSDEzNVExMzggNTc5IDE0MyA1NzhUMTUzIDU3M1QxNjUgNTY2VDE3NSA1NTVUMTgzIDU0MFQxODYgNTIwUTE4NiA0OTggMTcyIDQ4MVQxMjcgNDYzWiIgaWQ9Ik1KWC0xMTgtVEVYLU4tMzMiLz48cGF0aCBkPSJNOTQgMjUwUTk0IDMxOSAxMDQgMzgxVDEyNyA0ODhUMTY0IDU3NlQyMDIgNjQzVDI0NCA2OTVUMjc3IDcyOVQzMDIgNzUwSDMxNUgzMTlRMzMzIDc1MCAzMzMgNzQxUTMzMyA3MzggMzE2IDcyMFQyNzUgNjY3VDIyNiA1ODFUMTg0IDQ0M1QxNjcgMjUwVDE4NCA1OFQyMjUgLTgxVDI3NCAtMTY3VDMxNiAtMjIwVDMzMyAtMjQxUTMzMyAtMjUwIDMxOCAtMjUwSDMxNUgzMDJMMjc0IC0yMjZRMTgwIC0xNDEgMTM3IC0xNFQ5NCAyNTBaIiBpZD0iTUpYLTExOC1URVgtTi0yOCIvPjxwYXRoIGQ9Ik0zOSAxNjhRMzkgMjI1IDU4IDI3MlQxMDcgMzUwVDE3NCA0MDJUMjQ0IDQzM1QzMDcgNDQySDMxMFEzNTUgNDQyIDM4OCA0MjBUNDIxIDM1NVE0MjEgMjY1IDMxMCAyMzdRMjYxIDIyNCAxNzYgMjIzUTEzOSAyMjMgMTM4IDIyMVExMzggMjE5IDEzMiAxODZUMTI1IDEyOFExMjUgODEgMTQ2IDU0VDIwOSAyNlQzMDIgNDVUMzk0IDExMVE0MDMgMTIxIDQwNiAxMjFRNDEwIDEyMSA0MTkgMTEyVDQyOSA5OFQ0MjAgODJUMzkwIDU1VDM0NCAyNFQyODEgLTFUMjA1IC0xMVExMjYgLTExIDgzIDQyVDM5IDE2OFpNMzczIDM1M1EzNjcgNDA1IDMwNSA0MDVRMjcyIDQwNSAyNDQgMzkxVDE5OSAzNTdUMTcwIDMxNlQxNTQgMjgwVDE0OSAyNjFRMTQ5IDI2MCAxNjkgMjYwUTI4MiAyNjAgMzI3IDI4NFQzNzMgMzUzWiIgaWQ9Ik1KWC0xMTgtVEVYLUktMUQ0NTIiLz48cGF0aCBkPSJNMjEgMjg3UTIxIDMwMSAzNiAzMzVUODQgNDA2VDE1OCA0NDJRMTk5IDQ0MiAyMjQgNDE5VDI1MCAzNTVRMjQ4IDMzNiAyNDcgMzM0UTI0NyAzMzEgMjMxIDI4OFQxOTggMTkxVDE4MiAxMDVRMTgyIDYyIDE5NiA0NVQyMzggMjdRMjYxIDI3IDI4MSAzOFQzMTIgNjFUMzM5IDk0UTMzOSA5NSAzNDQgMTE0VDM1OCAxNzNUMzc3IDI0N1E0MTUgMzk3IDQxOSA0MDRRNDMyIDQzMSA0NjIgNDMxUTQ3NSA0MzEgNDgzIDQyNFQ0OTQgNDEyVDQ5NiA0MDNRNDk2IDM5MCA0NDcgMTkzVDM5MSAtMjNRMzYzIC0xMDYgMjk0IC0xNTVUMTU2IC0yMDVRMTExIC0yMDUgNzcgLTE4M1Q0MyAtMTE3UTQzIC05NSA1MCAtODBUNjkgLTU4VDg5IC00OFQxMDYgLTQ1UTE1MCAtNDUgMTUwIC04N1ExNTAgLTEwNyAxMzggLTEyMlQxMTUgLTE0MlQxMDIgLTE0N0w5OSAtMTQ4UTEwMSAtMTUzIDExOCAtMTYwVDE1MiAtMTY3SDE2MFExNzcgLTE2NyAxODYgLTE2NVEyMTkgLTE1NiAyNDcgLTEyN1QyOTAgLTY1VDMxMyAtOVQzMjEgMjFMMzE1IDE3UTMwOSAxMyAyOTYgNlQyNzAgLTZRMjUwIC0xMSAyMzEgLTExUTE4NSAtMTEgMTUwIDExVDEwNCA4MlExMDMgODkgMTAzIDExM1ExMDMgMTcwIDEzOCAyNjJUMTczIDM3OVExNzMgMzgwIDE3MyAzODFRMTczIDM5MCAxNzMgMzkzVDE2OSA0MDBUMTU4IDQwNEgxNTRRMTMxIDQwNCAxMTIgMzg1VDgyIDM0NFQ2NSAzMDJUNTcgMjgwUTU1IDI3OCA0MSAyNzhIMjdRMjEgMjg0IDIxIDI4N1oiIGlkPSJNSlgtMTE4LVRFWC1JLTFENDY2Ii8+PHBhdGggZD0iTTYwIDc0OUw2NCA3NTBRNjkgNzUwIDc0IDc1MEg4NkwxMTQgNzI2UTIwOCA2NDEgMjUxIDUxNFQyOTQgMjUwUTI5NCAxODIgMjg0IDExOVQyNjEgMTJUMjI0IC03NlQxODYgLTE0M1QxNDUgLTE5NFQxMTMgLTIyN1Q5MCAtMjQ2UTg3IC0yNDkgODYgLTI1MEg3NFE2NiAtMjUwIDYzIC0yNTBUNTggLTI0N1Q1NSAtMjM4UTU2IC0yMzcgNjYgLTIyNVEyMjEgLTY0IDIyMSAyNTBUNjYgNzI1UTU2IDczNyA1NSA3MzhRNTUgNzQ2IDYwIDc0OVoiIGlkPSJNSlgtMTE4LVRFWC1OLTI5Ii8+PC9kZWZzPjxnIHRyYW5zZm9ybT0ibWF0cml4KDEgMCAwIC0xIDAgMCkiIHN0cm9rZS13aWR0aD0iMCIgZmlsbD0iY3VycmVudENvbG9yIiBzdHJva2U9ImN1cnJlbnRDb2xvciI+PGcgZGF0YS1tbWwtbm9kZT0ibWF0aCI+PGcgZGF0YS1tbWwtbm9kZT0ibWkiPjx1c2UgeGxpbms6aHJlZj0iI01KWC0xMTgtVEVYLUktMUQ0MzgiLz48L2c+PGcgdHJhbnNmb3JtPSJ0cmFuc2xhdGUoNzY0LCAwKSIgZGF0YS1tbWwtbm9kZT0ibWkiPjx1c2UgeGxpbms6aHJlZj0iI01KWC0xMTgtVEVYLUktMUQ0NUIiLz48L2c+PGcgdHJhbnNmb3JtPSJ0cmFuc2xhdGUoMTM2NCwgMCkiIGRhdGEtbW1sLW5vZGU9Im1zdWIiPjxnIGRhdGEtbW1sLW5vZGU9Im1pIj48dXNlIHhsaW5rOmhyZWY9IiNNSlgtMTE4LVRFWC1JLTFENDUwIi8+PC9nPjxnIGRhdGEtbWp4LXRleGNsYXNzPSJPUkQiIHRyYW5zZm9ybT0idHJhbnNsYXRlKDQzMywgLTE1MCkgc2NhbGUoMC43MDcpIiBkYXRhLW1tbC1ub2RlPSJUZVhBdG9tIj48ZyBkYXRhLW1tbC1ub2RlPSJtaSI+PHVzZSB4bGluazpocmVmPSIjTUpYLTExOC1URVgtSS0xRDQ1RCIvPjwvZz48ZyB0cmFuc2Zvcm09InRyYW5zbGF0ZSg1MDMsIDApIiBkYXRhLW1tbC1ub2RlPSJtaSI+PHVzZSB4bGluazpocmVmPSIjTUpYLTExOC1URVgtSS0xRDQ2MiIvPjwvZz48ZyB0cmFuc2Zvcm09InRyYW5zbGF0ZSgxMDc1LCAwKSIgZGF0YS1tbWwtbm9kZT0ibWkiPjx1c2UgeGxpbms6aHJlZj0iI01KWC0xMTgtVEVYLUktMUQ0NEYiLz48L2c+PGcgdHJhbnNmb3JtPSJ0cmFuc2xhdGUoMTUwNCwgMCkiIGRhdGEtbW1sLW5vZGU9Im1pIj48dXNlIHhsaW5rOmhyZWY9IiNNSlgtMTE4LVRFWC1JLTFENDU4Ii8+PC9nPjxnIHRyYW5zZm9ybT0idHJhbnNsYXRlKDIwMjUsIDApIiBkYXRhLW1tbC1ub2RlPSJtbiI+PHVzZSB4bGluazpocmVmPSIjTUpYLTExOC1URVgtTi0zMyIvPjwvZz48L2c+PC9nPjxnIHRyYW5zZm9ybT0idHJhbnNsYXRlKDM2MzIuNCwgMCkiIGRhdGEtbW1sLW5vZGU9Im1vIj48dXNlIHhsaW5rOmhyZWY9IiNNSlgtMTE4LVRFWC1OLTI4Ii8+PC9nPjxnIHRyYW5zZm9ybT0idHJhbnNsYXRlKDQwMjEuNCwgMCkiIGRhdGEtbW1sLW5vZGU9Im1pIj48dXNlIHhsaW5rOmhyZWY9IiNNSlgtMTE4LVRFWC1JLTFENDU4Ii8+PC9nPjxnIHRyYW5zZm9ybT0idHJhbnNsYXRlKDQ1NDIuNCwgMCkiIGRhdGEtbW1sLW5vZGU9Im1pIj48dXNlIHhsaW5rOmhyZWY9IiNNSlgtMTE4LVRFWC1JLTFENDUyIi8+PC9nPjxnIHRyYW5zZm9ybT0idHJhbnNsYXRlKDUwMDguNCwgMCkiIGRhdGEtbW1sLW5vZGU9Im1pIj48dXNlIHhsaW5rOmhyZWY9IiNNSlgtMTE4LVRFWC1JLTFENDY2Ii8+PC9nPjxnIHRyYW5zZm9ybT0idHJhbnNsYXRlKDU0OTguNCwgMCkiIGRhdGEtbW1sLW5vZGU9Im1uIj48dXNlIHhsaW5rOmhyZWY9IiNNSlgtMTE4LVRFWC1OLTMzIi8+PC9nPjxnIHRyYW5zZm9ybT0idHJhbnNsYXRlKDU5OTguNCwgMCkiIGRhdGEtbW1sLW5vZGU9Im1vIj48dXNlIHhsaW5rOmhyZWY9IiNNSlgtMTE4LVRFWC1OLTI5Ii8+PC9nPjwvZz48L2c+PC9zdmc+;" vertex="1" parent="1">
          <mxGeometry x="221" y="1580" width="61.9" height="10" as="geometry" />
        </mxCell>
        <mxCell id="PUM_M8YaJLtLtkd2Mo2w-76" value="" style="rounded=1;whiteSpace=wrap;html=1;fontFamily=Helvetica;align=left;" vertex="1" parent="1">
          <mxGeometry x="400" y="1540" width="120" height="50" as="geometry" />
        </mxCell>
        <mxCell id="PUM_M8YaJLtLtkd2Mo2w-77" value="" style="shape=image;imageAspect=0;aspect=fixed;verticalLabelPosition=bottom;verticalAlign=top;fontFamily=Helvetica;image=data:image/svg+xml,PHN2ZyB4bWxuczp4bGluaz0iaHR0cDovL3d3dy53My5vcmcvMTk5OS94bGluayIgeG1sbnM9Imh0dHA6Ly93d3cudzMub3JnLzIwMDAvc3ZnIiBzdHlsZT0iIiBhcmlhLWhpZGRlbj0idHJ1ZSIgdmlld0JveD0iMCAtNzUwIDEwOTI0LjggMTAzNy4yIiBoZWlnaHQ9IjIuMzQ3ZXgiIHdpZHRoPSIyNC43MTdleCI+PGRlZnM+PHBhdGggZD0iTTQ5MiAyMTNRNDcyIDIxMyA0NzIgMjI2UTQ3MiAyMzAgNDc3IDI1MFQ0ODIgMjg1UTQ4MiAzMTYgNDYxIDMyM1QzNjQgMzMwSDMxMlEzMTEgMzI4IDI3NyAxOTJUMjQzIDUyUTI0MyA0OCAyNTQgNDhUMzM0IDQ2UTQyOCA0NiA0NTggNDhUNTE4IDYxUTU2NyA3NyA1OTkgMTE3VDY3MCAyNDhRNjgwIDI3MCA2ODMgMjcyUTY5MCAyNzQgNjk4IDI3NFE3MTggMjc0IDcxOCAyNjFRNjEzIDcgNjA4IDJRNjA1IDAgMzIyIDBIMTMzUTMxIDAgMzEgMTFRMzEgMTMgMzQgMjVRMzggNDEgNDIgNDNUNjUgNDZROTIgNDYgMTI1IDQ5UTEzOSA1MiAxNDQgNjFRMTQ2IDY2IDIxNSAzNDJUMjg1IDYyMlEyODUgNjI5IDI4MSA2MjlRMjczIDYzMiAyMjggNjM0SDE5N1ExOTEgNjQwIDE5MSA2NDJUMTkzIDY1OVExOTcgNjc2IDIwMyA2ODBINzU3UTc2NCA2NzYgNzY0IDY2OVE3NjQgNjY0IDc1MSA1NTdUNzM3IDQ0N1E3MzUgNDQwIDcxNyA0NDBINzA1UTY5OCA0NDUgNjk4IDQ1M0w3MDEgNDc2UTcwNCA1MDAgNzA0IDUyOFE3MDQgNTU4IDY5NyA1NzhUNjc4IDYwOVQ2NDMgNjI1VDU5NiA2MzJUNTMyIDYzNEg0ODVRMzk3IDYzMyAzOTIgNjMxUTM4OCA2MjkgMzg2IDYyMlEzODUgNjE5IDM1NSA0OTlUMzI0IDM3N1EzNDcgMzc2IDM3MiAzNzZIMzk4UTQ2NCAzNzYgNDg5IDM5MVQ1MzQgNDcyUTUzOCA0ODggNTQwIDQ5MFQ1NTcgNDkzUTU2MiA0OTMgNTY1IDQ5M1Q1NzAgNDkyVDU3MiA0OTFUNTc0IDQ4N1Q1NzcgNDgzTDU0NCAzNTFRNTExIDIxOCA1MDggMjE2UTUwNSAyMTMgNDkyIDIxM1oiIGlkPSJNSlgtOTYtVEVYLUktMUQ0MzgiLz48cGF0aCBkPSJNMjEgMjg3UTIyIDI5MyAyNCAzMDNUMzYgMzQxVDU2IDM4OFQ4OSA0MjVUMTM1IDQ0MlExNzEgNDQyIDE5NSA0MjRUMjI1IDM5MFQyMzEgMzY5UTIzMSAzNjcgMjMyIDM2N0wyNDMgMzc4UTMwNCA0NDIgMzgyIDQ0MlE0MzYgNDQyIDQ2OSA0MTVUNTAzIDMzNlQ0NjUgMTc5VDQyNyA1MlE0MjcgMjYgNDQ0IDI2UTQ1MCAyNiA0NTMgMjdRNDgyIDMyIDUwNSA2NVQ1NDAgMTQ1UTU0MiAxNTMgNTYwIDE1M1E1ODAgMTUzIDU4MCAxNDVRNTgwIDE0NCA1NzYgMTMwUTU2OCAxMDEgNTU0IDczVDUwOCAxN1Q0MzkgLTEwUTM5MiAtMTAgMzcxIDE3VDM1MCA3M1EzNTAgOTIgMzg2IDE5M1Q0MjMgMzQ1UTQyMyA0MDQgMzc5IDQwNEgzNzRRMjg4IDQwNCAyMjkgMzAzTDIyMiAyOTFMMTg5IDE1N1ExNTYgMjYgMTUxIDE2UTEzOCAtMTEgMTA4IC0xMVE5NSAtMTEgODcgLTVUNzYgN1Q3NCAxN1E3NCAzMCAxMTIgMTgwVDE1MiAzNDNRMTUzIDM0OCAxNTMgMzY2UTE1MyA0MDUgMTI5IDQwNVE5MSA0MDUgNjYgMzA1UTYwIDI4NSA2MCAyODRRNTggMjc4IDQxIDI3OEgyN1EyMSAyODQgMjEgMjg3WiIgaWQ9Ik1KWC05Ni1URVgtSS0xRDQ1QiIvPjxwYXRoIGQ9Ik0zNCAxNTlRMzQgMjY4IDEyMCAzNTVUMzA2IDQ0MlEzNjIgNDQyIDM5NCA0MThUNDI3IDM1NVE0MjcgMzI2IDQwOCAzMDZUMzYwIDI4NVEzNDEgMjg1IDMzMCAyOTVUMzE5IDMyNVQzMzAgMzU5VDM1MiAzODBUMzY2IDM4NkgzNjdRMzY3IDM4OCAzNjEgMzkyVDM0MCA0MDBUMzA2IDQwNFEyNzYgNDA0IDI0OSAzOTBRMjI4IDM4MSAyMDYgMzU5UTE2MiAzMTUgMTQyIDIzNVQxMjEgMTE5UTEyMSA3MyAxNDcgNTBRMTY5IDI2IDIwNSAyNkgyMDlRMzIxIDI2IDM5NCAxMTFRNDAzIDEyMSA0MDYgMTIxUTQxMCAxMjEgNDE5IDExMlQ0MjkgOThUNDIwIDgzVDM5MSA1NVQzNDYgMjVUMjgyIDBUMjAyIC0xMVExMjcgLTExIDgxIDM3VDM0IDE1OVoiIGlkPSJNSlgtOTYtVEVYLUktMUQ0NTAiLz48cGF0aCBkPSJNMjMgMjg3UTI0IDI5MCAyNSAyOTVUMzAgMzE3VDQwIDM0OFQ1NSAzODFUNzUgNDExVDEwMSA0MzNUMTM0IDQ0MlEyMDkgNDQyIDIzMCAzNzhMMjQwIDM4N1EzMDIgNDQyIDM1OCA0NDJRNDIzIDQ0MiA0NjAgMzk1VDQ5NyAyODFRNDk3IDE3MyA0MjEgODJUMjQ5IC0xMFEyMjcgLTEwIDIxMCAtNFExOTkgMSAxODcgMTFUMTY4IDI4TDE2MSAzNlExNjAgMzUgMTM5IC01MVQxMTggLTEzOFExMTggLTE0NCAxMjYgLTE0NVQxNjMgLTE0OEgxODhRMTk0IC0xNTUgMTk0IC0xNTdUMTkxIC0xNzVRMTg4IC0xODcgMTg1IC0xOTBUMTcyIC0xOTRRMTcwIC0xOTQgMTYxIC0xOTRUMTI3IC0xOTNUNjUgLTE5MlEtNSAtMTkyIC0yNCAtMTk0SC0zMlEtMzkgLTE4NyAtMzkgLTE4M1EtMzcgLTE1NiAtMjYgLTE0OEgtNlEyOCAtMTQ3IDMzIC0xMzZRMzYgLTEzMCA5NCAxMDNUMTU1IDM1MFExNTYgMzU1IDE1NiAzNjRRMTU2IDQwNSAxMzEgNDA1UTEwOSA0MDUgOTQgMzc3VDcxIDMxNlQ1OSAyODBRNTcgMjc4IDQzIDI3OEgyOVEyMyAyODQgMjMgMjg3Wk0xNzggMTAyUTIwMCAyNiAyNTIgMjZRMjgyIDI2IDMxMCA0OVQzNTYgMTA3UTM3NCAxNDEgMzkyIDIxNVQ0MTEgMzI1VjMzMVE0MTEgNDA1IDM1MCA0MDVRMzM5IDQwNSAzMjggNDAyVDMwNiAzOTNUMjg2IDM4MFQyNjkgMzY1VDI1NCAzNTBUMjQzIDMzNlQyMzUgMzI2TDIzMiAzMjJRMjMyIDMyMSAyMjkgMzA4VDIxOCAyNjRUMjA0IDIxMlExNzggMTA2IDE3OCAxMDJaIiBpZD0iTUpYLTk2LVRFWC1JLTFENDVEIi8+PHBhdGggZD0iTTIxIDI4N1EyMSAyOTUgMzAgMzE4VDU1IDM3MFQ5OSA0MjBUMTU4IDQ0MlEyMDQgNDQyIDIyNyA0MTdUMjUwIDM1OFEyNTAgMzQwIDIxNiAyNDZUMTgyIDEwNVExODIgNjIgMTk2IDQ1VDIzOCAyN1QyOTEgNDRUMzI4IDc4TDMzOSA5NVEzNDEgOTkgMzc3IDI0N1E0MDcgMzY3IDQxMyAzODdUNDI3IDQxNlE0NDQgNDMxIDQ2MyA0MzFRNDgwIDQzMSA0ODggNDIxVDQ5NiA0MDJMNDIwIDg0UTQxOSA3OSA0MTkgNjhRNDE5IDQzIDQyNiAzNVQ0NDcgMjZRNDY5IDI5IDQ4MiA1N1Q1MTIgMTQ1UTUxNCAxNTMgNTMyIDE1M1E1NTEgMTUzIDU1MSAxNDRRNTUwIDEzOSA1NDkgMTMwVDU0MCA5OFQ1MjMgNTVUNDk4IDE3VDQ2MiAtOFE0NTQgLTEwIDQzOCAtMTBRMzcyIC0xMCAzNDcgNDZRMzQ1IDQ1IDMzNiAzNlQzMTggMjFUMjk2IDZUMjY3IC02VDIzMyAtMTFRMTg5IC0xMSAxNTUgN1ExMDMgMzggMTAzIDExM1ExMDMgMTcwIDEzOCAyNjJUMTczIDM3OVExNzMgMzgwIDE3MyAzODFRMTczIDM5MCAxNzMgMzkzVDE2OSA0MDBUMTU4IDQwNEgxNTRRMTMxIDQwNCAxMTIgMzg1VDgyIDM0NFQ2NSAzMDJUNTcgMjgwUTU1IDI3OCA0MSAyNzhIMjdRMjEgMjg0IDIxIDI4N1oiIGlkPSJNSlgtOTYtVEVYLUktMUQ0NjIiLz48cGF0aCBkPSJNNzMgNjQ3UTczIDY1NyA3NyA2NzBUODkgNjgzUTkwIDY4MyAxNjEgNjg4VDIzNCA2OTRRMjQ2IDY5NCAyNDYgNjg1VDIxMiA1NDJRMjA0IDUwOCAxOTUgNDcyVDE4MCA0MThMMTc2IDM5OVExNzYgMzk2IDE4MiA0MDJRMjMxIDQ0MiAyODMgNDQyUTM0NSA0NDIgMzgzIDM5NlQ0MjIgMjgwUTQyMiAxNjkgMzQzIDc5VDE3MyAtMTFRMTIzIC0xMSA4MiAyN1Q0MCAxNTBWMTU5UTQwIDE4MCA0OCAyMTdUOTcgNDE0UTE0NyA2MTEgMTQ3IDYyM1QxMDkgNjM3UTEwNCA2MzcgMTAxIDYzN0g5NlE4NiA2MzcgODMgNjM3VDc2IDY0MFQ3MyA2NDdaTTMzNiAzMjVWMzMxUTMzNiA0MDUgMjc1IDQwNVEyNTggNDA1IDI0MCAzOTdUMjA3IDM3NlQxODEgMzUyVDE2MyAzMzBMMTU3IDMyMkwxMzYgMjM2UTExNCAxNTAgMTE0IDExNFExMTQgNjYgMTM4IDQyUTE1NCAyNiAxNzggMjZRMjExIDI2IDI0NSA1OFEyNzAgODEgMjg1IDExNFQzMTggMjE5UTMzNiAyOTEgMzM2IDMyNVoiIGlkPSJNSlgtOTYtVEVYLUktMUQ0NEYiLz48cGF0aCBkPSJNMTIxIDY0N1ExMjEgNjU3IDEyNSA2NzBUMTM3IDY4M1ExMzggNjgzIDIwOSA2ODhUMjgyIDY5NFEyOTQgNjk0IDI5NCA2ODZRMjk0IDY3OSAyNDQgNDc3UTE5NCAyNzkgMTk0IDI3MlEyMTMgMjgyIDIyMyAyOTFRMjQ3IDMwOSAyOTIgMzU0VDM2MiA0MTVRNDAyIDQ0MiA0MzggNDQyUTQ2OCA0NDIgNDg1IDQyM1Q1MDMgMzY5UTUwMyAzNDQgNDk2IDMyN1Q0NzcgMzAyVDQ1NiAyOTFUNDM4IDI4OFE0MTggMjg4IDQwNiAyOTlUMzk0IDMyOFEzOTQgMzUzIDQxMCAzNjlUNDQyIDM5MEw0NTggMzkzUTQ0NiA0MDUgNDM0IDQwNUg0MzBRMzk4IDQwMiAzNjcgMzgwVDI5NCAzMTZUMjI4IDI1NVEyMzAgMjU0IDI0MyAyNTJUMjY3IDI0NlQyOTMgMjM4VDMyMCAyMjRUMzQyIDIwNlQzNTkgMTgwVDM2NSAxNDdRMzY1IDEzMCAzNjAgMTA2VDM1NCA2NlEzNTQgMjYgMzgxIDI2UTQyOSAyNiA0NTkgMTQ1UTQ2MSAxNTMgNDc5IDE1M0g0ODNRNDk5IDE1MyA0OTkgMTQ0UTQ5OSAxMzkgNDk2IDEzMFE0NTUgLTExIDM3OCAtMTFRMzMzIC0xMSAzMDUgMTVUMjc3IDkwUTI3NyAxMDggMjgwIDEyMVQyODMgMTQ1UTI4MyAxNjcgMjY5IDE4M1QyMzQgMjA2VDIwMCAyMTdUMTgyIDIyMEgxODBRMTY4IDE3OCAxNTkgMTM5VDE0NSA4MVQxMzYgNDRUMTI5IDIwVDEyMiA3VDExMSAtMlE5OCAtMTEgODMgLTExUTY2IC0xMSA1NyAtMVQ0OCAxNlE0OCAyNiA4NSAxNzZUMTU4IDQ3MUwxOTUgNjE2UTE5NiA2MjkgMTg4IDYzMlQxNDkgNjM3SDE0NFExMzQgNjM3IDEzMSA2MzdUMTI0IDY0MFQxMjEgNjQ3WiIgaWQ9Ik1KWC05Ni1URVgtSS0xRDQ1OCIvPjxwYXRoIGQ9Ik0xMDkgNDI5UTgyIDQyOSA2NiA0NDdUNTAgNDkxUTUwIDU2MiAxMDMgNjE0VDIzNSA2NjZRMzI2IDY2NiAzODcgNjEwVDQ0OSA0NjVRNDQ5IDQyMiA0MjkgMzgzVDM4MSAzMTVUMzAxIDI0MVEyNjUgMjEwIDIwMSAxNDlMMTQyIDkzTDIxOCA5MlEzNzUgOTIgMzg1IDk3UTM5MiA5OSA0MDkgMTg2VjE4OUg0NDlWMTg2UTQ0OCAxODMgNDM2IDk1VDQyMSAzVjBINTBWMTlWMzFRNTAgMzggNTYgNDZUODYgODFRMTE1IDExMyAxMzYgMTM3UTE0NSAxNDcgMTcwIDE3NFQyMDQgMjExVDIzMyAyNDRUMjYxIDI3OFQyODQgMzA4VDMwNSAzNDBUMzIwIDM2OVQzMzMgNDAxVDM0MCA0MzFUMzQzIDQ2NFEzNDMgNTI3IDMwOSA1NzNUMjEyIDYxOVExNzkgNjE5IDE1NCA2MDJUMTE5IDU2OVQxMDkgNTUwUTEwOSA1NDkgMTE0IDU0OVExMzIgNTQ5IDE1MSA1MzVUMTcwIDQ4OVExNzAgNDY0IDE1NCA0NDdUMTA5IDQyOVoiIGlkPSJNSlgtOTYtVEVYLU4tMzIiLz48cGF0aCBkPSJNOTQgMjUwUTk0IDMxOSAxMDQgMzgxVDEyNyA0ODhUMTY0IDU3NlQyMDIgNjQzVDI0NCA2OTVUMjc3IDcyOVQzMDIgNzUwSDMxNUgzMTlRMzMzIDc1MCAzMzMgNzQxUTMzMyA3MzggMzE2IDcyMFQyNzUgNjY3VDIyNiA1ODFUMTg0IDQ0M1QxNjcgMjUwVDE4NCA1OFQyMjUgLTgxVDI3NCAtMTY3VDMxNiAtMjIwVDMzMyAtMjQxUTMzMyAtMjUwIDMxOCAtMjUwSDMxNUgzMDJMMjc0IC0yMjZRMTgwIC0xNDEgMTM3IC0xNFQ5NCAyNTBaIiBpZD0iTUpYLTk2LVRFWC1OLTI4Ii8+PHBhdGggZD0iTTM5IDE2OFEzOSAyMjUgNTggMjcyVDEwNyAzNTBUMTc0IDQwMlQyNDQgNDMzVDMwNyA0NDJIMzEwUTM1NSA0NDIgMzg4IDQyMFQ0MjEgMzU1UTQyMSAyNjUgMzEwIDIzN1EyNjEgMjI0IDE3NiAyMjNRMTM5IDIyMyAxMzggMjIxUTEzOCAyMTkgMTMyIDE4NlQxMjUgMTI4UTEyNSA4MSAxNDYgNTRUMjA5IDI2VDMwMiA0NVQzOTQgMTExUTQwMyAxMjEgNDA2IDEyMVE0MTAgMTIxIDQxOSAxMTJUNDI5IDk4VDQyMCA4MlQzOTAgNTVUMzQ0IDI0VDI4MSAtMVQyMDUgLTExUTEyNiAtMTEgODMgNDJUMzkgMTY4Wk0zNzMgMzUzUTM2NyA0MDUgMzA1IDQwNVEyNzIgNDA1IDI0NCAzOTFUMTk5IDM1N1QxNzAgMzE2VDE1NCAyODBUMTQ5IDI2MVExNDkgMjYwIDE2OSAyNjBRMjgyIDI2MCAzMjcgMjg0VDM3MyAzNTNaIiBpZD0iTUpYLTk2LVRFWC1JLTFENDUyIi8+PHBhdGggZD0iTTIxIDI4N1EyMSAzMDEgMzYgMzM1VDg0IDQwNlQxNTggNDQyUTE5OSA0NDIgMjI0IDQxOVQyNTAgMzU1UTI0OCAzMzYgMjQ3IDMzNFEyNDcgMzMxIDIzMSAyODhUMTk4IDE5MVQxODIgMTA1UTE4MiA2MiAxOTYgNDVUMjM4IDI3UTI2MSAyNyAyODEgMzhUMzEyIDYxVDMzOSA5NFEzMzkgOTUgMzQ0IDExNFQzNTggMTczVDM3NyAyNDdRNDE1IDM5NyA0MTkgNDA0UTQzMiA0MzEgNDYyIDQzMVE0NzUgNDMxIDQ4MyA0MjRUNDk0IDQxMlQ0OTYgNDAzUTQ5NiAzOTAgNDQ3IDE5M1QzOTEgLTIzUTM2MyAtMTA2IDI5NCAtMTU1VDE1NiAtMjA1UTExMSAtMjA1IDc3IC0xODNUNDMgLTExN1E0MyAtOTUgNTAgLTgwVDY5IC01OFQ4OSAtNDhUMTA2IC00NVExNTAgLTQ1IDE1MCAtODdRMTUwIC0xMDcgMTM4IC0xMjJUMTE1IC0xNDJUMTAyIC0xNDdMOTkgLTE0OFExMDEgLTE1MyAxMTggLTE2MFQxNTIgLTE2N0gxNjBRMTc3IC0xNjcgMTg2IC0xNjVRMjE5IC0xNTYgMjQ3IC0xMjdUMjkwIC02NVQzMTMgLTlUMzIxIDIxTDMxNSAxN1EzMDkgMTMgMjk2IDZUMjcwIC02UTI1MCAtMTEgMjMxIC0xMVExODUgLTExIDE1MCAxMVQxMDQgODJRMTAzIDg5IDEwMyAxMTNRMTAzIDE3MCAxMzggMjYyVDE3MyAzNzlRMTczIDM4MCAxNzMgMzgxUTE3MyAzOTAgMTczIDM5M1QxNjkgNDAwVDE1OCA0MDRIMTU0UTEzMSA0MDQgMTEyIDM4NVQ4MiAzNDRUNjUgMzAyVDU3IDI4MFE1NSAyNzggNDEgMjc4SDI3UTIxIDI4NCAyMSAyODdaIiBpZD0iTUpYLTk2LVRFWC1JLTFENDY2Ii8+PHBhdGggZD0iTTc4IDM1VDc4IDYwVDk0IDEwM1QxMzcgMTIxUTE2NSAxMjEgMTg3IDk2VDIxMCA4UTIxMCAtMjcgMjAxIC02MFQxODAgLTExN1QxNTQgLTE1OFQxMzAgLTE4NVQxMTcgLTE5NFExMTMgLTE5NCAxMDQgLTE4NVQ5NSAtMTcyUTk1IC0xNjggMTA2IC0xNTZUMTMxIC0xMjZUMTU3IC03NlQxNzMgLTNWOUwxNzIgOFExNzAgNyAxNjcgNlQxNjEgM1QxNTIgMVQxNDAgMFExMTMgMCA5NiAxN1oiIGlkPSJNSlgtOTYtVEVYLU4tMkMiLz48cGF0aCBkPSJNMTg0IDYwMFExODQgNjI0IDIwMyA2NDJUMjQ3IDY2MVEyNjUgNjYxIDI3NyA2NDlUMjkwIDYxOVEyOTAgNTk2IDI3MCA1NzdUMjI2IDU1N1EyMTEgNTU3IDE5OCA1NjdUMTg0IDYwMFpNMjEgMjg3UTIxIDI5NSAzMCAzMThUNTQgMzY5VDk4IDQyMFQxNTggNDQyUTE5NyA0NDIgMjIzIDQxOVQyNTAgMzU3UTI1MCAzNDAgMjM2IDMwMVQxOTYgMTk2VDE1NCA4M1ExNDkgNjEgMTQ5IDUxUTE0OSAyNiAxNjYgMjZRMTc1IDI2IDE4NSAyOVQyMDggNDNUMjM1IDc4VDI2MCAxMzdRMjYzIDE0OSAyNjUgMTUxVDI4MiAxNTNRMzAyIDE1MyAzMDIgMTQzUTMwMiAxMzUgMjkzIDExMlQyNjggNjFUMjIzIDExVDE2MSAtMTFRMTI5IC0xMSAxMDIgMTBUNzQgNzRRNzQgOTEgNzkgMTA2VDEyMiAyMjBRMTYwIDMyMSAxNjYgMzQxVDE3MyAzODBRMTczIDQwNCAxNTYgNDA0SDE1NFExMjQgNDA0IDk5IDM3MVQ2MSAyODdRNjAgMjg2IDU5IDI4NFQ1OCAyODFUNTYgMjc5VDUzIDI3OFQ0OSAyNzhUNDEgMjc4SDI3UTIxIDI4NCAyMSAyODdaIiBpZD0iTUpYLTk2LVRFWC1JLTFENDU2Ii8+PHBhdGggZD0iTTEyNyA0NjNRMTAwIDQ2MyA4NSA0ODBUNjkgNTI0UTY5IDU3OSAxMTcgNjIyVDIzMyA2NjVRMjY4IDY2NSAyNzcgNjY0UTM1MSA2NTIgMzkwIDYxMVQ0MzAgNTIyUTQzMCA0NzAgMzk2IDQyMVQzMDIgMzUwTDI5OSAzNDhRMjk5IDM0NyAzMDggMzQ1VDMzNyAzMzZUMzc1IDMxNVE0NTcgMjYyIDQ1NyAxNzVRNDU3IDk2IDM5NSAzN1QyMzggLTIyUTE1OCAtMjIgMTAwIDIxVDQyIDEzMFE0MiAxNTggNjAgMTc1VDEwNSAxOTNRMTMzIDE5MyAxNTEgMTc1VDE2OSAxMzBRMTY5IDExOSAxNjYgMTEwVDE1OSA5NFQxNDggODJUMTM2IDc0VDEyNiA3MFQxMTggNjdMMTE0IDY2UTE2NSAyMSAyMzggMjFRMjkzIDIxIDMyMSA3NFEzMzggMTA3IDMzOCAxNzVWMTk1UTMzOCAyOTAgMjc0IDMyMlEyNTkgMzI4IDIxMyAzMjlMMTcxIDMzMEwxNjggMzMyUTE2NiAzMzUgMTY2IDM0OFExNjYgMzY2IDE3NCAzNjZRMjAyIDM2NiAyMzIgMzcxUTI2NiAzNzYgMjk0IDQxM1QzMjIgNTI1VjUzM1EzMjIgNTkwIDI4NyA2MTJRMjY1IDYyNiAyNDAgNjI2UTIwOCA2MjYgMTgxIDYxNVQxNDMgNTkyVDEzMiA1ODBIMTM1UTEzOCA1NzkgMTQzIDU3OFQxNTMgNTczVDE2NSA1NjZUMTc1IDU1NVQxODMgNTQwVDE4NiA1MjBRMTg2IDQ5OCAxNzIgNDgxVDEyNyA0NjNaIiBpZD0iTUpYLTk2LVRFWC1OLTMzIi8+PHBhdGggZD0iTTIwMSAtMTFRMTI2IC0xMSA4MCAzOFQzNCAxNTZRMzQgMjIxIDY0IDI3OVQxNDYgMzgwUTIyMiA0NDEgMzAxIDQ0MVEzMzMgNDQxIDM0MSA0NDBRMzU0IDQzNyAzNjcgNDMzVDQwMiA0MTdUNDM4IDM4N1Q0NjQgMzM4VDQ3NiAyNjhRNDc2IDE2MSAzOTAgNzVUMjAxIC0xMVpNMTIxIDEyMFExMjEgNzAgMTQ3IDQ4VDIwNiAyNlEyNTAgMjYgMjg5IDU4VDM1MSAxNDJRMzYwIDE2MyAzNzQgMjE2VDM4OCAzMDhRMzg4IDM1MiAzNzAgMzc1UTM0NiA0MDUgMzA2IDQwNVEyNDMgNDA1IDE5NSAzNDdRMTU4IDMwMyAxNDAgMjMwVDEyMSAxMjBaIiBpZD0iTUpYLTk2LVRFWC1JLTFENDVDIi8+PHBhdGggZD0iTTIxIDI4N1EyMiAyOTAgMjMgMjk1VDI4IDMxN1QzOCAzNDhUNTMgMzgxVDczIDQxMVQ5OSA0MzNUMTMyIDQ0MlExNjEgNDQyIDE4MyA0MzBUMjE0IDQwOFQyMjUgMzg4UTIyNyAzODIgMjI4IDM4MlQyMzYgMzg5UTI4NCA0NDEgMzQ3IDQ0MUgzNTBRMzk4IDQ0MSA0MjIgNDAwUTQzMCAzODEgNDMwIDM2M1E0MzAgMzMzIDQxNyAzMTVUMzkxIDI5MlQzNjYgMjg4UTM0NiAyODggMzM0IDI5OVQzMjIgMzI4UTMyMiAzNzYgMzc4IDM5MlEzNTYgNDA1IDM0MiA0MDVRMjg2IDQwNSAyMzkgMzMxUTIyOSAzMTUgMjI0IDI5OFQxOTAgMTY1UTE1NiAyNSAxNTEgMTZRMTM4IC0xMSAxMDggLTExUTk1IC0xMSA4NyAtNVQ3NiA3VDc0IDE3UTc0IDMwIDExNCAxODlUMTU0IDM2NlExNTQgNDA1IDEyOCA0MDVRMTA3IDQwNSA5MiAzNzdUNjggMzE2VDU3IDI4MFE1NSAyNzggNDEgMjc4SDI3UTIxIDI4NCAyMSAyODdaIiBpZD0iTUpYLTk2LVRFWC1JLTFENDVGIi8+PHBhdGggZD0iTTI2IDM4NVExOSAzOTIgMTkgMzk1UTE5IDM5OSAyMiA0MTFUMjcgNDI1UTI5IDQzMCAzNiA0MzBUODcgNDMxSDE0MEwxNTkgNTExUTE2MiA1MjIgMTY2IDU0MFQxNzMgNTY2VDE3OSA1ODZUMTg3IDYwM1QxOTcgNjE1VDIxMSA2MjRUMjI5IDYyNlEyNDcgNjI1IDI1NCA2MTVUMjYxIDU5NlEyNjEgNTg5IDI1MiA1NDlUMjMyIDQ3MEwyMjIgNDMzUTIyMiA0MzEgMjcyIDQzMUgzMjNRMzMwIDQyNCAzMzAgNDIwUTMzMCAzOTggMzE3IDM4NUgyMTBMMTc0IDI0MFExMzUgODAgMTM1IDY4UTEzNSAyNiAxNjIgMjZRMTk3IDI2IDIzMCA2MFQyODMgMTQ0UTI4NSAxNTAgMjg4IDE1MVQzMDMgMTUzSDMwN1EzMjIgMTUzIDMyMiAxNDVRMzIyIDE0MiAzMTkgMTMzUTMxNCAxMTcgMzAxIDk1VDI2NyA0OFQyMTYgNlQxNTUgLTExUTEyNSAtMTEgOTggNFQ1OSA1NlE1NyA2NCA1NyA4M1YxMDFMOTIgMjQxUTEyNyAzODIgMTI4IDM4M1ExMjggMzg1IDc3IDM4NUgyNloiIGlkPSJNSlgtOTYtVEVYLUktMUQ0NjEiLz48cGF0aCBkPSJNNjAgNzQ5TDY0IDc1MFE2OSA3NTAgNzQgNzUwSDg2TDExNCA3MjZRMjA4IDY0MSAyNTEgNTE0VDI5NCAyNTBRMjk0IDE4MiAyODQgMTE5VDI2MSAxMlQyMjQgLTc2VDE4NiAtMTQzVDE0NSAtMTk0VDExMyAtMjI3VDkwIC0yNDZRODcgLTI0OSA4NiAtMjUwSDc0UTY2IC0yNTAgNjMgLTI1MFQ1OCAtMjQ3VDU1IC0yMzhRNTYgLTIzNyA2NiAtMjI1UTIyMSAtNjQgMjIxIDI1MFQ2NiA3MjVRNTYgNzM3IDU1IDczOFE1NSA3NDYgNjAgNzQ5WiIgaWQ9Ik1KWC05Ni1URVgtTi0yOSIvPjwvZGVmcz48ZyB0cmFuc2Zvcm09Im1hdHJpeCgxIDAgMCAtMSAwIDApIiBzdHJva2Utd2lkdGg9IjAiIGZpbGw9ImN1cnJlbnRDb2xvciIgc3Ryb2tlPSJjdXJyZW50Q29sb3IiPjxnIGRhdGEtbW1sLW5vZGU9Im1hdGgiPjxnIGRhdGEtbW1sLW5vZGU9Im1pIj48dXNlIHhsaW5rOmhyZWY9IiNNSlgtOTYtVEVYLUktMUQ0MzgiLz48L2c+PGcgdHJhbnNmb3JtPSJ0cmFuc2xhdGUoNzY0LCAwKSIgZGF0YS1tbWwtbm9kZT0ibWkiPjx1c2UgeGxpbms6aHJlZj0iI01KWC05Ni1URVgtSS0xRDQ1QiIvPjwvZz48ZyB0cmFuc2Zvcm09InRyYW5zbGF0ZSgxMzY0LCAwKSIgZGF0YS1tbWwtbm9kZT0ibXN1YiI+PGcgZGF0YS1tbWwtbm9kZT0ibWkiPjx1c2UgeGxpbms6aHJlZj0iI01KWC05Ni1URVgtSS0xRDQ1MCIvPjwvZz48ZyBkYXRhLW1qeC10ZXhjbGFzcz0iT1JEIiB0cmFuc2Zvcm09InRyYW5zbGF0ZSg0MzMsIC0xNTApIHNjYWxlKDAuNzA3KSIgZGF0YS1tbWwtbm9kZT0iVGVYQXRvbSI+PGcgZGF0YS1tbWwtbm9kZT0ibWkiPjx1c2UgeGxpbms6aHJlZj0iI01KWC05Ni1URVgtSS0xRDQ1RCIvPjwvZz48ZyB0cmFuc2Zvcm09InRyYW5zbGF0ZSg1MDMsIDApIiBkYXRhLW1tbC1ub2RlPSJtaSI+PHVzZSB4bGluazpocmVmPSIjTUpYLTk2LVRFWC1JLTFENDYyIi8+PC9nPjxnIHRyYW5zZm9ybT0idHJhbnNsYXRlKDEwNzUsIDApIiBkYXRhLW1tbC1ub2RlPSJtaSI+PHVzZSB4bGluazpocmVmPSIjTUpYLTk2LVRFWC1JLTFENDRGIi8+PC9nPjxnIHRyYW5zZm9ybT0idHJhbnNsYXRlKDE1MDQsIDApIiBkYXRhLW1tbC1ub2RlPSJtaSI+PHVzZSB4bGluazpocmVmPSIjTUpYLTk2LVRFWC1JLTFENDU4Ii8+PC9nPjxnIHRyYW5zZm9ybT0idHJhbnNsYXRlKDIwMjUsIDApIiBkYXRhLW1tbC1ub2RlPSJtbiI+PHVzZSB4bGluazpocmVmPSIjTUpYLTk2LVRFWC1OLTMyIi8+PC9nPjwvZz48L2c+PGcgdHJhbnNmb3JtPSJ0cmFuc2xhdGUoMzYzMi40LCAwKSIgZGF0YS1tbWwtbm9kZT0ibW8iPjx1c2UgeGxpbms6aHJlZj0iI01KWC05Ni1URVgtTi0yOCIvPjwvZz48ZyB0cmFuc2Zvcm09InRyYW5zbGF0ZSg0MDIxLjQsIDApIiBkYXRhLW1tbC1ub2RlPSJtaSI+PHVzZSB4bGluazpocmVmPSIjTUpYLTk2LVRFWC1JLTFENDU4Ii8+PC9nPjxnIHRyYW5zZm9ybT0idHJhbnNsYXRlKDQ1NDIuNCwgMCkiIGRhdGEtbW1sLW5vZGU9Im1pIj48dXNlIHhsaW5rOmhyZWY9IiNNSlgtOTYtVEVYLUktMUQ0NTIiLz48L2c+PGcgdHJhbnNmb3JtPSJ0cmFuc2xhdGUoNTAwOC40LCAwKSIgZGF0YS1tbWwtbm9kZT0ibWkiPjx1c2UgeGxpbms6aHJlZj0iI01KWC05Ni1URVgtSS0xRDQ2NiIvPjwvZz48ZyB0cmFuc2Zvcm09InRyYW5zbGF0ZSg1NDk4LjQsIDApIiBkYXRhLW1tbC1ub2RlPSJtbiI+PHVzZSB4bGluazpocmVmPSIjTUpYLTk2LVRFWC1OLTMyIi8+PC9nPjxnIHRyYW5zZm9ybT0idHJhbnNsYXRlKDU5OTguNCwgMCkiIGRhdGEtbW1sLW5vZGU9Im1vIj48dXNlIHhsaW5rOmhyZWY9IiNNSlgtOTYtVEVYLU4tMkMiLz48L2c+PGcgdHJhbnNmb3JtPSJ0cmFuc2xhdGUoNjQ0My4xLCAwKSIgZGF0YS1tbWwtbm9kZT0ibWkiPjx1c2UgeGxpbms6aHJlZj0iI01KWC05Ni1URVgtSS0xRDQ1NiIvPjwvZz48ZyB0cmFuc2Zvcm09InRyYW5zbGF0ZSg2Nzg4LjEsIDApIiBkYXRhLW1tbC1ub2RlPSJtaSI+PHVzZSB4bGluazpocmVmPSIjTUpYLTk2LVRFWC1JLTFENDVEIi8+PC9nPjxnIHRyYW5zZm9ybT0idHJhbnNsYXRlKDcyOTEuMSwgMCkiIGRhdGEtbW1sLW5vZGU9Im1uIj48dXNlIHhsaW5rOmhyZWY9IiNNSlgtOTYtVEVYLU4tMzMiLz48L2c+PGcgdHJhbnNmb3JtPSJ0cmFuc2xhdGUoNzc5MS4xLCAwKSIgZGF0YS1tbWwtbm9kZT0ibW8iPjx1c2UgeGxpbms6aHJlZj0iI01KWC05Ni1URVgtTi0yQyIvPjwvZz48ZyB0cmFuc2Zvcm09InRyYW5zbGF0ZSg4MjM1LjgsIDApIiBkYXRhLW1tbC1ub2RlPSJtaSI+PHVzZSB4bGluazpocmVmPSIjTUpYLTk2LVRFWC1JLTFENDVEIi8+PC9nPjxnIHRyYW5zZm9ybT0idHJhbnNsYXRlKDg3MzguOCwgMCkiIGRhdGEtbW1sLW5vZGU9Im1pIj48dXNlIHhsaW5rOmhyZWY9IiNNSlgtOTYtVEVYLUktMUQ0NUMiLz48L2c+PGcgdHJhbnNmb3JtPSJ0cmFuc2xhdGUoOTIyMy44LCAwKSIgZGF0YS1tbWwtbm9kZT0ibWkiPjx1c2UgeGxpbms6aHJlZj0iI01KWC05Ni1URVgtSS0xRDQ1RiIvPjwvZz48ZyB0cmFuc2Zvcm09InRyYW5zbGF0ZSg5Njc0LjgsIDApIiBkYXRhLW1tbC1ub2RlPSJtaSI+PHVzZSB4bGluazpocmVmPSIjTUpYLTk2LVRFWC1JLTFENDYxIi8+PC9nPjxnIHRyYW5zZm9ybT0idHJhbnNsYXRlKDEwMDM1LjgsIDApIiBkYXRhLW1tbC1ub2RlPSJtbiI+PHVzZSB4bGluazpocmVmPSIjTUpYLTk2LVRFWC1OLTMzIi8+PC9nPjxnIHRyYW5zZm9ybT0idHJhbnNsYXRlKDEwNTM1LjgsIDApIiBkYXRhLW1tbC1ub2RlPSJtbyI+PHVzZSB4bGluazpocmVmPSIjTUpYLTk2LVRFWC1OLTI5Ii8+PC9nPjwvZz48L2c+PC9zdmc+;" vertex="1" parent="1">
          <mxGeometry x="410" y="1550" width="105.71" height="10" as="geometry" />
        </mxCell>
        <mxCell id="PUM_M8YaJLtLtkd2Mo2w-79" value="" style="rounded=1;whiteSpace=wrap;html=1;fontFamily=Helvetica;" vertex="1" parent="1">
          <mxGeometry x="420.00000000000006" y="1565" width="91" height="20" as="geometry" />
        </mxCell>
        <mxCell id="PUM_M8YaJLtLtkd2Mo2w-78" value="" style="shape=image;imageAspect=0;aspect=fixed;verticalLabelPosition=bottom;verticalAlign=top;fontFamily=Helvetica;image=data:image/svg+xml,PHN2ZyB4bWxuczp4bGluaz0iaHR0cDovL3d3dy53My5vcmcvMTk5OS94bGluayIgeG1sbnM9Imh0dHA6Ly93d3cudzMub3JnLzIwMDAvc3ZnIiBzdHlsZT0iIiBhcmlhLWhpZGRlbj0idHJ1ZSIgdmlld0JveD0iMCAtNzUwIDYzODcuNCAxMDM3LjIiIGhlaWdodD0iMi4zNDdleCIgd2lkdGg9IjE0LjQ1MWV4Ij48ZGVmcz48cGF0aCBkPSJNNDkyIDIxM1E0NzIgMjEzIDQ3MiAyMjZRNDcyIDIzMCA0NzcgMjUwVDQ4MiAyODVRNDgyIDMxNiA0NjEgMzIzVDM2NCAzMzBIMzEyUTMxMSAzMjggMjc3IDE5MlQyNDMgNTJRMjQzIDQ4IDI1NCA0OFQzMzQgNDZRNDI4IDQ2IDQ1OCA0OFQ1MTggNjFRNTY3IDc3IDU5OSAxMTdUNjcwIDI0OFE2ODAgMjcwIDY4MyAyNzJRNjkwIDI3NCA2OTggMjc0UTcxOCAyNzQgNzE4IDI2MVE2MTMgNyA2MDggMlE2MDUgMCAzMjIgMEgxMzNRMzEgMCAzMSAxMVEzMSAxMyAzNCAyNVEzOCA0MSA0MiA0M1Q2NSA0NlE5MiA0NiAxMjUgNDlRMTM5IDUyIDE0NCA2MVExNDYgNjYgMjE1IDM0MlQyODUgNjIyUTI4NSA2MjkgMjgxIDYyOVEyNzMgNjMyIDIyOCA2MzRIMTk3UTE5MSA2NDAgMTkxIDY0MlQxOTMgNjU5UTE5NyA2NzYgMjAzIDY4MEg3NTdRNzY0IDY3NiA3NjQgNjY5UTc2NCA2NjQgNzUxIDU1N1Q3MzcgNDQ3UTczNSA0NDAgNzE3IDQ0MEg3MDVRNjk4IDQ0NSA2OTggNDUzTDcwMSA0NzZRNzA0IDUwMCA3MDQgNTI4UTcwNCA1NTggNjk3IDU3OFQ2NzggNjA5VDY0MyA2MjVUNTk2IDYzMlQ1MzIgNjM0SDQ4NVEzOTcgNjMzIDM5MiA2MzFRMzg4IDYyOSAzODYgNjIyUTM4NSA2MTkgMzU1IDQ5OVQzMjQgMzc3UTM0NyAzNzYgMzcyIDM3NkgzOThRNDY0IDM3NiA0ODkgMzkxVDUzNCA0NzJRNTM4IDQ4OCA1NDAgNDkwVDU1NyA0OTNRNTYyIDQ5MyA1NjUgNDkzVDU3MCA0OTJUNTcyIDQ5MVQ1NzQgNDg3VDU3NyA0ODNMNTQ0IDM1MVE1MTEgMjE4IDUwOCAyMTZRNTA1IDIxMyA0OTIgMjEzWiIgaWQ9Ik1KWC0xMTgtVEVYLUktMUQ0MzgiLz48cGF0aCBkPSJNMjEgMjg3UTIyIDI5MyAyNCAzMDNUMzYgMzQxVDU2IDM4OFQ4OSA0MjVUMTM1IDQ0MlExNzEgNDQyIDE5NSA0MjRUMjI1IDM5MFQyMzEgMzY5UTIzMSAzNjcgMjMyIDM2N0wyNDMgMzc4UTMwNCA0NDIgMzgyIDQ0MlE0MzYgNDQyIDQ2OSA0MTVUNTAzIDMzNlQ0NjUgMTc5VDQyNyA1MlE0MjcgMjYgNDQ0IDI2UTQ1MCAyNiA0NTMgMjdRNDgyIDMyIDUwNSA2NVQ1NDAgMTQ1UTU0MiAxNTMgNTYwIDE1M1E1ODAgMTUzIDU4MCAxNDVRNTgwIDE0NCA1NzYgMTMwUTU2OCAxMDEgNTU0IDczVDUwOCAxN1Q0MzkgLTEwUTM5MiAtMTAgMzcxIDE3VDM1MCA3M1EzNTAgOTIgMzg2IDE5M1Q0MjMgMzQ1UTQyMyA0MDQgMzc5IDQwNEgzNzRRMjg4IDQwNCAyMjkgMzAzTDIyMiAyOTFMMTg5IDE1N1ExNTYgMjYgMTUxIDE2UTEzOCAtMTEgMTA4IC0xMVE5NSAtMTEgODcgLTVUNzYgN1Q3NCAxN1E3NCAzMCAxMTIgMTgwVDE1MiAzNDNRMTUzIDM0OCAxNTMgMzY2UTE1MyA0MDUgMTI5IDQwNVE5MSA0MDUgNjYgMzA1UTYwIDI4NSA2MCAyODRRNTggMjc4IDQxIDI3OEgyN1EyMSAyODQgMjEgMjg3WiIgaWQ9Ik1KWC0xMTgtVEVYLUktMUQ0NUIiLz48cGF0aCBkPSJNMzQgMTU5UTM0IDI2OCAxMjAgMzU1VDMwNiA0NDJRMzYyIDQ0MiAzOTQgNDE4VDQyNyAzNTVRNDI3IDMyNiA0MDggMzA2VDM2MCAyODVRMzQxIDI4NSAzMzAgMjk1VDMxOSAzMjVUMzMwIDM1OVQzNTIgMzgwVDM2NiAzODZIMzY3UTM2NyAzODggMzYxIDM5MlQzNDAgNDAwVDMwNiA0MDRRMjc2IDQwNCAyNDkgMzkwUTIyOCAzODEgMjA2IDM1OVExNjIgMzE1IDE0MiAyMzVUMTIxIDExOVExMjEgNzMgMTQ3IDUwUTE2OSAyNiAyMDUgMjZIMjA5UTMyMSAyNiAzOTQgMTExUTQwMyAxMjEgNDA2IDEyMVE0MTAgMTIxIDQxOSAxMTJUNDI5IDk4VDQyMCA4M1QzOTEgNTVUMzQ2IDI1VDI4MiAwVDIwMiAtMTFRMTI3IC0xMSA4MSAzN1QzNCAxNTlaIiBpZD0iTUpYLTExOC1URVgtSS0xRDQ1MCIvPjxwYXRoIGQ9Ik0yMyAyODdRMjQgMjkwIDI1IDI5NVQzMCAzMTdUNDAgMzQ4VDU1IDM4MVQ3NSA0MTFUMTAxIDQzM1QxMzQgNDQyUTIwOSA0NDIgMjMwIDM3OEwyNDAgMzg3UTMwMiA0NDIgMzU4IDQ0MlE0MjMgNDQyIDQ2MCAzOTVUNDk3IDI4MVE0OTcgMTczIDQyMSA4MlQyNDkgLTEwUTIyNyAtMTAgMjEwIC00UTE5OSAxIDE4NyAxMVQxNjggMjhMMTYxIDM2UTE2MCAzNSAxMzkgLTUxVDExOCAtMTM4UTExOCAtMTQ0IDEyNiAtMTQ1VDE2MyAtMTQ4SDE4OFExOTQgLTE1NSAxOTQgLTE1N1QxOTEgLTE3NVExODggLTE4NyAxODUgLTE5MFQxNzIgLTE5NFExNzAgLTE5NCAxNjEgLTE5NFQxMjcgLTE5M1Q2NSAtMTkyUS01IC0xOTIgLTI0IC0xOTRILTMyUS0zOSAtMTg3IC0zOSAtMTgzUS0zNyAtMTU2IC0yNiAtMTQ4SC02UTI4IC0xNDcgMzMgLTEzNlEzNiAtMTMwIDk0IDEwM1QxNTUgMzUwUTE1NiAzNTUgMTU2IDM2NFExNTYgNDA1IDEzMSA0MDVRMTA5IDQwNSA5NCAzNzdUNzEgMzE2VDU5IDI4MFE1NyAyNzggNDMgMjc4SDI5UTIzIDI4NCAyMyAyODdaTTE3OCAxMDJRMjAwIDI2IDI1MiAyNlEyODIgMjYgMzEwIDQ5VDM1NiAxMDdRMzc0IDE0MSAzOTIgMjE1VDQxMSAzMjVWMzMxUTQxMSA0MDUgMzUwIDQwNVEzMzkgNDA1IDMyOCA0MDJUMzA2IDM5M1QyODYgMzgwVDI2OSAzNjVUMjU0IDM1MFQyNDMgMzM2VDIzNSAzMjZMMjMyIDMyMlEyMzIgMzIxIDIyOSAzMDhUMjE4IDI2NFQyMDQgMjEyUTE3OCAxMDYgMTc4IDEwMloiIGlkPSJNSlgtMTE4LVRFWC1JLTFENDVEIi8+PHBhdGggZD0iTTIxIDI4N1EyMSAyOTUgMzAgMzE4VDU1IDM3MFQ5OSA0MjBUMTU4IDQ0MlEyMDQgNDQyIDIyNyA0MTdUMjUwIDM1OFEyNTAgMzQwIDIxNiAyNDZUMTgyIDEwNVExODIgNjIgMTk2IDQ1VDIzOCAyN1QyOTEgNDRUMzI4IDc4TDMzOSA5NVEzNDEgOTkgMzc3IDI0N1E0MDcgMzY3IDQxMyAzODdUNDI3IDQxNlE0NDQgNDMxIDQ2MyA0MzFRNDgwIDQzMSA0ODggNDIxVDQ5NiA0MDJMNDIwIDg0UTQxOSA3OSA0MTkgNjhRNDE5IDQzIDQyNiAzNVQ0NDcgMjZRNDY5IDI5IDQ4MiA1N1Q1MTIgMTQ1UTUxNCAxNTMgNTMyIDE1M1E1NTEgMTUzIDU1MSAxNDRRNTUwIDEzOSA1NDkgMTMwVDU0MCA5OFQ1MjMgNTVUNDk4IDE3VDQ2MiAtOFE0NTQgLTEwIDQzOCAtMTBRMzcyIC0xMCAzNDcgNDZRMzQ1IDQ1IDMzNiAzNlQzMTggMjFUMjk2IDZUMjY3IC02VDIzMyAtMTFRMTg5IC0xMSAxNTUgN1ExMDMgMzggMTAzIDExM1ExMDMgMTcwIDEzOCAyNjJUMTczIDM3OVExNzMgMzgwIDE3MyAzODFRMTczIDM5MCAxNzMgMzkzVDE2OSA0MDBUMTU4IDQwNEgxNTRRMTMxIDQwNCAxMTIgMzg1VDgyIDM0NFQ2NSAzMDJUNTcgMjgwUTU1IDI3OCA0MSAyNzhIMjdRMjEgMjg0IDIxIDI4N1oiIGlkPSJNSlgtMTE4LVRFWC1JLTFENDYyIi8+PHBhdGggZD0iTTczIDY0N1E3MyA2NTcgNzcgNjcwVDg5IDY4M1E5MCA2ODMgMTYxIDY4OFQyMzQgNjk0UTI0NiA2OTQgMjQ2IDY4NVQyMTIgNTQyUTIwNCA1MDggMTk1IDQ3MlQxODAgNDE4TDE3NiAzOTlRMTc2IDM5NiAxODIgNDAyUTIzMSA0NDIgMjgzIDQ0MlEzNDUgNDQyIDM4MyAzOTZUNDIyIDI4MFE0MjIgMTY5IDM0MyA3OVQxNzMgLTExUTEyMyAtMTEgODIgMjdUNDAgMTUwVjE1OVE0MCAxODAgNDggMjE3VDk3IDQxNFExNDcgNjExIDE0NyA2MjNUMTA5IDYzN1ExMDQgNjM3IDEwMSA2MzdIOTZRODYgNjM3IDgzIDYzN1Q3NiA2NDBUNzMgNjQ3Wk0zMzYgMzI1VjMzMVEzMzYgNDA1IDI3NSA0MDVRMjU4IDQwNSAyNDAgMzk3VDIwNyAzNzZUMTgxIDM1MlQxNjMgMzMwTDE1NyAzMjJMMTM2IDIzNlExMTQgMTUwIDExNCAxMTRRMTE0IDY2IDEzOCA0MlExNTQgMjYgMTc4IDI2UTIxMSAyNiAyNDUgNThRMjcwIDgxIDI4NSAxMTRUMzE4IDIxOVEzMzYgMjkxIDMzNiAzMjVaIiBpZD0iTUpYLTExOC1URVgtSS0xRDQ0RiIvPjxwYXRoIGQ9Ik0xMjEgNjQ3UTEyMSA2NTcgMTI1IDY3MFQxMzcgNjgzUTEzOCA2ODMgMjA5IDY4OFQyODIgNjk0UTI5NCA2OTQgMjk0IDY4NlEyOTQgNjc5IDI0NCA0NzdRMTk0IDI3OSAxOTQgMjcyUTIxMyAyODIgMjIzIDI5MVEyNDcgMzA5IDI5MiAzNTRUMzYyIDQxNVE0MDIgNDQyIDQzOCA0NDJRNDY4IDQ0MiA0ODUgNDIzVDUwMyAzNjlRNTAzIDM0NCA0OTYgMzI3VDQ3NyAzMDJUNDU2IDI5MVQ0MzggMjg4UTQxOCAyODggNDA2IDI5OVQzOTQgMzI4UTM5NCAzNTMgNDEwIDM2OVQ0NDIgMzkwTDQ1OCAzOTNRNDQ2IDQwNSA0MzQgNDA1SDQzMFEzOTggNDAyIDM2NyAzODBUMjk0IDMxNlQyMjggMjU1UTIzMCAyNTQgMjQzIDI1MlQyNjcgMjQ2VDI5MyAyMzhUMzIwIDIyNFQzNDIgMjA2VDM1OSAxODBUMzY1IDE0N1EzNjUgMTMwIDM2MCAxMDZUMzU0IDY2UTM1NCAyNiAzODEgMjZRNDI5IDI2IDQ1OSAxNDVRNDYxIDE1MyA0NzkgMTUzSDQ4M1E0OTkgMTUzIDQ5OSAxNDRRNDk5IDEzOSA0OTYgMTMwUTQ1NSAtMTEgMzc4IC0xMVEzMzMgLTExIDMwNSAxNVQyNzcgOTBRMjc3IDEwOCAyODAgMTIxVDI4MyAxNDVRMjgzIDE2NyAyNjkgMTgzVDIzNCAyMDZUMjAwIDIxN1QxODIgMjIwSDE4MFExNjggMTc4IDE1OSAxMzlUMTQ1IDgxVDEzNiA0NFQxMjkgMjBUMTIyIDdUMTExIC0yUTk4IC0xMSA4MyAtMTFRNjYgLTExIDU3IC0xVDQ4IDE2UTQ4IDI2IDg1IDE3NlQxNTggNDcxTDE5NSA2MTZRMTk2IDYyOSAxODggNjMyVDE0OSA2MzdIMTQ0UTEzNCA2MzcgMTMxIDYzN1QxMjQgNjQwVDEyMSA2NDdaIiBpZD0iTUpYLTExOC1URVgtSS0xRDQ1OCIvPjxwYXRoIGQ9Ik0xMjcgNDYzUTEwMCA0NjMgODUgNDgwVDY5IDUyNFE2OSA1NzkgMTE3IDYyMlQyMzMgNjY1UTI2OCA2NjUgMjc3IDY2NFEzNTEgNjUyIDM5MCA2MTFUNDMwIDUyMlE0MzAgNDcwIDM5NiA0MjFUMzAyIDM1MEwyOTkgMzQ4UTI5OSAzNDcgMzA4IDM0NVQzMzcgMzM2VDM3NSAzMTVRNDU3IDI2MiA0NTcgMTc1UTQ1NyA5NiAzOTUgMzdUMjM4IC0yMlExNTggLTIyIDEwMCAyMVQ0MiAxMzBRNDIgMTU4IDYwIDE3NVQxMDUgMTkzUTEzMyAxOTMgMTUxIDE3NVQxNjkgMTMwUTE2OSAxMTkgMTY2IDExMFQxNTkgOTRUMTQ4IDgyVDEzNiA3NFQxMjYgNzBUMTE4IDY3TDExNCA2NlExNjUgMjEgMjM4IDIxUTI5MyAyMSAzMjEgNzRRMzM4IDEwNyAzMzggMTc1VjE5NVEzMzggMjkwIDI3NCAzMjJRMjU5IDMyOCAyMTMgMzI5TDE3MSAzMzBMMTY4IDMzMlExNjYgMzM1IDE2NiAzNDhRMTY2IDM2NiAxNzQgMzY2UTIwMiAzNjYgMjMyIDM3MVEyNjYgMzc2IDI5NCA0MTNUMzIyIDUyNVY1MzNRMzIyIDU5MCAyODcgNjEyUTI2NSA2MjYgMjQwIDYyNlEyMDggNjI2IDE4MSA2MTVUMTQzIDU5MlQxMzIgNTgwSDEzNVExMzggNTc5IDE0MyA1NzhUMTUzIDU3M1QxNjUgNTY2VDE3NSA1NTVUMTgzIDU0MFQxODYgNTIwUTE4NiA0OTggMTcyIDQ4MVQxMjcgNDYzWiIgaWQ9Ik1KWC0xMTgtVEVYLU4tMzMiLz48cGF0aCBkPSJNOTQgMjUwUTk0IDMxOSAxMDQgMzgxVDEyNyA0ODhUMTY0IDU3NlQyMDIgNjQzVDI0NCA2OTVUMjc3IDcyOVQzMDIgNzUwSDMxNUgzMTlRMzMzIDc1MCAzMzMgNzQxUTMzMyA3MzggMzE2IDcyMFQyNzUgNjY3VDIyNiA1ODFUMTg0IDQ0M1QxNjcgMjUwVDE4NCA1OFQyMjUgLTgxVDI3NCAtMTY3VDMxNiAtMjIwVDMzMyAtMjQxUTMzMyAtMjUwIDMxOCAtMjUwSDMxNUgzMDJMMjc0IC0yMjZRMTgwIC0xNDEgMTM3IC0xNFQ5NCAyNTBaIiBpZD0iTUpYLTExOC1URVgtTi0yOCIvPjxwYXRoIGQ9Ik0zOSAxNjhRMzkgMjI1IDU4IDI3MlQxMDcgMzUwVDE3NCA0MDJUMjQ0IDQzM1QzMDcgNDQySDMxMFEzNTUgNDQyIDM4OCA0MjBUNDIxIDM1NVE0MjEgMjY1IDMxMCAyMzdRMjYxIDIyNCAxNzYgMjIzUTEzOSAyMjMgMTM4IDIyMVExMzggMjE5IDEzMiAxODZUMTI1IDEyOFExMjUgODEgMTQ2IDU0VDIwOSAyNlQzMDIgNDVUMzk0IDExMVE0MDMgMTIxIDQwNiAxMjFRNDEwIDEyMSA0MTkgMTEyVDQyOSA5OFQ0MjAgODJUMzkwIDU1VDM0NCAyNFQyODEgLTFUMjA1IC0xMVExMjYgLTExIDgzIDQyVDM5IDE2OFpNMzczIDM1M1EzNjcgNDA1IDMwNSA0MDVRMjcyIDQwNSAyNDQgMzkxVDE5OSAzNTdUMTcwIDMxNlQxNTQgMjgwVDE0OSAyNjFRMTQ5IDI2MCAxNjkgMjYwUTI4MiAyNjAgMzI3IDI4NFQzNzMgMzUzWiIgaWQ9Ik1KWC0xMTgtVEVYLUktMUQ0NTIiLz48cGF0aCBkPSJNMjEgMjg3UTIxIDMwMSAzNiAzMzVUODQgNDA2VDE1OCA0NDJRMTk5IDQ0MiAyMjQgNDE5VDI1MCAzNTVRMjQ4IDMzNiAyNDcgMzM0UTI0NyAzMzEgMjMxIDI4OFQxOTggMTkxVDE4MiAxMDVRMTgyIDYyIDE5NiA0NVQyMzggMjdRMjYxIDI3IDI4MSAzOFQzMTIgNjFUMzM5IDk0UTMzOSA5NSAzNDQgMTE0VDM1OCAxNzNUMzc3IDI0N1E0MTUgMzk3IDQxOSA0MDRRNDMyIDQzMSA0NjIgNDMxUTQ3NSA0MzEgNDgzIDQyNFQ0OTQgNDEyVDQ5NiA0MDNRNDk2IDM5MCA0NDcgMTkzVDM5MSAtMjNRMzYzIC0xMDYgMjk0IC0xNTVUMTU2IC0yMDVRMTExIC0yMDUgNzcgLTE4M1Q0MyAtMTE3UTQzIC05NSA1MCAtODBUNjkgLTU4VDg5IC00OFQxMDYgLTQ1UTE1MCAtNDUgMTUwIC04N1ExNTAgLTEwNyAxMzggLTEyMlQxMTUgLTE0MlQxMDIgLTE0N0w5OSAtMTQ4UTEwMSAtMTUzIDExOCAtMTYwVDE1MiAtMTY3SDE2MFExNzcgLTE2NyAxODYgLTE2NVEyMTkgLTE1NiAyNDcgLTEyN1QyOTAgLTY1VDMxMyAtOVQzMjEgMjFMMzE1IDE3UTMwOSAxMyAyOTYgNlQyNzAgLTZRMjUwIC0xMSAyMzEgLTExUTE4NSAtMTEgMTUwIDExVDEwNCA4MlExMDMgODkgMTAzIDExM1ExMDMgMTcwIDEzOCAyNjJUMTczIDM3OVExNzMgMzgwIDE3MyAzODFRMTczIDM5MCAxNzMgMzkzVDE2OSA0MDBUMTU4IDQwNEgxNTRRMTMxIDQwNCAxMTIgMzg1VDgyIDM0NFQ2NSAzMDJUNTcgMjgwUTU1IDI3OCA0MSAyNzhIMjdRMjEgMjg0IDIxIDI4N1oiIGlkPSJNSlgtMTE4LVRFWC1JLTFENDY2Ii8+PHBhdGggZD0iTTYwIDc0OUw2NCA3NTBRNjkgNzUwIDc0IDc1MEg4NkwxMTQgNzI2UTIwOCA2NDEgMjUxIDUxNFQyOTQgMjUwUTI5NCAxODIgMjg0IDExOVQyNjEgMTJUMjI0IC03NlQxODYgLTE0M1QxNDUgLTE5NFQxMTMgLTIyN1Q5MCAtMjQ2UTg3IC0yNDkgODYgLTI1MEg3NFE2NiAtMjUwIDYzIC0yNTBUNTggLTI0N1Q1NSAtMjM4UTU2IC0yMzcgNjYgLTIyNVEyMjEgLTY0IDIyMSAyNTBUNjYgNzI1UTU2IDczNyA1NSA3MzhRNTUgNzQ2IDYwIDc0OVoiIGlkPSJNSlgtMTE4LVRFWC1OLTI5Ii8+PC9kZWZzPjxnIHRyYW5zZm9ybT0ibWF0cml4KDEgMCAwIC0xIDAgMCkiIHN0cm9rZS13aWR0aD0iMCIgZmlsbD0iY3VycmVudENvbG9yIiBzdHJva2U9ImN1cnJlbnRDb2xvciI+PGcgZGF0YS1tbWwtbm9kZT0ibWF0aCI+PGcgZGF0YS1tbWwtbm9kZT0ibWkiPjx1c2UgeGxpbms6aHJlZj0iI01KWC0xMTgtVEVYLUktMUQ0MzgiLz48L2c+PGcgdHJhbnNmb3JtPSJ0cmFuc2xhdGUoNzY0LCAwKSIgZGF0YS1tbWwtbm9kZT0ibWkiPjx1c2UgeGxpbms6aHJlZj0iI01KWC0xMTgtVEVYLUktMUQ0NUIiLz48L2c+PGcgdHJhbnNmb3JtPSJ0cmFuc2xhdGUoMTM2NCwgMCkiIGRhdGEtbW1sLW5vZGU9Im1zdWIiPjxnIGRhdGEtbW1sLW5vZGU9Im1pIj48dXNlIHhsaW5rOmhyZWY9IiNNSlgtMTE4LVRFWC1JLTFENDUwIi8+PC9nPjxnIGRhdGEtbWp4LXRleGNsYXNzPSJPUkQiIHRyYW5zZm9ybT0idHJhbnNsYXRlKDQzMywgLTE1MCkgc2NhbGUoMC43MDcpIiBkYXRhLW1tbC1ub2RlPSJUZVhBdG9tIj48ZyBkYXRhLW1tbC1ub2RlPSJtaSI+PHVzZSB4bGluazpocmVmPSIjTUpYLTExOC1URVgtSS0xRDQ1RCIvPjwvZz48ZyB0cmFuc2Zvcm09InRyYW5zbGF0ZSg1MDMsIDApIiBkYXRhLW1tbC1ub2RlPSJtaSI+PHVzZSB4bGluazpocmVmPSIjTUpYLTExOC1URVgtSS0xRDQ2MiIvPjwvZz48ZyB0cmFuc2Zvcm09InRyYW5zbGF0ZSgxMDc1LCAwKSIgZGF0YS1tbWwtbm9kZT0ibWkiPjx1c2UgeGxpbms6aHJlZj0iI01KWC0xMTgtVEVYLUktMUQ0NEYiLz48L2c+PGcgdHJhbnNmb3JtPSJ0cmFuc2xhdGUoMTUwNCwgMCkiIGRhdGEtbW1sLW5vZGU9Im1pIj48dXNlIHhsaW5rOmhyZWY9IiNNSlgtMTE4LVRFWC1JLTFENDU4Ii8+PC9nPjxnIHRyYW5zZm9ybT0idHJhbnNsYXRlKDIwMjUsIDApIiBkYXRhLW1tbC1ub2RlPSJtbiI+PHVzZSB4bGluazpocmVmPSIjTUpYLTExOC1URVgtTi0zMyIvPjwvZz48L2c+PC9nPjxnIHRyYW5zZm9ybT0idHJhbnNsYXRlKDM2MzIuNCwgMCkiIGRhdGEtbW1sLW5vZGU9Im1vIj48dXNlIHhsaW5rOmhyZWY9IiNNSlgtMTE4LVRFWC1OLTI4Ii8+PC9nPjxnIHRyYW5zZm9ybT0idHJhbnNsYXRlKDQwMjEuNCwgMCkiIGRhdGEtbW1sLW5vZGU9Im1pIj48dXNlIHhsaW5rOmhyZWY9IiNNSlgtMTE4LVRFWC1JLTFENDU4Ii8+PC9nPjxnIHRyYW5zZm9ybT0idHJhbnNsYXRlKDQ1NDIuNCwgMCkiIGRhdGEtbW1sLW5vZGU9Im1pIj48dXNlIHhsaW5rOmhyZWY9IiNNSlgtMTE4LVRFWC1JLTFENDUyIi8+PC9nPjxnIHRyYW5zZm9ybT0idHJhbnNsYXRlKDUwMDguNCwgMCkiIGRhdGEtbW1sLW5vZGU9Im1pIj48dXNlIHhsaW5rOmhyZWY9IiNNSlgtMTE4LVRFWC1JLTFENDY2Ii8+PC9nPjxnIHRyYW5zZm9ybT0idHJhbnNsYXRlKDU0OTguNCwgMCkiIGRhdGEtbW1sLW5vZGU9Im1uIj48dXNlIHhsaW5rOmhyZWY9IiNNSlgtMTE4LVRFWC1OLTMzIi8+PC9nPjxnIHRyYW5zZm9ybT0idHJhbnNsYXRlKDU5OTguNCwgMCkiIGRhdGEtbW1sLW5vZGU9Im1vIj48dXNlIHhsaW5rOmhyZWY9IiNNSlgtMTE4LVRFWC1OLTI5Ii8+PC9nPjwvZz48L2c+PC9zdmc+;" vertex="1" parent="1">
          <mxGeometry x="440" y="1570" width="61.9" height="10" as="geometry" />
        </mxCell>
        <mxCell id="PUM_M8YaJLtLtkd2Mo2w-80" value="" style="rounded=1;whiteSpace=wrap;html=1;fontFamily=Helvetica;" vertex="1" parent="1">
          <mxGeometry x="420.00000000000006" y="1565" width="91" height="20" as="geometry" />
        </mxCell>
        <mxCell id="PUM_M8YaJLtLtkd2Mo2w-81" value="" style="shape=image;imageAspect=0;aspect=fixed;verticalLabelPosition=bottom;verticalAlign=top;fontFamily=Helvetica;image=data:image/svg+xml,PHN2ZyB4bWxuczp4bGluaz0iaHR0cDovL3d3dy53My5vcmcvMTk5OS94bGluayIgeG1sbnM9Imh0dHA6Ly93d3cudzMub3JnLzIwMDAvc3ZnIiBzdHlsZT0iIiBhcmlhLWhpZGRlbj0idHJ1ZSIgdmlld0JveD0iMCAtNzUwIDYzODcuNCAxMDM3LjIiIGhlaWdodD0iMi4zNDdleCIgd2lkdGg9IjE0LjQ1MWV4Ij48ZGVmcz48cGF0aCBkPSJNNDkyIDIxM1E0NzIgMjEzIDQ3MiAyMjZRNDcyIDIzMCA0NzcgMjUwVDQ4MiAyODVRNDgyIDMxNiA0NjEgMzIzVDM2NCAzMzBIMzEyUTMxMSAzMjggMjc3IDE5MlQyNDMgNTJRMjQzIDQ4IDI1NCA0OFQzMzQgNDZRNDI4IDQ2IDQ1OCA0OFQ1MTggNjFRNTY3IDc3IDU5OSAxMTdUNjcwIDI0OFE2ODAgMjcwIDY4MyAyNzJRNjkwIDI3NCA2OTggMjc0UTcxOCAyNzQgNzE4IDI2MVE2MTMgNyA2MDggMlE2MDUgMCAzMjIgMEgxMzNRMzEgMCAzMSAxMVEzMSAxMyAzNCAyNVEzOCA0MSA0MiA0M1Q2NSA0NlE5MiA0NiAxMjUgNDlRMTM5IDUyIDE0NCA2MVExNDYgNjYgMjE1IDM0MlQyODUgNjIyUTI4NSA2MjkgMjgxIDYyOVEyNzMgNjMyIDIyOCA2MzRIMTk3UTE5MSA2NDAgMTkxIDY0MlQxOTMgNjU5UTE5NyA2NzYgMjAzIDY4MEg3NTdRNzY0IDY3NiA3NjQgNjY5UTc2NCA2NjQgNzUxIDU1N1Q3MzcgNDQ3UTczNSA0NDAgNzE3IDQ0MEg3MDVRNjk4IDQ0NSA2OTggNDUzTDcwMSA0NzZRNzA0IDUwMCA3MDQgNTI4UTcwNCA1NTggNjk3IDU3OFQ2NzggNjA5VDY0MyA2MjVUNTk2IDYzMlQ1MzIgNjM0SDQ4NVEzOTcgNjMzIDM5MiA2MzFRMzg4IDYyOSAzODYgNjIyUTM4NSA2MTkgMzU1IDQ5OVQzMjQgMzc3UTM0NyAzNzYgMzcyIDM3NkgzOThRNDY0IDM3NiA0ODkgMzkxVDUzNCA0NzJRNTM4IDQ4OCA1NDAgNDkwVDU1NyA0OTNRNTYyIDQ5MyA1NjUgNDkzVDU3MCA0OTJUNTcyIDQ5MVQ1NzQgNDg3VDU3NyA0ODNMNTQ0IDM1MVE1MTEgMjE4IDUwOCAyMTZRNTA1IDIxMyA0OTIgMjEzWiIgaWQ9Ik1KWC0xMTgtVEVYLUktMUQ0MzgiLz48cGF0aCBkPSJNMjEgMjg3UTIyIDI5MyAyNCAzMDNUMzYgMzQxVDU2IDM4OFQ4OSA0MjVUMTM1IDQ0MlExNzEgNDQyIDE5NSA0MjRUMjI1IDM5MFQyMzEgMzY5UTIzMSAzNjcgMjMyIDM2N0wyNDMgMzc4UTMwNCA0NDIgMzgyIDQ0MlE0MzYgNDQyIDQ2OSA0MTVUNTAzIDMzNlQ0NjUgMTc5VDQyNyA1MlE0MjcgMjYgNDQ0IDI2UTQ1MCAyNiA0NTMgMjdRNDgyIDMyIDUwNSA2NVQ1NDAgMTQ1UTU0MiAxNTMgNTYwIDE1M1E1ODAgMTUzIDU4MCAxNDVRNTgwIDE0NCA1NzYgMTMwUTU2OCAxMDEgNTU0IDczVDUwOCAxN1Q0MzkgLTEwUTM5MiAtMTAgMzcxIDE3VDM1MCA3M1EzNTAgOTIgMzg2IDE5M1Q0MjMgMzQ1UTQyMyA0MDQgMzc5IDQwNEgzNzRRMjg4IDQwNCAyMjkgMzAzTDIyMiAyOTFMMTg5IDE1N1ExNTYgMjYgMTUxIDE2UTEzOCAtMTEgMTA4IC0xMVE5NSAtMTEgODcgLTVUNzYgN1Q3NCAxN1E3NCAzMCAxMTIgMTgwVDE1MiAzNDNRMTUzIDM0OCAxNTMgMzY2UTE1MyA0MDUgMTI5IDQwNVE5MSA0MDUgNjYgMzA1UTYwIDI4NSA2MCAyODRRNTggMjc4IDQxIDI3OEgyN1EyMSAyODQgMjEgMjg3WiIgaWQ9Ik1KWC0xMTgtVEVYLUktMUQ0NUIiLz48cGF0aCBkPSJNMzQgMTU5UTM0IDI2OCAxMjAgMzU1VDMwNiA0NDJRMzYyIDQ0MiAzOTQgNDE4VDQyNyAzNTVRNDI3IDMyNiA0MDggMzA2VDM2MCAyODVRMzQxIDI4NSAzMzAgMjk1VDMxOSAzMjVUMzMwIDM1OVQzNTIgMzgwVDM2NiAzODZIMzY3UTM2NyAzODggMzYxIDM5MlQzNDAgNDAwVDMwNiA0MDRRMjc2IDQwNCAyNDkgMzkwUTIyOCAzODEgMjA2IDM1OVExNjIgMzE1IDE0MiAyMzVUMTIxIDExOVExMjEgNzMgMTQ3IDUwUTE2OSAyNiAyMDUgMjZIMjA5UTMyMSAyNiAzOTQgMTExUTQwMyAxMjEgNDA2IDEyMVE0MTAgMTIxIDQxOSAxMTJUNDI5IDk4VDQyMCA4M1QzOTEgNTVUMzQ2IDI1VDI4MiAwVDIwMiAtMTFRMTI3IC0xMSA4MSAzN1QzNCAxNTlaIiBpZD0iTUpYLTExOC1URVgtSS0xRDQ1MCIvPjxwYXRoIGQ9Ik0yMyAyODdRMjQgMjkwIDI1IDI5NVQzMCAzMTdUNDAgMzQ4VDU1IDM4MVQ3NSA0MTFUMTAxIDQzM1QxMzQgNDQyUTIwOSA0NDIgMjMwIDM3OEwyNDAgMzg3UTMwMiA0NDIgMzU4IDQ0MlE0MjMgNDQyIDQ2MCAzOTVUNDk3IDI4MVE0OTcgMTczIDQyMSA4MlQyNDkgLTEwUTIyNyAtMTAgMjEwIC00UTE5OSAxIDE4NyAxMVQxNjggMjhMMTYxIDM2UTE2MCAzNSAxMzkgLTUxVDExOCAtMTM4UTExOCAtMTQ0IDEyNiAtMTQ1VDE2MyAtMTQ4SDE4OFExOTQgLTE1NSAxOTQgLTE1N1QxOTEgLTE3NVExODggLTE4NyAxODUgLTE5MFQxNzIgLTE5NFExNzAgLTE5NCAxNjEgLTE5NFQxMjcgLTE5M1Q2NSAtMTkyUS01IC0xOTIgLTI0IC0xOTRILTMyUS0zOSAtMTg3IC0zOSAtMTgzUS0zNyAtMTU2IC0yNiAtMTQ4SC02UTI4IC0xNDcgMzMgLTEzNlEzNiAtMTMwIDk0IDEwM1QxNTUgMzUwUTE1NiAzNTUgMTU2IDM2NFExNTYgNDA1IDEzMSA0MDVRMTA5IDQwNSA5NCAzNzdUNzEgMzE2VDU5IDI4MFE1NyAyNzggNDMgMjc4SDI5UTIzIDI4NCAyMyAyODdaTTE3OCAxMDJRMjAwIDI2IDI1MiAyNlEyODIgMjYgMzEwIDQ5VDM1NiAxMDdRMzc0IDE0MSAzOTIgMjE1VDQxMSAzMjVWMzMxUTQxMSA0MDUgMzUwIDQwNVEzMzkgNDA1IDMyOCA0MDJUMzA2IDM5M1QyODYgMzgwVDI2OSAzNjVUMjU0IDM1MFQyNDMgMzM2VDIzNSAzMjZMMjMyIDMyMlEyMzIgMzIxIDIyOSAzMDhUMjE4IDI2NFQyMDQgMjEyUTE3OCAxMDYgMTc4IDEwMloiIGlkPSJNSlgtMTE4LVRFWC1JLTFENDVEIi8+PHBhdGggZD0iTTIxIDI4N1EyMSAyOTUgMzAgMzE4VDU1IDM3MFQ5OSA0MjBUMTU4IDQ0MlEyMDQgNDQyIDIyNyA0MTdUMjUwIDM1OFEyNTAgMzQwIDIxNiAyNDZUMTgyIDEwNVExODIgNjIgMTk2IDQ1VDIzOCAyN1QyOTEgNDRUMzI4IDc4TDMzOSA5NVEzNDEgOTkgMzc3IDI0N1E0MDcgMzY3IDQxMyAzODdUNDI3IDQxNlE0NDQgNDMxIDQ2MyA0MzFRNDgwIDQzMSA0ODggNDIxVDQ5NiA0MDJMNDIwIDg0UTQxOSA3OSA0MTkgNjhRNDE5IDQzIDQyNiAzNVQ0NDcgMjZRNDY5IDI5IDQ4MiA1N1Q1MTIgMTQ1UTUxNCAxNTMgNTMyIDE1M1E1NTEgMTUzIDU1MSAxNDRRNTUwIDEzOSA1NDkgMTMwVDU0MCA5OFQ1MjMgNTVUNDk4IDE3VDQ2MiAtOFE0NTQgLTEwIDQzOCAtMTBRMzcyIC0xMCAzNDcgNDZRMzQ1IDQ1IDMzNiAzNlQzMTggMjFUMjk2IDZUMjY3IC02VDIzMyAtMTFRMTg5IC0xMSAxNTUgN1ExMDMgMzggMTAzIDExM1ExMDMgMTcwIDEzOCAyNjJUMTczIDM3OVExNzMgMzgwIDE3MyAzODFRMTczIDM5MCAxNzMgMzkzVDE2OSA0MDBUMTU4IDQwNEgxNTRRMTMxIDQwNCAxMTIgMzg1VDgyIDM0NFQ2NSAzMDJUNTcgMjgwUTU1IDI3OCA0MSAyNzhIMjdRMjEgMjg0IDIxIDI4N1oiIGlkPSJNSlgtMTE4LVRFWC1JLTFENDYyIi8+PHBhdGggZD0iTTczIDY0N1E3MyA2NTcgNzcgNjcwVDg5IDY4M1E5MCA2ODMgMTYxIDY4OFQyMzQgNjk0UTI0NiA2OTQgMjQ2IDY4NVQyMTIgNTQyUTIwNCA1MDggMTk1IDQ3MlQxODAgNDE4TDE3NiAzOTlRMTc2IDM5NiAxODIgNDAyUTIzMSA0NDIgMjgzIDQ0MlEzNDUgNDQyIDM4MyAzOTZUNDIyIDI4MFE0MjIgMTY5IDM0MyA3OVQxNzMgLTExUTEyMyAtMTEgODIgMjdUNDAgMTUwVjE1OVE0MCAxODAgNDggMjE3VDk3IDQxNFExNDcgNjExIDE0NyA2MjNUMTA5IDYzN1ExMDQgNjM3IDEwMSA2MzdIOTZRODYgNjM3IDgzIDYzN1Q3NiA2NDBUNzMgNjQ3Wk0zMzYgMzI1VjMzMVEzMzYgNDA1IDI3NSA0MDVRMjU4IDQwNSAyNDAgMzk3VDIwNyAzNzZUMTgxIDM1MlQxNjMgMzMwTDE1NyAzMjJMMTM2IDIzNlExMTQgMTUwIDExNCAxMTRRMTE0IDY2IDEzOCA0MlExNTQgMjYgMTc4IDI2UTIxMSAyNiAyNDUgNThRMjcwIDgxIDI4NSAxMTRUMzE4IDIxOVEzMzYgMjkxIDMzNiAzMjVaIiBpZD0iTUpYLTExOC1URVgtSS0xRDQ0RiIvPjxwYXRoIGQ9Ik0xMjEgNjQ3UTEyMSA2NTcgMTI1IDY3MFQxMzcgNjgzUTEzOCA2ODMgMjA5IDY4OFQyODIgNjk0UTI5NCA2OTQgMjk0IDY4NlEyOTQgNjc5IDI0NCA0NzdRMTk0IDI3OSAxOTQgMjcyUTIxMyAyODIgMjIzIDI5MVEyNDcgMzA5IDI5MiAzNTRUMzYyIDQxNVE0MDIgNDQyIDQzOCA0NDJRNDY4IDQ0MiA0ODUgNDIzVDUwMyAzNjlRNTAzIDM0NCA0OTYgMzI3VDQ3NyAzMDJUNDU2IDI5MVQ0MzggMjg4UTQxOCAyODggNDA2IDI5OVQzOTQgMzI4UTM5NCAzNTMgNDEwIDM2OVQ0NDIgMzkwTDQ1OCAzOTNRNDQ2IDQwNSA0MzQgNDA1SDQzMFEzOTggNDAyIDM2NyAzODBUMjk0IDMxNlQyMjggMjU1UTIzMCAyNTQgMjQzIDI1MlQyNjcgMjQ2VDI5MyAyMzhUMzIwIDIyNFQzNDIgMjA2VDM1OSAxODBUMzY1IDE0N1EzNjUgMTMwIDM2MCAxMDZUMzU0IDY2UTM1NCAyNiAzODEgMjZRNDI5IDI2IDQ1OSAxNDVRNDYxIDE1MyA0NzkgMTUzSDQ4M1E0OTkgMTUzIDQ5OSAxNDRRNDk5IDEzOSA0OTYgMTMwUTQ1NSAtMTEgMzc4IC0xMVEzMzMgLTExIDMwNSAxNVQyNzcgOTBRMjc3IDEwOCAyODAgMTIxVDI4MyAxNDVRMjgzIDE2NyAyNjkgMTgzVDIzNCAyMDZUMjAwIDIxN1QxODIgMjIwSDE4MFExNjggMTc4IDE1OSAxMzlUMTQ1IDgxVDEzNiA0NFQxMjkgMjBUMTIyIDdUMTExIC0yUTk4IC0xMSA4MyAtMTFRNjYgLTExIDU3IC0xVDQ4IDE2UTQ4IDI2IDg1IDE3NlQxNTggNDcxTDE5NSA2MTZRMTk2IDYyOSAxODggNjMyVDE0OSA2MzdIMTQ0UTEzNCA2MzcgMTMxIDYzN1QxMjQgNjQwVDEyMSA2NDdaIiBpZD0iTUpYLTExOC1URVgtSS0xRDQ1OCIvPjxwYXRoIGQ9Ik0xMjcgNDYzUTEwMCA0NjMgODUgNDgwVDY5IDUyNFE2OSA1NzkgMTE3IDYyMlQyMzMgNjY1UTI2OCA2NjUgMjc3IDY2NFEzNTEgNjUyIDM5MCA2MTFUNDMwIDUyMlE0MzAgNDcwIDM5NiA0MjFUMzAyIDM1MEwyOTkgMzQ4UTI5OSAzNDcgMzA4IDM0NVQzMzcgMzM2VDM3NSAzMTVRNDU3IDI2MiA0NTcgMTc1UTQ1NyA5NiAzOTUgMzdUMjM4IC0yMlExNTggLTIyIDEwMCAyMVQ0MiAxMzBRNDIgMTU4IDYwIDE3NVQxMDUgMTkzUTEzMyAxOTMgMTUxIDE3NVQxNjkgMTMwUTE2OSAxMTkgMTY2IDExMFQxNTkgOTRUMTQ4IDgyVDEzNiA3NFQxMjYgNzBUMTE4IDY3TDExNCA2NlExNjUgMjEgMjM4IDIxUTI5MyAyMSAzMjEgNzRRMzM4IDEwNyAzMzggMTc1VjE5NVEzMzggMjkwIDI3NCAzMjJRMjU5IDMyOCAyMTMgMzI5TDE3MSAzMzBMMTY4IDMzMlExNjYgMzM1IDE2NiAzNDhRMTY2IDM2NiAxNzQgMzY2UTIwMiAzNjYgMjMyIDM3MVEyNjYgMzc2IDI5NCA0MTNUMzIyIDUyNVY1MzNRMzIyIDU5MCAyODcgNjEyUTI2NSA2MjYgMjQwIDYyNlEyMDggNjI2IDE4MSA2MTVUMTQzIDU5MlQxMzIgNTgwSDEzNVExMzggNTc5IDE0MyA1NzhUMTUzIDU3M1QxNjUgNTY2VDE3NSA1NTVUMTgzIDU0MFQxODYgNTIwUTE4NiA0OTggMTcyIDQ4MVQxMjcgNDYzWiIgaWQ9Ik1KWC0xMTgtVEVYLU4tMzMiLz48cGF0aCBkPSJNOTQgMjUwUTk0IDMxOSAxMDQgMzgxVDEyNyA0ODhUMTY0IDU3NlQyMDIgNjQzVDI0NCA2OTVUMjc3IDcyOVQzMDIgNzUwSDMxNUgzMTlRMzMzIDc1MCAzMzMgNzQxUTMzMyA3MzggMzE2IDcyMFQyNzUgNjY3VDIyNiA1ODFUMTg0IDQ0M1QxNjcgMjUwVDE4NCA1OFQyMjUgLTgxVDI3NCAtMTY3VDMxNiAtMjIwVDMzMyAtMjQxUTMzMyAtMjUwIDMxOCAtMjUwSDMxNUgzMDJMMjc0IC0yMjZRMTgwIC0xNDEgMTM3IC0xNFQ5NCAyNTBaIiBpZD0iTUpYLTExOC1URVgtTi0yOCIvPjxwYXRoIGQ9Ik0zOSAxNjhRMzkgMjI1IDU4IDI3MlQxMDcgMzUwVDE3NCA0MDJUMjQ0IDQzM1QzMDcgNDQySDMxMFEzNTUgNDQyIDM4OCA0MjBUNDIxIDM1NVE0MjEgMjY1IDMxMCAyMzdRMjYxIDIyNCAxNzYgMjIzUTEzOSAyMjMgMTM4IDIyMVExMzggMjE5IDEzMiAxODZUMTI1IDEyOFExMjUgODEgMTQ2IDU0VDIwOSAyNlQzMDIgNDVUMzk0IDExMVE0MDMgMTIxIDQwNiAxMjFRNDEwIDEyMSA0MTkgMTEyVDQyOSA5OFQ0MjAgODJUMzkwIDU1VDM0NCAyNFQyODEgLTFUMjA1IC0xMVExMjYgLTExIDgzIDQyVDM5IDE2OFpNMzczIDM1M1EzNjcgNDA1IDMwNSA0MDVRMjcyIDQwNSAyNDQgMzkxVDE5OSAzNTdUMTcwIDMxNlQxNTQgMjgwVDE0OSAyNjFRMTQ5IDI2MCAxNjkgMjYwUTI4MiAyNjAgMzI3IDI4NFQzNzMgMzUzWiIgaWQ9Ik1KWC0xMTgtVEVYLUktMUQ0NTIiLz48cGF0aCBkPSJNMjEgMjg3UTIxIDMwMSAzNiAzMzVUODQgNDA2VDE1OCA0NDJRMTk5IDQ0MiAyMjQgNDE5VDI1MCAzNTVRMjQ4IDMzNiAyNDcgMzM0UTI0NyAzMzEgMjMxIDI4OFQxOTggMTkxVDE4MiAxMDVRMTgyIDYyIDE5NiA0NVQyMzggMjdRMjYxIDI3IDI4MSAzOFQzMTIgNjFUMzM5IDk0UTMzOSA5NSAzNDQgMTE0VDM1OCAxNzNUMzc3IDI0N1E0MTUgMzk3IDQxOSA0MDRRNDMyIDQzMSA0NjIgNDMxUTQ3NSA0MzEgNDgzIDQyNFQ0OTQgNDEyVDQ5NiA0MDNRNDk2IDM5MCA0NDcgMTkzVDM5MSAtMjNRMzYzIC0xMDYgMjk0IC0xNTVUMTU2IC0yMDVRMTExIC0yMDUgNzcgLTE4M1Q0MyAtMTE3UTQzIC05NSA1MCAtODBUNjkgLTU4VDg5IC00OFQxMDYgLTQ1UTE1MCAtNDUgMTUwIC04N1ExNTAgLTEwNyAxMzggLTEyMlQxMTUgLTE0MlQxMDIgLTE0N0w5OSAtMTQ4UTEwMSAtMTUzIDExOCAtMTYwVDE1MiAtMTY3SDE2MFExNzcgLTE2NyAxODYgLTE2NVEyMTkgLTE1NiAyNDcgLTEyN1QyOTAgLTY1VDMxMyAtOVQzMjEgMjFMMzE1IDE3UTMwOSAxMyAyOTYgNlQyNzAgLTZRMjUwIC0xMSAyMzEgLTExUTE4NSAtMTEgMTUwIDExVDEwNCA4MlExMDMgODkgMTAzIDExM1ExMDMgMTcwIDEzOCAyNjJUMTczIDM3OVExNzMgMzgwIDE3MyAzODFRMTczIDM5MCAxNzMgMzkzVDE2OSA0MDBUMTU4IDQwNEgxNTRRMTMxIDQwNCAxMTIgMzg1VDgyIDM0NFQ2NSAzMDJUNTcgMjgwUTU1IDI3OCA0MSAyNzhIMjdRMjEgMjg0IDIxIDI4N1oiIGlkPSJNSlgtMTE4LVRFWC1JLTFENDY2Ii8+PHBhdGggZD0iTTYwIDc0OUw2NCA3NTBRNjkgNzUwIDc0IDc1MEg4NkwxMTQgNzI2UTIwOCA2NDEgMjUxIDUxNFQyOTQgMjUwUTI5NCAxODIgMjg0IDExOVQyNjEgMTJUMjI0IC03NlQxODYgLTE0M1QxNDUgLTE5NFQxMTMgLTIyN1Q5MCAtMjQ2UTg3IC0yNDkgODYgLTI1MEg3NFE2NiAtMjUwIDYzIC0yNTBUNTggLTI0N1Q1NSAtMjM4UTU2IC0yMzcgNjYgLTIyNVEyMjEgLTY0IDIyMSAyNTBUNjYgNzI1UTU2IDczNyA1NSA3MzhRNTUgNzQ2IDYwIDc0OVoiIGlkPSJNSlgtMTE4LVRFWC1OLTI5Ii8+PC9kZWZzPjxnIHRyYW5zZm9ybT0ibWF0cml4KDEgMCAwIC0xIDAgMCkiIHN0cm9rZS13aWR0aD0iMCIgZmlsbD0iY3VycmVudENvbG9yIiBzdHJva2U9ImN1cnJlbnRDb2xvciI+PGcgZGF0YS1tbWwtbm9kZT0ibWF0aCI+PGcgZGF0YS1tbWwtbm9kZT0ibWkiPjx1c2UgeGxpbms6aHJlZj0iI01KWC0xMTgtVEVYLUktMUQ0MzgiLz48L2c+PGcgdHJhbnNmb3JtPSJ0cmFuc2xhdGUoNzY0LCAwKSIgZGF0YS1tbWwtbm9kZT0ibWkiPjx1c2UgeGxpbms6aHJlZj0iI01KWC0xMTgtVEVYLUktMUQ0NUIiLz48L2c+PGcgdHJhbnNmb3JtPSJ0cmFuc2xhdGUoMTM2NCwgMCkiIGRhdGEtbW1sLW5vZGU9Im1zdWIiPjxnIGRhdGEtbW1sLW5vZGU9Im1pIj48dXNlIHhsaW5rOmhyZWY9IiNNSlgtMTE4LVRFWC1JLTFENDUwIi8+PC9nPjxnIGRhdGEtbWp4LXRleGNsYXNzPSJPUkQiIHRyYW5zZm9ybT0idHJhbnNsYXRlKDQzMywgLTE1MCkgc2NhbGUoMC43MDcpIiBkYXRhLW1tbC1ub2RlPSJUZVhBdG9tIj48ZyBkYXRhLW1tbC1ub2RlPSJtaSI+PHVzZSB4bGluazpocmVmPSIjTUpYLTExOC1URVgtSS0xRDQ1RCIvPjwvZz48ZyB0cmFuc2Zvcm09InRyYW5zbGF0ZSg1MDMsIDApIiBkYXRhLW1tbC1ub2RlPSJtaSI+PHVzZSB4bGluazpocmVmPSIjTUpYLTExOC1URVgtSS0xRDQ2MiIvPjwvZz48ZyB0cmFuc2Zvcm09InRyYW5zbGF0ZSgxMDc1LCAwKSIgZGF0YS1tbWwtbm9kZT0ibWkiPjx1c2UgeGxpbms6aHJlZj0iI01KWC0xMTgtVEVYLUktMUQ0NEYiLz48L2c+PGcgdHJhbnNmb3JtPSJ0cmFuc2xhdGUoMTUwNCwgMCkiIGRhdGEtbW1sLW5vZGU9Im1pIj48dXNlIHhsaW5rOmhyZWY9IiNNSlgtMTE4LVRFWC1JLTFENDU4Ii8+PC9nPjxnIHRyYW5zZm9ybT0idHJhbnNsYXRlKDIwMjUsIDApIiBkYXRhLW1tbC1ub2RlPSJtbiI+PHVzZSB4bGluazpocmVmPSIjTUpYLTExOC1URVgtTi0zMyIvPjwvZz48L2c+PC9nPjxnIHRyYW5zZm9ybT0idHJhbnNsYXRlKDM2MzIuNCwgMCkiIGRhdGEtbW1sLW5vZGU9Im1vIj48dXNlIHhsaW5rOmhyZWY9IiNNSlgtMTE4LVRFWC1OLTI4Ii8+PC9nPjxnIHRyYW5zZm9ybT0idHJhbnNsYXRlKDQwMjEuNCwgMCkiIGRhdGEtbW1sLW5vZGU9Im1pIj48dXNlIHhsaW5rOmhyZWY9IiNNSlgtMTE4LVRFWC1JLTFENDU4Ii8+PC9nPjxnIHRyYW5zZm9ybT0idHJhbnNsYXRlKDQ1NDIuNCwgMCkiIGRhdGEtbW1sLW5vZGU9Im1pIj48dXNlIHhsaW5rOmhyZWY9IiNNSlgtMTE4LVRFWC1JLTFENDUyIi8+PC9nPjxnIHRyYW5zZm9ybT0idHJhbnNsYXRlKDUwMDguNCwgMCkiIGRhdGEtbW1sLW5vZGU9Im1pIj48dXNlIHhsaW5rOmhyZWY9IiNNSlgtMTE4LVRFWC1JLTFENDY2Ii8+PC9nPjxnIHRyYW5zZm9ybT0idHJhbnNsYXRlKDU0OTguNCwgMCkiIGRhdGEtbW1sLW5vZGU9Im1uIj48dXNlIHhsaW5rOmhyZWY9IiNNSlgtMTE4LVRFWC1OLTMzIi8+PC9nPjxnIHRyYW5zZm9ybT0idHJhbnNsYXRlKDU5OTguNCwgMCkiIGRhdGEtbW1sLW5vZGU9Im1vIj48dXNlIHhsaW5rOmhyZWY9IiNNSlgtMTE4LVRFWC1OLTI5Ii8+PC9nPjwvZz48L2c+PC9zdmc+;" vertex="1" parent="1">
          <mxGeometry x="440" y="1570" width="61.9" height="10" as="geometry" />
        </mxCell>
        <mxCell id="PUM_M8YaJLtLtkd2Mo2w-82" value="" style="rounded=1;whiteSpace=wrap;html=1;fontFamily=Helvetica;" vertex="1" parent="1">
          <mxGeometry x="664" y="1555" width="91" height="20" as="geometry" />
        </mxCell>
        <mxCell id="PUM_M8YaJLtLtkd2Mo2w-83" value="" style="shape=image;imageAspect=0;aspect=fixed;verticalLabelPosition=bottom;verticalAlign=top;fontFamily=Helvetica;image=data:image/svg+xml,PHN2ZyB4bWxuczp4bGluaz0iaHR0cDovL3d3dy53My5vcmcvMTk5OS94bGluayIgeG1sbnM9Imh0dHA6Ly93d3cudzMub3JnLzIwMDAvc3ZnIiBzdHlsZT0iIiBhcmlhLWhpZGRlbj0idHJ1ZSIgdmlld0JveD0iMCAtNzUwIDYzODcuNCAxMDM3LjIiIGhlaWdodD0iMi4zNDdleCIgd2lkdGg9IjE0LjQ1MWV4Ij48ZGVmcz48cGF0aCBkPSJNNDkyIDIxM1E0NzIgMjEzIDQ3MiAyMjZRNDcyIDIzMCA0NzcgMjUwVDQ4MiAyODVRNDgyIDMxNiA0NjEgMzIzVDM2NCAzMzBIMzEyUTMxMSAzMjggMjc3IDE5MlQyNDMgNTJRMjQzIDQ4IDI1NCA0OFQzMzQgNDZRNDI4IDQ2IDQ1OCA0OFQ1MTggNjFRNTY3IDc3IDU5OSAxMTdUNjcwIDI0OFE2ODAgMjcwIDY4MyAyNzJRNjkwIDI3NCA2OTggMjc0UTcxOCAyNzQgNzE4IDI2MVE2MTMgNyA2MDggMlE2MDUgMCAzMjIgMEgxMzNRMzEgMCAzMSAxMVEzMSAxMyAzNCAyNVEzOCA0MSA0MiA0M1Q2NSA0NlE5MiA0NiAxMjUgNDlRMTM5IDUyIDE0NCA2MVExNDYgNjYgMjE1IDM0MlQyODUgNjIyUTI4NSA2MjkgMjgxIDYyOVEyNzMgNjMyIDIyOCA2MzRIMTk3UTE5MSA2NDAgMTkxIDY0MlQxOTMgNjU5UTE5NyA2NzYgMjAzIDY4MEg3NTdRNzY0IDY3NiA3NjQgNjY5UTc2NCA2NjQgNzUxIDU1N1Q3MzcgNDQ3UTczNSA0NDAgNzE3IDQ0MEg3MDVRNjk4IDQ0NSA2OTggNDUzTDcwMSA0NzZRNzA0IDUwMCA3MDQgNTI4UTcwNCA1NTggNjk3IDU3OFQ2NzggNjA5VDY0MyA2MjVUNTk2IDYzMlQ1MzIgNjM0SDQ4NVEzOTcgNjMzIDM5MiA2MzFRMzg4IDYyOSAzODYgNjIyUTM4NSA2MTkgMzU1IDQ5OVQzMjQgMzc3UTM0NyAzNzYgMzcyIDM3NkgzOThRNDY0IDM3NiA0ODkgMzkxVDUzNCA0NzJRNTM4IDQ4OCA1NDAgNDkwVDU1NyA0OTNRNTYyIDQ5MyA1NjUgNDkzVDU3MCA0OTJUNTcyIDQ5MVQ1NzQgNDg3VDU3NyA0ODNMNTQ0IDM1MVE1MTEgMjE4IDUwOCAyMTZRNTA1IDIxMyA0OTIgMjEzWiIgaWQ9Ik1KWC0xMTgtVEVYLUktMUQ0MzgiLz48cGF0aCBkPSJNMjEgMjg3UTIyIDI5MyAyNCAzMDNUMzYgMzQxVDU2IDM4OFQ4OSA0MjVUMTM1IDQ0MlExNzEgNDQyIDE5NSA0MjRUMjI1IDM5MFQyMzEgMzY5UTIzMSAzNjcgMjMyIDM2N0wyNDMgMzc4UTMwNCA0NDIgMzgyIDQ0MlE0MzYgNDQyIDQ2OSA0MTVUNTAzIDMzNlQ0NjUgMTc5VDQyNyA1MlE0MjcgMjYgNDQ0IDI2UTQ1MCAyNiA0NTMgMjdRNDgyIDMyIDUwNSA2NVQ1NDAgMTQ1UTU0MiAxNTMgNTYwIDE1M1E1ODAgMTUzIDU4MCAxNDVRNTgwIDE0NCA1NzYgMTMwUTU2OCAxMDEgNTU0IDczVDUwOCAxN1Q0MzkgLTEwUTM5MiAtMTAgMzcxIDE3VDM1MCA3M1EzNTAgOTIgMzg2IDE5M1Q0MjMgMzQ1UTQyMyA0MDQgMzc5IDQwNEgzNzRRMjg4IDQwNCAyMjkgMzAzTDIyMiAyOTFMMTg5IDE1N1ExNTYgMjYgMTUxIDE2UTEzOCAtMTEgMTA4IC0xMVE5NSAtMTEgODcgLTVUNzYgN1Q3NCAxN1E3NCAzMCAxMTIgMTgwVDE1MiAzNDNRMTUzIDM0OCAxNTMgMzY2UTE1MyA0MDUgMTI5IDQwNVE5MSA0MDUgNjYgMzA1UTYwIDI4NSA2MCAyODRRNTggMjc4IDQxIDI3OEgyN1EyMSAyODQgMjEgMjg3WiIgaWQ9Ik1KWC0xMTgtVEVYLUktMUQ0NUIiLz48cGF0aCBkPSJNMzQgMTU5UTM0IDI2OCAxMjAgMzU1VDMwNiA0NDJRMzYyIDQ0MiAzOTQgNDE4VDQyNyAzNTVRNDI3IDMyNiA0MDggMzA2VDM2MCAyODVRMzQxIDI4NSAzMzAgMjk1VDMxOSAzMjVUMzMwIDM1OVQzNTIgMzgwVDM2NiAzODZIMzY3UTM2NyAzODggMzYxIDM5MlQzNDAgNDAwVDMwNiA0MDRRMjc2IDQwNCAyNDkgMzkwUTIyOCAzODEgMjA2IDM1OVExNjIgMzE1IDE0MiAyMzVUMTIxIDExOVExMjEgNzMgMTQ3IDUwUTE2OSAyNiAyMDUgMjZIMjA5UTMyMSAyNiAzOTQgMTExUTQwMyAxMjEgNDA2IDEyMVE0MTAgMTIxIDQxOSAxMTJUNDI5IDk4VDQyMCA4M1QzOTEgNTVUMzQ2IDI1VDI4MiAwVDIwMiAtMTFRMTI3IC0xMSA4MSAzN1QzNCAxNTlaIiBpZD0iTUpYLTExOC1URVgtSS0xRDQ1MCIvPjxwYXRoIGQ9Ik0yMyAyODdRMjQgMjkwIDI1IDI5NVQzMCAzMTdUNDAgMzQ4VDU1IDM4MVQ3NSA0MTFUMTAxIDQzM1QxMzQgNDQyUTIwOSA0NDIgMjMwIDM3OEwyNDAgMzg3UTMwMiA0NDIgMzU4IDQ0MlE0MjMgNDQyIDQ2MCAzOTVUNDk3IDI4MVE0OTcgMTczIDQyMSA4MlQyNDkgLTEwUTIyNyAtMTAgMjEwIC00UTE5OSAxIDE4NyAxMVQxNjggMjhMMTYxIDM2UTE2MCAzNSAxMzkgLTUxVDExOCAtMTM4UTExOCAtMTQ0IDEyNiAtMTQ1VDE2MyAtMTQ4SDE4OFExOTQgLTE1NSAxOTQgLTE1N1QxOTEgLTE3NVExODggLTE4NyAxODUgLTE5MFQxNzIgLTE5NFExNzAgLTE5NCAxNjEgLTE5NFQxMjcgLTE5M1Q2NSAtMTkyUS01IC0xOTIgLTI0IC0xOTRILTMyUS0zOSAtMTg3IC0zOSAtMTgzUS0zNyAtMTU2IC0yNiAtMTQ4SC02UTI4IC0xNDcgMzMgLTEzNlEzNiAtMTMwIDk0IDEwM1QxNTUgMzUwUTE1NiAzNTUgMTU2IDM2NFExNTYgNDA1IDEzMSA0MDVRMTA5IDQwNSA5NCAzNzdUNzEgMzE2VDU5IDI4MFE1NyAyNzggNDMgMjc4SDI5UTIzIDI4NCAyMyAyODdaTTE3OCAxMDJRMjAwIDI2IDI1MiAyNlEyODIgMjYgMzEwIDQ5VDM1NiAxMDdRMzc0IDE0MSAzOTIgMjE1VDQxMSAzMjVWMzMxUTQxMSA0MDUgMzUwIDQwNVEzMzkgNDA1IDMyOCA0MDJUMzA2IDM5M1QyODYgMzgwVDI2OSAzNjVUMjU0IDM1MFQyNDMgMzM2VDIzNSAzMjZMMjMyIDMyMlEyMzIgMzIxIDIyOSAzMDhUMjE4IDI2NFQyMDQgMjEyUTE3OCAxMDYgMTc4IDEwMloiIGlkPSJNSlgtMTE4LVRFWC1JLTFENDVEIi8+PHBhdGggZD0iTTIxIDI4N1EyMSAyOTUgMzAgMzE4VDU1IDM3MFQ5OSA0MjBUMTU4IDQ0MlEyMDQgNDQyIDIyNyA0MTdUMjUwIDM1OFEyNTAgMzQwIDIxNiAyNDZUMTgyIDEwNVExODIgNjIgMTk2IDQ1VDIzOCAyN1QyOTEgNDRUMzI4IDc4TDMzOSA5NVEzNDEgOTkgMzc3IDI0N1E0MDcgMzY3IDQxMyAzODdUNDI3IDQxNlE0NDQgNDMxIDQ2MyA0MzFRNDgwIDQzMSA0ODggNDIxVDQ5NiA0MDJMNDIwIDg0UTQxOSA3OSA0MTkgNjhRNDE5IDQzIDQyNiAzNVQ0NDcgMjZRNDY5IDI5IDQ4MiA1N1Q1MTIgMTQ1UTUxNCAxNTMgNTMyIDE1M1E1NTEgMTUzIDU1MSAxNDRRNTUwIDEzOSA1NDkgMTMwVDU0MCA5OFQ1MjMgNTVUNDk4IDE3VDQ2MiAtOFE0NTQgLTEwIDQzOCAtMTBRMzcyIC0xMCAzNDcgNDZRMzQ1IDQ1IDMzNiAzNlQzMTggMjFUMjk2IDZUMjY3IC02VDIzMyAtMTFRMTg5IC0xMSAxNTUgN1ExMDMgMzggMTAzIDExM1ExMDMgMTcwIDEzOCAyNjJUMTczIDM3OVExNzMgMzgwIDE3MyAzODFRMTczIDM5MCAxNzMgMzkzVDE2OSA0MDBUMTU4IDQwNEgxNTRRMTMxIDQwNCAxMTIgMzg1VDgyIDM0NFQ2NSAzMDJUNTcgMjgwUTU1IDI3OCA0MSAyNzhIMjdRMjEgMjg0IDIxIDI4N1oiIGlkPSJNSlgtMTE4LVRFWC1JLTFENDYyIi8+PHBhdGggZD0iTTczIDY0N1E3MyA2NTcgNzcgNjcwVDg5IDY4M1E5MCA2ODMgMTYxIDY4OFQyMzQgNjk0UTI0NiA2OTQgMjQ2IDY4NVQyMTIgNTQyUTIwNCA1MDggMTk1IDQ3MlQxODAgNDE4TDE3NiAzOTlRMTc2IDM5NiAxODIgNDAyUTIzMSA0NDIgMjgzIDQ0MlEzNDUgNDQyIDM4MyAzOTZUNDIyIDI4MFE0MjIgMTY5IDM0MyA3OVQxNzMgLTExUTEyMyAtMTEgODIgMjdUNDAgMTUwVjE1OVE0MCAxODAgNDggMjE3VDk3IDQxNFExNDcgNjExIDE0NyA2MjNUMTA5IDYzN1ExMDQgNjM3IDEwMSA2MzdIOTZRODYgNjM3IDgzIDYzN1Q3NiA2NDBUNzMgNjQ3Wk0zMzYgMzI1VjMzMVEzMzYgNDA1IDI3NSA0MDVRMjU4IDQwNSAyNDAgMzk3VDIwNyAzNzZUMTgxIDM1MlQxNjMgMzMwTDE1NyAzMjJMMTM2IDIzNlExMTQgMTUwIDExNCAxMTRRMTE0IDY2IDEzOCA0MlExNTQgMjYgMTc4IDI2UTIxMSAyNiAyNDUgNThRMjcwIDgxIDI4NSAxMTRUMzE4IDIxOVEzMzYgMjkxIDMzNiAzMjVaIiBpZD0iTUpYLTExOC1URVgtSS0xRDQ0RiIvPjxwYXRoIGQ9Ik0xMjEgNjQ3UTEyMSA2NTcgMTI1IDY3MFQxMzcgNjgzUTEzOCA2ODMgMjA5IDY4OFQyODIgNjk0UTI5NCA2OTQgMjk0IDY4NlEyOTQgNjc5IDI0NCA0NzdRMTk0IDI3OSAxOTQgMjcyUTIxMyAyODIgMjIzIDI5MVEyNDcgMzA5IDI5MiAzNTRUMzYyIDQxNVE0MDIgNDQyIDQzOCA0NDJRNDY4IDQ0MiA0ODUgNDIzVDUwMyAzNjlRNTAzIDM0NCA0OTYgMzI3VDQ3NyAzMDJUNDU2IDI5MVQ0MzggMjg4UTQxOCAyODggNDA2IDI5OVQzOTQgMzI4UTM5NCAzNTMgNDEwIDM2OVQ0NDIgMzkwTDQ1OCAzOTNRNDQ2IDQwNSA0MzQgNDA1SDQzMFEzOTggNDAyIDM2NyAzODBUMjk0IDMxNlQyMjggMjU1UTIzMCAyNTQgMjQzIDI1MlQyNjcgMjQ2VDI5MyAyMzhUMzIwIDIyNFQzNDIgMjA2VDM1OSAxODBUMzY1IDE0N1EzNjUgMTMwIDM2MCAxMDZUMzU0IDY2UTM1NCAyNiAzODEgMjZRNDI5IDI2IDQ1OSAxNDVRNDYxIDE1MyA0NzkgMTUzSDQ4M1E0OTkgMTUzIDQ5OSAxNDRRNDk5IDEzOSA0OTYgMTMwUTQ1NSAtMTEgMzc4IC0xMVEzMzMgLTExIDMwNSAxNVQyNzcgOTBRMjc3IDEwOCAyODAgMTIxVDI4MyAxNDVRMjgzIDE2NyAyNjkgMTgzVDIzNCAyMDZUMjAwIDIxN1QxODIgMjIwSDE4MFExNjggMTc4IDE1OSAxMzlUMTQ1IDgxVDEzNiA0NFQxMjkgMjBUMTIyIDdUMTExIC0yUTk4IC0xMSA4MyAtMTFRNjYgLTExIDU3IC0xVDQ4IDE2UTQ4IDI2IDg1IDE3NlQxNTggNDcxTDE5NSA2MTZRMTk2IDYyOSAxODggNjMyVDE0OSA2MzdIMTQ0UTEzNCA2MzcgMTMxIDYzN1QxMjQgNjQwVDEyMSA2NDdaIiBpZD0iTUpYLTExOC1URVgtSS0xRDQ1OCIvPjxwYXRoIGQ9Ik0xMjcgNDYzUTEwMCA0NjMgODUgNDgwVDY5IDUyNFE2OSA1NzkgMTE3IDYyMlQyMzMgNjY1UTI2OCA2NjUgMjc3IDY2NFEzNTEgNjUyIDM5MCA2MTFUNDMwIDUyMlE0MzAgNDcwIDM5NiA0MjFUMzAyIDM1MEwyOTkgMzQ4UTI5OSAzNDcgMzA4IDM0NVQzMzcgMzM2VDM3NSAzMTVRNDU3IDI2MiA0NTcgMTc1UTQ1NyA5NiAzOTUgMzdUMjM4IC0yMlExNTggLTIyIDEwMCAyMVQ0MiAxMzBRNDIgMTU4IDYwIDE3NVQxMDUgMTkzUTEzMyAxOTMgMTUxIDE3NVQxNjkgMTMwUTE2OSAxMTkgMTY2IDExMFQxNTkgOTRUMTQ4IDgyVDEzNiA3NFQxMjYgNzBUMTE4IDY3TDExNCA2NlExNjUgMjEgMjM4IDIxUTI5MyAyMSAzMjEgNzRRMzM4IDEwNyAzMzggMTc1VjE5NVEzMzggMjkwIDI3NCAzMjJRMjU5IDMyOCAyMTMgMzI5TDE3MSAzMzBMMTY4IDMzMlExNjYgMzM1IDE2NiAzNDhRMTY2IDM2NiAxNzQgMzY2UTIwMiAzNjYgMjMyIDM3MVEyNjYgMzc2IDI5NCA0MTNUMzIyIDUyNVY1MzNRMzIyIDU5MCAyODcgNjEyUTI2NSA2MjYgMjQwIDYyNlEyMDggNjI2IDE4MSA2MTVUMTQzIDU5MlQxMzIgNTgwSDEzNVExMzggNTc5IDE0MyA1NzhUMTUzIDU3M1QxNjUgNTY2VDE3NSA1NTVUMTgzIDU0MFQxODYgNTIwUTE4NiA0OTggMTcyIDQ4MVQxMjcgNDYzWiIgaWQ9Ik1KWC0xMTgtVEVYLU4tMzMiLz48cGF0aCBkPSJNOTQgMjUwUTk0IDMxOSAxMDQgMzgxVDEyNyA0ODhUMTY0IDU3NlQyMDIgNjQzVDI0NCA2OTVUMjc3IDcyOVQzMDIgNzUwSDMxNUgzMTlRMzMzIDc1MCAzMzMgNzQxUTMzMyA3MzggMzE2IDcyMFQyNzUgNjY3VDIyNiA1ODFUMTg0IDQ0M1QxNjcgMjUwVDE4NCA1OFQyMjUgLTgxVDI3NCAtMTY3VDMxNiAtMjIwVDMzMyAtMjQxUTMzMyAtMjUwIDMxOCAtMjUwSDMxNUgzMDJMMjc0IC0yMjZRMTgwIC0xNDEgMTM3IC0xNFQ5NCAyNTBaIiBpZD0iTUpYLTExOC1URVgtTi0yOCIvPjxwYXRoIGQ9Ik0zOSAxNjhRMzkgMjI1IDU4IDI3MlQxMDcgMzUwVDE3NCA0MDJUMjQ0IDQzM1QzMDcgNDQySDMxMFEzNTUgNDQyIDM4OCA0MjBUNDIxIDM1NVE0MjEgMjY1IDMxMCAyMzdRMjYxIDIyNCAxNzYgMjIzUTEzOSAyMjMgMTM4IDIyMVExMzggMjE5IDEzMiAxODZUMTI1IDEyOFExMjUgODEgMTQ2IDU0VDIwOSAyNlQzMDIgNDVUMzk0IDExMVE0MDMgMTIxIDQwNiAxMjFRNDEwIDEyMSA0MTkgMTEyVDQyOSA5OFQ0MjAgODJUMzkwIDU1VDM0NCAyNFQyODEgLTFUMjA1IC0xMVExMjYgLTExIDgzIDQyVDM5IDE2OFpNMzczIDM1M1EzNjcgNDA1IDMwNSA0MDVRMjcyIDQwNSAyNDQgMzkxVDE5OSAzNTdUMTcwIDMxNlQxNTQgMjgwVDE0OSAyNjFRMTQ5IDI2MCAxNjkgMjYwUTI4MiAyNjAgMzI3IDI4NFQzNzMgMzUzWiIgaWQ9Ik1KWC0xMTgtVEVYLUktMUQ0NTIiLz48cGF0aCBkPSJNMjEgMjg3UTIxIDMwMSAzNiAzMzVUODQgNDA2VDE1OCA0NDJRMTk5IDQ0MiAyMjQgNDE5VDI1MCAzNTVRMjQ4IDMzNiAyNDcgMzM0UTI0NyAzMzEgMjMxIDI4OFQxOTggMTkxVDE4MiAxMDVRMTgyIDYyIDE5NiA0NVQyMzggMjdRMjYxIDI3IDI4MSAzOFQzMTIgNjFUMzM5IDk0UTMzOSA5NSAzNDQgMTE0VDM1OCAxNzNUMzc3IDI0N1E0MTUgMzk3IDQxOSA0MDRRNDMyIDQzMSA0NjIgNDMxUTQ3NSA0MzEgNDgzIDQyNFQ0OTQgNDEyVDQ5NiA0MDNRNDk2IDM5MCA0NDcgMTkzVDM5MSAtMjNRMzYzIC0xMDYgMjk0IC0xNTVUMTU2IC0yMDVRMTExIC0yMDUgNzcgLTE4M1Q0MyAtMTE3UTQzIC05NSA1MCAtODBUNjkgLTU4VDg5IC00OFQxMDYgLTQ1UTE1MCAtNDUgMTUwIC04N1ExNTAgLTEwNyAxMzggLTEyMlQxMTUgLTE0MlQxMDIgLTE0N0w5OSAtMTQ4UTEwMSAtMTUzIDExOCAtMTYwVDE1MiAtMTY3SDE2MFExNzcgLTE2NyAxODYgLTE2NVEyMTkgLTE1NiAyNDcgLTEyN1QyOTAgLTY1VDMxMyAtOVQzMjEgMjFMMzE1IDE3UTMwOSAxMyAyOTYgNlQyNzAgLTZRMjUwIC0xMSAyMzEgLTExUTE4NSAtMTEgMTUwIDExVDEwNCA4MlExMDMgODkgMTAzIDExM1ExMDMgMTcwIDEzOCAyNjJUMTczIDM3OVExNzMgMzgwIDE3MyAzODFRMTczIDM5MCAxNzMgMzkzVDE2OSA0MDBUMTU4IDQwNEgxNTRRMTMxIDQwNCAxMTIgMzg1VDgyIDM0NFQ2NSAzMDJUNTcgMjgwUTU1IDI3OCA0MSAyNzhIMjdRMjEgMjg0IDIxIDI4N1oiIGlkPSJNSlgtMTE4LVRFWC1JLTFENDY2Ii8+PHBhdGggZD0iTTYwIDc0OUw2NCA3NTBRNjkgNzUwIDc0IDc1MEg4NkwxMTQgNzI2UTIwOCA2NDEgMjUxIDUxNFQyOTQgMjUwUTI5NCAxODIgMjg0IDExOVQyNjEgMTJUMjI0IC03NlQxODYgLTE0M1QxNDUgLTE5NFQxMTMgLTIyN1Q5MCAtMjQ2UTg3IC0yNDkgODYgLTI1MEg3NFE2NiAtMjUwIDYzIC0yNTBUNTggLTI0N1Q1NSAtMjM4UTU2IC0yMzcgNjYgLTIyNVEyMjEgLTY0IDIyMSAyNTBUNjYgNzI1UTU2IDczNyA1NSA3MzhRNTUgNzQ2IDYwIDc0OVoiIGlkPSJNSlgtMTE4LVRFWC1OLTI5Ii8+PC9kZWZzPjxnIHRyYW5zZm9ybT0ibWF0cml4KDEgMCAwIC0xIDAgMCkiIHN0cm9rZS13aWR0aD0iMCIgZmlsbD0iY3VycmVudENvbG9yIiBzdHJva2U9ImN1cnJlbnRDb2xvciI+PGcgZGF0YS1tbWwtbm9kZT0ibWF0aCI+PGcgZGF0YS1tbWwtbm9kZT0ibWkiPjx1c2UgeGxpbms6aHJlZj0iI01KWC0xMTgtVEVYLUktMUQ0MzgiLz48L2c+PGcgdHJhbnNmb3JtPSJ0cmFuc2xhdGUoNzY0LCAwKSIgZGF0YS1tbWwtbm9kZT0ibWkiPjx1c2UgeGxpbms6aHJlZj0iI01KWC0xMTgtVEVYLUktMUQ0NUIiLz48L2c+PGcgdHJhbnNmb3JtPSJ0cmFuc2xhdGUoMTM2NCwgMCkiIGRhdGEtbW1sLW5vZGU9Im1zdWIiPjxnIGRhdGEtbW1sLW5vZGU9Im1pIj48dXNlIHhsaW5rOmhyZWY9IiNNSlgtMTE4LVRFWC1JLTFENDUwIi8+PC9nPjxnIGRhdGEtbWp4LXRleGNsYXNzPSJPUkQiIHRyYW5zZm9ybT0idHJhbnNsYXRlKDQzMywgLTE1MCkgc2NhbGUoMC43MDcpIiBkYXRhLW1tbC1ub2RlPSJUZVhBdG9tIj48ZyBkYXRhLW1tbC1ub2RlPSJtaSI+PHVzZSB4bGluazpocmVmPSIjTUpYLTExOC1URVgtSS0xRDQ1RCIvPjwvZz48ZyB0cmFuc2Zvcm09InRyYW5zbGF0ZSg1MDMsIDApIiBkYXRhLW1tbC1ub2RlPSJtaSI+PHVzZSB4bGluazpocmVmPSIjTUpYLTExOC1URVgtSS0xRDQ2MiIvPjwvZz48ZyB0cmFuc2Zvcm09InRyYW5zbGF0ZSgxMDc1LCAwKSIgZGF0YS1tbWwtbm9kZT0ibWkiPjx1c2UgeGxpbms6aHJlZj0iI01KWC0xMTgtVEVYLUktMUQ0NEYiLz48L2c+PGcgdHJhbnNmb3JtPSJ0cmFuc2xhdGUoMTUwNCwgMCkiIGRhdGEtbW1sLW5vZGU9Im1pIj48dXNlIHhsaW5rOmhyZWY9IiNNSlgtMTE4LVRFWC1JLTFENDU4Ii8+PC9nPjxnIHRyYW5zZm9ybT0idHJhbnNsYXRlKDIwMjUsIDApIiBkYXRhLW1tbC1ub2RlPSJtbiI+PHVzZSB4bGluazpocmVmPSIjTUpYLTExOC1URVgtTi0zMyIvPjwvZz48L2c+PC9nPjxnIHRyYW5zZm9ybT0idHJhbnNsYXRlKDM2MzIuNCwgMCkiIGRhdGEtbW1sLW5vZGU9Im1vIj48dXNlIHhsaW5rOmhyZWY9IiNNSlgtMTE4LVRFWC1OLTI4Ii8+PC9nPjxnIHRyYW5zZm9ybT0idHJhbnNsYXRlKDQwMjEuNCwgMCkiIGRhdGEtbW1sLW5vZGU9Im1pIj48dXNlIHhsaW5rOmhyZWY9IiNNSlgtMTE4LVRFWC1JLTFENDU4Ii8+PC9nPjxnIHRyYW5zZm9ybT0idHJhbnNsYXRlKDQ1NDIuNCwgMCkiIGRhdGEtbW1sLW5vZGU9Im1pIj48dXNlIHhsaW5rOmhyZWY9IiNNSlgtMTE4LVRFWC1JLTFENDUyIi8+PC9nPjxnIHRyYW5zZm9ybT0idHJhbnNsYXRlKDUwMDguNCwgMCkiIGRhdGEtbW1sLW5vZGU9Im1pIj48dXNlIHhsaW5rOmhyZWY9IiNNSlgtMTE4LVRFWC1JLTFENDY2Ii8+PC9nPjxnIHRyYW5zZm9ybT0idHJhbnNsYXRlKDU0OTguNCwgMCkiIGRhdGEtbW1sLW5vZGU9Im1uIj48dXNlIHhsaW5rOmhyZWY9IiNNSlgtMTE4LVRFWC1OLTMzIi8+PC9nPjxnIHRyYW5zZm9ybT0idHJhbnNsYXRlKDU5OTguNCwgMCkiIGRhdGEtbW1sLW5vZGU9Im1vIj48dXNlIHhsaW5rOmhyZWY9IiNNSlgtMTE4LVRFWC1OLTI5Ii8+PC9nPjwvZz48L2c+PC9zdmc+;" vertex="1" parent="1">
          <mxGeometry x="684" y="1560" width="61.9" height="10" as="geometry" />
        </mxCell>
      </root>
    </mxGraphModel>
  </diagram>
</mxfile>
